<?xml version="1.0" encoding="us-ascii" standalone="no"?><svg xmlns="http://www.w3.org/2000/svg" xmlns:xlink="http://www.w3.org/1999/xlink" contentStyleType="text/css" height="1557px" preserveAspectRatio="none" style="width:905px;height:1557px;background:#FFFFFF;" version="1.1" viewBox="0 0 905 1557" width="905px" zoomAndPan="magnify"><defs/><g><!--cluster datasource--><g id="cluster_datasource"><path d="M8.5,767 L88.5,767 A3.75,3.75 0 0 1 91,769.5 L98,791.6211 L668.5,791.6211 A2.5,2.5 0 0 1 671,794.1211 L671,1228.5 A2.5,2.5 0 0 1 668.5,1231 L8.5,1231 A2.5,2.5 0 0 1 6,1228.5 L6,769.5 A2.5,2.5 0 0 1 8.5,767 " fill="none" style="stroke:#000000;stroke-width:1.5;"/><line style="stroke:#000000;stroke-width:1.5;" x1="6" x2="98" y1="791.6211" y2="791.6211"/><text fill="#000000" font-family="sans-serif" font-size="14" font-weight="bold" lengthAdjust="spacing" textLength="79" x="10" y="784.1074">datasource</text></g><!--cluster exercises--><g id="cluster_exercises"><path d="M32.5,812 L102.5,812 A3.75,3.75 0 0 1 105,814.5 L112,836.6211 L644.5,836.6211 A2.5,2.5 0 0 1 647,839.1211 L647,1204.5 A2.5,2.5 0 0 1 644.5,1207 L32.5,1207 A2.5,2.5 0 0 1 30,1204.5 L30,814.5 A2.5,2.5 0 0 1 32.5,812 " fill="none" style="stroke:#000000;stroke-width:1.5;"/><line style="stroke:#000000;stroke-width:1.5;" x1="30" x2="112" y1="836.6211" y2="836.6211"/><text fill="#000000" font-family="sans-serif" font-size="14" font-weight="bold" lengthAdjust="spacing" textLength="69" x="34" y="829.1074">exercises</text></g><!--cluster models--><g id="cluster_models"><path d="M454.5,1255 L506.5,1255 A3.75,3.75 0 0 1 509,1257.5 L516,1279.6211 L719.5,1279.6211 A2.5,2.5 0 0 1 722,1282.1211 L722,1547.5 A2.5,2.5 0 0 1 719.5,1550 L454.5,1550 A2.5,2.5 0 0 1 452,1547.5 L452,1257.5 A2.5,2.5 0 0 1 454.5,1255 " fill="none" style="stroke:#000000;stroke-width:1.5;"/><line style="stroke:#000000;stroke-width:1.5;" x1="452" x2="516" y1="1279.6211" y2="1279.6211"/><text fill="#000000" font-family="sans-serif" font-size="14" font-weight="bold" lengthAdjust="spacing" textLength="51" x="456" y="1272.1074">models</text></g><!--cluster ui--><g id="cluster_ui"><path d="M206.5,108 L220.5,108 A3.75,3.75 0 0 1 223,110.5 L230,132.6211 L819.5,132.6211 A2.5,2.5 0 0 1 822,135.1211 L822,740.5 A2.5,2.5 0 0 1 819.5,743 L206.5,743 A2.5,2.5 0 0 1 204,740.5 L204,110.5 A2.5,2.5 0 0 1 206.5,108 " fill="none" style="stroke:#000000;stroke-width:1.5;"/><line style="stroke:#000000;stroke-width:1.5;" x1="204" x2="230" y1="132.6211" y2="132.6211"/><text fill="#000000" font-family="sans-serif" font-size="14" font-weight="bold" lengthAdjust="spacing" textLength="13" x="208" y="125.1074">ui</text></g><!--cluster screens--><g id="cluster_screens"><path d="M230.5,278 L288.5,278 A3.75,3.75 0 0 1 291,280.5 L298,302.6211 L795.5,302.6211 A2.5,2.5 0 0 1 798,305.1211 L798,716.5 A2.5,2.5 0 0 1 795.5,719 L230.5,719 A2.5,2.5 0 0 1 228,716.5 L228,280.5 A2.5,2.5 0 0 1 230.5,278 " fill="none" style="stroke:#000000;stroke-width:1.5;"/><line style="stroke:#000000;stroke-width:1.5;" x1="228" x2="298" y1="302.6211" y2="302.6211"/><text fill="#000000" font-family="sans-serif" font-size="14" font-weight="bold" lengthAdjust="spacing" textLength="57" x="232" y="295.1074">screens</text></g><!--cluster exercises--><g id="cluster_exercises"><path d="M262.5,331 L332.5,331 A3.75,3.75 0 0 1 335,333.5 L342,355.6211 L763.5,355.6211 A2.5,2.5 0 0 1 766,358.1211 L766,684.5 A2.5,2.5 0 0 1 763.5,687 L262.5,687 A2.5,2.5 0 0 1 260,684.5 L260,333.5 A2.5,2.5 0 0 1 262.5,331 " fill="none" style="stroke:#000000;stroke-width:1.5;"/><line style="stroke:#000000;stroke-width:1.5;" x1="260" x2="342" y1="355.6211" y2="355.6211"/><text fill="#000000" font-family="sans-serif" font-size="14" font-weight="bold" lengthAdjust="spacing" textLength="69" x="264" y="348.1074">exercises</text></g><!--cluster navigation--><g id="cluster_navigation"><path d="M331.5,153 L406.5,153 A3.75,3.75 0 0 1 409,155.5 L416,177.6211 L496.5,177.6211 A2.5,2.5 0 0 1 499,180.1211 L499,251.5 A2.5,2.5 0 0 1 496.5,254 L331.5,254 A2.5,2.5 0 0 1 329,251.5 L329,155.5 A2.5,2.5 0 0 1 331.5,153 " fill="none" style="stroke:#000000;stroke-width:1.5;"/><line style="stroke:#000000;stroke-width:1.5;" x1="329" x2="416" y1="177.6211" y2="177.6211"/><text fill="#000000" font-family="sans-serif" font-size="14" font-weight="bold" lengthAdjust="spacing" textLength="74" x="333" y="170.1074">navigation</text></g><!--class ExercisesDatabase--><g id="elem_ExercisesDatabase"><rect codeLine="9" fill="#F1F1F1" height="103.8633" id="ExercisesDatabase" rx="2.5" ry="2.5" style="stroke:#181818;stroke-width:0.5;" width="282" x="46" y="867.5"/><ellipse cx="122.25" cy="883.5" fill="#ADD1B2" rx="11" ry="11" style="stroke:#181818;stroke-width:1.0;"/><path d="M125.0156,879.375 Q125.1719,879.1563 125.3594,879.0469 Q125.5469,878.9375 125.7656,878.9375 Q126.1406,878.9375 126.375,879.2031 Q126.6094,879.4531 126.6094,880.0625 L126.6094,881.5156 Q126.6094,882.125 126.375,882.3906 Q126.1406,882.6563 125.7656,882.6563 Q125.4219,882.6563 125.2188,882.4531 Q125.0156,882.2656 124.9063,881.75 Q124.8594,881.3906 124.6719,881.2031 Q124.3438,880.8281 123.7344,880.6094 Q123.125,880.3906 122.5,880.3906 Q121.7344,880.3906 121.0938,880.7188 Q120.4688,881.0469 119.9688,881.7969 Q119.4844,882.5469 119.4844,883.5781 L119.4844,884.6719 Q119.4844,885.9063 120.375,886.7344 Q121.2656,887.5469 122.8594,887.5469 Q123.7969,887.5469 124.4531,887.2969 Q124.8438,887.1406 125.2656,886.7031 Q125.5313,886.4375 125.6719,886.3594 Q125.8281,886.2813 126.0313,886.2813 Q126.3594,886.2813 126.6094,886.5469 Q126.875,886.7969 126.875,887.1406 Q126.875,887.4844 126.5313,887.8906 Q126.0313,888.4688 125.2344,888.7969 Q124.1563,889.25 122.8594,889.25 Q121.3438,889.25 120.1406,888.625 Q119.1563,888.125 118.4688,887.0625 Q117.7813,885.9844 117.7813,884.7031 L117.7813,883.5469 Q117.7813,882.2188 118.3906,881.0781 Q119.0156,879.9219 120.1094,879.3125 Q121.2031,878.6875 122.4375,878.6875 Q123.1719,878.6875 123.8125,878.8594 Q124.4688,879.0156 125.0156,879.375 Z " fill="#000000"/><text fill="#000000" font-family="sans-serif" font-size="14" lengthAdjust="spacing" textLength="121" x="142.75" y="889.2969">ExercisesDatabase</text><line style="stroke:#181818;stroke-width:0.5;" x1="47" x2="327" y1="899.5" y2="899.5"/><rect fill="none" height="6" style="stroke:#C82930;stroke-width:1.0;" width="6" x="54" y="911.3105"/><text fill="#000000" font-family="sans-serif" font-size="14" lengthAdjust="spacing" textLength="200" x="66" y="918.6074">ExercisesDatabase? INSTANCE</text><line style="stroke:#181818;stroke-width:0.5;" x1="47" x2="327" y1="926.1211" y2="926.1211"/><ellipse cx="57" cy="940.9316" fill="#84BE84" rx="3" ry="3" style="stroke:#038048;stroke-width:1.0;"/><text fill="#000000" font-family="sans-serif" font-size="14" lengthAdjust="spacing" textLength="178" x="66" y="945.2285">ExerciseDao exercisesDao()</text><ellipse cx="57" cy="959.5527" fill="#84BE84" rx="3" ry="3" style="stroke:#038048;stroke-width:1.0;"/><text fill="#000000" font-family="sans-serif" font-size="14" lengthAdjust="spacing" textLength="256" x="66" y="963.8496">ExercisesDatabase getInstance(Context)</text></g><!--class ExercisesRepository--><g id="elem_ExercisesRepository"><rect codeLine="15" fill="#F1F1F1" height="141.1055" id="ExercisesRepository" rx="2.5" ry="2.5" style="stroke:#181818;stroke-width:0.5;" width="267" x="363.5" y="849"/><ellipse cx="428.75" cy="865" fill="#ADD1B2" rx="11" ry="11" style="stroke:#181818;stroke-width:1.0;"/><path d="M431.5156,860.875 Q431.6719,860.6563 431.8594,860.5469 Q432.0469,860.4375 432.2656,860.4375 Q432.6406,860.4375 432.875,860.7031 Q433.1094,860.9531 433.1094,861.5625 L433.1094,863.0156 Q433.1094,863.625 432.875,863.8906 Q432.6406,864.1563 432.2656,864.1563 Q431.9219,864.1563 431.7188,863.9531 Q431.5156,863.7656 431.4063,863.25 Q431.3594,862.8906 431.1719,862.7031 Q430.8438,862.3281 430.2344,862.1094 Q429.625,861.8906 429,861.8906 Q428.2344,861.8906 427.5938,862.2188 Q426.9688,862.5469 426.4688,863.2969 Q425.9844,864.0469 425.9844,865.0781 L425.9844,866.1719 Q425.9844,867.4063 426.875,868.2344 Q427.7656,869.0469 429.3594,869.0469 Q430.2969,869.0469 430.9531,868.7969 Q431.3438,868.6406 431.7656,868.2031 Q432.0313,867.9375 432.1719,867.8594 Q432.3281,867.7813 432.5313,867.7813 Q432.8594,867.7813 433.1094,868.0469 Q433.375,868.2969 433.375,868.6406 Q433.375,868.9844 433.0313,869.3906 Q432.5313,869.9688 431.7344,870.2969 Q430.6563,870.75 429.3594,870.75 Q427.8438,870.75 426.6406,870.125 Q425.6563,869.625 424.9688,868.5625 Q424.2813,867.4844 424.2813,866.2031 L424.2813,865.0469 Q424.2813,863.7188 424.8906,862.5781 Q425.5156,861.4219 426.6094,860.8125 Q427.7031,860.1875 428.9375,860.1875 Q429.6719,860.1875 430.3125,860.3594 Q430.9688,860.5156 431.5156,860.875 Z " fill="#000000"/><text fill="#000000" font-family="sans-serif" font-size="14" lengthAdjust="spacing" textLength="128" x="449.25" y="870.7969">ExercisesRepository</text><line style="stroke:#181818;stroke-width:0.5;" x1="364.5" x2="629.5" y1="881" y2="881"/><ellipse cx="374.5" cy="895.8105" fill="none" rx="3" ry="3" style="stroke:#038048;stroke-width:1.0;"/><text fill="#000000" font-family="sans-serif" font-size="14" lengthAdjust="spacing" textLength="241" x="383.5" y="900.1074">LiveData&lt;List&lt;Exercise&gt;&gt; readAllData</text><line style="stroke:#181818;stroke-width:0.5;" x1="364.5" x2="629.5" y1="907.6211" y2="907.6211"/><ellipse cx="374.5" cy="922.4316" fill="#84BE84" rx="3" ry="3" style="stroke:#038048;stroke-width:1.0;"/><text fill="#000000" font-family="sans-serif" font-size="14" lengthAdjust="spacing" textLength="170" x="383.5" y="926.7285">void addExercise(Exercise)</text><ellipse cx="374.5" cy="941.0527" fill="#84BE84" rx="3" ry="3" style="stroke:#038048;stroke-width:1.0;"/><text fill="#000000" font-family="sans-serif" font-size="14" lengthAdjust="spacing" textLength="185" x="383.5" y="945.3496">void deleteExercise(Exercise)</text><ellipse cx="374.5" cy="959.6738" fill="#84BE84" rx="3" ry="3" style="stroke:#038048;stroke-width:1.0;"/><text fill="#000000" font-family="sans-serif" font-size="14" lengthAdjust="spacing" textLength="190" x="383.5" y="963.9707">void updateExercise(Exercise)</text><ellipse cx="374.5" cy="978.2949" fill="#84BE84" rx="3" ry="3" style="stroke:#038048;stroke-width:1.0;"/><text fill="#000000" font-family="sans-serif" font-size="14" lengthAdjust="spacing" textLength="227" x="383.5" y="982.5918">LiveData&lt;Exercise&gt; getExercise(Int)</text></g><!--class ExerciseDao--><g id="elem_ExerciseDao"><rect codeLine="23" fill="#F1F1F1" height="141.1055" id="ExerciseDao" rx="2.5" ry="2.5" style="stroke:#181818;stroke-width:0.5;" width="253" x="280.5" y="1050"/><ellipse cx="363.25" cy="1066" fill="#ADD1B2" rx="11" ry="11" style="stroke:#181818;stroke-width:1.0;"/><path d="M366.0156,1061.875 Q366.1719,1061.6563 366.3594,1061.5469 Q366.5469,1061.4375 366.7656,1061.4375 Q367.1406,1061.4375 367.375,1061.7031 Q367.6094,1061.9531 367.6094,1062.5625 L367.6094,1064.0156 Q367.6094,1064.625 367.375,1064.8906 Q367.1406,1065.1563 366.7656,1065.1563 Q366.4219,1065.1563 366.2188,1064.9531 Q366.0156,1064.7656 365.9063,1064.25 Q365.8594,1063.8906 365.6719,1063.7031 Q365.3438,1063.3281 364.7344,1063.1094 Q364.125,1062.8906 363.5,1062.8906 Q362.7344,1062.8906 362.0938,1063.2188 Q361.4688,1063.5469 360.9688,1064.2969 Q360.4844,1065.0469 360.4844,1066.0781 L360.4844,1067.1719 Q360.4844,1068.4063 361.375,1069.2344 Q362.2656,1070.0469 363.8594,1070.0469 Q364.7969,1070.0469 365.4531,1069.7969 Q365.8438,1069.6406 366.2656,1069.2031 Q366.5313,1068.9375 366.6719,1068.8594 Q366.8281,1068.7813 367.0313,1068.7813 Q367.3594,1068.7813 367.6094,1069.0469 Q367.875,1069.2969 367.875,1069.6406 Q367.875,1069.9844 367.5313,1070.3906 Q367.0313,1070.9688 366.2344,1071.2969 Q365.1563,1071.75 363.8594,1071.75 Q362.3438,1071.75 361.1406,1071.125 Q360.1563,1070.625 359.4688,1069.5625 Q358.7813,1068.4844 358.7813,1067.2031 L358.7813,1066.0469 Q358.7813,1064.7188 359.3906,1063.5781 Q360.0156,1062.4219 361.1094,1061.8125 Q362.2031,1061.1875 363.4375,1061.1875 Q364.1719,1061.1875 364.8125,1061.3594 Q365.4688,1061.5156 366.0156,1061.875 Z " fill="#000000"/><text fill="#000000" font-family="sans-serif" font-size="14" lengthAdjust="spacing" textLength="79" x="383.75" y="1071.7969">ExerciseDao</text><line style="stroke:#181818;stroke-width:0.5;" x1="281.5" x2="532.5" y1="1082" y2="1082"/><line style="stroke:#181818;stroke-width:0.5;" x1="281.5" x2="532.5" y1="1090" y2="1090"/><ellipse cx="291.5" cy="1104.8105" fill="#84BE84" rx="3" ry="3" style="stroke:#038048;stroke-width:1.0;"/><text fill="#000000" font-family="sans-serif" font-size="14" lengthAdjust="spacing" textLength="128" x="300.5" y="1109.1074">void insert(Exercise)</text><ellipse cx="291.5" cy="1123.4316" fill="#84BE84" rx="3" ry="3" style="stroke:#038048;stroke-width:1.0;"/><text fill="#000000" font-family="sans-serif" font-size="14" lengthAdjust="spacing" textLength="137" x="300.5" y="1127.7285">void update(Exercise)</text><ellipse cx="291.5" cy="1142.0527" fill="#84BE84" rx="3" ry="3" style="stroke:#038048;stroke-width:1.0;"/><text fill="#000000" font-family="sans-serif" font-size="14" lengthAdjust="spacing" textLength="132" x="300.5" y="1146.3496">void delete(Exercise)</text><ellipse cx="291.5" cy="1160.6738" fill="#84BE84" rx="3" ry="3" style="stroke:#038048;stroke-width:1.0;"/><text fill="#000000" font-family="sans-serif" font-size="14" lengthAdjust="spacing" textLength="227" x="300.5" y="1164.9707">LiveData&lt;Exercise&gt; getExercise(Int)</text><ellipse cx="291.5" cy="1179.2949" fill="#84BE84" rx="3" ry="3" style="stroke:#038048;stroke-width:1.0;"/><text fill="#000000" font-family="sans-serif" font-size="14" lengthAdjust="spacing" textLength="212" x="300.5" y="1183.5918">LiveData&lt;List&lt;Exercise&gt;&gt; getAll()</text></g><!--class Exercise--><g id="elem_Exercise"><rect codeLine="33" fill="#F1F1F1" height="242.2109" id="Exercise" rx="2.5" ry="2.5" style="stroke:#181818;stroke-width:0.5;" width="238" x="468" y="1292"/><ellipse cx="556.25" cy="1308" fill="#ADD1B2" rx="11" ry="11" style="stroke:#181818;stroke-width:1.0;"/><path d="M559.0156,1303.875 Q559.1719,1303.6563 559.3594,1303.5469 Q559.5469,1303.4375 559.7656,1303.4375 Q560.1406,1303.4375 560.375,1303.7031 Q560.6094,1303.9531 560.6094,1304.5625 L560.6094,1306.0156 Q560.6094,1306.625 560.375,1306.8906 Q560.1406,1307.1563 559.7656,1307.1563 Q559.4219,1307.1563 559.2188,1306.9531 Q559.0156,1306.7656 558.9063,1306.25 Q558.8594,1305.8906 558.6719,1305.7031 Q558.3438,1305.3281 557.7344,1305.1094 Q557.125,1304.8906 556.5,1304.8906 Q555.7344,1304.8906 555.0938,1305.2188 Q554.4688,1305.5469 553.9688,1306.2969 Q553.4844,1307.0469 553.4844,1308.0781 L553.4844,1309.1719 Q553.4844,1310.4063 554.375,1311.2344 Q555.2656,1312.0469 556.8594,1312.0469 Q557.7969,1312.0469 558.4531,1311.7969 Q558.8438,1311.6406 559.2656,1311.2031 Q559.5313,1310.9375 559.6719,1310.8594 Q559.8281,1310.7813 560.0313,1310.7813 Q560.3594,1310.7813 560.6094,1311.0469 Q560.875,1311.2969 560.875,1311.6406 Q560.875,1311.9844 560.5313,1312.3906 Q560.0313,1312.9688 559.2344,1313.2969 Q558.1563,1313.75 556.8594,1313.75 Q555.3438,1313.75 554.1406,1313.125 Q553.1563,1312.625 552.4688,1311.5625 Q551.7813,1310.4844 551.7813,1309.2031 L551.7813,1308.0469 Q551.7813,1306.7188 552.3906,1305.5781 Q553.0156,1304.4219 554.1094,1303.8125 Q555.2031,1303.1875 556.4375,1303.1875 Q557.1719,1303.1875 557.8125,1303.3594 Q558.4688,1303.5156 559.0156,1303.875 Z " fill="#000000"/><text fill="#000000" font-family="sans-serif" font-size="14" lengthAdjust="spacing" textLength="53" x="576.75" y="1313.7969">Exercise</text><line style="stroke:#181818;stroke-width:0.5;" x1="469" x2="705" y1="1324" y2="1324"/><line style="stroke:#181818;stroke-width:1.0;" x1="469" x2="705" y1="1332" y2="1332"/><ellipse cx="479" cy="1346.8105" fill="none" rx="3" ry="3" style="stroke:#038048;stroke-width:1.0;"/><text fill="#000000" font-family="sans-serif" font-size="14" lengthAdjust="spacing" textLength="62" x="488" y="1351.1074">id: Int = 0,</text><ellipse cx="479" cy="1365.4316" fill="none" rx="3" ry="3" style="stroke:#038048;stroke-width:1.0;"/><text fill="#000000" font-family="sans-serif" font-size="14" lengthAdjust="spacing" textLength="110" x="488" y="1369.7285">name: String = "",</text><ellipse cx="479" cy="1384.0527" fill="none" rx="3" ry="3" style="stroke:#038048;stroke-width:1.0;"/><text fill="#000000" font-family="sans-serif" font-size="14" lengthAdjust="spacing" textLength="142" x="488" y="1388.3496">numberOfSets: Int = 0,</text><ellipse cx="479" cy="1402.6738" fill="none" rx="3" ry="3" style="stroke:#038048;stroke-width:1.0;"/><text fill="#000000" font-family="sans-serif" font-size="14" lengthAdjust="spacing" textLength="185" x="488" y="1406.9707">numberOfRepetitions: Int = 0,</text><ellipse cx="479" cy="1421.2949" fill="none" rx="3" ry="3" style="stroke:#038048;stroke-width:1.0;"/><text fill="#000000" font-family="sans-serif" font-size="14" lengthAdjust="spacing" textLength="158" x="488" y="1425.5918">weightInKilos: Float = 0F,</text><ellipse cx="479" cy="1439.916" fill="none" rx="3" ry="3" style="stroke:#038048;stroke-width:1.0;"/><text fill="#000000" font-family="sans-serif" font-size="14" lengthAdjust="spacing" textLength="113" x="488" y="1444.2129">image: String = "",</text><ellipse cx="479" cy="1458.5371" fill="none" rx="3" ry="3" style="stroke:#038048;stroke-width:1.0;"/><text fill="#000000" font-family="sans-serif" font-size="14" lengthAdjust="spacing" textLength="212" x="488" y="1462.834">dropSetEnabled: Boolean = false,</text><ellipse cx="479" cy="1477.1582" fill="none" rx="3" ry="3" style="stroke:#038048;stroke-width:1.0;"/><text fill="#000000" font-family="sans-serif" font-size="14" lengthAdjust="spacing" textLength="144" x="488" y="1481.4551">firstWeight: Float = 0F,</text><ellipse cx="479" cy="1495.7793" fill="none" rx="3" ry="3" style="stroke:#038048;stroke-width:1.0;"/><text fill="#000000" font-family="sans-serif" font-size="14" lengthAdjust="spacing" textLength="167" x="488" y="1500.0762">secondWeight: Float = 0F,</text><ellipse cx="479" cy="1514.4004" fill="none" rx="3" ry="3" style="stroke:#038048;stroke-width:1.0;"/><text fill="#000000" font-family="sans-serif" font-size="14" lengthAdjust="spacing" textLength="149" x="488" y="1518.6973">thirdWeight: Float = 0F,</text><line style="stroke:#181818;stroke-width:1.0;" x1="469" x2="705" y1="1526.2109" y2="1526.2109"/></g><!--class ExerciseViewModel--><g id="elem_ExerciseViewModel"><rect codeLine="50" fill="#F1F1F1" height="159.7266" id="ExerciseViewModel" rx="2.5" ry="2.5" style="stroke:#181818;stroke-width:0.5;" width="253" x="312.5" y="503"/><ellipse cx="374.75" cy="519" fill="#ADD1B2" rx="11" ry="11" style="stroke:#181818;stroke-width:1.0;"/><path d="M377.5156,514.875 Q377.6719,514.6563 377.8594,514.5469 Q378.0469,514.4375 378.2656,514.4375 Q378.6406,514.4375 378.875,514.7031 Q379.1094,514.9531 379.1094,515.5625 L379.1094,517.0156 Q379.1094,517.625 378.875,517.8906 Q378.6406,518.1563 378.2656,518.1563 Q377.9219,518.1563 377.7188,517.9531 Q377.5156,517.7656 377.4063,517.25 Q377.3594,516.8906 377.1719,516.7031 Q376.8438,516.3281 376.2344,516.1094 Q375.625,515.8906 375,515.8906 Q374.2344,515.8906 373.5938,516.2188 Q372.9688,516.5469 372.4688,517.2969 Q371.9844,518.0469 371.9844,519.0781 L371.9844,520.1719 Q371.9844,521.4063 372.875,522.2344 Q373.7656,523.0469 375.3594,523.0469 Q376.2969,523.0469 376.9531,522.7969 Q377.3438,522.6406 377.7656,522.2031 Q378.0313,521.9375 378.1719,521.8594 Q378.3281,521.7813 378.5313,521.7813 Q378.8594,521.7813 379.1094,522.0469 Q379.375,522.2969 379.375,522.6406 Q379.375,522.9844 379.0313,523.3906 Q378.5313,523.9688 377.7344,524.2969 Q376.6563,524.75 375.3594,524.75 Q373.8438,524.75 372.6406,524.125 Q371.6563,523.625 370.9688,522.5625 Q370.2813,521.4844 370.2813,520.2031 L370.2813,519.0469 Q370.2813,517.7188 370.8906,516.5781 Q371.5156,515.4219 372.6094,514.8125 Q373.7031,514.1875 374.9375,514.1875 Q375.6719,514.1875 376.3125,514.3594 Q376.9688,514.5156 377.5156,514.875 Z " fill="#000000"/><text fill="#000000" font-family="sans-serif" font-size="14" lengthAdjust="spacing" textLength="120" x="395.25" y="524.7969">ExerciseViewModel</text><line style="stroke:#181818;stroke-width:0.5;" x1="313.5" x2="564.5" y1="535" y2="535"/><ellipse cx="323.5" cy="549.8105" fill="none" rx="3" ry="3" style="stroke:#038048;stroke-width:1.0;"/><text fill="#000000" font-family="sans-serif" font-size="14" lengthAdjust="spacing" textLength="211" x="332.5" y="554.1074">LiveData&lt;List&lt;Exercise&gt;&gt; allData</text><rect fill="none" height="6" style="stroke:#C82930;stroke-width:1.0;" width="6" x="320.5" y="565.4316"/><text fill="#000000" font-family="sans-serif" font-size="14" lengthAdjust="spacing" textLength="195" x="332.5" y="572.7285">ExercisesRepository repository</text><line style="stroke:#181818;stroke-width:0.5;" x1="313.5" x2="564.5" y1="580.2422" y2="580.2422"/><ellipse cx="323.5" cy="595.0527" fill="#84BE84" rx="3" ry="3" style="stroke:#038048;stroke-width:1.0;"/><text fill="#000000" font-family="sans-serif" font-size="14" lengthAdjust="spacing" textLength="227" x="332.5" y="599.3496">LiveData&lt;Exercise&gt; getExercise(Int)</text><ellipse cx="323.5" cy="613.6738" fill="#84BE84" rx="3" ry="3" style="stroke:#038048;stroke-width:1.0;"/><text fill="#000000" font-family="sans-serif" font-size="14" lengthAdjust="spacing" textLength="170" x="332.5" y="617.9707">void addExercise(Exercise)</text><ellipse cx="323.5" cy="632.2949" fill="#84BE84" rx="3" ry="3" style="stroke:#038048;stroke-width:1.0;"/><text fill="#000000" font-family="sans-serif" font-size="14" lengthAdjust="spacing" textLength="185" x="332.5" y="636.5918">void deleteExercise(Exercise)</text><ellipse cx="323.5" cy="650.916" fill="#84BE84" rx="3" ry="3" style="stroke:#038048;stroke-width:1.0;"/><text fill="#000000" font-family="sans-serif" font-size="14" lengthAdjust="spacing" textLength="190" x="332.5" y="655.2129">void updateExercise(Exercise)</text></g><!--class ExerciseViewModelFactory--><g id="elem_ExerciseViewModelFactory"><rect codeLine="59" fill="#F1F1F1" height="66.6211" id="ExerciseViewModelFactory" rx="2.5" ry="2.5" style="stroke:#181818;stroke-width:0.5;" width="260" x="284" y="376"/><ellipse cx="326" cy="392" fill="#ADD1B2" rx="11" ry="11" style="stroke:#181818;stroke-width:1.0;"/><path d="M328.7656,387.875 Q328.9219,387.6563 329.1094,387.5469 Q329.2969,387.4375 329.5156,387.4375 Q329.8906,387.4375 330.125,387.7031 Q330.3594,387.9531 330.3594,388.5625 L330.3594,390.0156 Q330.3594,390.625 330.125,390.8906 Q329.8906,391.1563 329.5156,391.1563 Q329.1719,391.1563 328.9688,390.9531 Q328.7656,390.7656 328.6563,390.25 Q328.6094,389.8906 328.4219,389.7031 Q328.0938,389.3281 327.4844,389.1094 Q326.875,388.8906 326.25,388.8906 Q325.4844,388.8906 324.8438,389.2188 Q324.2188,389.5469 323.7188,390.2969 Q323.2344,391.0469 323.2344,392.0781 L323.2344,393.1719 Q323.2344,394.4063 324.125,395.2344 Q325.0156,396.0469 326.6094,396.0469 Q327.5469,396.0469 328.2031,395.7969 Q328.5938,395.6406 329.0156,395.2031 Q329.2813,394.9375 329.4219,394.8594 Q329.5781,394.7813 329.7813,394.7813 Q330.1094,394.7813 330.3594,395.0469 Q330.625,395.2969 330.625,395.6406 Q330.625,395.9844 330.2813,396.3906 Q329.7813,396.9688 328.9844,397.2969 Q327.9063,397.75 326.6094,397.75 Q325.0938,397.75 323.8906,397.125 Q322.9063,396.625 322.2188,395.5625 Q321.5313,394.4844 321.5313,393.2031 L321.5313,392.0469 Q321.5313,390.7188 322.1406,389.5781 Q322.7656,388.4219 323.8594,387.8125 Q324.9531,387.1875 326.1875,387.1875 Q326.9219,387.1875 327.5625,387.3594 Q328.2188,387.5156 328.7656,387.875 Z " fill="#000000"/><text fill="#000000" font-family="sans-serif" font-size="14" lengthAdjust="spacing" textLength="168" x="346" y="397.7969">ExerciseViewModelFactory</text><line style="stroke:#181818;stroke-width:0.5;" x1="285" x2="543" y1="408" y2="408"/><line style="stroke:#181818;stroke-width:0.5;" x1="285" x2="543" y1="416" y2="416"/><ellipse cx="295" cy="430.8105" fill="#84BE84" rx="3" ry="3" style="stroke:#038048;stroke-width:1.0;"/><text fill="#000000" font-family="sans-serif" font-size="14" lengthAdjust="spacing" textLength="234" x="304" y="435.1074">void T create(modelClass: Class&lt;T&gt;)</text></g><!--class ExercisesScreens--><g id="elem_ExercisesScreens"><rect fill="#F1F1F1" height="48" id="ExercisesScreens" rx="2.5" ry="2.5" style="stroke:#181818;stroke-width:0.5;" width="144" x="579" y="385.5"/><ellipse cx="594" cy="401.5" fill="#ADD1B2" rx="11" ry="11" style="stroke:#181818;stroke-width:1.0;"/><path d="M596.7656,397.375 Q596.9219,397.1563 597.1094,397.0469 Q597.2969,396.9375 597.5156,396.9375 Q597.8906,396.9375 598.125,397.2031 Q598.3594,397.4531 598.3594,398.0625 L598.3594,399.5156 Q598.3594,400.125 598.125,400.3906 Q597.8906,400.6563 597.5156,400.6563 Q597.1719,400.6563 596.9688,400.4531 Q596.7656,400.2656 596.6563,399.75 Q596.6094,399.3906 596.4219,399.2031 Q596.0938,398.8281 595.4844,398.6094 Q594.875,398.3906 594.25,398.3906 Q593.4844,398.3906 592.8438,398.7188 Q592.2188,399.0469 591.7188,399.7969 Q591.2344,400.5469 591.2344,401.5781 L591.2344,402.6719 Q591.2344,403.9063 592.125,404.7344 Q593.0156,405.5469 594.6094,405.5469 Q595.5469,405.5469 596.2031,405.2969 Q596.5938,405.1406 597.0156,404.7031 Q597.2813,404.4375 597.4219,404.3594 Q597.5781,404.2813 597.7813,404.2813 Q598.1094,404.2813 598.3594,404.5469 Q598.625,404.7969 598.625,405.1406 Q598.625,405.4844 598.2813,405.8906 Q597.7813,406.4688 596.9844,406.7969 Q595.9063,407.25 594.6094,407.25 Q593.0938,407.25 591.8906,406.625 Q590.9063,406.125 590.2188,405.0625 Q589.5313,403.9844 589.5313,402.7031 L589.5313,401.5469 Q589.5313,400.2188 590.1406,399.0781 Q590.7656,397.9219 591.8594,397.3125 Q592.9531,396.6875 594.1875,396.6875 Q594.9219,396.6875 595.5625,396.8594 Q596.2188,397.0156 596.7656,397.375 Z " fill="#000000"/><text fill="#000000" font-family="sans-serif" font-size="14" lengthAdjust="spacing" textLength="112" x="608" y="407.2969">ExercisesScreens</text><line style="stroke:#181818;stroke-width:0.5;" x1="580" x2="722" y1="417.5" y2="417.5"/><line style="stroke:#181818;stroke-width:0.5;" x1="580" x2="722" y1="425.5" y2="425.5"/></g><path d="M603,554.5 L691,554.5 A3.75,3.75 0 0 1 693.5,557 L700.5,579.1211 L705,579.1211 A2.5,2.5 0 0 1 707.5,581.6211 L707.5,609.2422 A2.5,2.5 0 0 1 705,611.7422 L603,611.7422 A2.5,2.5 0 0 1 600.5,609.2422 L600.5,557 A2.5,2.5 0 0 1 603,554.5 " fill="#F1F1F1" style="stroke:#181818;stroke-width:0.5;"/><line style="stroke:#181818;stroke-width:0.5;" x1="600.5" x2="700.5" y1="579.1211" y2="579.1211"/><text fill="#000000" font-family="sans-serif" font-size="14" font-weight="bold" lengthAdjust="spacing" textLength="87" x="604.5" y="571.6074">components</text><!--class NavigationGraph--><g id="elem_NavigationGraph"><rect codeLine="82" fill="#F1F1F1" height="48" id="NavigationGraph" rx="2.5" ry="2.5" style="stroke:#181818;stroke-width:0.5;" width="138" x="345" y="190"/><ellipse cx="360" cy="206" fill="#ADD1B2" rx="11" ry="11" style="stroke:#181818;stroke-width:1.0;"/><path d="M362.7656,201.875 Q362.9219,201.6563 363.1094,201.5469 Q363.2969,201.4375 363.5156,201.4375 Q363.8906,201.4375 364.125,201.7031 Q364.3594,201.9531 364.3594,202.5625 L364.3594,204.0156 Q364.3594,204.625 364.125,204.8906 Q363.8906,205.1563 363.5156,205.1563 Q363.1719,205.1563 362.9688,204.9531 Q362.7656,204.7656 362.6563,204.25 Q362.6094,203.8906 362.4219,203.7031 Q362.0938,203.3281 361.4844,203.1094 Q360.875,202.8906 360.25,202.8906 Q359.4844,202.8906 358.8438,203.2188 Q358.2188,203.5469 357.7188,204.2969 Q357.2344,205.0469 357.2344,206.0781 L357.2344,207.1719 Q357.2344,208.4063 358.125,209.2344 Q359.0156,210.0469 360.6094,210.0469 Q361.5469,210.0469 362.2031,209.7969 Q362.5938,209.6406 363.0156,209.2031 Q363.2813,208.9375 363.4219,208.8594 Q363.5781,208.7813 363.7813,208.7813 Q364.1094,208.7813 364.3594,209.0469 Q364.625,209.2969 364.625,209.6406 Q364.625,209.9844 364.2813,210.3906 Q363.7813,210.9688 362.9844,211.2969 Q361.9063,211.75 360.6094,211.75 Q359.0938,211.75 357.8906,211.125 Q356.9063,210.625 356.2188,209.5625 Q355.5313,208.4844 355.5313,207.2031 L355.5313,206.0469 Q355.5313,204.7188 356.1406,203.5781 Q356.7656,202.4219 357.8594,201.8125 Q358.9531,201.1875 360.1875,201.1875 Q360.9219,201.1875 361.5625,201.3594 Q362.2188,201.5156 362.7656,201.875 Z " fill="#000000"/><text fill="#000000" font-family="sans-serif" font-size="14" lengthAdjust="spacing" textLength="106" x="374" y="211.7969">NavigationGraph</text><line style="stroke:#181818;stroke-width:0.5;" x1="346" x2="482" y1="222" y2="222"/><line style="stroke:#181818;stroke-width:0.5;" x1="346" x2="482" y1="230" y2="230"/></g><!--class MainActivity--><g id="elem_MainActivity"><rect codeLine="86" fill="#F1F1F1" height="85.2422" id="MainActivity" rx="2.5" ry="2.5" style="stroke:#181818;stroke-width:0.5;" width="309" x="259.5" y="7"/><ellipse cx="372.75" cy="23" fill="#ADD1B2" rx="11" ry="11" style="stroke:#181818;stroke-width:1.0;"/><path d="M375.5156,18.875 Q375.6719,18.6563 375.8594,18.5469 Q376.0469,18.4375 376.2656,18.4375 Q376.6406,18.4375 376.875,18.7031 Q377.1094,18.9531 377.1094,19.5625 L377.1094,21.0156 Q377.1094,21.625 376.875,21.8906 Q376.6406,22.1563 376.2656,22.1563 Q375.9219,22.1563 375.7188,21.9531 Q375.5156,21.7656 375.4063,21.25 Q375.3594,20.8906 375.1719,20.7031 Q374.8438,20.3281 374.2344,20.1094 Q373.625,19.8906 373,19.8906 Q372.2344,19.8906 371.5938,20.2188 Q370.9688,20.5469 370.4688,21.2969 Q369.9844,22.0469 369.9844,23.0781 L369.9844,24.1719 Q369.9844,25.4063 370.875,26.2344 Q371.7656,27.0469 373.3594,27.0469 Q374.2969,27.0469 374.9531,26.7969 Q375.3438,26.6406 375.7656,26.2031 Q376.0313,25.9375 376.1719,25.8594 Q376.3281,25.7813 376.5313,25.7813 Q376.8594,25.7813 377.1094,26.0469 Q377.375,26.2969 377.375,26.6406 Q377.375,26.9844 377.0313,27.3906 Q376.5313,27.9688 375.7344,28.2969 Q374.6563,28.75 373.3594,28.75 Q371.8438,28.75 370.6406,28.125 Q369.6563,27.625 368.9688,26.5625 Q368.2813,25.4844 368.2813,24.2031 L368.2813,23.0469 Q368.2813,21.7188 368.8906,20.5781 Q369.5156,19.4219 370.6094,18.8125 Q371.7031,18.1875 372.9375,18.1875 Q373.6719,18.1875 374.3125,18.3594 Q374.9688,18.5156 375.5156,18.875 Z " fill="#000000"/><text fill="#000000" font-family="sans-serif" font-size="14" lengthAdjust="spacing" textLength="74" x="393.25" y="28.7969">MainActivity</text><line style="stroke:#181818;stroke-width:0.5;" x1="260.5" x2="567.5" y1="39" y2="39"/><line style="stroke:#181818;stroke-width:0.5;" x1="260.5" x2="567.5" y1="47" y2="47"/><ellipse cx="270.5" cy="61.8105" fill="#84BE84" rx="3" ry="3" style="stroke:#038048;stroke-width:1.0;"/><text fill="#000000" font-family="sans-serif" font-size="14" lengthAdjust="spacing" textLength="283" x="279.5" y="66.1074">void onCreate(savedInstanceState: Bundle?)</text><ellipse cx="270.5" cy="80.4316" fill="#84BE84" rx="3" ry="3" style="stroke:#038048;stroke-width:1.0;"/><text fill="#000000" font-family="sans-serif" font-size="14" lengthAdjust="spacing" textLength="163" x="279.5" y="84.7285">void MainActivityPreview()</text></g><g id="elem_GMN27"><path d="M838,200.5 L838,227.791 L898,227.791 L898,210.5 L888,200.5 L838,200.5 " fill="#FEFFDD" style="stroke:#181818;stroke-width:0.5;"/><path d="M888,200.5 L888,210.5 L898,210.5 L888,200.5 " fill="#FEFFDD" style="stroke:#181818;stroke-width:1.0;"/><text fill="#000000" font-family="sans-serif" font-size="13" lengthAdjust="spacing" textLength="39" x="844" y="219.5283">Brevity</text></g><!--link ExercisesRepository to Exercise--><g id="link_ExercisesRepository_Exercise"><path codeLine="68" d="M530.46,990.12 C538.37,1009.15 545.97,1030.04 551,1050 C570.97,1129.15 579.6135,1214.6594 583.6135,1285.8694 " fill="none" id="ExercisesRepository-to-Exercise" style="stroke:#181818;stroke-width:1.0;stroke-dasharray:7.0,7.0;"/><polygon fill="#181818" points="583.95,1291.86,587.439,1282.6498,583.6696,1286.8679,579.4515,1283.0985,583.95,1291.86" style="stroke:#181818;stroke-width:1.0;"/></g><!--link ExercisesRepository to ExerciseDao--><g id="link_ExercisesRepository_ExerciseDao"><path codeLine="69" d="M465.52,990.1 C456.75,1009.49 449.7026,1025.0832 440.9326,1044.4732 " fill="none" id="ExercisesRepository-to-ExerciseDao" style="stroke:#181818;stroke-width:1.0;stroke-dasharray:7.0,7.0;"/><polygon fill="#181818" points="438.46,1049.94,445.8135,1043.3882,440.5205,1045.3843,438.5244,1040.0914,438.46,1049.94" style="stroke:#181818;stroke-width:1.0;"/></g><!--link ExercisesDatabase to ExerciseDao--><g id="link_ExercisesDatabase_ExerciseDao"><path codeLine="70" d="M243.66,971.75 C269.88,995.47 297.0009,1019.9944 325.3609,1045.6544 " fill="none" id="ExercisesDatabase-to-ExerciseDao" style="stroke:#181818;stroke-width:1.0;stroke-dasharray:7.0,7.0;"/><polygon fill="#181818" points="329.81,1049.68,325.82,1040.6756,326.1024,1046.3254,320.4526,1046.6078,329.81,1049.68" style="stroke:#181818;stroke-width:1.0;"/></g><!--link ExerciseDao to Exercise--><g id="link_ExerciseDao_Exercise"><path codeLine="71" d="M450.11,1191.08 C468.84,1221.3 488.1495,1252.4699 509.4295,1286.8099 " fill="none" id="ExerciseDao-to-Exercise" style="stroke:#181818;stroke-width:1.0;stroke-dasharray:7.0,7.0;"/><polygon fill="#181818" points="512.59,1291.91,511.2494,1282.1528,509.9563,1287.6599,504.4492,1286.3668,512.59,1291.91" style="stroke:#181818;stroke-width:1.0;"/></g><!--link exercises to Exercise--><g id="link_exercises_Exercise"><path codeLine="74" d="M745.4751,688.661 C745.4217,689.2645 745.3682,689.8679 745.3144,690.4711 C745.2068,691.6776 745.0983,692.8836 744.9889,694.0889 C743.2383,713.3733 741.2525,732.4862 739,751 C712.35,970.09 703.76,1025.71 647,1239 C642.42,1256.2 638.8393,1268.4554 633.1193,1286.0054 " fill="none" id="exercises-to-Exercise" style="stroke:#181818;stroke-width:1.0;stroke-dasharray:7.0,7.0;"/><polygon fill="#181818" points="631.26,1291.71,637.852,1284.3926,632.8094,1286.9561,630.2458,1281.9135,631.26,1291.71" style="stroke:#181818;stroke-width:1.0;"/></g><!--link ExercisesScreens to ExerciseViewModel--><g id="link_ExercisesScreens_ExerciseViewModel"><path codeLine="77" d="M622.41,433.63 C600.26,451.55 572.8547,473.7163 541.7047,498.9163 " fill="none" id="ExercisesScreens-to-ExerciseViewModel" style="stroke:#181818;stroke-width:1.0;stroke-dasharray:7.0,7.0;"/><polygon fill="#181818" points="537.04,502.69,546.5528,500.1393,540.9272,499.5453,541.5212,493.9197,537.04,502.69" style="stroke:#181818;stroke-width:1.0;"/></g><!--link NavigationGraph to ExercisesScreens--><g id="link_NavigationGraph_ExercisesScreens"><path codeLine="92" d="M483.06,230.9 C509.4,239.38 538.47,251.92 561,270 C600.25,301.5 625.5405,349.4183 639.1005,379.8883 " fill="none" id="NavigationGraph-to-ExercisesScreens" style="stroke:#0000FF;stroke-width:1.0;stroke-dasharray:7.0,7.0;"/><polygon fill="#0000FF" points="641.54,385.37,641.5352,375.5211,639.5071,380.8019,634.2263,378.7738,641.54,385.37" style="stroke:#0000FF;stroke-width:1.0;"/></g><!--link ExercisesScreens to components--><g id="link_ExercisesScreens_components"><path codeLine="93" d="M651.4,433.63 C651.95,464.99 652.8244,514.9209 653.4144,548.4309 " fill="none" id="ExercisesScreens-to-components" style="stroke:#181818;stroke-width:1.0;stroke-dasharray:7.0,7.0;"/><polygon fill="#181818" points="653.52,554.43,657.3609,545.361,653.432,549.4308,649.3622,545.5018,653.52,554.43" style="stroke:#181818;stroke-width:1.0;"/></g><!--link GMN27 to ExercisesScreens--><g id="link_GMN27_ExercisesScreens"><path d="M837.87,220.44 C806.96,227.35 758.99,241.92 727,270 C690.83,301.75 668.53,355.06 658.09,385.45 " fill="none" id="GMN27-ExercisesScreens" style="stroke:#181818;stroke-width:1.0;stroke-dasharray:7.0,7.0;"/></g><!--link NavigationGraph to ExerciseViewModel--><g id="link_NavigationGraph_ExerciseViewModel"><path codeLine="96" d="M344.76,223.21 C315.41,230.51 283.92,244.23 266,270 C222.11,333.13 232.77,373.66 266,443 C276.91,465.76 289.1724,481.8774 307.9124,499.3574 " fill="none" id="NavigationGraph-to-ExerciseViewModel" style="stroke:#0000FF;stroke-width:1.0;stroke-dasharray:7.0,7.0;"/><polygon fill="#0000FF" points="312.3,503.45,308.447,494.3861,308.6437,500.0395,302.9903,500.2362,312.3,503.45" style="stroke:#0000FF;stroke-width:1.0;"/></g><!--link NavigationGraph to ExerciseViewModelFactory--><g id="link_NavigationGraph_ExerciseViewModelFactory"><path codeLine="97" d="M414,238.34 C414,272.62 414,330.72 414,369.71 " fill="none" id="NavigationGraph-to-ExerciseViewModelFactory" style="stroke:#0000FF;stroke-width:1.0;stroke-dasharray:7.0,7.0;"/><polygon fill="#0000FF" points="414,375.71,418,366.71,414,370.71,410,366.71,414,375.71" style="stroke:#0000FF;stroke-width:1.0;"/></g><!--link MainActivity to NavigationGraph--><g id="link_MainActivity_NavigationGraph"><path codeLine="99" d="M414,92.35 C414,123.38 414,158.53 414,183.87 " fill="none" id="MainActivity-to-NavigationGraph" style="stroke:#181818;stroke-width:1.0;"/><polygon fill="#181818" points="414,189.87,418,180.87,414,184.87,410,180.87,414,189.87" style="stroke:#181818;stroke-width:1.0;"/></g><!--link ExerciseViewModel to ExercisesRepository--><g id="link_ExerciseViewModel_ExercisesRepository"><path codeLine="101" d="M452.75,663.27 C462.53,719.68 474.525,788.8582 483.905,842.9582 " fill="none" id="ExerciseViewModel-to-ExercisesRepository" style="stroke:#181818;stroke-width:1.0;stroke-dasharray:7.0,7.0;"/><polygon fill="#181818" points="484.93,848.87,487.3337,839.319,484.0758,843.9435,479.4513,840.6856,484.93,848.87" style="stroke:#181818;stroke-width:1.0;"/></g><!--SRC=[hLNVJzim47xtNs5j3otQ4c2F5HIL4hPgm2Q2jadJ7gx9DRLmxCXsIX7Q_pxdTrlIj0poakZkytTtd-yk2KH8ZvUVYBvd8W45CKsiwHfKn0GzFjgmUqk3IW0VIouLZHGyRW3EfGfH5UufX-2UzER697fmU9Xm42QDkHl8-33WeBKJCh0SCI6zqwqFzNvvj-E9x_dqjFCX0cBK2GH8Gp2WPQe2T769Ac0QDNqYr3vvOEfLrWkBd8B6qlkXzbo0fDYWPFyW1pZFZvxHoOr_DxePUniK3Nc4PYAq0H5WVoo5mQKfwFwIjgHkCP6Q6QaUwxIks08pkfChfir9XHmEgK88HvndlXAwa2oa48OLg5zz7Am2GkHei1kJ9bR8xPWwfpgThD0QFX5THMRwFgq6OqAZCbs9T1NotybrI6lnLjb-LOGje-cmMDguxJrL6Xsdv6VXWDfmz9GUVInD6S-0-aOn4LdxktUr8usdgBxDV3Jw-QdIQTi33JDCYkUO1sJHt3RRLyQbzLvo2Rd_iWAms4vfQ-nGoSJ6zGHCETgSpwNa2C9YPi0rLh0PKzhypCEqyMiCf0Yt-ysSgQtkKhCDhLFcwa0X2hqvpUl2_s3uS9tTI-7ik5be1iPf7JjLVvANTDEkuTjZzlOOlMAUjjH-2K6pE4goEshbomOexzfnTd10yzV9tN25if7ShkX42XIc53g_aLwpLgcHvGYGjbthjcdgkiFoJEr-sU5EiDqdEzZgRVnwhcnvjPL3UaMZrlAGrjvjFxgkRifQppRb-8Kh9-j4rgr1kl-p_fVHhNUn_q_M1XMmO15acsXj4wvvt9lwyxE2P5uYyuuguDV0n2WmRC5CrhTbqqenBffMmmB3wlVf6skokoaL8SUpWmgyIl5TuSAMRFUsZK2wSt5_lv_o5F_iqh1I-xLtqimL4T9a5vrGETiljgqwgymylbLHJMEyCL-vWmXPkrd76NPt1Y7xqUyUu9NDGVu1]--></g></svg>