<?xml version="1.0" encoding="us-ascii" standalone="no"?><svg xmlns="http://www.w3.org/2000/svg" xmlns:xlink="http://www.w3.org/1999/xlink" contentStyleType="text/css" height="766.8px" preserveAspectRatio="none" style="width:1223px;height:766px;background:#FFFFFF;" version="1.1" viewBox="0 0 1223 766" width="1223.4px" zoomAndPan="magnify"><defs/><g><!--cluster models--><g id="cluster_models"><path d="M1074.3,505.2082 L1105.5,505.2082 A2.25,2.25 0 0 1 1107,506.7082 L1111.2,519.9809 L1217.7,519.9809 A1.5,1.5 0 0 1 1219.2,521.4809 L1219.2,761.1082 A1.5,1.5 0 0 1 1217.7,762.6082 L1074.3,762.6082 A1.5,1.5 0 0 1 1072.8,761.1082 L1072.8,506.7082 A1.5,1.5 0 0 1 1074.3,505.2082 " fill="none" style="stroke:#000000;stroke-width:0.8999999999999999;"/><line style="stroke:#000000;stroke-width:0.8999999999999999;" x1="1072.8" x2="1111.2" y1="519.9809" y2="519.9809"/><text fill="#000000" font-family="sans-serif" font-size="8.4" font-weight="bold" lengthAdjust="spacing" textLength="30.6" x="1075.2" y="515.4727">models</text></g><!--cluster ui--><g id="cluster_ui"><path d="M5.1,3.6082 L13.5,3.6082 A2.25,2.25 0 0 1 15,5.1082 L19.2,18.3809 L1176.9,18.3809 A1.5,1.5 0 0 1 1178.4,19.8809 L1178.4,489.3082 A1.5,1.5 0 0 1 1176.9,490.8082 L5.1,490.8082 A1.5,1.5 0 0 1 3.6,489.3082 L3.6,5.1082 A1.5,1.5 0 0 1 5.1,3.6082 " fill="none" style="stroke:#000000;stroke-width:0.8999999999999999;"/><line style="stroke:#000000;stroke-width:0.8999999999999999;" x1="3.6" x2="19.2" y1="18.3809" y2="18.3809"/><text fill="#000000" font-family="sans-serif" font-size="8.4" font-weight="bold" lengthAdjust="spacing" textLength="7.8" x="6" y="13.8727">ui</text></g><!--cluster screens--><g id="cluster_screens"><path d="M203.7,30.6082 L238.5,30.6082 A2.25,2.25 0 0 1 240,32.1082 L244.2,45.3809 L1162.5,45.3809 A1.5,1.5 0 0 1 1164,46.8809 L1164,474.9082 A1.5,1.5 0 0 1 1162.5,476.4082 L203.7,476.4082 A1.5,1.5 0 0 1 202.2,474.9082 L202.2,32.1082 A1.5,1.5 0 0 1 203.7,30.6082 " fill="none" style="stroke:#000000;stroke-width:0.8999999999999999;"/><line style="stroke:#000000;stroke-width:0.8999999999999999;" x1="202.2" x2="244.2" y1="45.3809" y2="45.3809"/><text fill="#000000" font-family="sans-serif" font-size="8.4" font-weight="bold" lengthAdjust="spacing" textLength="34.2" x="204.6" y="40.8727">screens</text></g><!--cluster exercises--><g id="cluster_exercises"><path d="M218.1,57.6082 L260.1,57.6082 A2.25,2.25 0 0 1 261.6,59.1082 L265.8,72.3809 L1148.1,72.3809 A1.5,1.5 0 0 1 1149.6,73.8809 L1149.6,460.5082 A1.5,1.5 0 0 1 1148.1,462.0082 L218.1,462.0082 A1.5,1.5 0 0 1 216.6,460.5082 L216.6,59.1082 A1.5,1.5 0 0 1 218.1,57.6082 " fill="none" style="stroke:#000000;stroke-width:0.8999999999999999;"/><line style="stroke:#000000;stroke-width:0.8999999999999999;" x1="216.6" x2="265.8" y1="72.3809" y2="72.3809"/><text fill="#000000" font-family="sans-serif" font-size="8.4" font-weight="bold" lengthAdjust="spacing" textLength="41.4" x="219" y="67.8727">exercises</text></g><!--cluster components--><g id="cluster_components"><path d="M516.9,286.2082 L569.7,286.2082 A2.25,2.25 0 0 1 571.2,287.7082 L575.4,300.9809 L945.9,300.9809 A1.5,1.5 0 0 1 947.4,302.4809 L947.4,446.1082 A1.5,1.5 0 0 1 945.9,447.6082 L516.9,447.6082 A1.5,1.5 0 0 1 515.4,446.1082 L515.4,287.7082 A1.5,1.5 0 0 1 516.9,286.2082 " fill="none" style="stroke:#000000;stroke-width:0.8999999999999999;"/><line style="stroke:#000000;stroke-width:0.8999999999999999;" x1="515.4" x2="575.4" y1="300.9809" y2="300.9809"/><text fill="#000000" font-family="sans-serif" font-size="8.4" font-weight="bold" lengthAdjust="spacing" textLength="52.2" x="517.8" y="296.4727">components</text></g><!--cluster navigation--><g id="cluster_navigation"><path d="M19.5,191.1082 L64.5,191.1082 A2.25,2.25 0 0 1 66,192.6082 L70.2,205.8809 L186.3,205.8809 A1.5,1.5 0 0 1 187.8,207.3809 L187.8,250.2082 A1.5,1.5 0 0 1 186.3,251.7082 L19.5,251.7082 A1.5,1.5 0 0 1 18,250.2082 L18,192.6082 A1.5,1.5 0 0 1 19.5,191.1082 " fill="none" style="stroke:#000000;stroke-width:0.8999999999999999;"/><line style="stroke:#000000;stroke-width:0.8999999999999999;" x1="18" x2="70.2" y1="205.8809" y2="205.8809"/><text fill="#000000" font-family="sans-serif" font-size="8.4" font-weight="bold" lengthAdjust="spacing" textLength="44.4" x="20.4" y="201.3727">navigation</text></g><path d="M1003.8,566.1082 L1051.8,566.1082 A2.25,2.25 0 0 1 1053.3,567.6082 L1057.5,580.8809 L1060.2,580.8809 A1.5,1.5 0 0 1 1061.7,582.3809 L1061.7,598.9535 A1.5,1.5 0 0 1 1060.2,600.4535 L1003.8,600.4535 A1.5,1.5 0 0 1 1002.3,598.9535 L1002.3,567.6082 A1.5,1.5 0 0 1 1003.8,566.1082 " fill="#F1F1F1" style="stroke:#181818;stroke-width:0.3;"/><line style="stroke:#181818;stroke-width:0.3;" x1="1002.3" x2="1057.5" y1="580.8809" y2="580.8809"/><text fill="#000000" font-family="sans-serif" font-size="8.4" font-weight="bold" lengthAdjust="spacing" textLength="47.4" x="1004.7" y="576.3727">datasource</text><!--class Dropset--><g id="elem_Dropset"><rect codeLine="13" fill="#F1F1F1" height="78.2906" id="Dropset" rx="1.5" ry="1.5" style="stroke:#181818;stroke-width:0.3;" width="84.6" x="1103.7" y="675.0082"/><ellipse cx="1128.63" cy="684.6082" fill="#ADD1B2" rx="6.6" ry="6.6" style="stroke:#181818;stroke-width:0.6;"/><path d="M1130.2894,682.1332 Q1130.3831,682.002 1130.4956,681.9363 Q1130.6081,681.8707 1130.7394,681.8707 Q1130.9644,681.8707 1131.105,682.0301 Q1131.2456,682.1801 1131.2456,682.5457 L1131.2456,683.4176 Q1131.2456,683.7832 1131.105,683.9426 Q1130.9644,684.102 1130.7394,684.102 Q1130.5331,684.102 1130.4112,683.9801 Q1130.2894,683.8676 1130.2237,683.5582 Q1130.1956,683.3426 1130.0831,683.2301 Q1129.8863,683.0051 1129.5206,682.8738 Q1129.155,682.7426 1128.78,682.7426 Q1128.3206,682.7426 1127.9363,682.9395 Q1127.5613,683.1363 1127.2613,683.5863 Q1126.9706,684.0363 1126.9706,684.6551 L1126.9706,685.3113 Q1126.9706,686.052 1127.505,686.5488 Q1128.0394,687.0363 1128.9956,687.0363 Q1129.5581,687.0363 1129.9519,686.8863 Q1130.1863,686.7926 1130.4394,686.5301 Q1130.5987,686.3707 1130.6831,686.3238 Q1130.7769,686.277 1130.8987,686.277 Q1131.0956,686.277 1131.2456,686.4363 Q1131.405,686.5863 1131.405,686.7926 Q1131.405,686.9988 1131.1988,687.2426 Q1130.8987,687.5895 1130.4206,687.7863 Q1129.7737,688.0582 1128.9956,688.0582 Q1128.0862,688.0582 1127.3644,687.6832 Q1126.7737,687.3832 1126.3613,686.7457 Q1125.9488,686.0988 1125.9488,685.3301 L1125.9488,684.6363 Q1125.9488,683.8395 1126.3144,683.1551 Q1126.6894,682.4613 1127.3456,682.0957 Q1128.0019,681.7207 1128.7425,681.7207 Q1129.1831,681.7207 1129.5675,681.8238 Q1129.9612,681.9176 1130.2894,682.1332 Z " fill="#000000"/><text fill="#000000" font-family="sans-serif" font-size="8.4" lengthAdjust="spacing" textLength="30" x="1140.57" y="688.0863">Dropset</text><line style="stroke:#181818;stroke-width:0.3;" x1="1104.3" x2="1187.7" y1="694.2082" y2="694.2082"/><line style="stroke:#181818;stroke-width:0.6;" x1="1104.3" x2="1187.7" y1="699.0082" y2="699.0082"/><ellipse cx="1110.3" cy="707.8945" fill="none" rx="1.8" ry="1.8" style="stroke:#038048;stroke-width:0.6;"/><text fill="#000000" font-family="sans-serif" font-size="8.4" lengthAdjust="spacing" textLength="69" x="1115.7" y="710.4727">enabled: Boolean,</text><ellipse cx="1110.3" cy="719.0672" fill="none" rx="1.8" ry="1.8" style="stroke:#038048;stroke-width:0.6;"/><text fill="#000000" font-family="sans-serif" font-size="8.4" lengthAdjust="spacing" textLength="30" x="1115.7" y="721.6453">first: Int,</text><ellipse cx="1110.3" cy="730.2398" fill="none" rx="1.8" ry="1.8" style="stroke:#038048;stroke-width:0.6;"/><text fill="#000000" font-family="sans-serif" font-size="8.4" lengthAdjust="spacing" textLength="43.8" x="1115.7" y="732.818">second: Int,</text><ellipse cx="1110.3" cy="741.4125" fill="none" rx="1.8" ry="1.8" style="stroke:#038048;stroke-width:0.6;"/><text fill="#000000" font-family="sans-serif" font-size="8.4" lengthAdjust="spacing" textLength="30.6" x="1115.7" y="743.9906">third: Int</text><line style="stroke:#181818;stroke-width:0.6;" x1="1104.3" x2="1187.7" y1="748.4988" y2="748.4988"/></g><!--class Exercise--><g id="elem_Exercise"><rect codeLine="22" fill="#F1F1F1" height="111.8086" id="Exercise" rx="1.5" ry="1.5" style="stroke:#181818;stroke-width:0.3;" width="126.6" x="1082.7" y="527.4082"/><ellipse cx="1127.55" cy="537.0082" fill="#ADD1B2" rx="6.6" ry="6.6" style="stroke:#181818;stroke-width:0.6;"/><path d="M1129.2094,534.5332 Q1129.3031,534.402 1129.4156,534.3363 Q1129.5281,534.2707 1129.6594,534.2707 Q1129.8844,534.2707 1130.025,534.4301 Q1130.1656,534.5801 1130.1656,534.9457 L1130.1656,535.8176 Q1130.1656,536.1832 1130.025,536.3426 Q1129.8844,536.502 1129.6594,536.502 Q1129.4531,536.502 1129.3313,536.3801 Q1129.2094,536.2676 1129.1438,535.9582 Q1129.1156,535.7426 1129.0031,535.6301 Q1128.8062,535.4051 1128.4406,535.2738 Q1128.075,535.1426 1127.7,535.1426 Q1127.2406,535.1426 1126.8563,535.3395 Q1126.4813,535.5363 1126.1812,535.9863 Q1125.8906,536.4363 1125.8906,537.0551 L1125.8906,537.7113 Q1125.8906,538.452 1126.425,538.9488 Q1126.9594,539.4363 1127.9156,539.4363 Q1128.4781,539.4363 1128.8719,539.2863 Q1129.1063,539.1926 1129.3594,538.9301 Q1129.5188,538.7707 1129.6031,538.7238 Q1129.6969,538.677 1129.8188,538.677 Q1130.0156,538.677 1130.1656,538.8363 Q1130.325,538.9863 1130.325,539.1926 Q1130.325,539.3988 1130.1187,539.6426 Q1129.8188,539.9895 1129.3406,540.1863 Q1128.6938,540.4582 1127.9156,540.4582 Q1127.0063,540.4582 1126.2844,540.0832 Q1125.6938,539.7832 1125.2813,539.1457 Q1124.8687,538.4988 1124.8687,537.7301 L1124.8687,537.0363 Q1124.8687,536.2395 1125.2344,535.5551 Q1125.6094,534.8613 1126.2656,534.4957 Q1126.9219,534.1207 1127.6625,534.1207 Q1128.1031,534.1207 1128.4875,534.2238 Q1128.8813,534.3176 1129.2094,534.5332 Z " fill="#000000"/><text fill="#000000" font-family="sans-serif" font-size="8.4" lengthAdjust="spacing" textLength="31.8" x="1139.85" y="540.4863">Exercise</text><line style="stroke:#181818;stroke-width:0.3;" x1="1083.3" x2="1208.7" y1="546.6082" y2="546.6082"/><line style="stroke:#181818;stroke-width:0.6;" x1="1083.3" x2="1208.7" y1="551.4082" y2="551.4082"/><ellipse cx="1089.3" cy="560.2945" fill="none" rx="1.8" ry="1.8" style="stroke:#038048;stroke-width:0.6;"/><text fill="#000000" font-family="sans-serif" font-size="8.4" lengthAdjust="spacing" textLength="37.2" x="1094.7" y="562.8727">id: Int = 0,</text><ellipse cx="1089.3" cy="571.4672" fill="none" rx="1.8" ry="1.8" style="stroke:#038048;stroke-width:0.6;"/><text fill="#000000" font-family="sans-serif" font-size="8.4" lengthAdjust="spacing" textLength="66" x="1094.7" y="574.0453">name: String = "",</text><ellipse cx="1089.3" cy="582.6398" fill="none" rx="1.8" ry="1.8" style="stroke:#038048;stroke-width:0.6;"/><text fill="#000000" font-family="sans-serif" font-size="8.4" lengthAdjust="spacing" textLength="85.2" x="1094.7" y="585.218">numberOfSets: Int = 0,</text><ellipse cx="1089.3" cy="593.8125" fill="none" rx="1.8" ry="1.8" style="stroke:#038048;stroke-width:0.6;"/><text fill="#000000" font-family="sans-serif" font-size="8.4" lengthAdjust="spacing" textLength="111" x="1094.7" y="596.3906">numberOfRepetitions: Int = 0,</text><ellipse cx="1089.3" cy="604.9852" fill="none" rx="1.8" ry="1.8" style="stroke:#038048;stroke-width:0.6;"/><text fill="#000000" font-family="sans-serif" font-size="8.4" lengthAdjust="spacing" textLength="94.8" x="1094.7" y="607.5633">weightInKilos: Float = 0F,</text><ellipse cx="1089.3" cy="616.1578" fill="none" rx="1.8" ry="1.8" style="stroke:#038048;stroke-width:0.6;"/><text fill="#000000" font-family="sans-serif" font-size="8.4" lengthAdjust="spacing" textLength="67.8" x="1094.7" y="618.7359">image: String = "",</text><ellipse cx="1089.3" cy="627.3305" fill="none" rx="1.8" ry="1.8" style="stroke:#038048;stroke-width:0.6;"/><text fill="#000000" font-family="sans-serif" font-size="8.4" lengthAdjust="spacing" textLength="57" x="1094.7" y="629.9086">dropset: Int = 0</text><line style="stroke:#181818;stroke-width:0.6;" x1="1083.3" x2="1208.7" y1="634.4168" y2="634.4168"/></g><!--class ExercisesListScreen--><g id="elem_ExercisesListScreen"><rect codeLine="37" fill="#F1F1F1" height="67.118" id="ExercisesListScreen" rx="1.5" ry="1.5" style="stroke:#181818;stroke-width:0.3;" width="221.4" x="452.1" y="79.8082"/><ellipse cx="522.15" cy="89.4082" fill="#ADD1B2" rx="6.6" ry="6.6" style="stroke:#181818;stroke-width:0.6;"/><path d="M523.8094,86.9332 Q523.9031,86.802 524.0156,86.7363 Q524.1281,86.6707 524.2594,86.6707 Q524.4844,86.6707 524.625,86.8301 Q524.7656,86.9801 524.7656,87.3457 L524.7656,88.2176 Q524.7656,88.5832 524.625,88.7426 Q524.4844,88.902 524.2594,88.902 Q524.0531,88.902 523.9313,88.7801 Q523.8094,88.6676 523.7438,88.3582 Q523.7156,88.1426 523.6031,88.0301 Q523.4063,87.8051 523.0406,87.6738 Q522.675,87.5426 522.3,87.5426 Q521.8406,87.5426 521.4563,87.7395 Q521.0813,87.9363 520.7813,88.3863 Q520.4906,88.8363 520.4906,89.4551 L520.4906,90.1113 Q520.4906,90.852 521.025,91.3488 Q521.5594,91.8363 522.5156,91.8363 Q523.0781,91.8363 523.4719,91.6863 Q523.7063,91.5926 523.9594,91.3301 Q524.1188,91.1707 524.2031,91.1238 Q524.2969,91.077 524.4187,91.077 Q524.6156,91.077 524.7656,91.2363 Q524.925,91.3863 524.925,91.5926 Q524.925,91.7988 524.7188,92.0426 Q524.4187,92.3895 523.9406,92.5863 Q523.2937,92.8582 522.5156,92.8582 Q521.6062,92.8582 520.8844,92.4832 Q520.2937,92.1832 519.8813,91.5457 Q519.4688,90.8988 519.4688,90.1301 L519.4688,89.4363 Q519.4688,88.6395 519.8344,87.9551 Q520.2094,87.2613 520.8656,86.8957 Q521.5219,86.5207 522.2625,86.5207 Q522.7031,86.5207 523.0875,86.6238 Q523.4812,86.7176 523.8094,86.9332 Z " fill="#000000"/><text fill="#000000" font-family="sans-serif" font-size="8.4" lengthAdjust="spacing" textLength="76.2" x="534.45" y="92.8863">ExercisesListScreen</text><line style="stroke:#181818;stroke-width:0.3;" x1="452.7" x2="672.9" y1="99.0082" y2="99.0082"/><line style="stroke:#181818;stroke-width:0.6;" x1="452.7" x2="672.9" y1="103.8082" y2="103.8082"/><ellipse cx="458.7" cy="112.6945" fill="#84BE84" rx="1.8" ry="1.8" style="stroke:#038048;stroke-width:0.6;"/><text fill="#000000" font-family="sans-serif" font-size="8.4" lengthAdjust="spacing" textLength="79.2" x="464.1" y="115.2727">ExercisesListScreen(</text><text fill="#000000" font-family="sans-serif" font-size="8.4" lengthAdjust="spacing" textLength="126.6" x="464.1" y="126.4453">navController: NavHostController,</text><text fill="#000000" font-family="sans-serif" font-size="8.4" lengthAdjust="spacing" textLength="205.8" x="464.1" y="137.618">exerciseViewModel: ExerciseViewModel = viewModel())</text><line style="stroke:#181818;stroke-width:0.6;" x1="452.7" x2="672.9" y1="142.1262" y2="142.1262"/></g><!--class ExercisesAddScreen--><g id="elem_ExercisesAddScreen"><rect codeLine="45" fill="#F1F1F1" height="67.118" id="ExercisesAddScreen" rx="1.5" ry="1.5" style="stroke:#181818;stroke-width:0.3;" width="221.4" x="255.3" y="194.1082"/><ellipse cx="324.45" cy="203.7082" fill="#ADD1B2" rx="6.6" ry="6.6" style="stroke:#181818;stroke-width:0.6;"/><path d="M326.1094,201.2332 Q326.2031,201.102 326.3156,201.0363 Q326.4281,200.9707 326.5594,200.9707 Q326.7844,200.9707 326.925,201.1301 Q327.0656,201.2801 327.0656,201.6457 L327.0656,202.5176 Q327.0656,202.8832 326.925,203.0426 Q326.7844,203.202 326.5594,203.202 Q326.3531,203.202 326.2313,203.0801 Q326.1094,202.9676 326.0438,202.6582 Q326.0156,202.4426 325.9031,202.3301 Q325.7063,202.1051 325.3406,201.9738 Q324.975,201.8426 324.6,201.8426 Q324.1406,201.8426 323.7562,202.0395 Q323.3812,202.2363 323.0813,202.6863 Q322.7906,203.1363 322.7906,203.7551 L322.7906,204.4113 Q322.7906,205.152 323.325,205.6488 Q323.8594,206.1363 324.8156,206.1363 Q325.3781,206.1363 325.7719,205.9863 Q326.0062,205.8926 326.2594,205.6301 Q326.4188,205.4707 326.5031,205.4238 Q326.5969,205.377 326.7188,205.377 Q326.9156,205.377 327.0656,205.5363 Q327.225,205.6863 327.225,205.8926 Q327.225,206.0988 327.0188,206.3426 Q326.7188,206.6895 326.2406,206.8863 Q325.5938,207.1582 324.8156,207.1582 Q323.9063,207.1582 323.1844,206.7832 Q322.5938,206.4832 322.1813,205.8457 Q321.7688,205.1988 321.7688,204.4301 L321.7688,203.7363 Q321.7688,202.9395 322.1344,202.2551 Q322.5094,201.5613 323.1656,201.1957 Q323.8219,200.8207 324.5625,200.8207 Q325.0031,200.8207 325.3875,200.9238 Q325.7813,201.0176 326.1094,201.2332 Z " fill="#000000"/><text fill="#000000" font-family="sans-serif" font-size="8.4" lengthAdjust="spacing" textLength="78" x="336.75" y="207.1863">ExercisesAddScreen</text><line style="stroke:#181818;stroke-width:0.3;" x1="255.9" x2="476.1" y1="213.3082" y2="213.3082"/><line style="stroke:#181818;stroke-width:0.6;" x1="255.9" x2="476.1" y1="218.1082" y2="218.1082"/><ellipse cx="261.9" cy="226.9945" fill="#84BE84" rx="1.8" ry="1.8" style="stroke:#038048;stroke-width:0.6;"/><text fill="#000000" font-family="sans-serif" font-size="8.4" lengthAdjust="spacing" textLength="79.2" x="267.3" y="229.5727">ExercisesListScreen(</text><text fill="#000000" font-family="sans-serif" font-size="8.4" lengthAdjust="spacing" textLength="126.6" x="267.3" y="240.7453">navController: NavHostController,</text><text fill="#000000" font-family="sans-serif" font-size="8.4" lengthAdjust="spacing" textLength="205.8" x="267.3" y="251.918">exerciseViewModel: ExerciseViewModel = viewModel())</text><line style="stroke:#181818;stroke-width:0.6;" x1="255.9" x2="476.1" y1="256.4262" y2="256.4262"/></g><!--class ExercisesEditScreen--><g id="elem_ExercisesEditScreen"><rect codeLine="53" fill="#F1F1F1" height="89.4633" id="ExercisesEditScreen" rx="1.5" ry="1.5" style="stroke:#181818;stroke-width:0.3;" width="218.4" x="498" y="183.0082"/><ellipse cx="565.95" cy="192.6082" fill="#ADD1B2" rx="6.6" ry="6.6" style="stroke:#181818;stroke-width:0.6;"/><path d="M567.6094,190.1332 Q567.7031,190.002 567.8156,189.9363 Q567.9281,189.8707 568.0594,189.8707 Q568.2844,189.8707 568.425,190.0301 Q568.5656,190.1801 568.5656,190.5457 L568.5656,191.4176 Q568.5656,191.7832 568.425,191.9426 Q568.2844,192.102 568.0594,192.102 Q567.8531,192.102 567.7312,191.9801 Q567.6094,191.8676 567.5437,191.5582 Q567.5156,191.3426 567.4031,191.2301 Q567.2063,191.0051 566.8406,190.8738 Q566.475,190.7426 566.1,190.7426 Q565.6406,190.7426 565.2563,190.9395 Q564.8813,191.1363 564.5813,191.5863 Q564.2906,192.0363 564.2906,192.6551 L564.2906,193.3113 Q564.2906,194.052 564.825,194.5488 Q565.3594,195.0363 566.3156,195.0363 Q566.8781,195.0363 567.2719,194.8863 Q567.5063,194.7926 567.7594,194.5301 Q567.9187,194.3707 568.0031,194.3238 Q568.0969,194.277 568.2188,194.277 Q568.4156,194.277 568.5656,194.4363 Q568.725,194.5863 568.725,194.7926 Q568.725,194.9988 568.5188,195.2426 Q568.2188,195.5895 567.7406,195.7863 Q567.0938,196.0582 566.3156,196.0582 Q565.4063,196.0582 564.6844,195.6832 Q564.0938,195.3832 563.6813,194.7457 Q563.2688,194.0988 563.2688,193.3301 L563.2688,192.6363 Q563.2688,191.8395 563.6344,191.1551 Q564.0094,190.4613 564.6656,190.0957 Q565.3219,189.7207 566.0625,189.7207 Q566.5031,189.7207 566.8875,189.8238 Q567.2813,189.9176 567.6094,190.1332 Z " fill="#000000"/><text fill="#000000" font-family="sans-serif" font-size="8.4" lengthAdjust="spacing" textLength="77.4" x="578.25" y="196.0863">ExercisesEditScreen</text><line style="stroke:#181818;stroke-width:0.3;" x1="498.6" x2="715.8" y1="202.2082" y2="202.2082"/><line style="stroke:#181818;stroke-width:0.6;" x1="498.6" x2="715.8" y1="207.0082" y2="207.0082"/><ellipse cx="504.6" cy="215.8945" fill="#84BE84" rx="1.8" ry="1.8" style="stroke:#038048;stroke-width:0.6;"/><text fill="#000000" font-family="sans-serif" font-size="8.4" lengthAdjust="spacing" textLength="79.2" x="510" y="218.4727">ExercisesListScreen(</text><text fill="#000000" font-family="sans-serif" font-size="8.4" lengthAdjust="spacing" textLength="126.6" x="510" y="229.6453">navController: NavHostController,</text><text fill="#000000" font-family="sans-serif" font-size="8.4" lengthAdjust="spacing" textLength="202.8" x="510" y="240.818">exerciseViewModel: ExerciseViewModel = viewModel()</text><text fill="#000000" font-family="sans-serif" font-size="8.4" lengthAdjust="spacing" textLength="70.8" x="510" y="251.9906">exercise: Exercise)</text><text fill="#000000" font-family="sans-serif" font-size="8.4" lengthAdjust="spacing" textLength="2.4" x="510" y="263.1633">&#160;</text><line style="stroke:#181818;stroke-width:0.6;" x1="498.6" x2="715.8" y1="267.6715" y2="267.6715"/></g><!--class ExerciseViewModel--><g id="elem_ExerciseViewModel"><rect codeLine="64" fill="#F1F1F1" height="95.8359" id="ExerciseViewModel" rx="1.5" ry="1.5" style="stroke:#181818;stroke-width:0.3;" width="151.8" x="962.1" y="325.2082"/><ellipse cx="999.45" cy="334.8082" fill="#ADD1B2" rx="6.6" ry="6.6" style="stroke:#181818;stroke-width:0.6;"/><path d="M1001.1094,332.3332 Q1001.2031,332.202 1001.3156,332.1363 Q1001.4281,332.0707 1001.5594,332.0707 Q1001.7844,332.0707 1001.925,332.2301 Q1002.0656,332.3801 1002.0656,332.7457 L1002.0656,333.6176 Q1002.0656,333.9832 1001.925,334.1426 Q1001.7844,334.302 1001.5594,334.302 Q1001.3531,334.302 1001.2312,334.1801 Q1001.1094,334.0676 1001.0437,333.7582 Q1001.0156,333.5426 1000.9031,333.4301 Q1000.7063,333.2051 1000.3406,333.0738 Q999.975,332.9426 999.6,332.9426 Q999.1406,332.9426 998.7562,333.1395 Q998.3812,333.3363 998.0813,333.7863 Q997.7906,334.2363 997.7906,334.8551 L997.7906,335.5113 Q997.7906,336.252 998.325,336.7488 Q998.8594,337.2363 999.8156,337.2363 Q1000.3781,337.2363 1000.7719,337.0863 Q1001.0062,336.9926 1001.2594,336.7301 Q1001.4187,336.5707 1001.5031,336.5238 Q1001.5969,336.477 1001.7188,336.477 Q1001.9156,336.477 1002.0656,336.6363 Q1002.225,336.7863 1002.225,336.9926 Q1002.225,337.1988 1002.0188,337.4426 Q1001.7188,337.7895 1001.2406,337.9863 Q1000.5938,338.2582 999.8156,338.2582 Q998.9063,338.2582 998.1844,337.8832 Q997.5938,337.5832 997.1813,336.9457 Q996.7688,336.2988 996.7688,335.5301 L996.7688,334.8363 Q996.7688,334.0395 997.1344,333.3551 Q997.5094,332.6613 998.1656,332.2957 Q998.8219,331.9207 999.5625,331.9207 Q1000.0031,331.9207 1000.3875,332.0238 Q1000.7813,332.1176 1001.1094,332.3332 Z " fill="#000000"/><text fill="#000000" font-family="sans-serif" font-size="8.4" lengthAdjust="spacing" textLength="72" x="1011.75" y="338.2863">ExerciseViewModel</text><line style="stroke:#181818;stroke-width:0.3;" x1="962.7" x2="1113.3" y1="344.4082" y2="344.4082"/><ellipse cx="968.7" cy="353.2945" fill="none" rx="1.8" ry="1.8" style="stroke:#038048;stroke-width:0.6;"/><text fill="#000000" font-family="sans-serif" font-size="8.4" lengthAdjust="spacing" textLength="126.6" x="974.1" y="355.8727">LiveData&lt;List&lt;Exercise&gt;&gt; allData</text><rect fill="none" height="3.6" style="stroke:#C82930;stroke-width:0.6;" width="3.6" x="966.9" y="362.6672"/><text fill="#000000" font-family="sans-serif" font-size="8.4" lengthAdjust="spacing" textLength="117" x="974.1" y="367.0453">ExercisesRepository repository</text><line style="stroke:#181818;stroke-width:0.3;" x1="962.7" x2="1113.3" y1="371.5535" y2="371.5535"/><ellipse cx="968.7" cy="380.4398" fill="#84BE84" rx="1.8" ry="1.8" style="stroke:#038048;stroke-width:0.6;"/><text fill="#000000" font-family="sans-serif" font-size="8.4" lengthAdjust="spacing" textLength="136.2" x="974.1" y="383.018">LiveData&lt;Exercise&gt; getExercise(Int)</text><ellipse cx="968.7" cy="391.6125" fill="#84BE84" rx="1.8" ry="1.8" style="stroke:#038048;stroke-width:0.6;"/><text fill="#000000" font-family="sans-serif" font-size="8.4" lengthAdjust="spacing" textLength="102" x="974.1" y="394.1906">void addExercise(Exercise)</text><ellipse cx="968.7" cy="402.7852" fill="#84BE84" rx="1.8" ry="1.8" style="stroke:#038048;stroke-width:0.6;"/><text fill="#000000" font-family="sans-serif" font-size="8.4" lengthAdjust="spacing" textLength="111" x="974.1" y="405.3633">void deleteExercise(Exercise)</text><ellipse cx="968.7" cy="413.9578" fill="#84BE84" rx="1.8" ry="1.8" style="stroke:#038048;stroke-width:0.6;"/><text fill="#000000" font-family="sans-serif" font-size="8.4" lengthAdjust="spacing" textLength="114" x="974.1" y="416.5359">void updateExercise(Exercise)</text></g><!--class ExerciseViewModelFactory--><g id="elem_ExerciseViewModelFactory"><rect codeLine="73" fill="#F1F1F1" height="39.9727" id="ExerciseViewModelFactory" rx="1.5" ry="1.5" style="stroke:#181818;stroke-width:0.3;" width="156" x="961.8" y="207.6082"/><ellipse cx="987" cy="217.2082" fill="#ADD1B2" rx="6.6" ry="6.6" style="stroke:#181818;stroke-width:0.6;"/><path d="M988.6594,214.7332 Q988.7531,214.602 988.8656,214.5363 Q988.9781,214.4707 989.1094,214.4707 Q989.3344,214.4707 989.475,214.6301 Q989.6156,214.7801 989.6156,215.1457 L989.6156,216.0176 Q989.6156,216.3832 989.475,216.5426 Q989.3344,216.702 989.1094,216.702 Q988.9031,216.702 988.7813,216.5801 Q988.6594,216.4676 988.5938,216.1582 Q988.5656,215.9426 988.4531,215.8301 Q988.2562,215.6051 987.8906,215.4738 Q987.525,215.3426 987.15,215.3426 Q986.6906,215.3426 986.3063,215.5395 Q985.9313,215.7363 985.6312,216.1863 Q985.3406,216.6363 985.3406,217.2551 L985.3406,217.9113 Q985.3406,218.652 985.875,219.1488 Q986.4094,219.6363 987.3656,219.6363 Q987.9281,219.6363 988.3219,219.4863 Q988.5563,219.3926 988.8094,219.1301 Q988.9688,218.9707 989.0531,218.9238 Q989.1469,218.877 989.2688,218.877 Q989.4656,218.877 989.6156,219.0363 Q989.775,219.1863 989.775,219.3926 Q989.775,219.5988 989.5687,219.8426 Q989.2688,220.1895 988.7906,220.3863 Q988.1438,220.6582 987.3656,220.6582 Q986.4563,220.6582 985.7344,220.2832 Q985.1438,219.9832 984.7312,219.3457 Q984.3187,218.6988 984.3187,217.9301 L984.3187,217.2363 Q984.3187,216.4395 984.6844,215.7551 Q985.0594,215.0613 985.7156,214.6957 Q986.3719,214.3207 987.1125,214.3207 Q987.5531,214.3207 987.9375,214.4238 Q988.3313,214.5176 988.6594,214.7332 Z " fill="#000000"/><text fill="#000000" font-family="sans-serif" font-size="8.4" lengthAdjust="spacing" textLength="100.8" x="999" y="220.6863">ExerciseViewModelFactory</text><line style="stroke:#181818;stroke-width:0.3;" x1="962.4" x2="1117.2" y1="226.8082" y2="226.8082"/><line style="stroke:#181818;stroke-width:0.3;" x1="962.4" x2="1117.2" y1="231.6082" y2="231.6082"/><ellipse cx="968.4" cy="240.4945" fill="#84BE84" rx="1.8" ry="1.8" style="stroke:#038048;stroke-width:0.6;"/><text fill="#000000" font-family="sans-serif" font-size="8.4" lengthAdjust="spacing" textLength="140.4" x="973.8" y="243.0727">void T create(modelClass: Class&lt;T&gt;)</text></g><!--class ExercisesListContent--><g id="elem_ExercisesListContent"><rect codeLine="79" fill="#F1F1F1" height="62.318" id="ExercisesListContent" rx="1.5" ry="1.5" style="stroke:#181818;stroke-width:0.3;" width="142.2" x="777.9" y="196.5082"/><ellipse cx="806.85" cy="206.1082" fill="#ADD1B2" rx="6.6" ry="6.6" style="stroke:#181818;stroke-width:0.6;"/><path d="M808.5094,203.6332 Q808.6031,203.502 808.7156,203.4363 Q808.8281,203.3707 808.9594,203.3707 Q809.1844,203.3707 809.325,203.5301 Q809.4656,203.6801 809.4656,204.0457 L809.4656,204.9176 Q809.4656,205.2832 809.325,205.4426 Q809.1844,205.602 808.9594,205.602 Q808.7531,205.602 808.6313,205.4801 Q808.5094,205.3676 808.4438,205.0582 Q808.4156,204.8426 808.3031,204.7301 Q808.1062,204.5051 807.7406,204.3738 Q807.375,204.2426 807,204.2426 Q806.5406,204.2426 806.1563,204.4395 Q805.7813,204.6363 805.4812,205.0863 Q805.1906,205.5363 805.1906,206.1551 L805.1906,206.8113 Q805.1906,207.552 805.725,208.0488 Q806.2594,208.5363 807.2156,208.5363 Q807.7781,208.5363 808.1719,208.3863 Q808.4063,208.2926 808.6594,208.0301 Q808.8188,207.8707 808.9031,207.8238 Q808.9969,207.777 809.1188,207.777 Q809.3156,207.777 809.4656,207.9363 Q809.625,208.0863 809.625,208.2926 Q809.625,208.4988 809.4187,208.7426 Q809.1188,209.0895 808.6406,209.2863 Q807.9938,209.5582 807.2156,209.5582 Q806.3063,209.5582 805.5844,209.1832 Q804.9938,208.8832 804.5813,208.2457 Q804.1687,207.5988 804.1687,206.8301 L804.1687,206.1363 Q804.1687,205.3395 804.5344,204.6551 Q804.9094,203.9613 805.5656,203.5957 Q806.2219,203.2207 806.9625,203.2207 Q807.4031,203.2207 807.7875,203.3238 Q808.1813,203.4176 808.5094,203.6332 Z " fill="#000000"/><text fill="#000000" font-family="sans-serif" font-size="8.4" lengthAdjust="spacing" textLength="79.2" x="819.15" y="209.5863">ExercisesListContent</text><line style="stroke:#181818;stroke-width:0.3;" x1="778.5" x2="919.5" y1="215.7082" y2="215.7082"/><ellipse cx="784.5" cy="224.5945" fill="none" rx="1.8" ry="1.8" style="stroke:#038048;stroke-width:0.6;"/><text fill="#000000" font-family="sans-serif" font-size="8.4" lengthAdjust="spacing" textLength="126.6" x="789.9" y="227.1727">navController: NavHostController,</text><ellipse cx="784.5" cy="235.7672" fill="none" rx="1.8" ry="1.8" style="stroke:#038048;stroke-width:0.6;"/><text fill="#000000" font-family="sans-serif" font-size="8.4" lengthAdjust="spacing" textLength="110.4" x="789.9" y="238.3453">exercisesList: List&lt;Exercise&gt;,</text><line style="stroke:#181818;stroke-width:0.3;" x1="778.5" x2="919.5" y1="242.8535" y2="242.8535"/><ellipse cx="784.5" cy="251.7398" fill="#84BE84" rx="1.8" ry="1.8" style="stroke:#038048;stroke-width:0.6;"/><text fill="#000000" font-family="sans-serif" font-size="8.4" lengthAdjust="spacing" textLength="121.8" x="789.9" y="254.318">onDelete: (Exercise) -&gt; Unit = {},</text></g><!--class ExerciseAddContent--><g id="elem_ExerciseAddContent"><rect codeLine="85" fill="#F1F1F1" height="28.8" id="ExerciseAddContent" rx="1.5" ry="1.5" style="stroke:#181818;stroke-width:0.3;" width="96" x="226.2" y="358.8082"/><ellipse cx="235.2" cy="368.4082" fill="#ADD1B2" rx="6.6" ry="6.6" style="stroke:#181818;stroke-width:0.6;"/><path d="M236.8594,365.9332 Q236.9531,365.802 237.0656,365.7363 Q237.1781,365.6707 237.3094,365.6707 Q237.5344,365.6707 237.675,365.8301 Q237.8156,365.9801 237.8156,366.3457 L237.8156,367.2176 Q237.8156,367.5832 237.675,367.7426 Q237.5344,367.902 237.3094,367.902 Q237.1031,367.902 236.9813,367.7801 Q236.8594,367.6676 236.7938,367.3582 Q236.7656,367.1426 236.6531,367.0301 Q236.4562,366.8051 236.0906,366.6738 Q235.725,366.5426 235.35,366.5426 Q234.8906,366.5426 234.5063,366.7395 Q234.1313,366.9363 233.8312,367.3863 Q233.5406,367.8363 233.5406,368.4551 L233.5406,369.1113 Q233.5406,369.852 234.075,370.3488 Q234.6094,370.8363 235.5656,370.8363 Q236.1281,370.8363 236.5219,370.6863 Q236.7563,370.5926 237.0094,370.3301 Q237.1688,370.1707 237.2531,370.1238 Q237.3469,370.077 237.4688,370.077 Q237.6656,370.077 237.8156,370.2363 Q237.975,370.3863 237.975,370.5926 Q237.975,370.7988 237.7687,371.0426 Q237.4688,371.3895 236.9906,371.5863 Q236.3438,371.8582 235.5656,371.8582 Q234.6563,371.8582 233.9344,371.4832 Q233.3438,371.1832 232.9312,370.5457 Q232.5187,369.8988 232.5187,369.1301 L232.5187,368.4363 Q232.5187,367.6395 232.8844,366.9551 Q233.2594,366.2613 233.9156,365.8957 Q234.5719,365.5207 235.3125,365.5207 Q235.7531,365.5207 236.1375,365.6238 Q236.5313,365.7176 236.8594,365.9332 Z " fill="#000000"/><text fill="#000000" font-family="sans-serif" font-size="8.4" lengthAdjust="spacing" textLength="76.8" x="243.6" y="371.8863">ExerciseAddContent</text><line style="stroke:#181818;stroke-width:0.3;" x1="226.8" x2="321.6" y1="378.0082" y2="378.0082"/><line style="stroke:#181818;stroke-width:0.3;" x1="226.8" x2="321.6" y1="382.8082" y2="382.8082"/></g><!--class ExerciseEditContent--><g id="elem_ExerciseEditContent"><rect codeLine="88" fill="#F1F1F1" height="62.318" id="ExerciseEditContent" rx="1.5" ry="1.5" style="stroke:#181818;stroke-width:0.3;" width="160.8" x="343.2" y="342.0082"/><ellipse cx="382.95" cy="351.6082" fill="#ADD1B2" rx="6.6" ry="6.6" style="stroke:#181818;stroke-width:0.6;"/><path d="M384.6094,349.1332 Q384.7031,349.002 384.8156,348.9363 Q384.9281,348.8707 385.0594,348.8707 Q385.2844,348.8707 385.425,349.0301 Q385.5656,349.1801 385.5656,349.5457 L385.5656,350.4176 Q385.5656,350.7832 385.425,350.9426 Q385.2844,351.102 385.0594,351.102 Q384.8531,351.102 384.7313,350.9801 Q384.6094,350.8676 384.5438,350.5582 Q384.5156,350.3426 384.4031,350.2301 Q384.2063,350.0051 383.8406,349.8738 Q383.475,349.7426 383.1,349.7426 Q382.6406,349.7426 382.2562,349.9395 Q381.8812,350.1363 381.5813,350.5863 Q381.2906,351.0363 381.2906,351.6551 L381.2906,352.3113 Q381.2906,353.052 381.825,353.5488 Q382.3594,354.0363 383.3156,354.0363 Q383.8781,354.0363 384.2719,353.8863 Q384.5062,353.7926 384.7594,353.5301 Q384.9188,353.3707 385.0031,353.3238 Q385.0969,353.277 385.2188,353.277 Q385.4156,353.277 385.5656,353.4363 Q385.725,353.5863 385.725,353.7926 Q385.725,353.9988 385.5188,354.2426 Q385.2188,354.5895 384.7406,354.7863 Q384.0938,355.0582 383.3156,355.0582 Q382.4063,355.0582 381.6844,354.6832 Q381.0938,354.3832 380.6813,353.7457 Q380.2688,353.0988 380.2688,352.3301 L380.2688,351.6363 Q380.2688,350.8395 380.6344,350.1551 Q381.0094,349.4613 381.6656,349.0957 Q382.3219,348.7207 383.0625,348.7207 Q383.5031,348.7207 383.8875,348.8238 Q384.2813,348.9176 384.6094,349.1332 Z " fill="#000000"/><text fill="#000000" font-family="sans-serif" font-size="8.4" lengthAdjust="spacing" textLength="76.2" x="395.25" y="355.0863">ExerciseEditContent</text><line style="stroke:#181818;stroke-width:0.3;" x1="343.8" x2="503.4" y1="361.2082" y2="361.2082"/><text fill="#000000" font-family="sans-serif" font-size="8.4" lengthAdjust="spacing" textLength="126.6" x="346.8" y="372.6727">navController: NavHostController,</text><text fill="#000000" font-family="sans-serif" font-size="8.4" lengthAdjust="spacing" textLength="70.2" x="346.8" y="383.8453">exercise: Exercise,</text><line style="stroke:#181818;stroke-width:0.3;" x1="343.8" x2="503.4" y1="388.3535" y2="388.3535"/><text fill="#000000" font-family="sans-serif" font-size="8.4" lengthAdjust="spacing" textLength="153.6" x="346.8" y="399.818">onExerciseUpdate: (Exercise) -&gt; Unit = {}</text></g><!--class ExerciseCard--><g id="elem_ExerciseCard"><rect codeLine="96" fill="#F1F1F1" height="129.3539" id="ExerciseCard" rx="1.5" ry="1.5" style="stroke:#181818;stroke-width:0.3;" width="107.4" x="830.1" y="308.4082"/><ellipse cx="856.11" cy="318.0082" fill="#ADD1B2" rx="6.6" ry="6.6" style="stroke:#181818;stroke-width:0.6;"/><path d="M857.7694,315.5332 Q857.8631,315.402 857.9756,315.3363 Q858.0881,315.2707 858.2194,315.2707 Q858.4444,315.2707 858.585,315.4301 Q858.7256,315.5801 858.7256,315.9457 L858.7256,316.8176 Q858.7256,317.1832 858.585,317.3426 Q858.4444,317.502 858.2194,317.502 Q858.0131,317.502 857.8912,317.3801 Q857.7694,317.2676 857.7037,316.9582 Q857.6756,316.7426 857.5631,316.6301 Q857.3662,316.4051 857.0006,316.2738 Q856.635,316.1426 856.26,316.1426 Q855.8006,316.1426 855.4162,316.3395 Q855.0412,316.5363 854.7412,316.9863 Q854.4506,317.4363 854.4506,318.0551 L854.4506,318.7113 Q854.4506,319.452 854.985,319.9488 Q855.5194,320.4363 856.4756,320.4363 Q857.0381,320.4363 857.4319,320.2863 Q857.6662,320.1926 857.9194,319.9301 Q858.0787,319.7707 858.1631,319.7238 Q858.2569,319.677 858.3788,319.677 Q858.5756,319.677 858.7256,319.8363 Q858.885,319.9863 858.885,320.1926 Q858.885,320.3988 858.6787,320.6426 Q858.3788,320.9895 857.9006,321.1863 Q857.2538,321.4582 856.4756,321.4582 Q855.5663,321.4582 854.8444,321.0832 Q854.2538,320.7832 853.8413,320.1457 Q853.4287,319.4988 853.4287,318.7301 L853.4287,318.0363 Q853.4287,317.2395 853.7944,316.5551 Q854.1694,315.8613 854.8256,315.4957 Q855.4819,315.1207 856.2225,315.1207 Q856.6631,315.1207 857.0475,315.2238 Q857.4413,315.3176 857.7694,315.5332 Z " fill="#000000"/><text fill="#000000" font-family="sans-serif" font-size="8.4" lengthAdjust="spacing" textLength="50.4" x="868.29" y="321.4863">ExerciseCard</text><line style="stroke:#181818;stroke-width:0.3;" x1="830.7" x2="936.9" y1="327.6082" y2="327.6082"/><ellipse cx="836.7" cy="336.4945" fill="none" rx="1.8" ry="1.8" style="stroke:#038048;stroke-width:0.6;"/><text fill="#000000" font-family="sans-serif" font-size="8.4" lengthAdjust="spacing" textLength="67.2" x="842.1" y="339.0727">modifier: Modifier,</text><ellipse cx="836.7" cy="347.6672" fill="none" rx="1.8" ry="1.8" style="stroke:#038048;stroke-width:0.6;"/><text fill="#000000" font-family="sans-serif" font-size="8.4" lengthAdjust="spacing" textLength="70.2" x="842.1" y="350.2453">exercise: Exercise,</text><ellipse cx="836.7" cy="358.8398" fill="none" rx="1.8" ry="1.8" style="stroke:#038048;stroke-width:0.6;"/><text fill="#000000" font-family="sans-serif" font-size="8.4" lengthAdjust="spacing" textLength="81" x="842.1" y="361.418">showAction: Boolean,</text><ellipse cx="836.7" cy="370.0125" fill="none" rx="1.8" ry="1.8" style="stroke:#038048;stroke-width:0.6;"/><text fill="#000000" font-family="sans-serif" font-size="8.4" lengthAdjust="spacing" textLength="62.4" x="842.1" y="372.5906">imageWidth: Dp,</text><ellipse cx="836.7" cy="381.1852" fill="none" rx="1.8" ry="1.8" style="stroke:#038048;stroke-width:0.6;"/><text fill="#000000" font-family="sans-serif" font-size="8.4" lengthAdjust="spacing" textLength="67.2" x="842.1" y="383.7633">imageHeight: Dp ,</text><ellipse cx="836.7" cy="392.3578" fill="none" rx="1.8" ry="1.8" style="stroke:#038048;stroke-width:0.6;"/><text fill="#000000" font-family="sans-serif" font-size="8.4" lengthAdjust="spacing" textLength="83.4" x="842.1" y="394.9359">containerColor: Color,</text><ellipse cx="836.7" cy="403.5305" fill="none" rx="1.8" ry="1.8" style="stroke:#038048;stroke-width:0.6;"/><text fill="#000000" font-family="sans-serif" font-size="8.4" lengthAdjust="spacing" textLength="73.8" x="842.1" y="406.1086">contentColor: Color</text><line style="stroke:#181818;stroke-width:0.3;" x1="830.7" x2="936.9" y1="410.6168" y2="410.6168"/><ellipse cx="836.7" cy="419.5031" fill="#84BE84" rx="1.8" ry="1.8" style="stroke:#038048;stroke-width:0.6;"/><text fill="#000000" font-family="sans-serif" font-size="8.4" lengthAdjust="spacing" textLength="82.2" x="842.1" y="422.0813">editAction: (Exercise),</text><ellipse cx="836.7" cy="430.6758" fill="#84BE84" rx="1.8" ry="1.8" style="stroke:#038048;stroke-width:0.6;"/><text fill="#000000" font-family="sans-serif" font-size="8.4" lengthAdjust="spacing" textLength="91.8" x="842.1" y="433.2539">deleteAction: (Exercise),</text></g><!--class RemoveExerciseFromListDialog--><g id="elem_RemoveExerciseFromListDialog"><rect codeLine="107" fill="#F1F1F1" height="73.4906" id="RemoveExerciseFromListDialog" rx="1.5" ry="1.5" style="stroke:#181818;stroke-width:0.3;" width="139.2" x="669.6" y="336.6082"/><ellipse cx="678.6" cy="346.2082" fill="#ADD1B2" rx="6.6" ry="6.6" style="stroke:#181818;stroke-width:0.6;"/><path d="M680.2594,343.7332 Q680.3531,343.602 680.4656,343.5363 Q680.5781,343.4707 680.7094,343.4707 Q680.9344,343.4707 681.075,343.6301 Q681.2156,343.7801 681.2156,344.1457 L681.2156,345.0176 Q681.2156,345.3832 681.075,345.5426 Q680.9344,345.702 680.7094,345.702 Q680.5031,345.702 680.3813,345.5801 Q680.2594,345.4676 680.1938,345.1582 Q680.1656,344.9426 680.0531,344.8301 Q679.8562,344.6051 679.4906,344.4738 Q679.125,344.3426 678.75,344.3426 Q678.2906,344.3426 677.9063,344.5395 Q677.5313,344.7363 677.2312,345.1863 Q676.9406,345.6363 676.9406,346.2551 L676.9406,346.9113 Q676.9406,347.652 677.475,348.1488 Q678.0094,348.6363 678.9656,348.6363 Q679.5281,348.6363 679.9219,348.4863 Q680.1563,348.3926 680.4094,348.1301 Q680.5688,347.9707 680.6531,347.9238 Q680.7469,347.877 680.8688,347.877 Q681.0656,347.877 681.2156,348.0363 Q681.375,348.1863 681.375,348.3926 Q681.375,348.5988 681.1687,348.8426 Q680.8688,349.1895 680.3906,349.3863 Q679.7438,349.6582 678.9656,349.6582 Q678.0563,349.6582 677.3344,349.2832 Q676.7438,348.9832 676.3313,348.3457 Q675.9187,347.6988 675.9187,346.9301 L675.9187,346.2363 Q675.9187,345.4395 676.2844,344.7551 Q676.6594,344.0613 677.3156,343.6957 Q677.9719,343.3207 678.7125,343.3207 Q679.1531,343.3207 679.5375,343.4238 Q679.9313,343.5176 680.2594,343.7332 Z " fill="#000000"/><text fill="#000000" font-family="sans-serif" font-size="8.4" lengthAdjust="spacing" textLength="120" x="687" y="349.6863">RemoveExerciseFromListDialog</text><line style="stroke:#181818;stroke-width:0.3;" x1="670.2" x2="808.2" y1="355.8082" y2="355.8082"/><ellipse cx="676.2" cy="364.6945" fill="none" rx="1.8" ry="1.8" style="stroke:#038048;stroke-width:0.6;"/><text fill="#000000" font-family="sans-serif" font-size="8.4" lengthAdjust="spacing" textLength="66" x="681.6" y="367.2727">name: String = "",</text><ellipse cx="676.2" cy="375.8672" fill="none" rx="1.8" ry="1.8" style="stroke:#038048;stroke-width:0.6;"/><text fill="#000000" font-family="sans-serif" font-size="8.4" lengthAdjust="spacing" textLength="104.4" x="681.6" y="378.4453">modifier: Modifier = Modifier</text><line style="stroke:#181818;stroke-width:0.3;" x1="670.2" x2="808.2" y1="382.9535" y2="382.9535"/><ellipse cx="676.2" cy="391.8398" fill="#84BE84" rx="1.8" ry="1.8" style="stroke:#038048;stroke-width:0.6;"/><text fill="#000000" font-family="sans-serif" font-size="8.4" lengthAdjust="spacing" textLength="103.8" x="681.6" y="394.418">onDeleteConfirm: () -&gt; Unit,</text><ellipse cx="676.2" cy="403.0125" fill="#84BE84" rx="1.8" ry="1.8" style="stroke:#038048;stroke-width:0.6;"/><text fill="#000000" font-family="sans-serif" font-size="8.4" lengthAdjust="spacing" textLength="100.8" x="681.6" y="405.5906">onDeleteCancel: () -&gt; Unit,</text></g><!--class ImageChoices--><g id="elem_ImageChoices"><rect codeLine="113" fill="#F1F1F1" height="51.1453" id="ImageChoices" rx="1.5" ry="1.5" style="stroke:#181818;stroke-width:0.3;" width="123.6" x="525" y="347.7082"/><ellipse cx="557.55" cy="357.3082" fill="#ADD1B2" rx="6.6" ry="6.6" style="stroke:#181818;stroke-width:0.6;"/><path d="M559.2094,354.8332 Q559.3031,354.702 559.4156,354.6363 Q559.5281,354.5707 559.6594,354.5707 Q559.8844,354.5707 560.025,354.7301 Q560.1656,354.8801 560.1656,355.2457 L560.1656,356.1176 Q560.1656,356.4832 560.025,356.6426 Q559.8844,356.802 559.6594,356.802 Q559.4531,356.802 559.3313,356.6801 Q559.2094,356.5676 559.1438,356.2582 Q559.1156,356.0426 559.0031,355.9301 Q558.8063,355.7051 558.4406,355.5738 Q558.075,355.4426 557.7,355.4426 Q557.2406,355.4426 556.8562,355.6395 Q556.4812,355.8363 556.1813,356.2863 Q555.8906,356.7363 555.8906,357.3551 L555.8906,358.0113 Q555.8906,358.752 556.425,359.2488 Q556.9594,359.7363 557.9156,359.7363 Q558.4781,359.7363 558.8719,359.5863 Q559.1062,359.4926 559.3594,359.2301 Q559.5188,359.0707 559.6031,359.0238 Q559.6969,358.977 559.8188,358.977 Q560.0156,358.977 560.1656,359.1363 Q560.325,359.2863 560.325,359.4926 Q560.325,359.6988 560.1188,359.9426 Q559.8188,360.2895 559.3406,360.4863 Q558.6938,360.7582 557.9156,360.7582 Q557.0063,360.7582 556.2844,360.3832 Q555.6938,360.0832 555.2813,359.4457 Q554.8688,358.7988 554.8688,358.0301 L554.8688,357.3363 Q554.8688,356.5395 555.2344,355.8551 Q555.6094,355.1613 556.2656,354.7957 Q556.9219,354.4207 557.6625,354.4207 Q558.1031,354.4207 558.4875,354.5238 Q558.8813,354.6176 559.2094,354.8332 Z " fill="#000000"/><text fill="#000000" font-family="sans-serif" font-size="8.4" lengthAdjust="spacing" textLength="53.4" x="569.85" y="360.7863">ImageChoices</text><line style="stroke:#181818;stroke-width:0.3;" x1="525.6" x2="648" y1="366.9082" y2="366.9082"/><ellipse cx="531.6" cy="375.7945" fill="none" rx="1.8" ry="1.8" style="stroke:#038048;stroke-width:0.6;"/><text fill="#000000" font-family="sans-serif" font-size="8.4" lengthAdjust="spacing" textLength="62.4" x="537" y="378.3727">photos: List&lt;Int&gt;</text><line style="stroke:#181818;stroke-width:0.3;" x1="525.6" x2="648" y1="382.8809" y2="382.8809"/><ellipse cx="531.6" cy="391.7672" fill="#84BE84" rx="1.8" ry="1.8" style="stroke:#038048;stroke-width:0.6;"/><text fill="#000000" font-family="sans-serif" font-size="8.4" lengthAdjust="spacing" textLength="108" x="537" y="394.3453">onImageSelect: (Int) -&gt; Unit),</text></g><!--class Screen--><g id="elem_Screen"><rect codeLine="119" fill="#F1F1F1" height="28.8" id="Screen" rx="1.5" ry="1.5" style="stroke:#181818;stroke-width:0.3;" width="46.2" x="131.7" y="213.3082"/><ellipse cx="140.7" cy="222.9082" fill="#ADD1B2" rx="6.6" ry="6.6" style="stroke:#181818;stroke-width:0.6;"/><path d="M142.3594,220.4332 Q142.4531,220.302 142.5656,220.2363 Q142.6781,220.1707 142.8094,220.1707 Q143.0344,220.1707 143.175,220.3301 Q143.3156,220.4801 143.3156,220.8457 L143.3156,221.7176 Q143.3156,222.0832 143.175,222.2426 Q143.0344,222.402 142.8094,222.402 Q142.6031,222.402 142.4813,222.2801 Q142.3594,222.1676 142.2938,221.8582 Q142.2656,221.6426 142.1531,221.5301 Q141.9562,221.3051 141.5906,221.1738 Q141.225,221.0426 140.85,221.0426 Q140.3906,221.0426 140.0063,221.2395 Q139.6313,221.4363 139.3312,221.8863 Q139.0406,222.3363 139.0406,222.9551 L139.0406,223.6113 Q139.0406,224.352 139.575,224.8488 Q140.1094,225.3363 141.0656,225.3363 Q141.6281,225.3363 142.0219,225.1863 Q142.2563,225.0926 142.5094,224.8301 Q142.6688,224.6707 142.7531,224.6238 Q142.8469,224.577 142.9688,224.577 Q143.1656,224.577 143.3156,224.7363 Q143.475,224.8863 143.475,225.0926 Q143.475,225.2988 143.2687,225.5426 Q142.9688,225.8895 142.4906,226.0863 Q141.8438,226.3582 141.0656,226.3582 Q140.1563,226.3582 139.4344,225.9832 Q138.8438,225.6832 138.4313,225.0457 Q138.0187,224.3988 138.0187,223.6301 L138.0187,222.9363 Q138.0187,222.1395 138.3844,221.4551 Q138.7594,220.7613 139.4156,220.3957 Q140.0719,220.0207 140.8125,220.0207 Q141.2531,220.0207 141.6375,220.1238 Q142.0313,220.2176 142.3594,220.4332 Z " fill="#000000"/><text fill="#000000" font-family="sans-serif" font-size="8.4" lengthAdjust="spacing" textLength="27" x="149.1" y="226.3863">Screen</text><line style="stroke:#181818;stroke-width:0.3;" x1="132.3" x2="177.3" y1="232.5082" y2="232.5082"/><line style="stroke:#181818;stroke-width:0.3;" x1="132.3" x2="177.3" y1="237.3082" y2="237.3082"/></g><!--class NavigationGraph--><g id="elem_NavigationGraph"><rect fill="#F1F1F1" height="28.8" id="NavigationGraph" rx="1.5" ry="1.5" style="stroke:#181818;stroke-width:0.3;" width="82.8" x="27.6" y="213.3082"/><ellipse cx="36.6" cy="222.9082" fill="#ADD1B2" rx="6.6" ry="6.6" style="stroke:#181818;stroke-width:0.6;"/><path d="M38.2594,220.4332 Q38.3531,220.302 38.4656,220.2363 Q38.5781,220.1707 38.7094,220.1707 Q38.9344,220.1707 39.075,220.3301 Q39.2156,220.4801 39.2156,220.8457 L39.2156,221.7176 Q39.2156,222.0832 39.075,222.2426 Q38.9344,222.402 38.7094,222.402 Q38.5031,222.402 38.3813,222.2801 Q38.2594,222.1676 38.1938,221.8582 Q38.1656,221.6426 38.0531,221.5301 Q37.8562,221.3051 37.4906,221.1738 Q37.125,221.0426 36.75,221.0426 Q36.2906,221.0426 35.9063,221.2395 Q35.5313,221.4363 35.2312,221.8863 Q34.9406,222.3363 34.9406,222.9551 L34.9406,223.6113 Q34.9406,224.352 35.475,224.8488 Q36.0094,225.3363 36.9656,225.3363 Q37.5281,225.3363 37.9219,225.1863 Q38.1563,225.0926 38.4094,224.8301 Q38.5688,224.6707 38.6531,224.6238 Q38.7469,224.577 38.8688,224.577 Q39.0656,224.577 39.2156,224.7363 Q39.375,224.8863 39.375,225.0926 Q39.375,225.2988 39.1687,225.5426 Q38.8688,225.8895 38.3906,226.0863 Q37.7438,226.3582 36.9656,226.3582 Q36.0563,226.3582 35.3344,225.9832 Q34.7438,225.6832 34.3313,225.0457 Q33.9187,224.3988 33.9187,223.6301 L33.9187,222.9363 Q33.9187,222.1395 34.2844,221.4551 Q34.6594,220.7613 35.3156,220.3957 Q35.9719,220.0207 36.7125,220.0207 Q37.1531,220.0207 37.5375,220.1238 Q37.9313,220.2176 38.2594,220.4332 Z " fill="#000000"/><text fill="#000000" font-family="sans-serif" font-size="8.4" lengthAdjust="spacing" textLength="63.6" x="45" y="226.3863">NavigationGraph</text><line style="stroke:#181818;stroke-width:0.3;" x1="28.2" x2="109.8" y1="232.5082" y2="232.5082"/><line style="stroke:#181818;stroke-width:0.3;" x1="28.2" x2="109.8" y1="237.3082" y2="237.3082"/></g><!--link ExercisesEditScreen to ExerciseEditContent--><g id="link_ExercisesEditScreen_ExerciseEditContent"><path codeLine="122" d="M527.724,272.5102 C523.482,275.4142 519.348,278.3842 515.4,281.4082 C491.85,299.4322 470.6318,320.4782 453.2258,339.1922 " fill="none" id="ExercisesEditScreen-to-ExerciseEditContent" style="stroke:#0000FF;stroke-width:0.6;stroke-dasharray:7.0,7.0;"/><polygon fill="#0000FF" points="450.774,341.8282,456.2091,339.5087,452.8172,339.6315,452.6943,336.2396,450.774,341.8282" style="stroke:#0000FF;stroke-width:0.6;"/></g><!--link ExercisesAddScreen to ExerciseAddContent--><g id="link_ExercisesAddScreen_ExerciseAddContent"><path codeLine="123" d="M344.94,261.4162 C325.356,292.2022 299.0645,333.5229 284.9165,355.7589 " fill="none" id="ExercisesAddScreen-to-ExerciseAddContent" style="stroke:#181818;stroke-width:0.6;stroke-dasharray:7.0,7.0;"/><polygon fill="#181818" points="282.984,358.7962,287.9077,355.5286,284.5944,356.2651,283.8579,352.9519,282.984,358.7962" style="stroke:#181818;stroke-width:0.6;"/></g><!--link ExercisesEditScreen to ExerciseViewModel--><g id="link_ExercisesEditScreen_ExerciseViewModel"><path codeLine="124" d="M716.592,261.8242 C733.476,266.0062 750.81,269.7442 767.4,272.4082 C806.94,278.7622 910.818,265.1002 947.4,281.4082 C968.904,290.9962 985.6735,305.4854 1000.7755,322.3634 " fill="none" id="ExercisesEditScreen-to-ExerciseViewModel" style="stroke:#0000FF;stroke-width:0.6;stroke-dasharray:7.0,7.0;"/><polygon fill="#0000FF" points="1003.176,325.0462,1001.3638,319.4216,1001.1756,322.8105,997.7867,322.6223,1003.176,325.0462" style="stroke:#0000FF;stroke-width:0.6;"/></g><!--link ExercisesAddScreen to ExerciseViewModel--><g id="link_ExercisesAddScreen_ExerciseViewModel"><path codeLine="125" d="M445.716,261.3562 C459.534,265.8742 473.922,269.8342 487.8,272.4082 C512.91,277.0702 923.922,271.3642 947.4,281.4082 C969.252,290.7562 986.2133,305.4149 1001.3633,322.4969 " fill="none" id="ExercisesAddScreen-to-ExerciseViewModel" style="stroke:#181818;stroke-width:0.6;stroke-dasharray:7.0,7.0;"/><polygon fill="#181818" points="1003.752,325.1902,1001.9645,319.5577,1001.7614,322.9458,998.3734,322.7427,1003.752,325.1902" style="stroke:#181818;stroke-width:0.6;"/></g><!--link ExercisesAddScreen to ImageChoices--><g id="link_ExercisesAddScreen_ImageChoices"><path codeLine="127" d="M454.146,261.3322 C465.42,265.2262 476.844,269.0182 487.8,272.4082 C503.058,277.1302 509.46,272.3182 522.6,281.4082 C546.642,298.0462 563.0077,323.5878 573.7417,344.3658 " fill="none" id="ExercisesAddScreen-to-ImageChoices" style="stroke:#181818;stroke-width:0.6;stroke-dasharray:7.0,7.0;"/><polygon fill="#181818" points="575.394,347.5642,575.0478,341.665,574.0171,344.8989,570.7833,343.8681,575.394,347.5642" style="stroke:#181818;stroke-width:0.6;"/></g><!--link ExercisesEditScreen to ImageChoices--><g id="link_ExercisesEditScreen_ImageChoices"><path codeLine="128" d="M600.942,272.5822 C597.462,297.1882 593.7662,323.3417 590.8502,343.9577 " fill="none" id="ExercisesEditScreen-to-ImageChoices" style="stroke:#0000FF;stroke-width:0.6;stroke-dasharray:7.0,7.0;"/><polygon fill="#0000FF" points="590.346,347.5222,593.4786,342.5115,590.7661,344.5518,588.7259,341.8393,590.346,347.5222" style="stroke:#0000FF;stroke-width:0.6;"/></g><!--link ExerciseAddContent to Screen--><g id="link_ExerciseAddContent_Screen"><path codeLine="130" d="M262.608,358.6042 C239.73,330.9502 191.3071,272.4278 168.5431,244.9178 " fill="none" id="ExerciseAddContent-to-Screen" style="stroke:#808080;stroke-width:0.6;stroke-dasharray:7.0,7.0;"/><polygon fill="#808080" points="166.248,242.1442,167.8416,247.8346,168.1606,244.4555,171.5396,244.7745,166.248,242.1442" style="stroke:#808080;stroke-width:0.6;"/></g><!--link ExerciseEditContent to Screen--><g id="link_ExerciseEditContent_Screen"><path codeLine="131" d="M402.468,341.9242 C386.148,320.9362 361.566,294.6082 333,281.4082 C285.9,259.6402 265.368,290.1262 216.6,272.4082 C198.636,265.8802 183.9021,254.9742 172.1541,244.6842 " fill="none" id="ExerciseEditContent-to-Screen" style="stroke:#808080;stroke-width:0.6;stroke-dasharray:7.0,7.0;"/><polygon fill="#808080" points="169.446,242.3122,171.9268,247.6756,171.7027,244.2889,175.0894,244.0648,169.446,242.3122" style="stroke:#808080;stroke-width:0.6;"/></g><!--link ExercisesListScreen to Screen--><g id="link_ExercisesListScreen_Screen"><path codeLine="132" d="M452.04,124.0222 C382.272,133.2202 291.552,150.5842 216.6,183.0082 C199.302,190.4902 184.8078,201.063 172.9458,210.981 " fill="none" id="ExercisesListScreen-to-Screen" style="stroke:#808080;stroke-width:0.6;stroke-dasharray:7.0,7.0;"/><polygon fill="#808080" points="170.184,213.2902,175.8662,211.6676,172.4855,211.3659,172.7873,207.9852,170.184,213.2902" style="stroke:#808080;stroke-width:0.6;"/></g><!--link NavigationGraph to ExercisesListScreen--><g id="link_NavigationGraph_ExercisesListScreen"><path codeLine="135" d="M81.306,213.2422 C91.086,203.1682 105.66,190.1002 121.2,183.0082 C178.554,156.8242 337.4477,136.4583 448.4777,124.7943 " fill="none" id="NavigationGraph-to-ExercisesListScreen" style="stroke:#181818;stroke-width:0.6;stroke-dasharray:7.0,7.0;"/><polygon fill="#181818" points="452.058,124.4182,446.4368,122.5955,449.0744,124.7316,446.9383,127.3692,452.058,124.4182" style="stroke:#181818;stroke-width:0.6;"/></g><!--link NavigationGraph to ExerciseViewModelFactory--><g id="link_NavigationGraph_ExerciseViewModelFactory"><path codeLine="136" d="M78.24,213.2602 C88.968,197.9662 108.234,174.7282 131.7,165.0082 C173.646,147.6322 905.556,151.5082 948.9,165.0082 C975.624,173.3302 998.7124,190.1931 1015.9564,205.1751 " fill="none" id="NavigationGraph-to-ExerciseViewModelFactory" style="stroke:#181818;stroke-width:0.6;stroke-dasharray:7.0,7.0;"/><polygon fill="#181818" points="1018.674,207.5362,1016.1717,202.1828,1016.4094,205.5686,1013.0236,205.8063,1018.674,207.5362" style="stroke:#181818;stroke-width:0.6;"/></g><!--link ExerciseViewModelFactory to ExerciseViewModel--><g id="link_ExerciseViewModelFactory_ExerciseViewModel"><path codeLine="138" d="M1039.554,247.9222 C1039.308,267.6442 1038.9625,295.2205 1038.6385,321.4585 " fill="none" id="ExerciseViewModelFactory-to-ExerciseViewModel" style="stroke:#181818;stroke-width:0.6;stroke-dasharray:7.0,7.0;"/><polygon fill="#181818" points="1038.594,325.0582,1041.0605,319.6882,1038.631,322.0584,1036.2609,319.629,1038.594,325.0582" style="stroke:#181818;stroke-width:0.6;"/></g><!--link ExercisesListContent to Exercise--><g id="link_ExercisesListContent_Exercise"><path codeLine="140" d="M911.124,258.9982 C924.39,264.3682 938.532,269.2402 952.2,272.4082 C971.19,276.8062 1113.546,267.6982 1127.4,281.4082 C1191.54,344.8882 1178.6052,455.8022 1162.7412,523.8662 " fill="none" id="ExercisesListContent-to-Exercise" style="stroke:#008000;stroke-width:0.6;stroke-dasharray:7.0,7.0;"/><polygon fill="#008000" points="1161.924,527.3722,1165.4871,522.6579,1162.605,524.4505,1160.8124,521.5684,1161.924,527.3722" style="stroke:#008000;stroke-width:0.6;"/></g><!--link ExerciseCard to Exercise--><g id="link_ExerciseCard_Exercise"><path codeLine="141" d="M904.914,438.0202 C915.516,460.0822 930.792,482.4982 952.2,495.6082 C963.582,502.5802 1060.122,494.7322 1072.2,500.4082 C1085.478,506.6542 1094.9268,513.8959 1105.1328,524.6419 " fill="none" id="ExerciseCard-to-Exercise" style="stroke:#181818;stroke-width:0.6;stroke-dasharray:7.0,7.0;"/><polygon fill="#181818" points="1107.612,527.2522,1105.6335,521.6839,1105.546,525.0769,1102.1531,524.9895,1107.612,527.2522" style="stroke:#181818;stroke-width:0.6;"/></g><!--link Exercise to Dropset--><g id="link_Exercise_Dropset"><path codeLine="142" d="M1146,639.1462 C1146,651.1882 1146,660.0682 1146,671.2882 " fill="none" id="Exercise-to-Dropset" style="stroke:#181818;stroke-width:0.6;stroke-dasharray:7.0,7.0;"/><polygon fill="#181818" points="1146,674.8882,1148.4,669.4882,1146,671.8882,1143.6,669.4882,1146,674.8882" style="stroke:#181818;stroke-width:0.6;"/></g><!--link ExercisesListScreen to ExerciseViewModel--><g id="link_ExercisesListScreen_ExerciseViewModel"><path codeLine="144" d="M673.524,119.7382 C829.674,128.9722 1098.99,149.5642 1128.6,183.0082 C1154.94,212.7562 1142.88,235.3282 1128.6,272.4082 C1121.1,291.8842 1110.3055,307.2867 1096.2295,322.5387 " fill="none" id="ExercisesListScreen-to-ExerciseViewModel" style="stroke:#008000;stroke-width:0.6;stroke-dasharray:7.0,7.0;"/><polygon fill="#008000" points="1093.788,325.1842,1099.214,322.8436,1095.8226,322.9796,1095.6866,319.5882,1093.788,325.1842" style="stroke:#008000;stroke-width:0.6;"/></g><!--link ExerciseViewModel to datasource--><g id="link_ExerciseViewModel_datasource"><path codeLine="146" d="M1036.632,421.4482 C1035.3,467.6662 1033.4655,531.6097 1032.5775,562.4917 " fill="none" id="ExerciseViewModel-to-datasource" style="stroke:#181818;stroke-width:0.6;stroke-dasharray:7.0,7.0;"/><polygon fill="#181818" points="1032.474,566.0902,1035.0282,560.7614,1032.5602,563.0914,1030.2302,560.6235,1032.474,566.0902" style="stroke:#181818;stroke-width:0.6;"/></g><!--link ExercisesListContent to ExerciseCard--><g id="link_ExercisesListContent_ExerciseCard"><path codeLine="148" d="M856.38,258.9082 C859.854,273.3082 863.2883,287.5505 867.4223,304.6985 " fill="none" id="ExercisesListContent-to-ExerciseCard" style="stroke:#008000;stroke-width:0.6;stroke-dasharray:7.0,7.0;"/><polygon fill="#008000" points="868.266,308.1982,869.3336,302.3861,867.5629,305.2818,864.6673,303.5111,868.266,308.1982" style="stroke:#008000;stroke-width:0.6;"/></g><!--link ExercisesListContent to RemoveExerciseFromListDialog--><g id="link_ExercisesListContent_RemoveExerciseFromListDialog"><path codeLine="149" d="M825.714,258.9082 C808.464,281.5762 787.082,309.6833 768.902,333.5753 " fill="none" id="ExercisesListContent-to-RemoveExerciseFromListDialog" style="stroke:#008000;stroke-width:0.6;stroke-dasharray:7.0,7.0;"/><polygon fill="#008000" points="766.722,336.4402,771.9019,333.5962,768.5386,334.0528,768.082,330.6895,766.722,336.4402" style="stroke:#008000;stroke-width:0.6;"/></g><!--link ExercisesListScreen to ExercisesListContent--><g id="link_ExercisesListScreen_ExercisesListContent"><path codeLine="150" d="M646.35,147.0262 C688.008,163.4902 734.52,181.8649 774.354,197.6089 " fill="none" id="ExercisesListScreen-to-ExercisesListContent" style="stroke:#008000;stroke-width:0.6;stroke-dasharray:7.0,7.0;"/><polygon fill="#008000" points="777.702,198.9322,773.5622,194.7153,774.912,197.8295,771.7979,199.1793,777.702,198.9322" style="stroke:#008000;stroke-width:0.6;"/></g><!--SRC=[pLTRJzim57xFhx2sXnL18yPZn2f1ImSQC8d2zZ3jmKrCOf7OaUqMKCL_tt4kjfEc5qQHg2h5EUVpkViS9ySnGKTFHvvye2p70cSe1z8L5Z5bwEjXYtxsf8XWE1tob0iK2_pS0fno4H5HigSf3XySVYpuBBzW2H5KOHQ2NWz-36T4vXXU8womv3C1ouNtud8o7f5K0XN1Bqonb6WaU2w9gcZzVl7OHuJXQKgY09rodXBC3YhwFHLI1UY2gPeYISXPr22fX8gIuWe5IwpQioSYGYf9Moyjzw5lwB2MfiqFq4G9ocAWV_fa6BDiIiJF-mbHSdbNnRmXEL5KKSwMCO-4necwO3zeoe4xJZak-ECQG3D8HQVkg0oR4TbqzAMHZndrPIW8OT8dbTlD7DJ1a9TKgaa1RSUb0z8hM0pFXvmfmTEKY01Tu_avbygIIeDhlRyeURpIHH0OYOO4RiphTMzlRobrBLjFegZ3r7tq0KqzY-X72MjZcqNlUIqV58-9WXDU6jpqnufUb26_f7CoWaD_hBquhc630S9fgkaQrRU-mf7WaYekdf4movOa8mI17VLB3ufzhmJEEOqGZYB3ifvOFfX855aBcUNGhLP0oeQnmlSn3WiF5ewmMmGP176zeiyDzSO05O_Zsq4bKX_DxeEdaqkOgYLkLG7x9fU5Y00rCr1XE1iLaGYGTH3r1-YEKTqy5Yy7gzo5GzOmgmkZgxi1shv-EslHi3YhINT5bbQQRoAxlkVv8Szopi3ExlOtn28o7a0ZWIpIUwhDlwfMnZGdy1s6Qou4vIJKRT-rsaMKnRaU8nF-M2CQWz0P3xzff980ZV8bpdanNZGB6Hwu1UDIOSggwGu5gXzj00J9PLTjmSRiXcHyRixDMF1CLzw8ufJ7jWfMJq_KA4oe2nZi6OJ19BOJfcyRwIhKShf0NxrSSW1Tw10D4qv3CmrhRGLh0Yf3Y5xHT6fzZUpa2LTwRXTd3b03EtrB7L24S0veZ7K6VJC1WDzPdbtpml_pUPhEo5z_WDRkSGxX1k5sRlgRXDhJltk3JIFTdRbMvDjbsbRXkuMokpYiKk1jcH6jGD_RAmLBTUPjMovl4-HU6JS9yhuG72Qe58Pc-XRgT6JuJ9bHhxdnsYo_2vmdcql0CUUjejgJVaDcbYu6kojNzt9Gn1Y0EiZbrvJ1UPlgh37d_0u1hNSNKtscUQ-iXihIdSJ1NZkrNVOZyt_3zvfmlPEATLFq7IBjsWcd4Si8_ju_]--></g></svg>