<?xml version="1.0" encoding="us-ascii" standalone="no"?><svg xmlns="http://www.w3.org/2000/svg" xmlns:xlink="http://www.w3.org/1999/xlink" contentStyleType="text/css" height="1414px" preserveAspectRatio="none" style="width:1045px;height:1414px;background:#FFFFFF;" version="1.1" viewBox="0 0 1045 1414" width="1045px" zoomAndPan="magnify"><defs/><g><!--cluster models--><g id="cluster_models"><path d="M756.5,978.0137 L808.5,978.0137 A3.75,3.75 0 0 1 811,980.5137 L818,1002.6348 L995.5,1002.6348 A2.5,2.5 0 0 1 998,1005.1348 L998,1404.5137 A2.5,2.5 0 0 1 995.5,1407.0137 L756.5,1407.0137 A2.5,2.5 0 0 1 754,1404.5137 L754,980.5137 A2.5,2.5 0 0 1 756.5,978.0137 " fill="none" style="stroke:#000000;stroke-width:1.5;"/><line style="stroke:#000000;stroke-width:1.5;" x1="754" x2="818" y1="1002.6348" y2="1002.6348"/><text fill="#000000" font-family="sans-serif" font-size="14" font-weight="bold" lengthAdjust="spacing" textLength="51" x="758" y="995.1211">models</text></g><!--cluster ui--><g id="cluster_ui"><path d="M252.5,6.0137 L266.5,6.0137 A3.75,3.75 0 0 1 269,8.5137 L276,30.6348 L1026.5,30.6348 A2.5,2.5 0 0 1 1029,33.1348 L1029,951.5137 A2.5,2.5 0 0 1 1026.5,954.0137 L252.5,954.0137 A2.5,2.5 0 0 1 250,951.5137 L250,8.5137 A2.5,2.5 0 0 1 252.5,6.0137 " fill="none" style="stroke:#000000;stroke-width:1.5;"/><line style="stroke:#000000;stroke-width:1.5;" x1="250" x2="276" y1="30.6348" y2="30.6348"/><text fill="#000000" font-family="sans-serif" font-size="14" font-weight="bold" lengthAdjust="spacing" textLength="13" x="254" y="23.1211">ui</text></g><!--cluster screens--><g id="cluster_screens"><path d="M276.5,176.0137 L334.5,176.0137 A3.75,3.75 0 0 1 337,178.5137 L344,200.6348 L1002.5,200.6348 A2.5,2.5 0 0 1 1005,203.1348 L1005,927.5137 A2.5,2.5 0 0 1 1002.5,930.0137 L276.5,930.0137 A2.5,2.5 0 0 1 274,927.5137 L274,178.5137 A2.5,2.5 0 0 1 276.5,176.0137 " fill="none" style="stroke:#000000;stroke-width:1.5;"/><line style="stroke:#000000;stroke-width:1.5;" x1="274" x2="344" y1="200.6348" y2="200.6348"/><text fill="#000000" font-family="sans-serif" font-size="14" font-weight="bold" lengthAdjust="spacing" textLength="57" x="278" y="193.1211">screens</text></g><!--cluster exercises--><g id="cluster_exercises"><path d="M300.5,221.0137 L370.5,221.0137 A3.75,3.75 0 0 1 373,223.5137 L380,245.6348 L978.5,245.6348 A2.5,2.5 0 0 1 981,248.1348 L981,903.5137 A2.5,2.5 0 0 1 978.5,906.0137 L300.5,906.0137 A2.5,2.5 0 0 1 298,903.5137 L298,223.5137 A2.5,2.5 0 0 1 300.5,221.0137 " fill="none" style="stroke:#000000;stroke-width:1.5;"/><line style="stroke:#000000;stroke-width:1.5;" x1="298" x2="380" y1="245.6348" y2="245.6348"/><text fill="#000000" font-family="sans-serif" font-size="14" font-weight="bold" lengthAdjust="spacing" textLength="69" x="302" y="238.1211">exercises</text></g><!--cluster components--><g id="cluster_components"><path d="M452.5,613.0137 L540.5,613.0137 A3.75,3.75 0 0 1 543,615.5137 L550,637.6348 L912.5,637.6348 A2.5,2.5 0 0 1 915,640.1348 L915,879.5137 A2.5,2.5 0 0 1 912.5,882.0137 L452.5,882.0137 A2.5,2.5 0 0 1 450,879.5137 L450,615.5137 A2.5,2.5 0 0 1 452.5,613.0137 " fill="none" style="stroke:#000000;stroke-width:1.5;"/><line style="stroke:#000000;stroke-width:1.5;" x1="450" x2="550" y1="637.6348" y2="637.6348"/><text fill="#000000" font-family="sans-serif" font-size="14" font-weight="bold" lengthAdjust="spacing" textLength="87" x="454" y="630.1211">components</text></g><!--cluster navigation--><g id="cluster_navigation"><path d="M704.5,51.0137 L779.5,51.0137 A3.75,3.75 0 0 1 782,53.5137 L789,75.6348 L869.5,75.6348 A2.5,2.5 0 0 1 872,78.1348 L872,149.5137 A2.5,2.5 0 0 1 869.5,152.0137 L704.5,152.0137 A2.5,2.5 0 0 1 702,149.5137 L702,53.5137 A2.5,2.5 0 0 1 704.5,51.0137 " fill="none" style="stroke:#000000;stroke-width:1.5;"/><line style="stroke:#000000;stroke-width:1.5;" x1="702" x2="789" y1="75.6348" y2="75.6348"/><text fill="#000000" font-family="sans-serif" font-size="14" font-weight="bold" lengthAdjust="spacing" textLength="74" x="706" y="68.1211">navigation</text></g><path d="M105,729.5137 L185,729.5137 A3.75,3.75 0 0 1 187.5,732.0137 L194.5,754.1348 L199,754.1348 A2.5,2.5 0 0 1 201.5,756.6348 L201.5,784.2559 A2.5,2.5 0 0 1 199,786.7559 L105,786.7559 A2.5,2.5 0 0 1 102.5,784.2559 L102.5,732.0137 A2.5,2.5 0 0 1 105,729.5137 " fill="#F1F1F1" style="stroke:#181818;stroke-width:0.5;"/><line style="stroke:#181818;stroke-width:0.5;" x1="102.5" x2="194.5" y1="754.1348" y2="754.1348"/><text fill="#000000" font-family="sans-serif" font-size="14" font-weight="bold" lengthAdjust="spacing" textLength="79" x="106.5" y="746.6211">datasource</text><!--class Dropset--><g id="elem_Dropset"><rect codeLine="13" fill="#F1F1F1" height="130.4844" id="Dropset" rx="2.5" ry="2.5" style="stroke:#181818;stroke-width:0.5;" width="141" x="805.5" y="1261.0137"/><ellipse cx="847.05" cy="1277.0137" fill="#ADD1B2" rx="11" ry="11" style="stroke:#181818;stroke-width:1.0;"/><path d="M849.8156,1272.8887 Q849.9719,1272.6699 850.1594,1272.5605 Q850.3469,1272.4512 850.5656,1272.4512 Q850.9406,1272.4512 851.175,1272.7168 Q851.4094,1272.9668 851.4094,1273.5762 L851.4094,1275.0293 Q851.4094,1275.6387 851.175,1275.9043 Q850.9406,1276.1699 850.5656,1276.1699 Q850.2219,1276.1699 850.0188,1275.9668 Q849.8156,1275.7793 849.7063,1275.2637 Q849.6594,1274.9043 849.4719,1274.7168 Q849.1438,1274.3418 848.5344,1274.123 Q847.925,1273.9043 847.3,1273.9043 Q846.5344,1273.9043 845.8938,1274.2324 Q845.2688,1274.5605 844.7688,1275.3105 Q844.2844,1276.0605 844.2844,1277.0918 L844.2844,1278.1855 Q844.2844,1279.4199 845.175,1280.248 Q846.0656,1281.0605 847.6594,1281.0605 Q848.5969,1281.0605 849.2531,1280.8105 Q849.6438,1280.6543 850.0656,1280.2168 Q850.3313,1279.9512 850.4719,1279.873 Q850.6281,1279.7949 850.8313,1279.7949 Q851.1594,1279.7949 851.4094,1280.0605 Q851.675,1280.3105 851.675,1280.6543 Q851.675,1280.998 851.3313,1281.4043 Q850.8313,1281.9824 850.0344,1282.3105 Q848.9563,1282.7637 847.6594,1282.7637 Q846.1438,1282.7637 844.9406,1282.1387 Q843.9563,1281.6387 843.2688,1280.5762 Q842.5813,1279.498 842.5813,1278.2168 L842.5813,1277.0605 Q842.5813,1275.7324 843.1906,1274.5918 Q843.8156,1273.4355 844.9094,1272.8262 Q846.0031,1272.2012 847.2375,1272.2012 Q847.9719,1272.2012 848.6125,1272.373 Q849.2688,1272.5293 849.8156,1272.8887 Z " fill="#000000"/><text fill="#000000" font-family="sans-serif" font-size="14" lengthAdjust="spacing" textLength="50" x="866.95" y="1282.8105">Dropset</text><line style="stroke:#181818;stroke-width:0.5;" x1="806.5" x2="945.5" y1="1293.0137" y2="1293.0137"/><line style="stroke:#181818;stroke-width:1.0;" x1="806.5" x2="945.5" y1="1301.0137" y2="1301.0137"/><ellipse cx="816.5" cy="1315.8242" fill="none" rx="3" ry="3" style="stroke:#038048;stroke-width:1.0;"/><text fill="#000000" font-family="sans-serif" font-size="14" lengthAdjust="spacing" textLength="115" x="825.5" y="1320.1211">enabled: Boolean,</text><ellipse cx="816.5" cy="1334.4453" fill="none" rx="3" ry="3" style="stroke:#038048;stroke-width:1.0;"/><text fill="#000000" font-family="sans-serif" font-size="14" lengthAdjust="spacing" textLength="50" x="825.5" y="1338.7422">first: Int,</text><ellipse cx="816.5" cy="1353.0664" fill="none" rx="3" ry="3" style="stroke:#038048;stroke-width:1.0;"/><text fill="#000000" font-family="sans-serif" font-size="14" lengthAdjust="spacing" textLength="73" x="825.5" y="1357.3633">second: Int,</text><ellipse cx="816.5" cy="1371.6875" fill="none" rx="3" ry="3" style="stroke:#038048;stroke-width:1.0;"/><text fill="#000000" font-family="sans-serif" font-size="14" lengthAdjust="spacing" textLength="51" x="825.5" y="1375.9844">third: Int</text><line style="stroke:#181818;stroke-width:1.0;" x1="806.5" x2="945.5" y1="1383.498" y2="1383.498"/></g><!--class Exercise--><g id="elem_Exercise"><rect codeLine="22" fill="#F1F1F1" height="186.3477" id="Exercise" rx="2.5" ry="2.5" style="stroke:#181818;stroke-width:0.5;" width="211" x="770.5" y="1015.0137"/><ellipse cx="845.25" cy="1031.0137" fill="#ADD1B2" rx="11" ry="11" style="stroke:#181818;stroke-width:1.0;"/><path d="M848.0156,1026.8887 Q848.1719,1026.6699 848.3594,1026.5605 Q848.5469,1026.4512 848.7656,1026.4512 Q849.1406,1026.4512 849.375,1026.7168 Q849.6094,1026.9668 849.6094,1027.5762 L849.6094,1029.0293 Q849.6094,1029.6387 849.375,1029.9043 Q849.1406,1030.1699 848.7656,1030.1699 Q848.4219,1030.1699 848.2188,1029.9668 Q848.0156,1029.7793 847.9063,1029.2637 Q847.8594,1028.9043 847.6719,1028.7168 Q847.3438,1028.3418 846.7344,1028.123 Q846.125,1027.9043 845.5,1027.9043 Q844.7344,1027.9043 844.0938,1028.2324 Q843.4688,1028.5605 842.9688,1029.3105 Q842.4844,1030.0605 842.4844,1031.0918 L842.4844,1032.1855 Q842.4844,1033.4199 843.375,1034.248 Q844.2656,1035.0605 845.8594,1035.0605 Q846.7969,1035.0605 847.4531,1034.8105 Q847.8438,1034.6543 848.2656,1034.2168 Q848.5313,1033.9512 848.6719,1033.873 Q848.8281,1033.7949 849.0313,1033.7949 Q849.3594,1033.7949 849.6094,1034.0605 Q849.875,1034.3105 849.875,1034.6543 Q849.875,1034.998 849.5313,1035.4043 Q849.0313,1035.9824 848.2344,1036.3105 Q847.1563,1036.7637 845.8594,1036.7637 Q844.3438,1036.7637 843.1406,1036.1387 Q842.1563,1035.6387 841.4688,1034.5762 Q840.7813,1033.498 840.7813,1032.2168 L840.7813,1031.0605 Q840.7813,1029.7324 841.3906,1028.5918 Q842.0156,1027.4355 843.1094,1026.8262 Q844.2031,1026.2012 845.4375,1026.2012 Q846.1719,1026.2012 846.8125,1026.373 Q847.4688,1026.5293 848.0156,1026.8887 Z " fill="#000000"/><text fill="#000000" font-family="sans-serif" font-size="14" lengthAdjust="spacing" textLength="53" x="865.75" y="1036.8105">Exercise</text><line style="stroke:#181818;stroke-width:0.5;" x1="771.5" x2="980.5" y1="1047.0137" y2="1047.0137"/><line style="stroke:#181818;stroke-width:1.0;" x1="771.5" x2="980.5" y1="1055.0137" y2="1055.0137"/><ellipse cx="781.5" cy="1069.8242" fill="none" rx="3" ry="3" style="stroke:#038048;stroke-width:1.0;"/><text fill="#000000" font-family="sans-serif" font-size="14" lengthAdjust="spacing" textLength="62" x="790.5" y="1074.1211">id: Int = 0,</text><ellipse cx="781.5" cy="1088.4453" fill="none" rx="3" ry="3" style="stroke:#038048;stroke-width:1.0;"/><text fill="#000000" font-family="sans-serif" font-size="14" lengthAdjust="spacing" textLength="110" x="790.5" y="1092.7422">name: String = "",</text><ellipse cx="781.5" cy="1107.0664" fill="none" rx="3" ry="3" style="stroke:#038048;stroke-width:1.0;"/><text fill="#000000" font-family="sans-serif" font-size="14" lengthAdjust="spacing" textLength="142" x="790.5" y="1111.3633">numberOfSets: Int = 0,</text><ellipse cx="781.5" cy="1125.6875" fill="none" rx="3" ry="3" style="stroke:#038048;stroke-width:1.0;"/><text fill="#000000" font-family="sans-serif" font-size="14" lengthAdjust="spacing" textLength="185" x="790.5" y="1129.9844">numberOfRepetitions: Int = 0,</text><ellipse cx="781.5" cy="1144.3086" fill="none" rx="3" ry="3" style="stroke:#038048;stroke-width:1.0;"/><text fill="#000000" font-family="sans-serif" font-size="14" lengthAdjust="spacing" textLength="158" x="790.5" y="1148.6055">weightInKilos: Float = 0F,</text><ellipse cx="781.5" cy="1162.9297" fill="none" rx="3" ry="3" style="stroke:#038048;stroke-width:1.0;"/><text fill="#000000" font-family="sans-serif" font-size="14" lengthAdjust="spacing" textLength="113" x="790.5" y="1167.2266">image: String = "",</text><ellipse cx="781.5" cy="1181.5508" fill="none" rx="3" ry="3" style="stroke:#038048;stroke-width:1.0;"/><text fill="#000000" font-family="sans-serif" font-size="14" lengthAdjust="spacing" textLength="95" x="790.5" y="1185.8477">dropset: Int = 0</text><line style="stroke:#181818;stroke-width:1.0;" x1="771.5" x2="980.5" y1="1193.3613" y2="1193.3613"/></g><!--class ExercisesListScreen--><g id="elem_ExercisesListScreen"><rect codeLine="37" fill="#F1F1F1" height="111.8633" id="ExercisesListScreen" rx="2.5" ry="2.5" style="stroke:#181818;stroke-width:0.5;" width="355" x="609.5" y="258.0137"/><ellipse cx="719.25" cy="274.0137" fill="#ADD1B2" rx="11" ry="11" style="stroke:#181818;stroke-width:1.0;"/><path d="M718.1094,274.8105 L718.1094,277.3105 L722.4375,277.3105 L722.4375,276.3887 Q722.4375,275.7793 722.6719,275.5137 Q722.9219,275.248 723.2969,275.248 Q723.6719,275.248 723.9063,275.5137 Q724.1406,275.7793 724.1406,276.3887 L724.1406,279.0137 L716.1406,279.0137 Q715.5156,279.0137 715.25,278.7793 Q715,278.5449 715,278.1543 Q715,277.7793 715.2656,277.5449 Q715.5313,277.3105 716.1406,277.3105 L716.4063,277.3105 L716.4063,270.6543 L716.1406,270.6543 Q715.5156,270.6543 715.25,270.4199 Q715,270.1855 715,269.7949 Q715,269.4199 715.25,269.1855 Q715.5156,268.9512 716.1406,268.9512 L723.7656,268.9512 L723.7656,271.5449 Q723.7656,272.1543 723.5313,272.4199 Q723.3125,272.6699 722.9219,272.6699 Q722.5469,272.6699 722.3125,272.4199 Q722.0781,272.1543 722.0781,271.5449 L722.0781,270.6543 L718.1094,270.6543 L718.1094,273.1074 L719.5938,273.1074 Q719.5938,272.4512 719.7188,272.2637 Q719.9844,271.8574 720.4531,271.8574 Q720.8281,271.8574 721.0625,272.123 Q721.2969,272.373 721.2969,272.9824 L721.2969,274.9512 Q721.2969,275.498 721.1719,275.6855 Q720.9063,276.0762 720.4531,276.0762 Q719.9844,276.0762 719.7188,275.6699 Q719.5938,275.4824 719.5938,274.8105 L718.1094,274.8105 Z " fill="#000000"/><text fill="#000000" font-family="sans-serif" font-size="14" lengthAdjust="spacing" textLength="127" x="739.75" y="279.8105">ExercisesListScreen</text><line style="stroke:#181818;stroke-width:0.5;" x1="610.5" x2="963.5" y1="290.0137" y2="290.0137"/><line style="stroke:#181818;stroke-width:1.0;" x1="610.5" x2="963.5" y1="298.0137" y2="298.0137"/><text fill="#000000" font-family="sans-serif" font-size="14" lengthAdjust="spacing" textLength="132" x="615.5" y="317.1211">ExercisesListScreen(</text><text fill="#000000" font-family="sans-serif" font-size="14" lengthAdjust="spacing" textLength="211" x="615.5" y="335.7422">navController: NavHostController,</text><text fill="#000000" font-family="sans-serif" font-size="14" lengthAdjust="spacing" textLength="343" x="615.5" y="354.3633">exerciseViewModel: ExerciseViewModel = viewModel())</text><line style="stroke:#181818;stroke-width:1.0;" x1="610.5" x2="963.5" y1="361.877" y2="361.877"/></g><!--class ExerciseViewModel--><g id="elem_ExerciseViewModel"><rect codeLine="45" fill="#F1F1F1" height="159.7266" id="ExerciseViewModel" rx="2.5" ry="2.5" style="stroke:#181818;stroke-width:0.5;" width="253" x="409.5" y="430.0137"/><ellipse cx="471.75" cy="446.0137" fill="#ADD1B2" rx="11" ry="11" style="stroke:#181818;stroke-width:1.0;"/><path d="M474.5156,441.8887 Q474.6719,441.6699 474.8594,441.5605 Q475.0469,441.4512 475.2656,441.4512 Q475.6406,441.4512 475.875,441.7168 Q476.1094,441.9668 476.1094,442.5762 L476.1094,444.0293 Q476.1094,444.6387 475.875,444.9043 Q475.6406,445.1699 475.2656,445.1699 Q474.9219,445.1699 474.7188,444.9668 Q474.5156,444.7793 474.4063,444.2637 Q474.3594,443.9043 474.1719,443.7168 Q473.8438,443.3418 473.2344,443.123 Q472.625,442.9043 472,442.9043 Q471.2344,442.9043 470.5938,443.2324 Q469.9688,443.5605 469.4688,444.3105 Q468.9844,445.0605 468.9844,446.0918 L468.9844,447.1855 Q468.9844,448.4199 469.875,449.248 Q470.7656,450.0605 472.3594,450.0605 Q473.2969,450.0605 473.9531,449.8105 Q474.3438,449.6543 474.7656,449.2168 Q475.0313,448.9512 475.1719,448.873 Q475.3281,448.7949 475.5313,448.7949 Q475.8594,448.7949 476.1094,449.0605 Q476.375,449.3105 476.375,449.6543 Q476.375,449.998 476.0313,450.4043 Q475.5313,450.9824 474.7344,451.3105 Q473.6563,451.7637 472.3594,451.7637 Q470.8438,451.7637 469.6406,451.1387 Q468.6563,450.6387 467.9688,449.5762 Q467.2813,448.498 467.2813,447.2168 L467.2813,446.0605 Q467.2813,444.7324 467.8906,443.5918 Q468.5156,442.4355 469.6094,441.8262 Q470.7031,441.2012 471.9375,441.2012 Q472.6719,441.2012 473.3125,441.373 Q473.9688,441.5293 474.5156,441.8887 Z " fill="#000000"/><text fill="#000000" font-family="sans-serif" font-size="14" lengthAdjust="spacing" textLength="120" x="492.25" y="451.8105">ExerciseViewModel</text><line style="stroke:#181818;stroke-width:0.5;" x1="410.5" x2="661.5" y1="462.0137" y2="462.0137"/><ellipse cx="420.5" cy="476.8242" fill="none" rx="3" ry="3" style="stroke:#038048;stroke-width:1.0;"/><text fill="#000000" font-family="sans-serif" font-size="14" lengthAdjust="spacing" textLength="211" x="429.5" y="481.1211">LiveData&lt;List&lt;Exercise&gt;&gt; allData</text><rect fill="none" height="6" style="stroke:#C82930;stroke-width:1.0;" width="6" x="417.5" y="492.4453"/><text fill="#000000" font-family="sans-serif" font-size="14" lengthAdjust="spacing" textLength="195" x="429.5" y="499.7422">ExercisesRepository repository</text><line style="stroke:#181818;stroke-width:0.5;" x1="410.5" x2="661.5" y1="507.2559" y2="507.2559"/><ellipse cx="420.5" cy="522.0664" fill="#84BE84" rx="3" ry="3" style="stroke:#038048;stroke-width:1.0;"/><text fill="#000000" font-family="sans-serif" font-size="14" lengthAdjust="spacing" textLength="227" x="429.5" y="526.3633">LiveData&lt;Exercise&gt; getExercise(Int)</text><ellipse cx="420.5" cy="540.6875" fill="#84BE84" rx="3" ry="3" style="stroke:#038048;stroke-width:1.0;"/><text fill="#000000" font-family="sans-serif" font-size="14" lengthAdjust="spacing" textLength="170" x="429.5" y="544.9844">void addExercise(Exercise)</text><ellipse cx="420.5" cy="559.3086" fill="#84BE84" rx="3" ry="3" style="stroke:#038048;stroke-width:1.0;"/><text fill="#000000" font-family="sans-serif" font-size="14" lengthAdjust="spacing" textLength="185" x="429.5" y="563.6055">void deleteExercise(Exercise)</text><ellipse cx="420.5" cy="577.9297" fill="#84BE84" rx="3" ry="3" style="stroke:#038048;stroke-width:1.0;"/><text fill="#000000" font-family="sans-serif" font-size="14" lengthAdjust="spacing" textLength="190" x="429.5" y="582.2266">void updateExercise(Exercise)</text></g><!--class ExerciseViewModelFactory--><g id="elem_ExerciseViewModelFactory"><rect codeLine="54" fill="#F1F1F1" height="66.6211" id="ExerciseViewModelFactory" rx="2.5" ry="2.5" style="stroke:#181818;stroke-width:0.5;" width="260" x="314" y="280.5137"/><ellipse cx="356" cy="296.5137" fill="#ADD1B2" rx="11" ry="11" style="stroke:#181818;stroke-width:1.0;"/><path d="M358.7656,292.3887 Q358.9219,292.1699 359.1094,292.0605 Q359.2969,291.9512 359.5156,291.9512 Q359.8906,291.9512 360.125,292.2168 Q360.3594,292.4668 360.3594,293.0762 L360.3594,294.5293 Q360.3594,295.1387 360.125,295.4043 Q359.8906,295.6699 359.5156,295.6699 Q359.1719,295.6699 358.9688,295.4668 Q358.7656,295.2793 358.6563,294.7637 Q358.6094,294.4043 358.4219,294.2168 Q358.0938,293.8418 357.4844,293.623 Q356.875,293.4043 356.25,293.4043 Q355.4844,293.4043 354.8438,293.7324 Q354.2188,294.0605 353.7188,294.8105 Q353.2344,295.5605 353.2344,296.5918 L353.2344,297.6855 Q353.2344,298.9199 354.125,299.748 Q355.0156,300.5605 356.6094,300.5605 Q357.5469,300.5605 358.2031,300.3105 Q358.5938,300.1543 359.0156,299.7168 Q359.2813,299.4512 359.4219,299.373 Q359.5781,299.2949 359.7813,299.2949 Q360.1094,299.2949 360.3594,299.5605 Q360.625,299.8105 360.625,300.1543 Q360.625,300.498 360.2813,300.9043 Q359.7813,301.4824 358.9844,301.8105 Q357.9063,302.2637 356.6094,302.2637 Q355.0938,302.2637 353.8906,301.6387 Q352.9063,301.1387 352.2188,300.0762 Q351.5313,298.998 351.5313,297.7168 L351.5313,296.5605 Q351.5313,295.2324 352.1406,294.0918 Q352.7656,292.9355 353.8594,292.3262 Q354.9531,291.7012 356.1875,291.7012 Q356.9219,291.7012 357.5625,291.873 Q358.2188,292.0293 358.7656,292.3887 Z " fill="#000000"/><text fill="#000000" font-family="sans-serif" font-size="14" lengthAdjust="spacing" textLength="168" x="376" y="302.3105">ExerciseViewModelFactory</text><line style="stroke:#181818;stroke-width:0.5;" x1="315" x2="573" y1="312.5137" y2="312.5137"/><line style="stroke:#181818;stroke-width:0.5;" x1="315" x2="573" y1="320.5137" y2="320.5137"/><ellipse cx="325" cy="335.3242" fill="#84BE84" rx="3" ry="3" style="stroke:#038048;stroke-width:1.0;"/><text fill="#000000" font-family="sans-serif" font-size="14" lengthAdjust="spacing" textLength="234" x="334" y="339.6211">void T create(modelClass: Class&lt;T&gt;)</text></g><!--class ExercisesListContent--><g id="elem_ExercisesListContent"><rect codeLine="58" fill="#F1F1F1" height="103.8633" id="ExercisesListContent" rx="2.5" ry="2.5" style="stroke:#181818;stroke-width:0.5;" width="237" x="697.5" y="458.0137"/><ellipse cx="745.75" cy="474.0137" fill="#ADD1B2" rx="11" ry="11" style="stroke:#181818;stroke-width:1.0;"/><path d="M748.5156,469.8887 Q748.6719,469.6699 748.8594,469.5605 Q749.0469,469.4512 749.2656,469.4512 Q749.6406,469.4512 749.875,469.7168 Q750.1094,469.9668 750.1094,470.5762 L750.1094,472.0293 Q750.1094,472.6387 749.875,472.9043 Q749.6406,473.1699 749.2656,473.1699 Q748.9219,473.1699 748.7188,472.9668 Q748.5156,472.7793 748.4063,472.2637 Q748.3594,471.9043 748.1719,471.7168 Q747.8438,471.3418 747.2344,471.123 Q746.625,470.9043 746,470.9043 Q745.2344,470.9043 744.5938,471.2324 Q743.9688,471.5605 743.4688,472.3105 Q742.9844,473.0605 742.9844,474.0918 L742.9844,475.1855 Q742.9844,476.4199 743.875,477.248 Q744.7656,478.0605 746.3594,478.0605 Q747.2969,478.0605 747.9531,477.8105 Q748.3438,477.6543 748.7656,477.2168 Q749.0313,476.9512 749.1719,476.873 Q749.3281,476.7949 749.5313,476.7949 Q749.8594,476.7949 750.1094,477.0605 Q750.375,477.3105 750.375,477.6543 Q750.375,477.998 750.0313,478.4043 Q749.5313,478.9824 748.7344,479.3105 Q747.6563,479.7637 746.3594,479.7637 Q744.8438,479.7637 743.6406,479.1387 Q742.6563,478.6387 741.9688,477.5762 Q741.2813,476.498 741.2813,475.2168 L741.2813,474.0605 Q741.2813,472.7324 741.8906,471.5918 Q742.5156,470.4355 743.6094,469.8262 Q744.7031,469.2012 745.9375,469.2012 Q746.6719,469.2012 747.3125,469.373 Q747.9688,469.5293 748.5156,469.8887 Z " fill="#000000"/><text fill="#000000" font-family="sans-serif" font-size="14" lengthAdjust="spacing" textLength="132" x="766.25" y="479.8105">ExercisesListContent</text><line style="stroke:#181818;stroke-width:0.5;" x1="698.5" x2="933.5" y1="490.0137" y2="490.0137"/><ellipse cx="708.5" cy="504.8242" fill="none" rx="3" ry="3" style="stroke:#038048;stroke-width:1.0;"/><text fill="#000000" font-family="sans-serif" font-size="14" lengthAdjust="spacing" textLength="211" x="717.5" y="509.1211">navController: NavHostController,</text><ellipse cx="708.5" cy="523.4453" fill="none" rx="3" ry="3" style="stroke:#038048;stroke-width:1.0;"/><text fill="#000000" font-family="sans-serif" font-size="14" lengthAdjust="spacing" textLength="184" x="717.5" y="527.7422">exercisesList: List&lt;Exercise&gt;,</text><line style="stroke:#181818;stroke-width:0.5;" x1="698.5" x2="933.5" y1="535.2559" y2="535.2559"/><ellipse cx="708.5" cy="550.0664" fill="#84BE84" rx="3" ry="3" style="stroke:#038048;stroke-width:1.0;"/><text fill="#000000" font-family="sans-serif" font-size="14" lengthAdjust="spacing" textLength="203" x="717.5" y="554.3633">onDelete: (Exercise) -&gt; Unit = {},</text></g><!--class ExerciseCard--><g id="elem_ExerciseCard"><rect codeLine="66" fill="#F1F1F1" height="215.5898" id="ExerciseCard" rx="2.5" ry="2.5" style="stroke:#181818;stroke-width:0.5;" width="165" x="733.5" y="650.0137"/><ellipse cx="770.55" cy="666.0137" fill="#ADD1B2" rx="11" ry="11" style="stroke:#181818;stroke-width:1.0;"/><path d="M773.3156,661.8887 Q773.4719,661.6699 773.6594,661.5605 Q773.8469,661.4512 774.0656,661.4512 Q774.4406,661.4512 774.675,661.7168 Q774.9094,661.9668 774.9094,662.5762 L774.9094,664.0293 Q774.9094,664.6387 774.675,664.9043 Q774.4406,665.1699 774.0656,665.1699 Q773.7219,665.1699 773.5188,664.9668 Q773.3156,664.7793 773.2063,664.2637 Q773.1594,663.9043 772.9719,663.7168 Q772.6438,663.3418 772.0344,663.123 Q771.425,662.9043 770.8,662.9043 Q770.0344,662.9043 769.3938,663.2324 Q768.7688,663.5605 768.2688,664.3105 Q767.7844,665.0605 767.7844,666.0918 L767.7844,667.1855 Q767.7844,668.4199 768.675,669.248 Q769.5656,670.0605 771.1594,670.0605 Q772.0969,670.0605 772.7531,669.8105 Q773.1438,669.6543 773.5656,669.2168 Q773.8313,668.9512 773.9719,668.873 Q774.1281,668.7949 774.3313,668.7949 Q774.6594,668.7949 774.9094,669.0605 Q775.175,669.3105 775.175,669.6543 Q775.175,669.998 774.8313,670.4043 Q774.3313,670.9824 773.5344,671.3105 Q772.4563,671.7637 771.1594,671.7637 Q769.6438,671.7637 768.4406,671.1387 Q767.4563,670.6387 766.7688,669.5762 Q766.0813,668.498 766.0813,667.2168 L766.0813,666.0605 Q766.0813,664.7324 766.6906,663.5918 Q767.3156,662.4355 768.4094,661.8262 Q769.5031,661.2012 770.7375,661.2012 Q771.4719,661.2012 772.1125,661.373 Q772.7688,661.5293 773.3156,661.8887 Z " fill="#000000"/><text fill="#000000" font-family="sans-serif" font-size="14" lengthAdjust="spacing" textLength="84" x="789.45" y="671.8105">ExerciseCard</text><line style="stroke:#181818;stroke-width:0.5;" x1="734.5" x2="897.5" y1="682.0137" y2="682.0137"/><text fill="#000000" font-family="sans-serif" font-size="14" lengthAdjust="spacing" textLength="112" x="739.5" y="701.1211">modifier: Modifier,</text><text fill="#000000" font-family="sans-serif" font-size="14" lengthAdjust="spacing" textLength="117" x="739.5" y="719.7422">exercise: Exercise,</text><text fill="#000000" font-family="sans-serif" font-size="14" lengthAdjust="spacing" textLength="135" x="739.5" y="738.3633">showAction: Boolean,</text><text fill="#000000" font-family="sans-serif" font-size="14" lengthAdjust="spacing" textLength="104" x="739.5" y="756.9844">imageWidth: Dp,</text><text fill="#000000" font-family="sans-serif" font-size="14" lengthAdjust="spacing" textLength="112" x="739.5" y="775.6055">imageHeight: Dp ,</text><text fill="#000000" font-family="sans-serif" font-size="14" lengthAdjust="spacing" textLength="139" x="739.5" y="794.2266">containerColor: Color,</text><text fill="#000000" font-family="sans-serif" font-size="14" lengthAdjust="spacing" textLength="123" x="739.5" y="812.8477">contentColor: Color</text><line style="stroke:#181818;stroke-width:0.5;" x1="734.5" x2="897.5" y1="820.3613" y2="820.3613"/><text fill="#000000" font-family="sans-serif" font-size="14" lengthAdjust="spacing" textLength="137" x="739.5" y="839.4688">editAction: (Exercise),</text><text fill="#000000" font-family="sans-serif" font-size="14" lengthAdjust="spacing" textLength="153" x="739.5" y="858.0898">deleteAction: (Exercise),</text></g><!--class RemoveExerciseFromListDialog--><g id="elem_RemoveExerciseFromListDialog"><rect codeLine="77" fill="#F1F1F1" height="122.4844" id="RemoveExerciseFromListDialog" rx="2.5" ry="2.5" style="stroke:#181818;stroke-width:0.5;" width="232" x="466" y="697.0137"/><ellipse cx="481" cy="713.0137" fill="#ADD1B2" rx="11" ry="11" style="stroke:#181818;stroke-width:1.0;"/><path d="M483.7656,708.8887 Q483.9219,708.6699 484.1094,708.5605 Q484.2969,708.4512 484.5156,708.4512 Q484.8906,708.4512 485.125,708.7168 Q485.3594,708.9668 485.3594,709.5762 L485.3594,711.0293 Q485.3594,711.6387 485.125,711.9043 Q484.8906,712.1699 484.5156,712.1699 Q484.1719,712.1699 483.9688,711.9668 Q483.7656,711.7793 483.6563,711.2637 Q483.6094,710.9043 483.4219,710.7168 Q483.0938,710.3418 482.4844,710.123 Q481.875,709.9043 481.25,709.9043 Q480.4844,709.9043 479.8438,710.2324 Q479.2188,710.5605 478.7188,711.3105 Q478.2344,712.0605 478.2344,713.0918 L478.2344,714.1855 Q478.2344,715.4199 479.125,716.248 Q480.0156,717.0605 481.6094,717.0605 Q482.5469,717.0605 483.2031,716.8105 Q483.5938,716.6543 484.0156,716.2168 Q484.2813,715.9512 484.4219,715.873 Q484.5781,715.7949 484.7813,715.7949 Q485.1094,715.7949 485.3594,716.0605 Q485.625,716.3105 485.625,716.6543 Q485.625,716.998 485.2813,717.4043 Q484.7813,717.9824 483.9844,718.3105 Q482.9063,718.7637 481.6094,718.7637 Q480.0938,718.7637 478.8906,718.1387 Q477.9063,717.6387 477.2188,716.5762 Q476.5313,715.498 476.5313,714.2168 L476.5313,713.0605 Q476.5313,711.7324 477.1406,710.5918 Q477.7656,709.4355 478.8594,708.8262 Q479.9531,708.2012 481.1875,708.2012 Q481.9219,708.2012 482.5625,708.373 Q483.2188,708.5293 483.7656,708.8887 Z " fill="#000000"/><text fill="#000000" font-family="sans-serif" font-size="14" lengthAdjust="spacing" textLength="200" x="495" y="718.8105">RemoveExerciseFromListDialog</text><line style="stroke:#181818;stroke-width:0.5;" x1="467" x2="697" y1="729.0137" y2="729.0137"/><text fill="#000000" font-family="sans-serif" font-size="14" lengthAdjust="spacing" textLength="110" x="472" y="748.1211">name: String = "",</text><text fill="#000000" font-family="sans-serif" font-size="14" lengthAdjust="spacing" textLength="174" x="472" y="766.7422">modifier: Modifier = Modifier</text><line style="stroke:#181818;stroke-width:0.5;" x1="467" x2="697" y1="774.2559" y2="774.2559"/><text fill="#000000" font-family="sans-serif" font-size="14" lengthAdjust="spacing" textLength="173" x="472" y="793.3633">onDeleteConfirm: () -&gt; Unit,</text><text fill="#000000" font-family="sans-serif" font-size="14" lengthAdjust="spacing" textLength="168" x="472" y="811.9844">onDeleteCancel: () -&gt; Unit,</text></g><!--class NavigationGraph--><g id="elem_NavigationGraph"><rect fill="#F1F1F1" height="48" id="NavigationGraph" rx="2.5" ry="2.5" style="stroke:#181818;stroke-width:0.5;" width="138" x="718" y="88.0137"/><ellipse cx="733" cy="104.0137" fill="#ADD1B2" rx="11" ry="11" style="stroke:#181818;stroke-width:1.0;"/><path d="M735.7656,99.8887 Q735.9219,99.6699 736.1094,99.5605 Q736.2969,99.4512 736.5156,99.4512 Q736.8906,99.4512 737.125,99.7168 Q737.3594,99.9668 737.3594,100.5762 L737.3594,102.0293 Q737.3594,102.6387 737.125,102.9043 Q736.8906,103.1699 736.5156,103.1699 Q736.1719,103.1699 735.9688,102.9668 Q735.7656,102.7793 735.6563,102.2637 Q735.6094,101.9043 735.4219,101.7168 Q735.0938,101.3418 734.4844,101.123 Q733.875,100.9043 733.25,100.9043 Q732.4844,100.9043 731.8438,101.2324 Q731.2188,101.5605 730.7188,102.3105 Q730.2344,103.0605 730.2344,104.0918 L730.2344,105.1855 Q730.2344,106.4199 731.125,107.248 Q732.0156,108.0605 733.6094,108.0605 Q734.5469,108.0605 735.2031,107.8105 Q735.5938,107.6543 736.0156,107.2168 Q736.2813,106.9512 736.4219,106.873 Q736.5781,106.7949 736.7813,106.7949 Q737.1094,106.7949 737.3594,107.0605 Q737.625,107.3105 737.625,107.6543 Q737.625,107.998 737.2813,108.4043 Q736.7813,108.9824 735.9844,109.3105 Q734.9063,109.7637 733.6094,109.7637 Q732.0938,109.7637 730.8906,109.1387 Q729.9063,108.6387 729.2188,107.5762 Q728.5313,106.498 728.5313,105.2168 L728.5313,104.0605 Q728.5313,102.7324 729.1406,101.5918 Q729.7656,100.4355 730.8594,99.8262 Q731.9531,99.2012 733.1875,99.2012 Q733.9219,99.2012 734.5625,99.373 Q735.2188,99.5293 735.7656,99.8887 Z " fill="#000000"/><text fill="#000000" font-family="sans-serif" font-size="14" lengthAdjust="spacing" textLength="106" x="747" y="109.8105">NavigationGraph</text><line style="stroke:#181818;stroke-width:0.5;" x1="719" x2="855" y1="120.0137" y2="120.0137"/><line style="stroke:#181818;stroke-width:0.5;" x1="719" x2="855" y1="128.0137" y2="128.0137"/></g><g id="elem_GMN26"><path d="M6,496.5137 L6,523.8047 A0,0 0 0 0 6,523.8047 L117.63,523.8047 L148.39,729.2537 L125.63,523.8047 L234,523.8047 A0,0 0 0 0 234,523.8047 L234,506.5137 L224,496.5137 L6,496.5137 A0,0 0 0 0 6,496.5137 " fill="#FEFFDD" style="stroke:#181818;stroke-width:0.5;"/><path d="M224,496.5137 L224,506.5137 L234,506.5137 L224,496.5137 " fill="#FEFFDD" style="stroke:#181818;stroke-width:0.5;"/><text fill="#000000" font-family="sans-serif" font-size="13" lengthAdjust="spacing" textLength="207" x="12" y="515.542">See the Database diagrams section</text></g><!--link NavigationGraph to ExercisesListScreen--><g id="link_NavigationGraph_ExercisesListScreen"><path codeLine="87" d="M787,136.3437 C787,165.9237 787,211.8537 787,251.7837 " fill="none" id="NavigationGraph-to-ExercisesListScreen" style="stroke:#181818;stroke-width:1.0;stroke-dasharray:7.0,7.0;"/><polygon fill="#181818" points="787,257.7837,791,248.7837,787,252.7837,783,248.7837,787,257.7837" style="stroke:#181818;stroke-width:1.0;"/></g><!--link NavigationGraph to ExerciseViewModel--><g id="link_NavigationGraph_ExerciseViewModel"><path codeLine="88" d="M856.25,123.5537 C905.88,132.6837 966.58,147.6437 982,168.0137 C1036.19,239.5937 1038.96,300.6237 982,370.0137 C895.17,475.7837 808.6,383.2237 680,430.0137 C674.24,432.1137 673.9586,432.0824 668.1486,434.5324 " fill="none" id="NavigationGraph-to-ExerciseViewModel" style="stroke:#181818;stroke-width:1.0;stroke-dasharray:7.0,7.0;"/><polygon fill="#181818" points="662.62,436.8637,672.467,437.0524,667.2271,434.9209,669.3586,429.681,662.62,436.8637" style="stroke:#181818;stroke-width:1.0;"/></g><!--link NavigationGraph to ExerciseViewModelFactory--><g id="link_NavigationGraph_ExerciseViewModelFactory"><path codeLine="89" d="M717.8,123.7837 C678.95,131.9137 630.66,145.6237 592,168.0137 C541.73,197.1337 499.7828,242.5745 472.8528,275.5845 " fill="none" id="NavigationGraph-to-ExerciseViewModelFactory" style="stroke:#181818;stroke-width:1.0;stroke-dasharray:7.0,7.0;"/><polygon fill="#181818" points="469.06,280.2337,477.8487,275.7885,472.2207,276.3594,471.6498,270.7314,469.06,280.2337" style="stroke:#181818;stroke-width:1.0;"/></g><!--link ExercisesListContent to Exercise--><g id="link_ExercisesListContent_Exercise"><path codeLine="91" d="M884.97,562.0737 C897.19,574.6437 908.17,589.1137 915,605.0137 C972.43,738.7437 940.355,905.1181 909.725,1009.1281 " fill="none" id="ExercisesListContent-to-Exercise" style="stroke:#181818;stroke-width:1.0;stroke-dasharray:7.0,7.0;"/><polygon fill="#181818" points="908.03,1014.8837,914.4095,1007.3802,909.4425,1010.0873,906.7354,1005.1203,908.03,1014.8837" style="stroke:#181818;stroke-width:1.0;"/></g><!--link ExerciseCard to Exercise--><g id="link_ExerciseCard_Exercise"><path codeLine="92" d="M834.49,866.2637 C842.69,913.7937 851.2106,963.2409 859.0806,1008.8909 " fill="none" id="ExerciseCard-to-Exercise" style="stroke:#181818;stroke-width:1.0;stroke-dasharray:7.0,7.0;"/><polygon fill="#181818" points="860.1,1014.8037,862.5128,1005.2549,859.2505,1009.8764,854.6291,1006.6141,860.1,1014.8037" style="stroke:#181818;stroke-width:1.0;"/></g><!--link Exercise to Dropset--><g id="link_Exercise_Dropset"><path codeLine="93" d="M876,1201.2437 C876,1221.3137 876,1236.1137 876,1254.8137 " fill="none" id="Exercise-to-Dropset" style="stroke:#181818;stroke-width:1.0;stroke-dasharray:7.0,7.0;"/><polygon fill="#181818" points="876,1260.8137,880,1251.8137,876,1255.8137,872,1251.8137,876,1260.8137" style="stroke:#181818;stroke-width:1.0;"/></g><!--link ExercisesListScreen to ExerciseViewModel--><g id="link_ExercisesListScreen_ExerciseViewModel"><path codeLine="95" d="M715.74,370.0837 C691.69,388.6837 669.0773,406.1545 643.0973,426.2345 " fill="none" id="ExercisesListScreen-to-ExerciseViewModel" style="stroke:#181818;stroke-width:1.0;stroke-dasharray:7.0,7.0;"/><polygon fill="#181818" points="638.35,429.9037,647.9171,427.5647,642.3061,426.846,643.0248,421.235,638.35,429.9037" style="stroke:#181818;stroke-width:1.0;"/></g><!--link ExerciseViewModel to datasource--><g id="link_ExerciseViewModel_datasource"><path codeLine="97" d="M412.65,590.0337 C338.09,637.8037 252.6622,692.5271 200.2922,726.0771 " fill="none" id="ExerciseViewModel-to-datasource" style="stroke:#181818;stroke-width:1.0;stroke-dasharray:7.0,7.0;"/><polygon fill="#181818" points="195.24,729.3137,204.976,727.8269,199.4501,726.6165,200.6605,721.0907,195.24,729.3137" style="stroke:#181818;stroke-width:1.0;"/></g><!--link ExercisesListContent to ExerciseCard--><g id="link_ExercisesListContent_ExerciseCard"><path codeLine="100" d="M816,562.2837 C816,587.7037 816,613.3937 816,643.7937 " fill="none" id="ExercisesListContent-to-ExerciseCard" style="stroke:#181818;stroke-width:1.0;stroke-dasharray:7.0,7.0;"/><polygon fill="#181818" points="816,649.7937,820,640.7937,816,644.7937,812,640.7937,816,649.7937" style="stroke:#181818;stroke-width:1.0;"/></g><!--link ExercisesListContent to RemoveExerciseFromListDialog--><g id="link_ExercisesListContent_RemoveExerciseFromListDialog"><path codeLine="101" d="M759.83,562.0737 C745.29,575.7537 729.84,590.7237 716,605.0137 C687.61,634.3237 661.3525,663.7434 636.8425,692.1134 " fill="none" id="ExercisesListContent-to-RemoveExerciseFromListDialog" style="stroke:#181818;stroke-width:1.0;stroke-dasharray:7.0,7.0;"/><polygon fill="#181818" points="632.92,696.6537,641.8306,692.4583,636.1888,692.8701,635.7769,687.2283,632.92,696.6537" style="stroke:#181818;stroke-width:1.0;"/></g><!--link ExercisesListScreen to ExercisesListContent--><g id="link_ExercisesListScreen_ExercisesListContent"><path codeLine="102" d="M795.23,370.0837 C799.35,397.6437 803.4243,424.8594 807.4543,451.8594 " fill="none" id="ExercisesListScreen-to-ExercisesListContent" style="stroke:#181818;stroke-width:1.0;stroke-dasharray:7.0,7.0;"/><polygon fill="#181818" points="808.34,457.7937,810.9676,448.3018,807.6019,452.8485,803.0552,449.4828,808.34,457.7937" style="stroke:#181818;stroke-width:1.0;"/></g><!--SRC=[hLPHJzim47xFhpZniY9enNYCMANHqe46J0AsFRl9DR5mxCXs2mZnttTEOYTfIm4DgrAT-oxdk_lkpYbPXd3yU1oPUovBfba19OckcCwuXAz7Q_ApHujQCZ5HGcd8D7jQKpXLEaLTmtF1aliEdccrB2zaZffR9XCwDw8bMO6cPFIOCikCMchQFaSlNQHGAGf3Kg2L26OCJBKg3Tf6DXnMVmU0aiq5fZ6SAYMGoSD6lk3Qs1WkfFKIWucIQKzaSwvhITSeUT8UU_Q8Ek46ry_bzNlm3OwyDUT-3BTMSvcHV6yl0CjYZlhNuXQjsNoh0M-mHCijLt9Jvm5vbjiB-PCBHUXCA5RXCw_02w9YwzbfdRPWiX_eIu-F9H-PH2DACy8cRCy1IlBjAMJ3N79ZRolTVcAsA0mgGBBLH4chbH2eOxXcgtDbR2kg_VN7_k7uSELg80uMWuYYMFdzO7z_axa-SUrxbQC7SCbNEANAEt4kddYryHYO44xkj8Pj8CIBCjmg_GGwRDSi1IEGeVKF0yhuVgsuKZm5bgO1yfikJYwYnPqgov9QvXMLdR7FM595yDmnTWT43vaRLCqsSI_6KFsTt8rVDLaHwsYZYl3ctiNjGI2tCX53F_sDZfBJAWqnjD71S0o_9NVb-_no6Fd2tLsteqGLfPBaPN-CUAiJfjC6e4Kfu0lkdBzgTeSU2cwtfTZ1Kcw_9wvfkmwtUCtfBWsJgmUFzqQOMrLR_-MfpMEObcloyseeE01QX4QSPLms4vduT7zzc5BI1Pl6QJDqWuLQXIARQLKufgQS2PMr6NjjshdbIQGAe35SKE21morAxcOGstKsQQ6J_BOpmhuWItAeQm2MRcfrsAThRSaZgX4gKvunb-hHTTZ-qApCOJGQRw-YBVFiVqs5flmqGqrtHz7R8VZETSRhIpRWqHjjDEgrpZO3QyzTdURsVe-BpRNoWJn6xzEhJBRV795K5i6g4jIY8wQQHXBd26wqpnd5aN96Npw5SPyGZf-F9leZYVraqxkQ-HEvwFf5xSXCIh_e7m00]--></g></svg>