<?xml version="1.0" encoding="us-ascii" standalone="no"?><svg xmlns="http://www.w3.org/2000/svg" xmlns:xlink="http://www.w3.org/1999/xlink" contentStyleType="text/css" height="380.1px" preserveAspectRatio="none" style="width:795px;height:380px;background:#FFFFFF;" version="1.1" viewBox="0 0 795 380" width="795.2px" zoomAndPan="magnify"><defs/><g><!--cluster components--><g id="cluster_components"><path d="M5.95,204.75 L67.55,204.75 A2.625,2.625 0 0 1 69.3,206.5 L74.2,221.9848 L528.15,221.9848 A1.75,1.75 0 0 1 529.9,223.7348 L529.9,373.8 A1.75,1.75 0 0 1 528.15,375.55 L5.95,375.55 A1.75,1.75 0 0 1 4.2,373.8 L4.2,206.5 A1.75,1.75 0 0 1 5.95,204.75 " fill="none" style="stroke:#000000;stroke-width:1.0499999999999998;"/><line style="stroke:#000000;stroke-width:1.0499999999999998;" x1="4.2" x2="74.2" y1="221.9848" y2="221.9848"/><text fill="#000000" font-family="sans-serif" font-size="9.8" font-weight="bold" lengthAdjust="spacing" textLength="60.9" x="7" y="216.7252">components</text></g><!--cluster HomeScreen--><g id="cluster_HomeScreen"><path d="M22.75,236.25 L86.45,236.25 A2.625,2.625 0 0 1 88.2,238 L93.1,253.4848 L511.35,253.4848 A1.75,1.75 0 0 1 513.1,255.2348 L513.1,357 A1.75,1.75 0 0 1 511.35,358.75 L22.75,358.75 A1.75,1.75 0 0 1 21,357 L21,238 A1.75,1.75 0 0 1 22.75,236.25 " fill="none" style="stroke:#000000;stroke-width:1.0499999999999998;"/><line style="stroke:#000000;stroke-width:1.0499999999999998;" x1="21" x2="93.1" y1="253.4848" y2="253.4848"/><text fill="#000000" font-family="sans-serif" font-size="9.8" font-weight="bold" lengthAdjust="spacing" textLength="63" x="23.8" y="248.2252">HomeScreen</text></g><!--cluster ui--><g id="cluster_ui"><path d="M466.55,68.95 L476.35,68.95 A2.625,2.625 0 0 1 478.1,70.7 L483,86.1848 L689.15,86.1848 A1.75,1.75 0 0 1 690.9,87.9348 L690.9,186.2 A1.75,1.75 0 0 1 689.15,187.95 L466.55,187.95 A1.75,1.75 0 0 1 464.8,186.2 L464.8,70.7 A1.75,1.75 0 0 1 466.55,68.95 " fill="none" style="stroke:#000000;stroke-width:1.0499999999999998;"/><line style="stroke:#000000;stroke-width:1.0499999999999998;" x1="464.8" x2="483" y1="86.1848" y2="86.1848"/><text fill="#000000" font-family="sans-serif" font-size="9.8" font-weight="bold" lengthAdjust="spacing" textLength="9.1" x="467.6" y="80.9252">ui</text></g><!--cluster navigation--><g id="cluster_navigation"><path d="M568.05,100.45 L620.55,100.45 A2.625,2.625 0 0 1 622.3,102.2 L627.2,117.6848 L672.35,117.6848 A1.75,1.75 0 0 1 674.1,119.4348 L674.1,169.4 A1.75,1.75 0 0 1 672.35,171.15 L568.05,171.15 A1.75,1.75 0 0 1 566.3,169.4 L566.3,102.2 A1.75,1.75 0 0 1 568.05,100.45 " fill="none" style="stroke:#000000;stroke-width:1.0499999999999998;"/><line style="stroke:#000000;stroke-width:1.0499999999999998;" x1="566.3" x2="627.2" y1="117.6848" y2="117.6848"/><text fill="#000000" font-family="sans-serif" font-size="9.8" font-weight="bold" lengthAdjust="spacing" textLength="51.8" x="569.1" y="112.4252">navigation</text></g><!--cluster models--><g id="cluster_models"><path d="M709.45,100.45 L745.85,100.45 A2.625,2.625 0 0 1 747.6,102.2 L752.5,117.6848 L788.55,117.6848 A1.75,1.75 0 0 1 790.3,119.4348 L790.3,169.4 A1.75,1.75 0 0 1 788.55,171.15 L709.45,171.15 A1.75,1.75 0 0 1 707.7,169.4 L707.7,102.2 A1.75,1.75 0 0 1 709.45,100.45 " fill="none" style="stroke:#000000;stroke-width:1.0499999999999998;"/><line style="stroke:#000000;stroke-width:1.0499999999999998;" x1="707.7" x2="752.5" y1="117.6848" y2="117.6848"/><text fill="#000000" font-family="sans-serif" font-size="9.8" font-weight="bold" lengthAdjust="spacing" textLength="35.7" x="710.5" y="112.4252">models</text></g><!--class NoWorkoutHomeScreenContentVariant--><g id="elem_NoWorkoutHomeScreenContentVariant"><rect codeLine="13" fill="#F1F1F1" height="85.7391" id="NoWorkoutHomeScreenContentVariant" rx="1.75" ry="1.75" style="stroke:#181818;stroke-width:0.3499999999999999;" width="224.7" x="276.85" y="262.15"/><ellipse cx="300.895" cy="273.35" fill="#ADD1B2" rx="7.7" ry="7.7" style="stroke:#181818;stroke-width:0.6999999999999998;"/><path d="M302.8309,270.4625 Q302.9403,270.3094 303.0716,270.2328 Q303.2028,270.1562 303.3559,270.1562 Q303.6184,270.1562 303.7825,270.3422 Q303.9466,270.5172 303.9466,270.9437 L303.9466,271.9609 Q303.9466,272.3875 303.7825,272.5734 Q303.6184,272.7594 303.3559,272.7594 Q303.1153,272.7594 302.9731,272.6172 Q302.8309,272.4859 302.7544,272.125 Q302.7216,271.8734 302.5903,271.7422 Q302.3606,271.4797 301.9341,271.3266 Q301.5075,271.1734 301.07,271.1734 Q300.5341,271.1734 300.0856,271.4031 Q299.6481,271.6328 299.2981,272.1578 Q298.9591,272.6828 298.9591,273.4047 L298.9591,274.1703 Q298.9591,275.0344 299.5825,275.6141 Q300.2059,276.1828 301.3216,276.1828 Q301.9778,276.1828 302.4372,276.0078 Q302.7106,275.8984 303.0059,275.5922 Q303.1919,275.4062 303.2903,275.3516 Q303.3997,275.2969 303.5419,275.2969 Q303.7716,275.2969 303.9466,275.4828 Q304.1325,275.6578 304.1325,275.8984 Q304.1325,276.1391 303.8919,276.4234 Q303.5419,276.8281 302.9841,277.0578 Q302.2294,277.375 301.3216,277.375 Q300.2606,277.375 299.4184,276.9375 Q298.7294,276.5875 298.2481,275.8437 Q297.7669,275.0891 297.7669,274.1922 L297.7669,273.3828 Q297.7669,272.4531 298.1934,271.6547 Q298.6309,270.8453 299.3966,270.4187 Q300.1622,269.9812 301.0262,269.9812 Q301.5403,269.9812 301.9887,270.1016 Q302.4481,270.2109 302.8309,270.4625 Z " fill="#000000"/><text fill="#000000" font-family="sans-serif" font-size="9.8" lengthAdjust="spacing" textLength="172.2" x="313.705" y="277.4078">NoWorkoutHomeScreenContentVariant</text><line style="stroke:#181818;stroke-width:0.3499999999999999;" x1="277.55" x2="500.85" y1="284.55" y2="284.55"/><ellipse cx="284.55" cy="294.9174" fill="none" rx="2.1" ry="2.1" style="stroke:#038048;stroke-width:0.6999999999999998;"/><text fill="#000000" font-family="sans-serif" font-size="9.8" lengthAdjust="spacing" textLength="111.3" x="290.85" y="297.9252">weekName: DaysInWeek,</text><ellipse cx="284.55" cy="307.9521" fill="none" rx="2.1" ry="2.1" style="stroke:#038048;stroke-width:0.6999999999999998;"/><text fill="#000000" font-family="sans-serif" font-size="9.8" lengthAdjust="spacing" textLength="123.9" x="290.85" y="310.96">allWorkouts: List&lt;Workout&gt;,</text><ellipse cx="284.55" cy="320.9869" fill="none" rx="2.1" ry="2.1" style="stroke:#038048;stroke-width:0.6999999999999998;"/><text fill="#000000" font-family="sans-serif" font-size="9.8" lengthAdjust="spacing" textLength="206.5" x="290.85" y="323.9947">NoWorkoutHomeScreenContentVariantPreview</text><line style="stroke:#181818;stroke-width:0.3499999999999999;" x1="277.55" x2="500.85" y1="329.2543" y2="329.2543"/><ellipse cx="284.55" cy="339.6217" fill="#84BE84" rx="2.1" ry="2.1" style="stroke:#038048;stroke-width:0.6999999999999998;"/><text fill="#000000" font-family="sans-serif" font-size="9.8" lengthAdjust="spacing" textLength="161.7" x="290.85" y="342.6295">onWorkoutAssign: (Workout) -&gt; Unit,</text></g><!--class WorkoutHomeScreenContentVariant--><g id="elem_WorkoutHomeScreenContentVariant"><rect codeLine="19" fill="#F1F1F1" height="59.6695" id="WorkoutHomeScreenContentVariant" rx="1.75" ry="1.75" style="stroke:#181818;stroke-width:0.3499999999999999;" width="219.8" x="32.2" y="275.1"/><ellipse cx="59.395" cy="286.3" fill="#ADD1B2" rx="7.7" ry="7.7" style="stroke:#181818;stroke-width:0.6999999999999998;"/><path d="M61.3309,283.4125 Q61.4403,283.2594 61.5716,283.1828 Q61.7028,283.1062 61.8559,283.1062 Q62.1184,283.1062 62.2825,283.2922 Q62.4466,283.4672 62.4466,283.8937 L62.4466,284.9109 Q62.4466,285.3375 62.2825,285.5234 Q62.1184,285.7094 61.8559,285.7094 Q61.6153,285.7094 61.4731,285.5672 Q61.3309,285.4359 61.2544,285.075 Q61.2216,284.8234 61.0903,284.6922 Q60.8606,284.4297 60.4341,284.2766 Q60.0075,284.1234 59.57,284.1234 Q59.0341,284.1234 58.5856,284.3531 Q58.1481,284.5828 57.7981,285.1078 Q57.4591,285.6328 57.4591,286.3547 L57.4591,287.1203 Q57.4591,287.9844 58.0825,288.5641 Q58.7059,289.1328 59.8216,289.1328 Q60.4778,289.1328 60.9372,288.9578 Q61.2106,288.8484 61.5059,288.5422 Q61.6919,288.3562 61.7903,288.3016 Q61.8997,288.2469 62.0419,288.2469 Q62.2716,288.2469 62.4466,288.4328 Q62.6325,288.6078 62.6325,288.8484 Q62.6325,289.0891 62.3919,289.3734 Q62.0419,289.7781 61.4841,290.0078 Q60.7294,290.325 59.8216,290.325 Q58.7606,290.325 57.9184,289.8875 Q57.2294,289.5375 56.7481,288.7937 Q56.2669,288.0391 56.2669,287.1422 L56.2669,286.3328 Q56.2669,285.4031 56.6934,284.6047 Q57.1309,283.7953 57.8966,283.3687 Q58.6622,282.9312 59.5262,282.9312 Q60.0403,282.9312 60.4887,283.0516 Q60.9481,283.1609 61.3309,283.4125 Z " fill="#000000"/><text fill="#000000" font-family="sans-serif" font-size="9.8" lengthAdjust="spacing" textLength="160.3" x="72.905" y="290.3578">WorkoutHomeScreenContentVariant</text><line style="stroke:#181818;stroke-width:0.3499999999999999;" x1="32.9" x2="251.3" y1="297.5" y2="297.5"/><ellipse cx="39.9" cy="307.8674" fill="none" rx="2.1" ry="2.1" style="stroke:#038048;stroke-width:0.6999999999999998;"/><text fill="#000000" font-family="sans-serif" font-size="9.8" lengthAdjust="spacing" textLength="77" x="46.2" y="310.8752">workout: Workout</text><line style="stroke:#181818;stroke-width:0.3499999999999999;" x1="32.9" x2="251.3" y1="316.1348" y2="316.1348"/><ellipse cx="39.9" cy="326.5021" fill="#84BE84" rx="2.1" ry="2.1" style="stroke:#038048;stroke-width:0.6999999999999998;"/><text fill="#000000" font-family="sans-serif" font-size="9.8" lengthAdjust="spacing" textLength="201.6" x="46.2" y="329.51">WorkoutHomeScreenContentVariantPreview()</text></g><!--class components--><g id="elem_components"><rect fill="#F1F1F1" height="33.6" id="components" rx="1.75" ry="1.75" style="stroke:#181818;stroke-width:0.3499999999999999;" width="76.3" x="476.35" y="126.35"/><ellipse cx="486.85" cy="137.55" fill="#ADD1B2" rx="7.7" ry="7.7" style="stroke:#181818;stroke-width:0.6999999999999998;"/><path d="M488.7859,134.6625 Q488.8953,134.5094 489.0266,134.4328 Q489.1578,134.3562 489.3109,134.3562 Q489.5734,134.3562 489.7375,134.5422 Q489.9016,134.7172 489.9016,135.1437 L489.9016,136.1609 Q489.9016,136.5875 489.7375,136.7734 Q489.5734,136.9594 489.3109,136.9594 Q489.0703,136.9594 488.9281,136.8172 Q488.7859,136.6859 488.7094,136.325 Q488.6766,136.0734 488.5453,135.9422 Q488.3156,135.6797 487.8891,135.5266 Q487.4625,135.3734 487.025,135.3734 Q486.4891,135.3734 486.0406,135.6031 Q485.6031,135.8328 485.2531,136.3578 Q484.9141,136.8828 484.9141,137.6047 L484.9141,138.3703 Q484.9141,139.2344 485.5375,139.8141 Q486.1609,140.3828 487.2766,140.3828 Q487.9328,140.3828 488.3922,140.2078 Q488.6656,140.0984 488.9609,139.7922 Q489.1469,139.6062 489.2453,139.5516 Q489.3547,139.4969 489.4969,139.4969 Q489.7266,139.4969 489.9016,139.6828 Q490.0875,139.8578 490.0875,140.0984 Q490.0875,140.3391 489.8469,140.6234 Q489.4969,141.0281 488.9391,141.2578 Q488.1844,141.575 487.2766,141.575 Q486.2156,141.575 485.3734,141.1375 Q484.6844,140.7875 484.2031,140.0437 Q483.7219,139.2891 483.7219,138.3922 L483.7219,137.5828 Q483.7219,136.6531 484.1484,135.8547 Q484.5859,135.0453 485.3516,134.6187 Q486.1172,134.1812 486.9812,134.1812 Q487.4953,134.1812 487.9437,134.3016 Q488.4031,134.4109 488.7859,134.6625 Z " fill="#000000"/><text fill="#000000" font-family="sans-serif" font-size="9.8" lengthAdjust="spacing" textLength="53.9" x="496.65" y="141.6078">components</text><line style="stroke:#181818;stroke-width:0.3499999999999999;" x1="477.05" x2="551.95" y1="148.75" y2="148.75"/><line style="stroke:#181818;stroke-width:0.3499999999999999;" x1="477.05" x2="551.95" y1="154.35" y2="154.35"/></g><!--class ScreenRoutes--><g id="elem_ScreenRoutes"><rect fill="#F1F1F1" height="33.6" id="ScreenRoutes" rx="1.75" ry="1.75" style="stroke:#181818;stroke-width:0.3499999999999999;" width="85.4" x="577.5" y="126.35"/><ellipse cx="588" cy="137.55" fill="#ADD1B2" rx="7.7" ry="7.7" style="stroke:#181818;stroke-width:0.6999999999999998;"/><path d="M589.9359,134.6625 Q590.0453,134.5094 590.1766,134.4328 Q590.3078,134.3562 590.4609,134.3562 Q590.7234,134.3562 590.8875,134.5422 Q591.0516,134.7172 591.0516,135.1437 L591.0516,136.1609 Q591.0516,136.5875 590.8875,136.7734 Q590.7234,136.9594 590.4609,136.9594 Q590.2203,136.9594 590.0781,136.8172 Q589.9359,136.6859 589.8594,136.325 Q589.8266,136.0734 589.6953,135.9422 Q589.4656,135.6797 589.0391,135.5266 Q588.6125,135.3734 588.175,135.3734 Q587.6391,135.3734 587.1906,135.6031 Q586.7531,135.8328 586.4031,136.3578 Q586.0641,136.8828 586.0641,137.6047 L586.0641,138.3703 Q586.0641,139.2344 586.6875,139.8141 Q587.3109,140.3828 588.4266,140.3828 Q589.0828,140.3828 589.5422,140.2078 Q589.8156,140.0984 590.1109,139.7922 Q590.2969,139.6062 590.3953,139.5516 Q590.5047,139.4969 590.6469,139.4969 Q590.8766,139.4969 591.0516,139.6828 Q591.2375,139.8578 591.2375,140.0984 Q591.2375,140.3391 590.9969,140.6234 Q590.6469,141.0281 590.0891,141.2578 Q589.3344,141.575 588.4266,141.575 Q587.3656,141.575 586.5234,141.1375 Q585.8344,140.7875 585.3531,140.0437 Q584.8719,139.2891 584.8719,138.3922 L584.8719,137.5828 Q584.8719,136.6531 585.2984,135.8547 Q585.7359,135.0453 586.5016,134.6187 Q587.2672,134.1812 588.1312,134.1812 Q588.6453,134.1812 589.0937,134.3016 Q589.5531,134.4109 589.9359,134.6625 Z " fill="#000000"/><text fill="#000000" font-family="sans-serif" font-size="9.8" lengthAdjust="spacing" textLength="63" x="597.8" y="141.6078">ScreenRoutes</text><line style="stroke:#181818;stroke-width:0.3499999999999999;" x1="578.2" x2="662.2" y1="148.75" y2="148.75"/><line style="stroke:#181818;stroke-width:0.3499999999999999;" x1="578.2" x2="662.2" y1="154.35" y2="154.35"/></g><!--class Workout--><g id="elem_Workout"><rect fill="#F1F1F1" height="33.6" id="Workout" rx="1.75" ry="1.75" style="stroke:#181818;stroke-width:0.3499999999999999;" width="59.5" x="719.25" y="126.35"/><ellipse cx="729.75" cy="137.55" fill="#ADD1B2" rx="7.7" ry="7.7" style="stroke:#181818;stroke-width:0.6999999999999998;"/><path d="M731.6859,134.6625 Q731.7953,134.5094 731.9266,134.4328 Q732.0578,134.3562 732.2109,134.3562 Q732.4734,134.3562 732.6375,134.5422 Q732.8016,134.7172 732.8016,135.1437 L732.8016,136.1609 Q732.8016,136.5875 732.6375,136.7734 Q732.4734,136.9594 732.2109,136.9594 Q731.9703,136.9594 731.8281,136.8172 Q731.6859,136.6859 731.6094,136.325 Q731.5766,136.0734 731.4453,135.9422 Q731.2156,135.6797 730.7891,135.5266 Q730.3625,135.3734 729.925,135.3734 Q729.3891,135.3734 728.9406,135.6031 Q728.5031,135.8328 728.1531,136.3578 Q727.8141,136.8828 727.8141,137.6047 L727.8141,138.3703 Q727.8141,139.2344 728.4375,139.8141 Q729.0609,140.3828 730.1766,140.3828 Q730.8328,140.3828 731.2922,140.2078 Q731.5656,140.0984 731.8609,139.7922 Q732.0469,139.6062 732.1453,139.5516 Q732.2547,139.4969 732.3969,139.4969 Q732.6266,139.4969 732.8016,139.6828 Q732.9875,139.8578 732.9875,140.0984 Q732.9875,140.3391 732.7469,140.6234 Q732.3969,141.0281 731.8391,141.2578 Q731.0844,141.575 730.1766,141.575 Q729.1156,141.575 728.2734,141.1375 Q727.5844,140.7875 727.1031,140.0437 Q726.6219,139.2891 726.6219,138.3922 L726.6219,137.5828 Q726.6219,136.6531 727.0484,135.8547 Q727.4859,135.0453 728.2516,134.6187 Q729.0172,134.1812 729.8812,134.1812 Q730.3953,134.1812 730.8437,134.3016 Q731.3031,134.4109 731.6859,134.6625 Z " fill="#000000"/><text fill="#000000" font-family="sans-serif" font-size="9.8" lengthAdjust="spacing" textLength="37.1" x="739.55" y="141.6078">Workout</text><line style="stroke:#181818;stroke-width:0.3499999999999999;" x1="719.95" x2="778.05" y1="148.75" y2="148.75"/><line style="stroke:#181818;stroke-width:0.3499999999999999;" x1="719.95" x2="778.05" y1="154.35" y2="154.35"/></g><!--class HomeScreen--><g id="elem_HomeScreen"><rect codeLine="1" fill="#F1F1F1" height="46.6348" id="HomeScreen" rx="1.75" ry="1.75" style="stroke:#181818;stroke-width:0.3499999999999999;" width="186.9" x="421.05" y="4.9"/><ellipse cx="483.175" cy="16.1" fill="#ADD1B2" rx="7.7" ry="7.7" style="stroke:#181818;stroke-width:0.6999999999999998;"/><path d="M485.1109,13.2125 Q485.2203,13.0594 485.3516,12.9828 Q485.4828,12.9062 485.6359,12.9062 Q485.8984,12.9062 486.0625,13.0922 Q486.2266,13.2672 486.2266,13.6937 L486.2266,14.7109 Q486.2266,15.1375 486.0625,15.3234 Q485.8984,15.5094 485.6359,15.5094 Q485.3953,15.5094 485.2531,15.3672 Q485.1109,15.2359 485.0344,14.875 Q485.0016,14.6234 484.8703,14.4922 Q484.6406,14.2297 484.2141,14.0766 Q483.7875,13.9234 483.35,13.9234 Q482.8141,13.9234 482.3656,14.1531 Q481.9281,14.3828 481.5781,14.9078 Q481.2391,15.4328 481.2391,16.1547 L481.2391,16.9203 Q481.2391,17.7844 481.8625,18.3641 Q482.4859,18.9328 483.6016,18.9328 Q484.2578,18.9328 484.7172,18.7578 Q484.9906,18.6484 485.2859,18.3422 Q485.4719,18.1562 485.5703,18.1016 Q485.6797,18.0469 485.8219,18.0469 Q486.0516,18.0469 486.2266,18.2328 Q486.4125,18.4078 486.4125,18.6484 Q486.4125,18.8891 486.1719,19.1734 Q485.8219,19.5781 485.2641,19.8078 Q484.5094,20.125 483.6016,20.125 Q482.5406,20.125 481.6984,19.6875 Q481.0094,19.3375 480.5281,18.5937 Q480.0469,17.8391 480.0469,16.9422 L480.0469,16.1328 Q480.0469,15.2031 480.4734,14.4047 Q480.9109,13.5953 481.6766,13.1687 Q482.4422,12.7312 483.3062,12.7312 Q483.8203,12.7312 484.2687,12.8516 Q484.7281,12.9609 485.1109,13.2125 Z " fill="#000000"/><text fill="#000000" font-family="sans-serif" font-size="9.8" lengthAdjust="spacing" textLength="56.7" x="497.525" y="20.1578">HomeScreen</text><line style="stroke:#181818;stroke-width:0.3499999999999999;" x1="421.75" x2="607.25" y1="27.3" y2="27.3"/><line style="stroke:#181818;stroke-width:0.3499999999999999;" x1="421.75" x2="607.25" y1="32.9" y2="32.9"/><ellipse cx="428.75" cy="43.2674" fill="#84BE84" rx="2.1" ry="2.1" style="stroke:#038048;stroke-width:0.6999999999999998;"/><text fill="#000000" font-family="sans-serif" font-size="9.8" lengthAdjust="spacing" textLength="168.7" x="435.05" y="46.2752">getCurrentDayOfWeek(): DaysInWeek</text></g><!--class HomeScreenContent--><g id="elem_HomeScreenContent"><rect codeLine="4" fill="#F1F1F1" height="98.7738" id="HomeScreenContent" rx="1.75" ry="1.75" style="stroke:#181818;stroke-width:0.3499999999999999;" width="179.9" x="175.35" y="93.8"/><ellipse cx="216.475" cy="105" fill="#ADD1B2" rx="7.7" ry="7.7" style="stroke:#181818;stroke-width:0.6999999999999998;"/><path d="M218.4109,102.1125 Q218.5203,101.9594 218.6516,101.8828 Q218.7828,101.8062 218.9359,101.8062 Q219.1984,101.8062 219.3625,101.9922 Q219.5266,102.1672 219.5266,102.5937 L219.5266,103.6109 Q219.5266,104.0375 219.3625,104.2234 Q219.1984,104.4094 218.9359,104.4094 Q218.6953,104.4094 218.5531,104.2672 Q218.4109,104.1359 218.3344,103.775 Q218.3016,103.5234 218.1703,103.3922 Q217.9406,103.1297 217.5141,102.9766 Q217.0875,102.8234 216.65,102.8234 Q216.1141,102.8234 215.6656,103.0531 Q215.2281,103.2828 214.8781,103.8078 Q214.5391,104.3328 214.5391,105.0547 L214.5391,105.8203 Q214.5391,106.6844 215.1625,107.2641 Q215.7859,107.8328 216.9016,107.8328 Q217.5578,107.8328 218.0172,107.6578 Q218.2906,107.5484 218.5859,107.2422 Q218.7719,107.0562 218.8703,107.0016 Q218.9797,106.9469 219.1219,106.9469 Q219.3516,106.9469 219.5266,107.1328 Q219.7125,107.3078 219.7125,107.5484 Q219.7125,107.7891 219.4719,108.0734 Q219.1219,108.4781 218.5641,108.7078 Q217.8094,109.025 216.9016,109.025 Q215.8406,109.025 214.9984,108.5875 Q214.3094,108.2375 213.8281,107.4937 Q213.3469,106.7391 213.3469,105.8422 L213.3469,105.0328 Q213.3469,104.1031 213.7734,103.3047 Q214.2109,102.4953 214.9766,102.0687 Q215.7422,101.6312 216.6062,101.6312 Q217.1203,101.6312 217.5687,101.7516 Q218.0281,101.8609 218.4109,102.1125 Z " fill="#000000"/><text fill="#000000" font-family="sans-serif" font-size="9.8" lengthAdjust="spacing" textLength="91.7" x="230.825" y="109.0578">HomeScreenContent</text><line style="stroke:#181818;stroke-width:0.3499999999999999;" x1="176.05" x2="354.55" y1="116.2" y2="116.2"/><ellipse cx="183.05" cy="126.5674" fill="none" rx="2.1" ry="2.1" style="stroke:#038048;stroke-width:0.6999999999999998;"/><text fill="#000000" font-family="sans-serif" font-size="9.8" lengthAdjust="spacing" textLength="135.8" x="189.35" y="129.5752">workoutForTheDay: Workout?,</text><ellipse cx="183.05" cy="139.6021" fill="none" rx="2.1" ry="2.1" style="stroke:#038048;stroke-width:0.6999999999999998;"/><text fill="#000000" font-family="sans-serif" font-size="9.8" lengthAdjust="spacing" textLength="123.9" x="189.35" y="142.61">allWorkouts: List&lt;Workout&gt;,</text><line style="stroke:#181818;stroke-width:0.3499999999999999;" x1="176.05" x2="354.55" y1="147.8695" y2="147.8695"/><ellipse cx="183.05" cy="158.2369" fill="#84BE84" rx="2.1" ry="2.1" style="stroke:#038048;stroke-width:0.6999999999999998;"/><text fill="#000000" font-family="sans-serif" font-size="9.8" lengthAdjust="spacing" textLength="161.7" x="189.35" y="161.2447">onWorkoutAssign: (Workout) -&gt; Unit,</text><ellipse cx="183.05" cy="171.2717" fill="#84BE84" rx="2.1" ry="2.1" style="stroke:#038048;stroke-width:0.6999999999999998;"/><text fill="#000000" font-family="sans-serif" font-size="9.8" lengthAdjust="spacing" textLength="135.8" x="189.35" y="174.2795">HomeScreenContentPreview(),</text><ellipse cx="183.05" cy="184.3064" fill="#84BE84" rx="2.1" ry="2.1" style="stroke:#038048;stroke-width:0.6999999999999998;"/><text fill="#000000" font-family="sans-serif" font-size="9.8" lengthAdjust="spacing" textLength="147.7" x="189.35" y="187.3143">HomeScreenNoContentPreview(),</text></g><!--class datasource--><g id="elem_datasource"><rect fill="#F1F1F1" height="33.6" id="datasource" rx="1.75" ry="1.75" style="stroke:#181818;stroke-width:0.3499999999999999;" width="72.1" x="379.75" y="126.35"/><ellipse cx="390.25" cy="137.55" fill="#ADD1B2" rx="7.7" ry="7.7" style="stroke:#181818;stroke-width:0.6999999999999998;"/><path d="M392.1859,134.6625 Q392.2953,134.5094 392.4266,134.4328 Q392.5578,134.3562 392.7109,134.3562 Q392.9734,134.3562 393.1375,134.5422 Q393.3016,134.7172 393.3016,135.1437 L393.3016,136.1609 Q393.3016,136.5875 393.1375,136.7734 Q392.9734,136.9594 392.7109,136.9594 Q392.4703,136.9594 392.3281,136.8172 Q392.1859,136.6859 392.1094,136.325 Q392.0766,136.0734 391.9453,135.9422 Q391.7156,135.6797 391.2891,135.5266 Q390.8625,135.3734 390.425,135.3734 Q389.8891,135.3734 389.4406,135.6031 Q389.0031,135.8328 388.6531,136.3578 Q388.3141,136.8828 388.3141,137.6047 L388.3141,138.3703 Q388.3141,139.2344 388.9375,139.8141 Q389.5609,140.3828 390.6766,140.3828 Q391.3328,140.3828 391.7922,140.2078 Q392.0656,140.0984 392.3609,139.7922 Q392.5469,139.6062 392.6453,139.5516 Q392.7547,139.4969 392.8969,139.4969 Q393.1266,139.4969 393.3016,139.6828 Q393.4875,139.8578 393.4875,140.0984 Q393.4875,140.3391 393.2469,140.6234 Q392.8969,141.0281 392.3391,141.2578 Q391.5844,141.575 390.6766,141.575 Q389.6156,141.575 388.7734,141.1375 Q388.0844,140.7875 387.6031,140.0437 Q387.1219,139.2891 387.1219,138.3922 L387.1219,137.5828 Q387.1219,136.6531 387.5484,135.8547 Q387.9859,135.0453 388.7516,134.6187 Q389.5172,134.1812 390.3812,134.1812 Q390.8953,134.1812 391.3437,134.3016 Q391.8031,134.4109 392.1859,134.6625 Z " fill="#000000"/><text fill="#000000" font-family="sans-serif" font-size="9.8" lengthAdjust="spacing" textLength="49.7" x="400.05" y="141.6078">datasource</text><line style="stroke:#181818;stroke-width:0.3499999999999999;" x1="380.45" x2="451.15" y1="148.75" y2="148.75"/><line style="stroke:#181818;stroke-width:0.3499999999999999;" x1="380.45" x2="451.15" y1="154.35" y2="154.35"/></g><!--link HomeScreen to HomeScreenContent--><g id="link_HomeScreen_HomeScreenContent"><path codeLine="26" d="M420.889,44.527 C402.696,49.294 384.125,55.44 367.5,63.35 C350.784,71.302 337.5628,79.7865 322.7998,91.0985 " fill="none" id="HomeScreen-to-HomeScreenContent" style="stroke:#181818;stroke-width:0.6999999999999998;stroke-dasharray:7.0,7.0;"/><polygon fill="#181818" points="319.466,93.653,326.1698,92.0438,322.2442,91.5242,322.7637,87.5987,319.466,93.653" style="stroke:#181818;stroke-width:0.6999999999999998;"/></g><!--link HomeScreenContent to NoWorkoutHomeScreenContentVariant--><g id="link_HomeScreenContent_NoWorkoutHomeScreenContentVariant"><path codeLine="27" d="M302.981,192.598 C320.138,214.795 337.6731,237.4913 354.1581,258.8133 " fill="none" id="HomeScreenContent-to-NoWorkoutHomeScreenContentVariant" style="stroke:#181818;stroke-width:0.6999999999999998;stroke-dasharray:7.0,7.0;"/><polygon fill="#181818" points="356.727,262.136,355.0887,255.4393,354.5862,259.3671,350.6584,258.8645,356.727,262.136" style="stroke:#181818;stroke-width:0.6999999999999998;"/></g><!--link HomeScreenContent to WorkoutHomeScreenContentVariant--><g id="link_HomeScreenContent_WorkoutHomeScreenContentVariant"><path codeLine="28" d="M227.836,192.598 C207.165,219.492 184.741,248.6626 167.094,271.6296 " fill="none" id="HomeScreenContent-to-WorkoutHomeScreenContentVariant" style="stroke:#181818;stroke-width:0.6999999999999998;stroke-dasharray:7.0,7.0;"/><polygon fill="#181818" points="164.535,274.96,170.5937,271.6704,166.6675,272.1847,166.1532,268.2584,164.535,274.96" style="stroke:#181818;stroke-width:0.6999999999999998;"/></g><!--link HomeScreen to datasource--><g id="link_HomeScreen_datasource"><path codeLine="30" d="M477.533,51.954 C473.004,55.496 468.629,59.325 464.8,63.35 C446.649,82.425 433.6125,105.5145 425.1845,122.5035 " fill="none" id="HomeScreen-to-datasource" style="stroke:#181818;stroke-width:0.6999999999999998;stroke-dasharray:7.0,7.0;"/><polygon fill="#181818" points="423.318,126.266,428.6261,121.8666,424.8734,123.1306,423.6094,119.378,423.318,126.266" style="stroke:#181818;stroke-width:0.6999999999999998;"/></g><!--link HomeScreen to components--><g id="link_HomeScreen_components"><path codeLine="31" d="M514.5,51.996 C514.5,74.004 514.5,102.473 514.5,121.933 " fill="none" id="HomeScreen-to-components" style="stroke:#181818;stroke-width:0.6999999999999998;stroke-dasharray:7.0,7.0;"/><polygon fill="#181818" points="514.5,126.133,517.3,119.833,514.5,122.633,511.7,119.833,514.5,126.133" style="stroke:#181818;stroke-width:0.6999999999999998;"/></g><!--link HomeScreen to Workout--><g id="link_HomeScreen_Workout"><path codeLine="32" d="M608.013,39.403 C630.623,44.485 654.031,52.066 674.1,63.35 C701.631,78.827 722.679,104.3513 735.685,122.6073 " fill="none" id="HomeScreen-to-Workout" style="stroke:#181818;stroke-width:0.6999999999999998;stroke-dasharray:7.0,7.0;"/><polygon fill="#181818" points="738.122,126.028,736.747,119.2723,736.0912,123.1774,732.1861,122.5216,738.122,126.028" style="stroke:#181818;stroke-width:0.6999999999999998;"/></g><!--link HomeScreen to ScreenRoutes--><g id="link_HomeScreen_ScreenRoutes"><path codeLine="34" d="M560.735,51.905 C565.74,55.37 570.521,59.192 574.7,63.35 C593.11,81.683 604.9659,105.1235 612.2879,122.3855 " fill="none" id="HomeScreen-to-ScreenRoutes" style="stroke:#181818;stroke-width:0.6999999999999998;stroke-dasharray:7.0,7.0;"/><polygon fill="#181818" points="613.928,126.252,614.0456,119.3588,612.5613,123.0299,608.8902,121.5456,613.928,126.252" style="stroke:#181818;stroke-width:0.6999999999999998;"/></g><!--SRC=[bLBBJiCm4BpxA_QOYE8FY50GAa8WeO1uzMovIx6QU2lRQOLG_XqNEoMAgKAFkpEpkpEsh8MrS4iDFak3gE6B0S0PhD3DMsDGksln-V2-G5ndUG6-i7TwNx6EoP5sJjfvGHZXP-p8hAbrDsHUFj0h2rY4pkKiCaHTnvOju5vPTn7BicUGZfqhQzLA5v35EeVp4bwrSZqpkUFHu5RXBijJHaKffsDCYmRjHaW4ISs6j2TOFiu6WksAuY79tZTXb3Z44AFmYLL- -Z31sG2V2kAqC09xyi9e_aVI3QoTP2nm3qyxWFwtFSlZVfy_6sJDUPa-AKi_svutwVI8RaerlcSfdB3K6ebZf5NyzykCmOQMM5lU9_I7LekjMWcdIFC0F7aYMlOD]--></g></svg>