<?xml version="1.0" encoding="us-ascii" standalone="no"?><svg xmlns="http://www.w3.org/2000/svg" xmlns:xlink="http://www.w3.org/1999/xlink" contentStyleType="text/css" height="463.59px" preserveAspectRatio="none" style="width:1211px;height:463px;background:#FFFFFF;" version="1.1" viewBox="0 0 1211 463" width="1211.25px" zoomAndPan="magnify"><defs/><g><!--cluster ui--><g id="cluster_ui"><path d="M4.335,3.067 L11.475,3.067 A1.9125,1.9125 0 0 1 12.75,4.342 L16.32,15.6237 L968.235,15.6237 A1.275,1.275 0 0 1 969.51,16.8987 L969.51,458.752 A1.275,1.275 0 0 1 968.235,460.027 L4.335,460.027 A1.275,1.275 0 0 1 3.06,458.752 L3.06,4.342 A1.275,1.275 0 0 1 4.335,3.067 " fill="none" style="stroke:#000000;stroke-width:0.765;"/><line style="stroke:#000000;stroke-width:0.765;" x1="3.06" x2="16.32" y1="15.6237" y2="15.6237"/><text fill="#000000" font-family="sans-serif" font-size="7.14" font-weight="bold" lengthAdjust="spacing" textLength="6.63" x="5.1" y="11.7918">ui</text></g><!--cluster components--><g id="cluster_components"><path d="M232.815,97.417 L277.695,97.417 A1.9125,1.9125 0 0 1 278.97,98.692 L282.54,109.9737 L743.835,109.9737 A1.275,1.275 0 0 1 745.11,111.2487 L745.11,305.752 A1.275,1.275 0 0 1 743.835,307.027 L232.815,307.027 A1.275,1.275 0 0 1 231.54,305.752 L231.54,98.692 A1.275,1.275 0 0 1 232.815,97.417 " fill="none" style="stroke:#000000;stroke-width:0.765;"/><line style="stroke:#000000;stroke-width:0.765;" x1="231.54" x2="282.54" y1="109.9737" y2="109.9737"/><text fill="#000000" font-family="sans-serif" font-size="7.14" font-weight="bold" lengthAdjust="spacing" textLength="44.37" x="233.58" y="106.1418">components</text></g><!--cluster navigation--><g id="cluster_navigation"><path d="M758.625,229.762 L796.875,229.762 A1.9125,1.9125 0 0 1 798.15,231.037 L801.72,242.3187 L955.995,242.3187 A1.275,1.275 0 0 1 957.27,243.5937 L957.27,446.512 A1.275,1.275 0 0 1 955.995,447.787 L758.625,447.787 A1.275,1.275 0 0 1 757.35,446.512 L757.35,231.037 A1.275,1.275 0 0 1 758.625,229.762 " fill="none" style="stroke:#000000;stroke-width:0.765;"/><line style="stroke:#000000;stroke-width:0.765;" x1="757.35" x2="801.72" y1="242.3187" y2="242.3187"/><text fill="#000000" font-family="sans-serif" font-size="7.14" font-weight="bold" lengthAdjust="spacing" textLength="37.74" x="759.39" y="238.4868">navigation</text></g><!--cluster models--><g id="cluster_models"><path d="M260.355,339.157 L286.875,339.157 A1.9125,1.9125 0 0 1 288.15,340.432 L291.72,351.7137 L366.945,351.7137 A1.275,1.275 0 0 1 368.22,352.9887 L368.22,417.952 A1.275,1.275 0 0 1 366.945,419.227 L260.355,419.227 A1.275,1.275 0 0 1 259.08,417.952 L259.08,340.432 A1.275,1.275 0 0 1 260.355,339.157 " fill="none" style="stroke:#000000;stroke-width:0.765;"/><line style="stroke:#000000;stroke-width:0.765;" x1="259.08" x2="291.72" y1="351.7137" y2="351.7137"/><text fill="#000000" font-family="sans-serif" font-size="7.14" font-weight="bold" lengthAdjust="spacing" textLength="26.01" x="261.12" y="347.8818">models</text></g><!--cluster screens--><g id="cluster_screens"><path d="M24.735,34.177 L54.315,34.177 A1.9125,1.9125 0 0 1 55.59,35.452 L59.16,46.7337 L209.865,46.7337 A1.275,1.275 0 0 1 211.14,48.0087 L211.14,181.567 A1.275,1.275 0 0 1 209.865,182.842 L24.735,182.842 A1.275,1.275 0 0 1 23.46,181.567 L23.46,35.452 A1.275,1.275 0 0 1 24.735,34.177 " fill="none" style="stroke:#000000;stroke-width:0.765;"/><line style="stroke:#000000;stroke-width:0.765;" x1="23.46" x2="59.16" y1="46.7337" y2="46.7337"/><text fill="#000000" font-family="sans-serif" font-size="7.14" font-weight="bold" lengthAdjust="spacing" textLength="29.07" x="25.5" y="42.9018">screens</text></g><!--class ApplicationScaffold--><g id="elem_ApplicationScaffold"><rect codeLine="4" fill="#F1F1F1" height="76.0438" id="ApplicationScaffold" rx="1.275" ry="1.275" style="stroke:#181818;stroke-width:0.255;" width="240.72" x="308.55" y="116.287"/><ellipse cx="396.1425" cy="124.447" fill="#ADD1B2" rx="5.61" ry="5.61" style="stroke:#181818;stroke-width:0.51;"/><path d="M397.553,122.3432 Q397.6327,122.2317 397.7283,122.1759 Q397.8239,122.1201 397.9355,122.1201 Q398.1267,122.1201 398.2463,122.2556 Q398.3658,122.3831 398.3658,122.6938 L398.3658,123.4349 Q398.3658,123.7457 398.2463,123.8812 Q398.1267,124.0167 397.9355,124.0167 Q397.7602,124.0167 397.6566,123.9131 Q397.553,123.8174 397.4972,123.5545 Q397.4733,123.3712 397.3777,123.2756 Q397.2103,123.0843 396.8995,122.9728 Q396.5888,122.8612 396.27,122.8612 Q395.8795,122.8612 395.5528,123.0285 Q395.2341,123.1959 394.9791,123.5784 Q394.732,123.9609 394.732,124.4868 L394.732,125.0446 Q394.732,125.6742 395.1863,126.0965 Q395.6405,126.5109 396.4533,126.5109 Q396.9314,126.5109 397.2661,126.3834 Q397.4653,126.3037 397.6805,126.0806 Q397.8159,125.9451 397.8877,125.9053 Q397.9673,125.8654 398.0709,125.8654 Q398.2383,125.8654 398.3658,126.0009 Q398.5013,126.1284 398.5013,126.3037 Q398.5013,126.479 398.3259,126.6862 Q398.0709,126.981 397.6645,127.1484 Q397.1147,127.3795 396.4533,127.3795 Q395.6803,127.3795 395.0667,127.0607 Q394.5647,126.8057 394.2141,126.2638 Q393.8634,125.714 393.8634,125.0606 L393.8634,124.4709 Q393.8634,123.7935 394.1742,123.2118 Q394.493,122.6221 395.0508,122.3113 Q395.6086,121.9926 396.2381,121.9926 Q396.6127,121.9926 396.9394,122.0803 Q397.2741,122.1599 397.553,122.3432 Z " fill="#000000"/><text fill="#000000" font-family="sans-serif" font-size="7.14" lengthAdjust="spacing" textLength="61.2" x="406.5975" y="127.4034">ApplicationScaffold</text><line style="stroke:#181818;stroke-width:0.255;" x1="309.06" x2="548.76" y1="132.607" y2="132.607"/><line style="stroke:#181818;stroke-width:0.51;" x1="309.06" x2="548.76" y1="136.687" y2="136.687"/><text fill="#000000" font-family="sans-serif" font-size="7.14" lengthAdjust="spacing" textLength="63.75" x="311.61" y="146.4318">ApplicationScaffold(</text><text fill="#000000" font-family="sans-serif" font-size="7.14" lengthAdjust="spacing" textLength="107.61" x="311.61" y="155.9285">navController: NavHostController,</text><text fill="#000000" font-family="sans-serif" font-size="7.14" lengthAdjust="spacing" textLength="108.63" x="311.61" y="165.4253">coroutineScope: CoroutineScope,</text><text fill="#000000" font-family="sans-serif" font-size="7.14" lengthAdjust="spacing" textLength="201.45" x="311.61" y="174.922">topBarLabel: String = stringResource(id = R.string.app_name),</text><text fill="#000000" font-family="sans-serif" font-size="7.14" lengthAdjust="spacing" textLength="234.6" x="311.61" y="184.4188">pageContent: @Composable (innerPadding: PaddingValues) -&gt; Unit = {})</text><line style="stroke:#181818;stroke-width:0.51;" x1="309.06" x2="548.76" y1="188.2508" y2="188.2508"/></g><!--class NavigationDrawer--><g id="elem_NavigationDrawer"><rect codeLine="13" fill="#F1F1F1" height="76.0438" id="NavigationDrawer" rx="1.275" ry="1.275" style="stroke:#181818;stroke-width:0.255;" width="127.5" x="609.45" y="222.877"/><ellipse cx="642.7275" cy="231.037" fill="#ADD1B2" rx="5.61" ry="5.61" style="stroke:#181818;stroke-width:0.51;"/><path d="M644.138,228.9332 Q644.2177,228.8217 644.3133,228.7659 Q644.4089,228.7101 644.5205,228.7101 Q644.7117,228.7101 644.8313,228.8456 Q644.9508,228.9731 644.9508,229.2838 L644.9508,230.0249 Q644.9508,230.3357 644.8313,230.4712 Q644.7117,230.6067 644.5205,230.6067 Q644.3452,230.6067 644.2416,230.5031 Q644.138,230.4074 644.0822,230.1445 Q644.0583,229.9612 643.9627,229.8656 Q643.7953,229.6743 643.4845,229.5628 Q643.1738,229.4512 642.855,229.4512 Q642.4645,229.4512 642.1378,229.6185 Q641.8191,229.7859 641.5641,230.1684 Q641.317,230.5509 641.317,231.0768 L641.317,231.6346 Q641.317,232.2642 641.7713,232.6865 Q642.2255,233.1009 643.0383,233.1009 Q643.5164,233.1009 643.8511,232.9734 Q644.0503,232.8937 644.2655,232.6706 Q644.4009,232.5351 644.4727,232.4953 Q644.5523,232.4554 644.6559,232.4554 Q644.8233,232.4554 644.9508,232.5909 Q645.0863,232.7184 645.0863,232.8937 Q645.0863,233.069 644.9109,233.2762 Q644.6559,233.571 644.2495,233.7384 Q643.6997,233.9695 643.0383,233.9695 Q642.2653,233.9695 641.6517,233.6507 Q641.1497,233.3957 640.7991,232.8538 Q640.4484,232.304 640.4484,231.6506 L640.4484,231.0609 Q640.4484,230.3835 640.7592,229.8018 Q641.078,229.2121 641.6358,228.9013 Q642.1936,228.5826 642.8231,228.5826 Q643.1977,228.5826 643.5244,228.6703 Q643.8591,228.7499 644.138,228.9332 Z " fill="#000000"/><text fill="#000000" font-family="sans-serif" font-size="7.14" lengthAdjust="spacing" textLength="56.61" x="653.1825" y="233.9934">NavigationDrawer</text><line style="stroke:#181818;stroke-width:0.255;" x1="609.96" x2="736.44" y1="239.197" y2="239.197"/><line style="stroke:#181818;stroke-width:0.51;" x1="609.96" x2="736.44" y1="243.277" y2="243.277"/><text fill="#000000" font-family="sans-serif" font-size="7.14" lengthAdjust="spacing" textLength="59.16" x="612.51" y="253.0218">NavigationDrawer(</text><text fill="#000000" font-family="sans-serif" font-size="7.14" lengthAdjust="spacing" textLength="93.33" x="612.51" y="262.5185">navController: NavController,</text><text fill="#000000" font-family="sans-serif" font-size="7.14" lengthAdjust="spacing" textLength="84.66" x="612.51" y="272.0153">drawerState: DrawerState,</text><text fill="#000000" font-family="sans-serif" font-size="7.14" lengthAdjust="spacing" textLength="87.21" x="612.51" y="281.512">closeDrawer: () -&gt; Unit = {},</text><text fill="#000000" font-family="sans-serif" font-size="7.14" lengthAdjust="spacing" textLength="121.38" x="612.51" y="291.0088">content: @Composable () -&gt; Unit = {})</text><line style="stroke:#181818;stroke-width:0.51;" x1="609.96" x2="736.44" y1="294.8408" y2="294.8408"/></g><!--class TopAppBar--><g id="elem_TopAppBar"><rect codeLine="22" fill="#F1F1F1" height="57.0503" id="TopAppBar" rx="1.275" ry="1.275" style="stroke:#181818;stroke-width:0.255;" width="186.15" x="405.195" y="232.312"/><ellipse cx="477.7425" cy="240.472" fill="#ADD1B2" rx="5.61" ry="5.61" style="stroke:#181818;stroke-width:0.51;"/><path d="M479.153,238.3682 Q479.2327,238.2567 479.3283,238.2009 Q479.4239,238.1451 479.5355,238.1451 Q479.7267,238.1451 479.8463,238.2806 Q479.9658,238.4081 479.9658,238.7188 L479.9658,239.4599 Q479.9658,239.7707 479.8463,239.9062 Q479.7267,240.0417 479.5355,240.0417 Q479.3602,240.0417 479.2566,239.9381 Q479.153,239.8424 479.0972,239.5795 Q479.0733,239.3962 478.9777,239.3006 Q478.8103,239.1093 478.4995,238.9978 Q478.1888,238.8862 477.87,238.8862 Q477.4795,238.8862 477.1528,239.0535 Q476.8341,239.2209 476.5791,239.6034 Q476.332,239.9859 476.332,240.5118 L476.332,241.0696 Q476.332,241.6992 476.7863,242.1215 Q477.2405,242.5359 478.0533,242.5359 Q478.5314,242.5359 478.8661,242.4084 Q479.0653,242.3287 479.2805,242.1056 Q479.4159,241.9701 479.4877,241.9303 Q479.5673,241.8904 479.6709,241.8904 Q479.8383,241.8904 479.9658,242.0259 Q480.1013,242.1534 480.1013,242.3287 Q480.1013,242.504 479.9259,242.7112 Q479.6709,243.006 479.2645,243.1734 Q478.7147,243.4045 478.0533,243.4045 Q477.2803,243.4045 476.6667,243.0857 Q476.1647,242.8307 475.8141,242.2888 Q475.4634,241.739 475.4634,241.0856 L475.4634,240.4959 Q475.4634,239.8185 475.7742,239.2368 Q476.093,238.6471 476.6508,238.3363 Q477.2086,238.0176 477.8381,238.0176 Q478.2127,238.0176 478.5394,238.1053 Q478.8741,238.1849 479.153,238.3682 Z " fill="#000000"/><text fill="#000000" font-family="sans-serif" font-size="7.14" lengthAdjust="spacing" textLength="36.72" x="488.1975" y="243.4284">TopAppBar</text><line style="stroke:#181818;stroke-width:0.255;" x1="405.705" x2="590.835" y1="248.632" y2="248.632"/><line style="stroke:#181818;stroke-width:0.51;" x1="405.705" x2="590.835" y1="252.712" y2="252.712"/><text fill="#000000" font-family="sans-serif" font-size="7.14" lengthAdjust="spacing" textLength="39.27" x="408.255" y="262.4568">TopAppBar(</text><text fill="#000000" font-family="sans-serif" font-size="7.14" lengthAdjust="spacing" textLength="70.89" x="408.255" y="271.9535">onClick: () -&gt; Unit = {},</text><text fill="#000000" font-family="sans-serif" font-size="7.14" lengthAdjust="spacing" textLength="180.03" x="408.255" y="281.4503">label: String = stringResource(id = R.string.app_name),)</text><line style="stroke:#181818;stroke-width:0.51;" x1="405.705" x2="590.835" y1="285.2822" y2="285.2822"/></g><!--class NavigationBar--><g id="elem_NavigationBar"><rect codeLine="29" fill="#F1F1F1" height="38.0568" id="NavigationBar" rx="1.275" ry="1.275" style="stroke:#181818;stroke-width:0.255;" width="147.39" x="239.955" y="241.747"/><ellipse cx="289.0425" cy="249.907" fill="#ADD1B2" rx="5.61" ry="5.61" style="stroke:#181818;stroke-width:0.51;"/><path d="M290.453,247.8032 Q290.5327,247.6917 290.6283,247.6359 Q290.7239,247.5801 290.8355,247.5801 Q291.0267,247.5801 291.1463,247.7156 Q291.2658,247.8431 291.2658,248.1538 L291.2658,248.8949 Q291.2658,249.2057 291.1463,249.3412 Q291.0267,249.4767 290.8355,249.4767 Q290.6602,249.4767 290.5566,249.3731 Q290.453,249.2774 290.3972,249.0145 Q290.3733,248.8312 290.2777,248.7356 Q290.1103,248.5443 289.7995,248.4328 Q289.4888,248.3212 289.17,248.3212 Q288.7795,248.3212 288.4528,248.4885 Q288.1341,248.6559 287.8791,249.0384 Q287.632,249.4209 287.632,249.9468 L287.632,250.5046 Q287.632,251.1342 288.0863,251.5565 Q288.5405,251.9709 289.3533,251.9709 Q289.8314,251.9709 290.1661,251.8434 Q290.3653,251.7637 290.5805,251.5406 Q290.7159,251.4051 290.7877,251.3653 Q290.8673,251.3254 290.9709,251.3254 Q291.1383,251.3254 291.2658,251.4609 Q291.4013,251.5884 291.4013,251.7637 Q291.4013,251.939 291.2259,252.1462 Q290.9709,252.441 290.5645,252.6084 Q290.0147,252.8395 289.3533,252.8395 Q288.5803,252.8395 287.9667,252.5207 Q287.4647,252.2657 287.1141,251.7238 Q286.7634,251.174 286.7634,250.5206 L286.7634,249.9309 Q286.7634,249.2535 287.0742,248.6718 Q287.393,248.0821 287.9508,247.7713 Q288.5086,247.4526 289.1381,247.4526 Q289.5127,247.4526 289.8394,247.5403 Q290.1741,247.6199 290.453,247.8032 Z " fill="#000000"/><text fill="#000000" font-family="sans-serif" font-size="7.14" lengthAdjust="spacing" textLength="44.88" x="299.4975" y="252.8634">NavigationBar</text><line style="stroke:#181818;stroke-width:0.255;" x1="240.465" x2="386.835" y1="258.067" y2="258.067"/><line style="stroke:#181818;stroke-width:0.51;" x1="240.465" x2="386.835" y1="262.147" y2="262.147"/><text fill="#000000" font-family="sans-serif" font-size="7.14" lengthAdjust="spacing" textLength="141.27" x="243.015" y="271.8918">NavigationBar(navController: NavController)</text><line style="stroke:#181818;stroke-width:0.51;" x1="240.465" x2="386.835" y1="275.7237" y2="275.7237"/></g><!--class Screen--><g id="elem_Screen"><rect codeLine="36" fill="#F1F1F1" height="109.9508" id="Screen" rx="1.275" ry="1.275" style="stroke:#181818;stroke-width:0.255;" width="183.6" x="765.51" y="329.467"/><ellipse cx="843.6675" cy="337.627" fill="#ADD1B2" rx="5.61" ry="5.61" style="stroke:#181818;stroke-width:0.51;"/><path d="M845.078,335.5232 Q845.1577,335.4117 845.2533,335.3559 Q845.3489,335.3001 845.4605,335.3001 Q845.6517,335.3001 845.7713,335.4356 Q845.8908,335.5631 845.8908,335.8738 L845.8908,336.6149 Q845.8908,336.9257 845.7713,337.0612 Q845.6517,337.1967 845.4605,337.1967 Q845.2852,337.1967 845.1816,337.0931 Q845.078,336.9974 845.0222,336.7345 Q844.9983,336.5512 844.9027,336.4556 Q844.7353,336.2643 844.4245,336.1528 Q844.1138,336.0412 843.795,336.0412 Q843.4045,336.0412 843.0778,336.2085 Q842.7591,336.3759 842.5041,336.7584 Q842.257,337.1409 842.257,337.6668 L842.257,338.2246 Q842.257,338.8542 842.7113,339.2765 Q843.1655,339.6909 843.9783,339.6909 Q844.4564,339.6909 844.7911,339.5634 Q844.9903,339.4837 845.2055,339.2606 Q845.3409,339.1251 845.4127,339.0853 Q845.4923,339.0454 845.5959,339.0454 Q845.7633,339.0454 845.8908,339.1809 Q846.0263,339.3084 846.0263,339.4837 Q846.0263,339.659 845.8509,339.8662 Q845.5959,340.161 845.1895,340.3284 Q844.6397,340.5595 843.9783,340.5595 Q843.2053,340.5595 842.5917,340.2407 Q842.0897,339.9857 841.7391,339.4438 Q841.3884,338.894 841.3884,338.2406 L841.3884,337.6509 Q841.3884,336.9735 841.6992,336.3918 Q842.018,335.8021 842.5758,335.4913 Q843.1336,335.1726 843.7631,335.1726 Q844.1377,335.1726 844.4644,335.2603 Q844.7991,335.3399 845.078,335.5232 Z " fill="#000000"/><text fill="#000000" font-family="sans-serif" font-size="7.14" lengthAdjust="spacing" textLength="22.95" x="854.1225" y="340.5834">Screen</text><line style="stroke:#181818;stroke-width:0.255;" x1="766.02" x2="948.6" y1="345.787" y2="345.787"/><ellipse cx="771.12" cy="353.3404" fill="none" rx="1.53" ry="1.53" style="stroke:#038048;stroke-width:0.51;"/><text fill="#000000" font-family="sans-serif" font-size="7.14" lengthAdjust="spacing" textLength="111.18" x="775.71" y="355.5318">screensInBottomBar: List&lt;Screen&gt;</text><line style="stroke:#181818;stroke-width:0.255;" x1="766.02" x2="948.6" y1="359.3637" y2="359.3637"/><text fill="#000000" font-family="sans-serif" font-size="7.14" lengthAdjust="spacing" textLength="96.9" x="768.57" y="369.1085">object Home : Screen("home")</text><text fill="#000000" font-family="sans-serif" font-size="7.14" lengthAdjust="spacing" textLength="105.57" x="768.57" y="378.6053">object Weekly : Screen("weekly")</text><text fill="#000000" font-family="sans-serif" font-size="7.14" lengthAdjust="spacing" textLength="132.6" x="768.57" y="388.102">object ExercisesList : Screen("exercises")</text><text fill="#000000" font-family="sans-serif" font-size="7.14" lengthAdjust="spacing" textLength="144.84" x="768.57" y="397.5988">object ExerciseAdd : Screen("exercises/add")</text><text fill="#000000" font-family="sans-serif" font-size="7.14" lengthAdjust="spacing" textLength="177.48" x="768.57" y="407.0955">object ExerciseEdit : Screen("exercises/edit/{exercise}")</text><text fill="#000000" font-family="sans-serif" font-size="7.14" lengthAdjust="spacing" textLength="119.85" x="768.57" y="416.5923">object Workouts : Screen("workouts")</text><text fill="#000000" font-family="sans-serif" font-size="7.14" lengthAdjust="spacing" textLength="143.31" x="768.57" y="426.0891">object WorkoutAdd : Screen("workouts/add")</text><text fill="#000000" font-family="sans-serif" font-size="7.14" lengthAdjust="spacing" textLength="174.42" x="768.57" y="435.5858">object WorkoutEdit : Screen("workouts/edit/{workout}")</text></g><!--class NavigationGraph--><g id="elem_NavigationGraph"><rect codeLine="51" fill="#F1F1F1" height="24.48" id="NavigationGraph" rx="1.275" ry="1.275" style="stroke:#181818;stroke-width:0.255;" width="70.38" x="822.12" y="248.632"/><ellipse cx="829.77" cy="256.792" fill="#ADD1B2" rx="5.61" ry="5.61" style="stroke:#181818;stroke-width:0.51;"/><path d="M831.1805,254.6882 Q831.2602,254.5767 831.3558,254.5209 Q831.4514,254.4651 831.563,254.4651 Q831.7542,254.4651 831.8738,254.6006 Q831.9933,254.7281 831.9933,255.0388 L831.9933,255.7799 Q831.9933,256.0907 831.8738,256.2262 Q831.7542,256.3617 831.563,256.3617 Q831.3877,256.3617 831.2841,256.2581 Q831.1805,256.1624 831.1247,255.8995 Q831.1008,255.7162 831.0052,255.6206 Q830.8378,255.4293 830.527,255.3178 Q830.2163,255.2062 829.8975,255.2062 Q829.507,255.2062 829.1803,255.3735 Q828.8616,255.5409 828.6066,255.9234 Q828.3595,256.3059 828.3595,256.8318 L828.3595,257.3896 Q828.3595,258.0192 828.8138,258.4415 Q829.268,258.8559 830.0808,258.8559 Q830.5589,258.8559 830.8936,258.7284 Q831.0928,258.6487 831.308,258.4256 Q831.4434,258.2901 831.5152,258.2503 Q831.5948,258.2104 831.6984,258.2104 Q831.8658,258.2104 831.9933,258.3459 Q832.1288,258.4734 832.1288,258.6487 Q832.1288,258.824 831.9534,259.0312 Q831.6984,259.326 831.292,259.4934 Q830.7422,259.7245 830.0808,259.7245 Q829.3078,259.7245 828.6942,259.4057 Q828.1922,259.1507 827.8416,258.6088 Q827.4909,258.059 827.4909,257.4056 L827.4909,256.8159 Q827.4909,256.1385 827.8017,255.5568 Q828.1205,254.9671 828.6783,254.6563 Q829.2361,254.3376 829.8656,254.3376 Q830.2402,254.3376 830.5669,254.4253 Q830.9016,254.5049 831.1805,254.6882 Z " fill="#000000"/><text fill="#000000" font-family="sans-serif" font-size="7.14" lengthAdjust="spacing" textLength="54.06" x="836.91" y="259.7484">NavigationGraph</text><line style="stroke:#181818;stroke-width:0.255;" x1="822.63" x2="891.99" y1="264.952" y2="264.952"/><line style="stroke:#181818;stroke-width:0.255;" x1="822.63" x2="891.99" y1="269.032" y2="269.032"/></g><!--class IconGroup--><g id="elem_IconGroup"><rect codeLine="54" fill="#F1F1F1" height="52.9703" id="IconGroup" rx="1.275" ry="1.275" style="stroke:#181818;stroke-width:0.255;" width="92.31" x="267.495" y="358.027"/><ellipse cx="294.6525" cy="366.187" fill="#ADD1B2" rx="5.61" ry="5.61" style="stroke:#181818;stroke-width:0.51;"/><path d="M296.063,364.0832 Q296.1427,363.9717 296.2383,363.9159 Q296.3339,363.8601 296.4455,363.8601 Q296.6367,363.8601 296.7563,363.9956 Q296.8758,364.1231 296.8758,364.4338 L296.8758,365.1749 Q296.8758,365.4857 296.7563,365.6212 Q296.6367,365.7567 296.4455,365.7567 Q296.2702,365.7567 296.1666,365.6531 Q296.063,365.5574 296.0072,365.2945 Q295.9833,365.1112 295.8877,365.0156 Q295.7203,364.8243 295.4095,364.7128 Q295.0988,364.6012 294.78,364.6012 Q294.3895,364.6012 294.0628,364.7685 Q293.7441,364.9359 293.4891,365.3184 Q293.242,365.7009 293.242,366.2268 L293.242,366.7846 Q293.242,367.4142 293.6963,367.8365 Q294.1505,368.2509 294.9633,368.2509 Q295.4414,368.2509 295.7761,368.1234 Q295.9753,368.0437 296.1905,367.8206 Q296.3259,367.6851 296.3977,367.6453 Q296.4773,367.6054 296.5809,367.6054 Q296.7483,367.6054 296.8758,367.7409 Q297.0113,367.8684 297.0113,368.0437 Q297.0113,368.219 296.8359,368.4262 Q296.5809,368.721 296.1745,368.8884 Q295.6247,369.1195 294.9633,369.1195 Q294.1903,369.1195 293.5767,368.8007 Q293.0747,368.5457 292.7241,368.0038 Q292.3734,367.454 292.3734,366.8006 L292.3734,366.2109 Q292.3734,365.5335 292.6842,364.9518 Q293.003,364.3621 293.5608,364.0513 Q294.1186,363.7326 294.7481,363.7326 Q295.1227,363.7326 295.4494,363.8203 Q295.7841,363.8999 296.063,364.0832 Z " fill="#000000"/><text fill="#000000" font-family="sans-serif" font-size="7.14" lengthAdjust="spacing" textLength="33.66" x="305.1075" y="369.1434">IconGroup</text><line style="stroke:#181818;stroke-width:0.255;" x1="268.005" x2="359.295" y1="374.347" y2="374.347"/><ellipse cx="273.105" cy="381.9004" fill="none" rx="1.53" ry="1.53" style="stroke:#038048;stroke-width:0.51;"/><text fill="#000000" font-family="sans-serif" font-size="7.14" lengthAdjust="spacing" textLength="72.42" x="277.695" y="384.0918">filledIcon: ImageVector</text><ellipse cx="273.105" cy="391.3971" fill="none" rx="1.53" ry="1.53" style="stroke:#038048;stroke-width:0.51;"/><text fill="#000000" font-family="sans-serif" font-size="7.14" lengthAdjust="spacing" textLength="79.05" x="277.695" y="393.5885">outlineIcon: ImageVector</text><ellipse cx="273.105" cy="400.8939" fill="none" rx="1.53" ry="1.53" style="stroke:#038048;stroke-width:0.51;"/><text fill="#000000" font-family="sans-serif" font-size="7.14" lengthAdjust="spacing" textLength="38.25" x="277.695" y="403.0853">label: String</text><line style="stroke:#181818;stroke-width:0.255;" x1="268.005" x2="359.295" y1="406.9172" y2="406.9172"/></g><!--class HomeScreen--><g id="elem_HomeScreen"><rect codeLine="68" fill="#F1F1F1" height="24.48" id="HomeScreen" rx="1.275" ry="1.275" style="stroke:#181818;stroke-width:0.255;" width="57.63" x="40.035" y="61.207"/><ellipse cx="47.685" cy="69.367" fill="#ADD1B2" rx="5.61" ry="5.61" style="stroke:#181818;stroke-width:0.51;"/><path d="M49.0955,67.2632 Q49.1752,67.1517 49.2708,67.0959 Q49.3664,67.0401 49.478,67.0401 Q49.6692,67.0401 49.7888,67.1756 Q49.9083,67.3031 49.9083,67.6138 L49.9083,68.3549 Q49.9083,68.6657 49.7888,68.8012 Q49.6692,68.9367 49.478,68.9367 Q49.3027,68.9367 49.1991,68.8331 Q49.0955,68.7374 49.0397,68.4745 Q49.0158,68.2912 48.9202,68.1956 Q48.7528,68.0043 48.442,67.8928 Q48.1313,67.7812 47.8125,67.7812 Q47.422,67.7812 47.0953,67.9485 Q46.7766,68.1159 46.5216,68.4984 Q46.2745,68.8809 46.2745,69.4068 L46.2745,69.9646 Q46.2745,70.5942 46.7288,71.0165 Q47.183,71.4309 47.9958,71.4309 Q48.4739,71.4309 48.8086,71.3034 Q49.0078,71.2237 49.223,71.0006 Q49.3584,70.8651 49.4302,70.8253 Q49.5098,70.7854 49.6134,70.7854 Q49.7808,70.7854 49.9083,70.9209 Q50.0438,71.0484 50.0438,71.2237 Q50.0438,71.399 49.8684,71.6062 Q49.6134,71.901 49.207,72.0684 Q48.6572,72.2995 47.9958,72.2995 Q47.2228,72.2995 46.6092,71.9807 Q46.1072,71.7257 45.7566,71.1838 Q45.4059,70.634 45.4059,69.9806 L45.4059,69.3909 Q45.4059,68.7135 45.7167,68.1318 Q46.0355,67.5421 46.5933,67.2313 Q47.1511,66.9126 47.7806,66.9126 Q48.1552,66.9126 48.4819,67.0003 Q48.8166,67.0799 49.0955,67.2632 Z " fill="#000000"/><text fill="#000000" font-family="sans-serif" font-size="7.14" lengthAdjust="spacing" textLength="41.31" x="54.825" y="72.3234">HomeScreen</text><line style="stroke:#181818;stroke-width:0.255;" x1="40.545" x2="97.155" y1="77.527" y2="77.527"/><line style="stroke:#181818;stroke-width:0.255;" x1="40.545" x2="97.155" y1="81.607" y2="81.607"/></g><!--class ExercisesScreens--><g id="elem_ExercisesScreens"><rect codeLine="69" fill="#F1F1F1" height="24.48" id="ExercisesScreens" rx="1.275" ry="1.275" style="stroke:#181818;stroke-width:0.255;" width="73.44" x="115.77" y="61.207"/><ellipse cx="123.42" cy="69.367" fill="#ADD1B2" rx="5.61" ry="5.61" style="stroke:#181818;stroke-width:0.51;"/><path d="M124.8305,67.2632 Q124.9102,67.1517 125.0058,67.0959 Q125.1014,67.0401 125.213,67.0401 Q125.4042,67.0401 125.5238,67.1756 Q125.6433,67.3031 125.6433,67.6138 L125.6433,68.3549 Q125.6433,68.6657 125.5238,68.8012 Q125.4042,68.9367 125.213,68.9367 Q125.0377,68.9367 124.9341,68.8331 Q124.8305,68.7374 124.7747,68.4745 Q124.7508,68.2912 124.6552,68.1956 Q124.4878,68.0043 124.177,67.8928 Q123.8663,67.7812 123.5475,67.7812 Q123.157,67.7812 122.8303,67.9485 Q122.5116,68.1159 122.2566,68.4984 Q122.0095,68.8809 122.0095,69.4068 L122.0095,69.9646 Q122.0095,70.5942 122.4638,71.0165 Q122.918,71.4309 123.7308,71.4309 Q124.2089,71.4309 124.5436,71.3034 Q124.7428,71.2237 124.958,71.0006 Q125.0934,70.8651 125.1652,70.8253 Q125.2448,70.7854 125.3484,70.7854 Q125.5158,70.7854 125.6433,70.9209 Q125.7788,71.0484 125.7788,71.2237 Q125.7788,71.399 125.6034,71.6062 Q125.3484,71.901 124.942,72.0684 Q124.3922,72.2995 123.7308,72.2995 Q122.9578,72.2995 122.3442,71.9807 Q121.8422,71.7257 121.4916,71.1838 Q121.1409,70.634 121.1409,69.9806 L121.1409,69.3909 Q121.1409,68.7135 121.4517,68.1318 Q121.7705,67.5421 122.3283,67.2313 Q122.8861,66.9126 123.5156,66.9126 Q123.8902,66.9126 124.2169,67.0003 Q124.5516,67.0799 124.8305,67.2632 Z " fill="#000000"/><text fill="#000000" font-family="sans-serif" font-size="7.14" lengthAdjust="spacing" textLength="57.12" x="130.56" y="72.3234">ExercisesScreens</text><line style="stroke:#181818;stroke-width:0.255;" x1="116.28" x2="188.7" y1="77.527" y2="77.527"/><line style="stroke:#181818;stroke-width:0.255;" x1="116.28" x2="188.7" y1="81.607" y2="81.607"/></g><!--class WorkoutScreens--><g id="elem_WorkoutScreens"><rect codeLine="70" fill="#F1F1F1" height="24.48" id="WorkoutScreens" rx="1.275" ry="1.275" style="stroke:#181818;stroke-width:0.255;" width="69.87" x="40.035" y="142.042"/><ellipse cx="47.685" cy="150.202" fill="#ADD1B2" rx="5.61" ry="5.61" style="stroke:#181818;stroke-width:0.51;"/><path d="M49.0955,148.0982 Q49.1752,147.9867 49.2708,147.9309 Q49.3664,147.8751 49.478,147.8751 Q49.6692,147.8751 49.7888,148.0106 Q49.9083,148.1381 49.9083,148.4488 L49.9083,149.1899 Q49.9083,149.5007 49.7888,149.6362 Q49.6692,149.7717 49.478,149.7717 Q49.3027,149.7717 49.1991,149.6681 Q49.0955,149.5724 49.0397,149.3095 Q49.0158,149.1262 48.9202,149.0306 Q48.7528,148.8393 48.442,148.7278 Q48.1313,148.6162 47.8125,148.6162 Q47.422,148.6162 47.0953,148.7835 Q46.7766,148.9509 46.5216,149.3334 Q46.2745,149.7159 46.2745,150.2418 L46.2745,150.7996 Q46.2745,151.4292 46.7288,151.8515 Q47.183,152.2659 47.9958,152.2659 Q48.4739,152.2659 48.8086,152.1384 Q49.0078,152.0587 49.223,151.8356 Q49.3584,151.7001 49.4302,151.6603 Q49.5098,151.6204 49.6134,151.6204 Q49.7808,151.6204 49.9083,151.7559 Q50.0438,151.8834 50.0438,152.0587 Q50.0438,152.234 49.8684,152.4412 Q49.6134,152.736 49.207,152.9034 Q48.6572,153.1345 47.9958,153.1345 Q47.2228,153.1345 46.6092,152.8157 Q46.1072,152.5607 45.7566,152.0188 Q45.4059,151.469 45.4059,150.8156 L45.4059,150.2259 Q45.4059,149.5485 45.7167,148.9668 Q46.0355,148.3771 46.5933,148.0663 Q47.1511,147.7476 47.7806,147.7476 Q48.1552,147.7476 48.4819,147.8353 Q48.8166,147.9149 49.0955,148.0982 Z " fill="#000000"/><text fill="#000000" font-family="sans-serif" font-size="7.14" lengthAdjust="spacing" textLength="53.55" x="54.825" y="153.1584">WorkoutScreens</text><line style="stroke:#181818;stroke-width:0.255;" x1="40.545" x2="109.395" y1="158.362" y2="158.362"/><line style="stroke:#181818;stroke-width:0.255;" x1="40.545" x2="109.395" y1="162.442" y2="162.442"/></g><!--class Weekly--><g id="elem_Weekly"><rect codeLine="71" fill="#F1F1F1" height="24.48" id="Weekly" rx="1.275" ry="1.275" style="stroke:#181818;stroke-width:0.255;" width="39.78" x="128.01" y="142.042"/><ellipse cx="135.66" cy="150.202" fill="#ADD1B2" rx="5.61" ry="5.61" style="stroke:#181818;stroke-width:0.51;"/><path d="M137.0705,148.0982 Q137.1502,147.9867 137.2458,147.9309 Q137.3414,147.8751 137.453,147.8751 Q137.6442,147.8751 137.7638,148.0106 Q137.8833,148.1381 137.8833,148.4488 L137.8833,149.1899 Q137.8833,149.5007 137.7638,149.6362 Q137.6442,149.7717 137.453,149.7717 Q137.2777,149.7717 137.1741,149.6681 Q137.0705,149.5724 137.0147,149.3095 Q136.9908,149.1262 136.8952,149.0306 Q136.7278,148.8393 136.417,148.7278 Q136.1063,148.6162 135.7875,148.6162 Q135.397,148.6162 135.0703,148.7835 Q134.7516,148.9509 134.4966,149.3334 Q134.2495,149.7159 134.2495,150.2418 L134.2495,150.7996 Q134.2495,151.4292 134.7038,151.8515 Q135.158,152.2659 135.9708,152.2659 Q136.4489,152.2659 136.7836,152.1384 Q136.9828,152.0587 137.198,151.8356 Q137.3334,151.7001 137.4052,151.6603 Q137.4848,151.6204 137.5884,151.6204 Q137.7558,151.6204 137.8833,151.7559 Q138.0188,151.8834 138.0188,152.0587 Q138.0188,152.234 137.8434,152.4412 Q137.5884,152.736 137.182,152.9034 Q136.6322,153.1345 135.9708,153.1345 Q135.1978,153.1345 134.5842,152.8157 Q134.0822,152.5607 133.7316,152.0188 Q133.3809,151.469 133.3809,150.8156 L133.3809,150.2259 Q133.3809,149.5485 133.6917,148.9668 Q134.0105,148.3771 134.5683,148.0663 Q135.1261,147.7476 135.7556,147.7476 Q136.1302,147.7476 136.4569,147.8353 Q136.7916,147.9149 137.0705,148.0982 Z " fill="#000000"/><text fill="#000000" font-family="sans-serif" font-size="7.14" lengthAdjust="spacing" textLength="23.46" x="142.8" y="153.1584">Weekly</text><line style="stroke:#181818;stroke-width:0.255;" x1="128.52" x2="167.28" y1="158.362" y2="158.362"/><line style="stroke:#181818;stroke-width:0.255;" x1="128.52" x2="167.28" y1="162.442" y2="162.442"/></g><path d="M983.28,139.747 L1024.08,139.747 A1.9125,1.9125 0 0 1 1025.355,141.022 L1028.925,152.3037 L1031.22,152.3037 A1.275,1.275 0 0 1 1032.495,153.5787 L1032.495,167.6655 A1.275,1.275 0 0 1 1031.22,168.9405 L983.28,168.9405 A1.275,1.275 0 0 1 982.005,167.6655 L982.005,141.022 A1.275,1.275 0 0 1 983.28,139.747 " fill="#F1F1F1" style="stroke:#181818;stroke-width:0.255;"/><line style="stroke:#181818;stroke-width:0.255;" x1="982.005" x2="1028.925" y1="152.3037" y2="152.3037"/><text fill="#000000" font-family="sans-serif" font-size="7.14" font-weight="bold" lengthAdjust="spacing" textLength="40.29" x="984.045" y="148.4718">datasource</text><!--class MainActivity--><g id="elem_MainActivity"><rect codeLine="60" fill="#F1F1F1" height="43.4735" id="MainActivity" rx="1.275" ry="1.275" style="stroke:#181818;stroke-width:0.255;" width="157.59" x="1050.345" y="132.607"/><ellipse cx="1108.1025" cy="140.767" fill="#ADD1B2" rx="5.61" ry="5.61" style="stroke:#181818;stroke-width:0.51;"/><path d="M1109.513,138.6632 Q1109.5927,138.5517 1109.6883,138.4959 Q1109.7839,138.4401 1109.8955,138.4401 Q1110.0867,138.4401 1110.2063,138.5756 Q1110.3258,138.7031 1110.3258,139.0138 L1110.3258,139.7549 Q1110.3258,140.0657 1110.2063,140.2012 Q1110.0867,140.3367 1109.8955,140.3367 Q1109.7202,140.3367 1109.6166,140.2331 Q1109.513,140.1374 1109.4572,139.8745 Q1109.4333,139.6912 1109.3377,139.5956 Q1109.1703,139.4043 1108.8595,139.2928 Q1108.5488,139.1812 1108.23,139.1812 Q1107.8395,139.1812 1107.5128,139.3485 Q1107.1941,139.5159 1106.9391,139.8984 Q1106.692,140.2809 1106.692,140.8068 L1106.692,141.3646 Q1106.692,141.9942 1107.1463,142.4165 Q1107.6005,142.8309 1108.4133,142.8309 Q1108.8914,142.8309 1109.2261,142.7034 Q1109.4253,142.6237 1109.6405,142.4006 Q1109.7759,142.2651 1109.8477,142.2253 Q1109.9273,142.1854 1110.0309,142.1854 Q1110.1983,142.1854 1110.3258,142.3209 Q1110.4613,142.4484 1110.4613,142.6237 Q1110.4613,142.799 1110.2859,143.0062 Q1110.0309,143.301 1109.6245,143.4684 Q1109.0747,143.6995 1108.4133,143.6995 Q1107.6403,143.6995 1107.0267,143.3807 Q1106.5247,143.1257 1106.1741,142.5838 Q1105.8234,142.034 1105.8234,141.3806 L1105.8234,140.7909 Q1105.8234,140.1135 1106.1342,139.5318 Q1106.453,138.9421 1107.0108,138.6313 Q1107.5686,138.3126 1108.1981,138.3126 Q1108.5727,138.3126 1108.8994,138.4003 Q1109.2341,138.4799 1109.513,138.6632 Z " fill="#000000"/><text fill="#000000" font-family="sans-serif" font-size="7.14" lengthAdjust="spacing" textLength="37.74" x="1118.5575" y="143.7234">MainActivity</text><line style="stroke:#181818;stroke-width:0.255;" x1="1050.855" x2="1207.425" y1="148.927" y2="148.927"/><line style="stroke:#181818;stroke-width:0.255;" x1="1050.855" x2="1207.425" y1="153.007" y2="153.007"/><ellipse cx="1055.955" cy="160.5604" fill="#84BE84" rx="1.53" ry="1.53" style="stroke:#038048;stroke-width:0.51;"/><text fill="#000000" font-family="sans-serif" font-size="7.14" lengthAdjust="spacing" textLength="144.33" x="1060.545" y="162.7518">void onCreate(savedInstanceState: Bundle?)</text><ellipse cx="1055.955" cy="170.0571" fill="#84BE84" rx="1.53" ry="1.53" style="stroke:#038048;stroke-width:0.51;"/><text fill="#000000" font-family="sans-serif" font-size="7.14" lengthAdjust="spacing" textLength="83.13" x="1060.545" y="172.2485">void MainActivityPreview()</text></g><!--link NavigationBar to IconGroup--><g id="link_NavigationBar_IconGroup"><path codeLine="82" d="M313.65,280.0123 C313.65,300.7846 313.65,331.4764 313.65,354.8803 " fill="none" id="NavigationBar-to-IconGroup" style="stroke:#181818;stroke-width:0.51;stroke-dasharray:7.0,7.0;"/><polygon fill="#181818" points="313.65,357.9403,315.69,353.3503,313.65,355.3903,311.61,353.3503,313.65,357.9403" style="stroke:#181818;stroke-width:0.51;"/></g><!--link NavigationGraph to Screen--><g id="link_NavigationGraph_Screen"><path codeLine="83" d="M857.31,273.1426 C857.31,286.2445 857.31,305.2981 857.31,326.3509 " fill="none" id="NavigationGraph-to-Screen" style="stroke:#181818;stroke-width:0.51;stroke-dasharray:7.0,7.0;"/><polygon fill="#181818" points="857.31,329.4109,859.35,324.8209,857.31,326.8609,855.27,324.8209,857.31,329.4109" style="stroke:#181818;stroke-width:0.51;"/></g><!--link NavigationBar to Screen--><g id="link_NavigationBar_Screen"><path codeLine="84" d="M338.7675,280.0021 C354.5112,290.758 375.666,303.5998 396.27,311.107 C519.2412,355.9003 667.4904,372.9903 762.4371,379.656 " fill="none" id="NavigationBar-to-Screen" style="stroke:#181818;stroke-width:0.51;stroke-dasharray:7.0,7.0;"/><polygon fill="#181818" points="765.4896,379.8703,761.0537,377.5138,762.9459,379.6917,760.768,381.5838,765.4896,379.8703" style="stroke:#181818;stroke-width:0.51;"/></g><!--link NavigationDrawer to Screen--><g id="link_NavigationDrawer_Screen"><path codeLine="85" d="M729.6927,299.0149 C744.1206,308.6284 757.3786,317.4637 772.801,327.7351 " fill="none" id="NavigationDrawer-to-Screen" style="stroke:#181818;stroke-width:0.51;stroke-dasharray:7.0,7.0;"/><polygon fill="#181818" points="775.3479,329.4313,772.6584,325.189,773.2255,328.0178,770.3968,328.5848,775.3479,329.4313" style="stroke:#181818;stroke-width:0.51;"/></g><!--link ApplicationScaffold to NavigationBar--><g id="link_ApplicationScaffold_NavigationBar"><path codeLine="86" d="M387.9468,192.3076 C369.7041,209.0203 351.2751,225.9001 336.3678,239.5528 " fill="none" id="ApplicationScaffold-to-NavigationBar" style="stroke:#181818;stroke-width:0.51;stroke-dasharray:7.0,7.0;"/><polygon fill="#181818" points="334.1112,241.6195,338.8739,240.0238,335.9917,239.8972,336.1183,237.015,334.1112,241.6195" style="stroke:#181818;stroke-width:0.51;"/></g><!--link ApplicationScaffold to NavigationDrawer--><g id="link_ApplicationScaffold_NavigationDrawer"><path codeLine="87" d="M528.1407,192.3331 C551.9526,201.8599 577.1721,212.3812 600.27,222.877 C603.2535,224.2336 603.5179,224.3353 606.5728,225.7837 " fill="none" id="ApplicationScaffold-to-NavigationDrawer" style="stroke:#181818;stroke-width:0.51;stroke-dasharray:7.0,7.0;"/><polygon fill="#181818" points="609.3378,227.0947,606.0643,223.285,607.0337,226.0022,604.3164,226.9716,609.3378,227.0947" style="stroke:#181818;stroke-width:0.51;"/></g><!--link ApplicationScaffold to TopAppBar--><g id="link_ApplicationScaffold_TopAppBar"><path codeLine="88" d="M453.5583,192.3076 C462.2028,205.4656 470.0747,217.4484 478.1276,229.7037 " fill="none" id="ApplicationScaffold-to-TopAppBar" style="stroke:#181818;stroke-width:0.51;stroke-dasharray:7.0,7.0;"/><polygon fill="#181818" points="479.808,232.261,478.9923,227.3047,478.4077,230.1299,475.5825,229.5453,479.808,232.261" style="stroke:#181818;stroke-width:0.51;"/></g><!--link MainActivity to NavigationGraph--><g id="link_MainActivity_NavigationGraph"><path codeLine="89" d="M1084.5813,176.0488 C1070.6991,182.4238 1055.2665,189.2629 1040.91,195.082 C989.961,215.7268 932.6178,235.4961 895.4082,247.8942 " fill="none" id="MainActivity-to-NavigationGraph" style="stroke:#FF0000;stroke-width:0.51;stroke-dasharray:7.0,7.0;"/><polygon fill="#FF0000" points="892.5051,248.8615,897.5046,249.3459,894.9243,248.0554,896.2149,245.4751,892.5051,248.8615" style="stroke:#FF0000;stroke-width:0.51;"/></g><!--link NavigationGraph to screens--><g id="link_NavigationGraph_screens"><path codeLine="91" d="M853.5768,248.4433 C842.826,216.4204 808.452,128.5729 745.11,93.337 C732.0922,86.095 598.5781,81.2589 467.8224,78.2289 C402.4445,76.7138 337.7563,75.6503 289.1645,74.9633 C264.8686,74.6199 244.5969,74.3705 230.2751,74.2059 C223.1142,74.1236 217.4408,74.0625 213.4956,74.0214 C213.0025,74.0162 212.5363,74.0114 212.0976,74.0069 C211.8783,74.0046 214.7257,74.0338 214.5201,74.0317 " fill="none" id="NavigationGraph-to-screens" style="stroke:#FF0000;stroke-width:0.51;stroke-dasharray:7.0,7.0;"/><polygon fill="#FF0000" points="211.4603,74.0004,216.0292,76.0872,214.0102,74.0264,216.0709,72.0074,211.4603,74.0004" style="stroke:#FF0000;stroke-width:0.51;"/></g><!--link screens to ApplicationScaffold--><g id="link_screens_ApplicationScaffold"><path codeLine="92" d="M211.2727,75.473 C211.3393,75.497 211.4068,75.5212 211.4749,75.5457 C211.6112,75.5948 211.7505,75.6449 211.8927,75.696 C212.4615,75.9006 213.0771,76.1221 213.7377,76.3598 C215.059,76.8351 216.5603,77.3752 218.2272,77.9749 C224.8945,80.3736 234.2102,83.7251 245.2431,87.6945 C267.3089,95.6332 293.3644,105.0076 321.7204,115.2102 " fill="none" id="screens-to-ApplicationScaffold" style="stroke:#181818;stroke-width:0.51;stroke-dasharray:7.0,7.0;"/><polygon fill="#181818" points="324.5997,116.2462,320.9714,112.7727,322.2003,115.3829,319.5901,116.6117,324.5997,116.2462" style="stroke:#181818;stroke-width:0.51;"/></g><!--link screens to datasource--><g id="link_screens_datasource"><path codeLine="93" d="M211.71,73.936 C212.1161,73.9343 212.5479,73.9326 213.005,73.9309 C216.6614,73.917 221.9343,73.9 228.6285,73.8865 C242.0169,73.8595 261.0905,73.8464 284.2877,73.8998 C330.6821,74.0064 393.5708,74.3784 460.4612,75.4347 C594.2418,77.5474 744.0288,82.3975 809.88,93.337 C873.3342,103.8787 941.986,128.2477 979.0528,142.5328 " fill="none" id="screens-to-datasource" style="stroke:#808080;stroke-width:0.51;stroke-dasharray:7.0,7.0;"/><polygon fill="#808080" points="981.9081,143.6332,978.3588,140.079,979.5287,142.7162,976.8916,143.8861,981.9081,143.6332" style="stroke:#808080;stroke-width:0.51;"/></g><!--SRC=[fLRVJzim47xFNs6D1r91KuczHOCD2XgLs8JeO0zecanyj1wE7TbE6KBzttTEt2Hk0rJCBwdllZj_zylkxjpQmgIZKI6ej6KkaapbeqnGOuQCqvccUHH9ceCfQ0Qav4vVA0dI6l8S4LmLc1mNXU0PjLp9QKRlxvLWNZySLfyUG5mft99qCLRIQYK4w9HyfujpPMmhsc-GcTAgj5p2D5C5f6GSx5kSLSK9rHVq3aHAfbPpEIE7n5G_hi2eKcSGSuQogwIM9hGeVhjG1wsNWix0iS1mK_9bx48tz4u0YRcKe2yfOsYP4l_ZXeeIp80CZyYrv1QTFoy7tIGiEnd38FcioiUffe-WmtIjQ-jSRUPfFKUiGayjjPYSqtQpxqzM1cffIkAGg4VqHhjbI3zKWMN6l8UnDEAsu4gEiHiUNY3XbdXVwRP8zmQ_G1M_bkCrxyiegftZNCZ6IJBDD83qPwYxFv1PSgvo81XEfOe_p77xOT05_0Hu44yTo6Cb245dVq5dt82vuCPsiB2IzyEF6Ui3Zx1h-mtE6EzrFm9KZ9vN- -LQ24e_u32QRX1Ur0iCQQsWcwmyV8rKWwyv-QsZLDdk4LC1pKIUA6jLZhLDYSlRfzh3aIjVVm7RXlYgQJ77IdOhdIi6mYIJpAbLMQ1wZznpx0_cP2cPv7Xjt21pfL63f0JUJtsgeCVRCxvHBeyponVSFbNE5mhR7KT60qvoREW2JvB6Kfc1d_IJKZ81dmShSDV5fOO5XyTuu4wmQWPstjmsmTNk4-PLzIqQe4axJgwVLts-R9K1fkdMwShnIqXVuRTnzP1qzCiewdpQS1YrjBugFFTgMgFTGxV8n-GWEI3N4rzBea5KvJRai5bHyDWbuVsH94TzhH2ztaVUQkEgsEQexOtySxAbNT_3xKrVelIV7cf-xtBIl2HHC2F9xOu6zciZuBNyHs-Lf-l63qFKcOjDFZsi0uFR7Vm7zUGyjlqO_GC0]--></g></svg>