<?xml version="1.0" encoding="us-ascii" standalone="no"?><svg xmlns="http://www.w3.org/2000/svg" xmlns:xlink="http://www.w3.org/1999/xlink" contentStyleType="text/css" height="760.2px" preserveAspectRatio="none" style="width:1617px;height:760px;background:#FFFFFF;" version="1.1" viewBox="0 0 1617 760" width="1617.7px" zoomAndPan="magnify"><defs/><g><!--cluster models--><g id="cluster_models"><path d="M884.45,580.3096 L920.85,580.3096 A2.625,2.625 0 0 1 922.6,582.0596 L927.5,597.5443 L1289.75,597.5443 A1.75,1.75 0 0 1 1291.5,599.2943 L1291.5,753.5596 A1.75,1.75 0 0 1 1289.75,755.3096 L884.45,755.3096 A1.75,1.75 0 0 1 882.7,753.5596 L882.7,582.0596 A1.75,1.75 0 0 1 884.45,580.3096 " fill="none" style="stroke:#000000;stroke-width:1.0499999999999998;"/><line style="stroke:#000000;stroke-width:1.0499999999999998;" x1="882.7" x2="927.5" y1="597.5443" y2="597.5443"/><text fill="#000000" font-family="sans-serif" font-size="9.8" font-weight="bold" lengthAdjust="spacing" textLength="35.7" x="885.5" y="592.2848">models</text></g><!--cluster ui--><g id="cluster_ui"><path d="M5.95,4.2096 L15.75,4.2096 A2.625,2.625 0 0 1 17.5,5.9596 L22.4,21.4443 L1457.05,21.4443 A1.75,1.75 0 0 1 1458.8,23.1943 L1458.8,561.7596 A1.75,1.75 0 0 1 1457.05,563.5096 L5.95,563.5096 A1.75,1.75 0 0 1 4.2,561.7596 L4.2,5.9596 A1.75,1.75 0 0 1 5.95,4.2096 " fill="none" style="stroke:#000000;stroke-width:1.0499999999999998;"/><line style="stroke:#000000;stroke-width:1.0499999999999998;" x1="4.2" x2="22.4" y1="21.4443" y2="21.4443"/><text fill="#000000" font-family="sans-serif" font-size="9.8" font-weight="bold" lengthAdjust="spacing" textLength="9.1" x="7" y="16.1848">ui</text></g><!--cluster screens--><g id="cluster_screens"><path d="M22.75,35.7096 L63.35,35.7096 A2.625,2.625 0 0 1 65.1,37.4596 L70,52.9443 L1140.65,52.9443 A1.75,1.75 0 0 1 1142.4,54.6943 L1142.4,544.9596 A1.75,1.75 0 0 1 1140.65,546.7096 L22.75,546.7096 A1.75,1.75 0 0 1 21,544.9596 L21,37.4596 A1.75,1.75 0 0 1 22.75,35.7096 " fill="none" style="stroke:#000000;stroke-width:1.0499999999999998;"/><line style="stroke:#000000;stroke-width:1.0499999999999998;" x1="21" x2="70" y1="52.9443" y2="52.9443"/><text fill="#000000" font-family="sans-serif" font-size="9.8" font-weight="bold" lengthAdjust="spacing" textLength="39.9" x="23.8" y="47.6848">screens</text></g><!--cluster Workouts--><g id="cluster_Workouts"><path d="M45.15,72.8096 L92.75,72.8096 A2.625,2.625 0 0 1 94.5,74.5596 L99.4,90.0443 L1118.25,90.0443 A1.75,1.75 0 0 1 1120,91.7943 L1120,522.5596 A1.75,1.75 0 0 1 1118.25,524.3096 L45.15,524.3096 A1.75,1.75 0 0 1 43.4,522.5596 L43.4,74.5596 A1.75,1.75 0 0 1 45.15,72.8096 " fill="none" style="stroke:#000000;stroke-width:1.0499999999999998;"/><line style="stroke:#000000;stroke-width:1.0499999999999998;" x1="43.4" x2="99.4" y1="90.0443" y2="90.0443"/><text fill="#000000" font-family="sans-serif" font-size="9.8" font-weight="bold" lengthAdjust="spacing" textLength="46.9" x="46.2" y="84.7848">Workouts</text></g><!--cluster components--><g id="cluster_components"><path d="M442.05,379.4096 L503.65,379.4096 A2.625,2.625 0 0 1 505.4,381.1596 L510.3,396.6443 L1070.65,396.6443 A1.75,1.75 0 0 1 1072.4,398.3943 L1072.4,500.1596 A1.75,1.75 0 0 1 1070.65,501.9096 L442.05,501.9096 A1.75,1.75 0 0 1 440.3,500.1596 L440.3,381.1596 A1.75,1.75 0 0 1 442.05,379.4096 " fill="none" style="stroke:#000000;stroke-width:1.0499999999999998;"/><line style="stroke:#000000;stroke-width:1.0499999999999998;" x1="440.3" x2="510.3" y1="396.6443" y2="396.6443"/><text fill="#000000" font-family="sans-serif" font-size="9.8" font-weight="bold" lengthAdjust="spacing" textLength="60.9" x="443.1" y="391.3848">components</text></g><!--cluster navigation--><g id="cluster_navigation"><path d="M1245.65,263.9096 L1298.15,263.9096 A2.625,2.625 0 0 1 1299.9,265.6596 L1304.8,281.1443 L1440.25,281.1443 A1.75,1.75 0 0 1 1442,282.8943 L1442,332.8596 A1.75,1.75 0 0 1 1440.25,334.6096 L1245.65,334.6096 A1.75,1.75 0 0 1 1243.9,332.8596 L1243.9,265.6596 A1.75,1.75 0 0 1 1245.65,263.9096 " fill="none" style="stroke:#000000;stroke-width:1.0499999999999998;"/><line style="stroke:#000000;stroke-width:1.0499999999999998;" x1="1243.9" x2="1304.8" y1="281.1443" y2="281.1443"/><text fill="#000000" font-family="sans-serif" font-size="9.8" font-weight="bold" lengthAdjust="spacing" textLength="51.8" x="1246.7" y="275.8848">navigation</text></g><path d="M1472.1,428.0596 L1528.1,428.0596 A2.625,2.625 0 0 1 1529.85,429.8096 L1534.75,445.2943 L1537.9,445.2943 A1.75,1.75 0 0 1 1539.65,447.0443 L1539.65,466.3791 A1.75,1.75 0 0 1 1537.9,468.1291 L1472.1,468.1291 A1.75,1.75 0 0 1 1470.35,466.3791 L1470.35,429.8096 A1.75,1.75 0 0 1 1472.1,428.0596 " fill="#F1F1F1" style="stroke:#181818;stroke-width:0.3499999999999999;"/><line style="stroke:#181818;stroke-width:0.3499999999999999;" x1="1470.35" x2="1534.75" y1="445.2943" y2="445.2943"/><text fill="#000000" font-family="sans-serif" font-size="9.8" font-weight="bold" lengthAdjust="spacing" textLength="55.3" x="1473.15" y="440.0348">datasource</text><!--class Workout--><g id="elem_Workout"><rect codeLine="13" fill="#F1F1F1" height="104.3738" id="Workout" rx="1.75" ry="1.75" style="stroke:#181818;stroke-width:0.3499999999999999;" width="283.5" x="996.45" y="623.0096"/><ellipse cx="1116.675" cy="634.2096" fill="#ADD1B2" rx="7.7" ry="7.7" style="stroke:#181818;stroke-width:0.6999999999999998;"/><path d="M1118.6109,631.3221 Q1118.7203,631.1689 1118.8516,631.0924 Q1118.9828,631.0158 1119.1359,631.0158 Q1119.3984,631.0158 1119.5625,631.2018 Q1119.7266,631.3768 1119.7266,631.8033 L1119.7266,632.8205 Q1119.7266,633.2471 1119.5625,633.433 Q1119.3984,633.6189 1119.1359,633.6189 Q1118.8953,633.6189 1118.7531,633.4768 Q1118.6109,633.3455 1118.5344,632.9846 Q1118.5016,632.733 1118.3703,632.6018 Q1118.1406,632.3393 1117.7141,632.1861 Q1117.2875,632.033 1116.85,632.033 Q1116.3141,632.033 1115.8656,632.2627 Q1115.4281,632.4924 1115.0781,633.0174 Q1114.7391,633.5424 1114.7391,634.2643 L1114.7391,635.0299 Q1114.7391,635.8939 1115.3625,636.4736 Q1115.9859,637.0424 1117.1016,637.0424 Q1117.7578,637.0424 1118.2172,636.8674 Q1118.4906,636.758 1118.7859,636.4518 Q1118.9719,636.2658 1119.0703,636.2111 Q1119.1797,636.1564 1119.3219,636.1564 Q1119.5516,636.1564 1119.7266,636.3424 Q1119.9125,636.5174 1119.9125,636.758 Q1119.9125,636.9986 1119.6719,637.283 Q1119.3219,637.6877 1118.7641,637.9174 Q1118.0094,638.2346 1117.1016,638.2346 Q1116.0406,638.2346 1115.1984,637.7971 Q1114.5094,637.4471 1114.0281,636.7033 Q1113.5469,635.9486 1113.5469,635.0518 L1113.5469,634.2424 Q1113.5469,633.3127 1113.9734,632.5143 Q1114.4109,631.7049 1115.1766,631.2783 Q1115.9422,630.8408 1116.8062,630.8408 Q1117.3203,630.8408 1117.7687,630.9611 Q1118.2281,631.0705 1118.6109,631.3221 Z " fill="#000000"/><text fill="#000000" font-family="sans-serif" font-size="9.8" lengthAdjust="spacing" textLength="37.1" x="1131.025" y="638.2674">Workout</text><line style="stroke:#181818;stroke-width:0.3499999999999999;" x1="997.15" x2="1279.25" y1="645.4096" y2="645.4096"/><line style="stroke:#181818;stroke-width:0.6999999999999998;" x1="997.15" x2="1279.25" y1="651.0096" y2="651.0096"/><ellipse cx="1004.15" cy="661.377" fill="none" rx="2.1" ry="2.1" style="stroke:#038048;stroke-width:0.6999999999999998;"/><text fill="#000000" font-family="sans-serif" font-size="9.8" lengthAdjust="spacing" textLength="43.4" x="1010.45" y="664.3848">id: Int = 0,</text><ellipse cx="1004.15" cy="674.4117" fill="none" rx="2.1" ry="2.1" style="stroke:#038048;stroke-width:0.6999999999999998;"/><text fill="#000000" font-family="sans-serif" font-size="9.8" lengthAdjust="spacing" textLength="77" x="1010.45" y="677.4195">name: String = "",</text><ellipse cx="1004.15" cy="687.4465" fill="none" rx="2.1" ry="2.1" style="stroke:#038048;stroke-width:0.6999999999999998;"/><text fill="#000000" font-family="sans-serif" font-size="9.8" lengthAdjust="spacing" textLength="114.1" x="1010.45" y="690.4543">durationInMinutes: Int = 0,</text><ellipse cx="1004.15" cy="700.4812" fill="#84BE84" rx="2.1" ry="2.1" style="stroke:#038048;stroke-width:0.6999999999999998;"/><text fill="#000000" font-family="sans-serif" font-size="9.8" lengthAdjust="spacing" textLength="154" x="1010.45" y="703.4891">exercises: List&lt;Exercise&gt; = listOf(),</text><ellipse cx="1004.15" cy="713.516" fill="none" rx="2.1" ry="2.1" style="stroke:#038048;stroke-width:0.6999999999999998;"/><text fill="#000000" font-family="sans-serif" font-size="9.8" lengthAdjust="spacing" textLength="265.3" x="1010.45" y="716.5238">assignedToWeek: DaysInWeek = DaysInWeek.NotAssigned,</text><line style="stroke:#181818;stroke-width:0.6999999999999998;" x1="997.15" x2="1279.25" y1="721.7834" y2="721.7834"/></g><!--class DaysInWeek--><g id="elem_DaysInWeek"><rect codeLine="23" fill="#F1F1F1" height="137.8781" id="DaysInWeek" rx="1.75" ry="1.75" style="stroke:#181818;stroke-width:0.3499999999999999;" width="77.7" x="894.25" y="606.2096"/><ellipse cx="904.75" cy="617.4096" fill="#EB937F" rx="7.7" ry="7.7" style="stroke:#181818;stroke-width:0.6999999999999998;"/><path d="M903.9516,617.9674 L903.9516,619.7174 L906.9812,619.7174 L906.9812,619.0721 Q906.9812,618.6455 907.1453,618.4596 Q907.3203,618.2736 907.5828,618.2736 Q907.8453,618.2736 908.0094,618.4596 Q908.1734,618.6455 908.1734,619.0721 L908.1734,620.9096 L902.5734,620.9096 Q902.1359,620.9096 901.95,620.7455 Q901.775,620.5814 901.775,620.308 Q901.775,620.0455 901.9609,619.8814 Q902.1469,619.7174 902.5734,619.7174 L902.7594,619.7174 L902.7594,615.058 L902.5734,615.058 Q902.1359,615.058 901.95,614.8939 Q901.775,614.7299 901.775,614.4564 Q901.775,614.1939 901.95,614.0299 Q902.1359,613.8658 902.5734,613.8658 L907.9109,613.8658 L907.9109,615.6814 Q907.9109,616.108 907.7469,616.2939 Q907.5937,616.4689 907.3203,616.4689 Q907.0578,616.4689 906.8937,616.2939 Q906.7297,616.108 906.7297,615.6814 L906.7297,615.058 L903.9516,615.058 L903.9516,616.7752 L904.9906,616.7752 Q904.9906,616.3158 905.0781,616.1846 Q905.2641,615.9002 905.5922,615.9002 Q905.8547,615.9002 906.0187,616.0861 Q906.1828,616.2611 906.1828,616.6877 L906.1828,618.0658 Q906.1828,618.4486 906.0953,618.5799 Q905.9094,618.8533 905.5922,618.8533 Q905.2641,618.8533 905.0781,618.5689 Q904.9906,618.4377 904.9906,617.9674 L903.9516,617.9674 Z " fill="#000000"/><text fill="#000000" font-family="sans-serif" font-size="9.8" lengthAdjust="spacing" textLength="55.3" x="914.55" y="621.4674">DaysInWeek</text><line style="stroke:#181818;stroke-width:0.3499999999999999;" x1="894.95" x2="971.25" y1="628.6096" y2="628.6096"/><text fill="#000000" font-family="sans-serif" font-size="9.8" lengthAdjust="spacing" textLength="55.3" x="898.45" y="641.9848">NotAssigned</text><text fill="#000000" font-family="sans-serif" font-size="9.8" lengthAdjust="spacing" textLength="35" x="898.45" y="655.0195">Monday</text><text fill="#000000" font-family="sans-serif" font-size="9.8" lengthAdjust="spacing" textLength="38.5" x="898.45" y="668.0543">Tuesday</text><text fill="#000000" font-family="sans-serif" font-size="9.8" lengthAdjust="spacing" textLength="52.5" x="898.45" y="681.0891">Wednesday</text><text fill="#000000" font-family="sans-serif" font-size="9.8" lengthAdjust="spacing" textLength="42" x="898.45" y="694.1238">Thursday</text><text fill="#000000" font-family="sans-serif" font-size="9.8" lengthAdjust="spacing" textLength="28" x="898.45" y="707.1586">Friday</text><text fill="#000000" font-family="sans-serif" font-size="9.8" lengthAdjust="spacing" textLength="39.9" x="898.45" y="720.1934">Saturday</text><text fill="#000000" font-family="sans-serif" font-size="9.8" lengthAdjust="spacing" textLength="33.6" x="898.45" y="733.2281">Sunday</text><line style="stroke:#181818;stroke-width:0.3499999999999999;" x1="894.95" x2="971.25" y1="738.4877" y2="738.4877"/></g><!--class components--><g id="elem_components"><rect fill="#F1F1F1" height="33.6" id="components" rx="1.75" ry="1.75" style="stroke:#181818;stroke-width:0.3499999999999999;" width="76.3" x="1153.95" y="289.8096"/><ellipse cx="1164.45" cy="301.0096" fill="#ADD1B2" rx="7.7" ry="7.7" style="stroke:#181818;stroke-width:0.6999999999999998;"/><path d="M1166.3859,298.1221 Q1166.4953,297.9689 1166.6266,297.8924 Q1166.7578,297.8158 1166.9109,297.8158 Q1167.1734,297.8158 1167.3375,298.0018 Q1167.5016,298.1768 1167.5016,298.6033 L1167.5016,299.6205 Q1167.5016,300.0471 1167.3375,300.233 Q1167.1734,300.4189 1166.9109,300.4189 Q1166.6703,300.4189 1166.5281,300.2768 Q1166.3859,300.1455 1166.3094,299.7846 Q1166.2766,299.533 1166.1453,299.4018 Q1165.9156,299.1393 1165.4891,298.9861 Q1165.0625,298.833 1164.625,298.833 Q1164.0891,298.833 1163.6406,299.0627 Q1163.2031,299.2924 1162.8531,299.8174 Q1162.5141,300.3424 1162.5141,301.0643 L1162.5141,301.8299 Q1162.5141,302.6939 1163.1375,303.2736 Q1163.7609,303.8424 1164.8766,303.8424 Q1165.5328,303.8424 1165.9922,303.6674 Q1166.2656,303.558 1166.5609,303.2518 Q1166.7469,303.0658 1166.8453,303.0111 Q1166.9547,302.9564 1167.0969,302.9564 Q1167.3266,302.9564 1167.5016,303.1424 Q1167.6875,303.3174 1167.6875,303.558 Q1167.6875,303.7986 1167.4469,304.083 Q1167.0969,304.4877 1166.5391,304.7174 Q1165.7844,305.0346 1164.8766,305.0346 Q1163.8156,305.0346 1162.9734,304.5971 Q1162.2844,304.2471 1161.8031,303.5033 Q1161.3219,302.7486 1161.3219,301.8518 L1161.3219,301.0424 Q1161.3219,300.1127 1161.7484,299.3143 Q1162.1859,298.5049 1162.9516,298.0783 Q1163.7172,297.6408 1164.5812,297.6408 Q1165.0953,297.6408 1165.5437,297.7611 Q1166.0031,297.8705 1166.3859,298.1221 Z " fill="#000000"/><text fill="#000000" font-family="sans-serif" font-size="9.8" lengthAdjust="spacing" textLength="53.9" x="1174.25" y="305.0674">components</text><line style="stroke:#181818;stroke-width:0.3499999999999999;" x1="1154.65" x2="1229.55" y1="312.2096" y2="312.2096"/><line style="stroke:#181818;stroke-width:0.3499999999999999;" x1="1154.65" x2="1229.55" y1="317.8096" y2="317.8096"/></g><!--class WorkoutsScreen--><g id="elem_WorkoutsScreen"><rect codeLine="37" fill="#F1F1F1" height="78.3043" id="WorkoutsScreen" rx="1.75" ry="1.75" style="stroke:#181818;stroke-width:0.3499999999999999;" width="259" x="830.9" y="117.2596"/><ellipse cx="920.675" cy="128.4596" fill="#ADD1B2" rx="7.7" ry="7.7" style="stroke:#181818;stroke-width:0.6999999999999998;"/><path d="M922.6109,125.5721 Q922.7203,125.4189 922.8516,125.3424 Q922.9828,125.2658 923.1359,125.2658 Q923.3984,125.2658 923.5625,125.4518 Q923.7266,125.6268 923.7266,126.0533 L923.7266,127.0705 Q923.7266,127.4971 923.5625,127.683 Q923.3984,127.8689 923.1359,127.8689 Q922.8953,127.8689 922.7531,127.7268 Q922.6109,127.5955 922.5344,127.2346 Q922.5016,126.983 922.3703,126.8518 Q922.1406,126.5893 921.7141,126.4361 Q921.2875,126.283 920.85,126.283 Q920.3141,126.283 919.8656,126.5127 Q919.4281,126.7424 919.0781,127.2674 Q918.7391,127.7924 918.7391,128.5143 L918.7391,129.2799 Q918.7391,130.1439 919.3625,130.7236 Q919.9859,131.2924 921.1016,131.2924 Q921.7578,131.2924 922.2172,131.1174 Q922.4906,131.008 922.7859,130.7018 Q922.9719,130.5158 923.0703,130.4611 Q923.1797,130.4064 923.3219,130.4064 Q923.5516,130.4064 923.7266,130.5924 Q923.9125,130.7674 923.9125,131.008 Q923.9125,131.2486 923.6719,131.533 Q923.3219,131.9377 922.7641,132.1674 Q922.0094,132.4846 921.1016,132.4846 Q920.0406,132.4846 919.1984,132.0471 Q918.5094,131.6971 918.0281,130.9533 Q917.5469,130.1986 917.5469,129.3018 L917.5469,128.4924 Q917.5469,127.5627 917.9734,126.7643 Q918.4109,125.9549 919.1766,125.5283 Q919.9422,125.0908 920.8062,125.0908 Q921.3203,125.0908 921.7687,125.2111 Q922.2281,125.3205 922.6109,125.5721 Z " fill="#000000"/><text fill="#000000" font-family="sans-serif" font-size="9.8" lengthAdjust="spacing" textLength="73.5" x="935.025" y="132.5174">WorkoutsScreen</text><line style="stroke:#181818;stroke-width:0.3499999999999999;" x1="831.6" x2="1089.2" y1="139.6596" y2="139.6596"/><line style="stroke:#181818;stroke-width:0.6999999999999998;" x1="831.6" x2="1089.2" y1="145.2596" y2="145.2596"/><ellipse cx="838.6" cy="155.627" fill="#84BE84" rx="2.1" ry="2.1" style="stroke:#038048;stroke-width:0.6999999999999998;"/><text fill="#000000" font-family="sans-serif" font-size="9.8" lengthAdjust="spacing" textLength="77" x="844.9" y="158.6348">WorkoutsScreen(</text><text fill="#000000" font-family="sans-serif" font-size="9.8" lengthAdjust="spacing" textLength="147.7" x="844.9" y="171.6695">navController: NavHostController,</text><text fill="#000000" font-family="sans-serif" font-size="9.8" lengthAdjust="spacing" textLength="240.8" x="844.9" y="184.7043">WorkoutViewModel: WorkoutViewModel = viewModel())</text><line style="stroke:#181818;stroke-width:0.6999999999999998;" x1="831.6" x2="1089.2" y1="189.9639" y2="189.9639"/></g><!--class WorkoutsAddScreen--><g id="elem_WorkoutsAddScreen"><rect codeLine="45" fill="#F1F1F1" height="78.3043" id="WorkoutsAddScreen" rx="1.75" ry="1.75" style="stroke:#181818;stroke-width:0.3499999999999999;" width="259" x="340.9" y="117.2596"/><ellipse cx="421.925" cy="128.4596" fill="#ADD1B2" rx="7.7" ry="7.7" style="stroke:#181818;stroke-width:0.6999999999999998;"/><path d="M423.8609,125.5721 Q423.9703,125.4189 424.1016,125.3424 Q424.2328,125.2658 424.3859,125.2658 Q424.6484,125.2658 424.8125,125.4518 Q424.9766,125.6268 424.9766,126.0533 L424.9766,127.0705 Q424.9766,127.4971 424.8125,127.683 Q424.6484,127.8689 424.3859,127.8689 Q424.1453,127.8689 424.0031,127.7268 Q423.8609,127.5955 423.7844,127.2346 Q423.7516,126.983 423.6203,126.8518 Q423.3906,126.5893 422.9641,126.4361 Q422.5375,126.283 422.1,126.283 Q421.5641,126.283 421.1156,126.5127 Q420.6781,126.7424 420.3281,127.2674 Q419.9891,127.7924 419.9891,128.5143 L419.9891,129.2799 Q419.9891,130.1439 420.6125,130.7236 Q421.2359,131.2924 422.3516,131.2924 Q423.0078,131.2924 423.4672,131.1174 Q423.7406,131.008 424.0359,130.7018 Q424.2219,130.5158 424.3203,130.4611 Q424.4297,130.4064 424.5719,130.4064 Q424.8016,130.4064 424.9766,130.5924 Q425.1625,130.7674 425.1625,131.008 Q425.1625,131.2486 424.9219,131.533 Q424.5719,131.9377 424.0141,132.1674 Q423.2594,132.4846 422.3516,132.4846 Q421.2906,132.4846 420.4484,132.0471 Q419.7594,131.6971 419.2781,130.9533 Q418.7969,130.1986 418.7969,129.3018 L418.7969,128.4924 Q418.7969,127.5627 419.2234,126.7643 Q419.6609,125.9549 420.4266,125.5283 Q421.1922,125.0908 422.0562,125.0908 Q422.5703,125.0908 423.0187,125.2111 Q423.4781,125.3205 423.8609,125.5721 Z " fill="#000000"/><text fill="#000000" font-family="sans-serif" font-size="9.8" lengthAdjust="spacing" textLength="91" x="436.275" y="132.5174">WorkoutsAddScreen</text><line style="stroke:#181818;stroke-width:0.3499999999999999;" x1="341.6" x2="599.2" y1="139.6596" y2="139.6596"/><line style="stroke:#181818;stroke-width:0.6999999999999998;" x1="341.6" x2="599.2" y1="145.2596" y2="145.2596"/><ellipse cx="348.6" cy="155.627" fill="#84BE84" rx="2.1" ry="2.1" style="stroke:#038048;stroke-width:0.6999999999999998;"/><text fill="#000000" font-family="sans-serif" font-size="9.8" lengthAdjust="spacing" textLength="77" x="354.9" y="158.6348">WorkoutsScreen(</text><text fill="#000000" font-family="sans-serif" font-size="9.8" lengthAdjust="spacing" textLength="147.7" x="354.9" y="171.6695">navController: NavHostController,</text><text fill="#000000" font-family="sans-serif" font-size="9.8" lengthAdjust="spacing" textLength="240.8" x="354.9" y="184.7043">WorkoutViewModel: WorkoutViewModel = viewModel())</text><line style="stroke:#181818;stroke-width:0.6999999999999998;" x1="341.6" x2="599.2" y1="189.9639" y2="189.9639"/></g><!--class WorkoutsEditScreen--><g id="elem_WorkoutsEditScreen"><rect codeLine="53" fill="#F1F1F1" height="104.3738" id="WorkoutsEditScreen" rx="1.75" ry="1.75" style="stroke:#181818;stroke-width:0.3499999999999999;" width="255.5" x="60.55" y="104.3096"/><ellipse cx="140.175" cy="115.5096" fill="#ADD1B2" rx="7.7" ry="7.7" style="stroke:#181818;stroke-width:0.6999999999999998;"/><path d="M142.1109,112.6221 Q142.2203,112.4689 142.3516,112.3924 Q142.4828,112.3158 142.6359,112.3158 Q142.8984,112.3158 143.0625,112.5018 Q143.2266,112.6768 143.2266,113.1033 L143.2266,114.1205 Q143.2266,114.5471 143.0625,114.733 Q142.8984,114.9189 142.6359,114.9189 Q142.3953,114.9189 142.2531,114.7768 Q142.1109,114.6455 142.0344,114.2846 Q142.0016,114.033 141.8703,113.9018 Q141.6406,113.6393 141.2141,113.4861 Q140.7875,113.333 140.35,113.333 Q139.8141,113.333 139.3656,113.5627 Q138.9281,113.7924 138.5781,114.3174 Q138.2391,114.8424 138.2391,115.5643 L138.2391,116.3299 Q138.2391,117.1939 138.8625,117.7736 Q139.4859,118.3424 140.6016,118.3424 Q141.2578,118.3424 141.7172,118.1674 Q141.9906,118.058 142.2859,117.7518 Q142.4719,117.5658 142.5703,117.5111 Q142.6797,117.4564 142.8219,117.4564 Q143.0516,117.4564 143.2266,117.6424 Q143.4125,117.8174 143.4125,118.058 Q143.4125,118.2986 143.1719,118.583 Q142.8219,118.9877 142.2641,119.2174 Q141.5094,119.5346 140.6016,119.5346 Q139.5406,119.5346 138.6984,119.0971 Q138.0094,118.7471 137.5281,118.0033 Q137.0469,117.2486 137.0469,116.3518 L137.0469,115.5424 Q137.0469,114.6127 137.4734,113.8143 Q137.9109,113.0049 138.6766,112.5783 Q139.4422,112.1408 140.3062,112.1408 Q140.8203,112.1408 141.2687,112.2611 Q141.7281,112.3705 142.1109,112.6221 Z " fill="#000000"/><text fill="#000000" font-family="sans-serif" font-size="9.8" lengthAdjust="spacing" textLength="90.3" x="154.525" y="119.5674">WorkoutsEditScreen</text><line style="stroke:#181818;stroke-width:0.3499999999999999;" x1="61.25" x2="315.35" y1="126.7096" y2="126.7096"/><line style="stroke:#181818;stroke-width:0.6999999999999998;" x1="61.25" x2="315.35" y1="132.3096" y2="132.3096"/><ellipse cx="68.25" cy="142.677" fill="#84BE84" rx="2.1" ry="2.1" style="stroke:#038048;stroke-width:0.6999999999999998;"/><text fill="#000000" font-family="sans-serif" font-size="9.8" lengthAdjust="spacing" textLength="77" x="74.55" y="145.6848">WorkoutsScreen(</text><text fill="#000000" font-family="sans-serif" font-size="9.8" lengthAdjust="spacing" textLength="147.7" x="74.55" y="158.7195">navController: NavHostController,</text><text fill="#000000" font-family="sans-serif" font-size="9.8" lengthAdjust="spacing" textLength="237.3" x="74.55" y="171.7543">WorkoutViewModel: WorkoutViewModel = viewModel()</text><text fill="#000000" font-family="sans-serif" font-size="9.8" lengthAdjust="spacing" textLength="83.3" x="74.55" y="184.7891">Workout: Workout)</text><text fill="#000000" font-family="sans-serif" font-size="9.8" lengthAdjust="spacing" textLength="2.8" x="74.55" y="197.8238">&#160;</text><line style="stroke:#181818;stroke-width:0.6999999999999998;" x1="61.25" x2="315.35" y1="203.0834" y2="203.0834"/></g><!--class WorkoutViewModel--><g id="elem_WorkoutViewModel"><rect codeLine="64" fill="#F1F1F1" height="111.8086" id="WorkoutViewModel" rx="1.75" ry="1.75" style="stroke:#181818;stroke-width:0.3499999999999999;" width="177.1" x="628.95" y="250.6096"/><ellipse cx="672.525" cy="261.8096" fill="#ADD1B2" rx="7.7" ry="7.7" style="stroke:#181818;stroke-width:0.6999999999999998;"/><path d="M674.4609,258.9221 Q674.5703,258.7689 674.7016,258.6924 Q674.8328,258.6158 674.9859,258.6158 Q675.2484,258.6158 675.4125,258.8018 Q675.5766,258.9768 675.5766,259.4033 L675.5766,260.4205 Q675.5766,260.8471 675.4125,261.033 Q675.2484,261.2189 674.9859,261.2189 Q674.7453,261.2189 674.6031,261.0768 Q674.4609,260.9455 674.3844,260.5846 Q674.3516,260.333 674.2203,260.2018 Q673.9906,259.9393 673.5641,259.7861 Q673.1375,259.633 672.7,259.633 Q672.1641,259.633 671.7156,259.8627 Q671.2781,260.0924 670.9281,260.6174 Q670.5891,261.1424 670.5891,261.8643 L670.5891,262.6299 Q670.5891,263.4939 671.2125,264.0736 Q671.8359,264.6424 672.9516,264.6424 Q673.6078,264.6424 674.0672,264.4674 Q674.3406,264.358 674.6359,264.0518 Q674.8219,263.8658 674.9203,263.8111 Q675.0297,263.7564 675.1719,263.7564 Q675.4016,263.7564 675.5766,263.9424 Q675.7625,264.1174 675.7625,264.358 Q675.7625,264.5986 675.5219,264.883 Q675.1719,265.2877 674.6141,265.5174 Q673.8594,265.8346 672.9516,265.8346 Q671.8906,265.8346 671.0484,265.3971 Q670.3594,265.0471 669.8781,264.3033 Q669.3969,263.5486 669.3969,262.6518 L669.3969,261.8424 Q669.3969,260.9127 669.8234,260.1143 Q670.2609,259.3049 671.0266,258.8783 Q671.7922,258.4408 672.6562,258.4408 Q673.1703,258.4408 673.6187,258.5611 Q674.0781,258.6705 674.4609,258.9221 Z " fill="#000000"/><text fill="#000000" font-family="sans-serif" font-size="9.8" lengthAdjust="spacing" textLength="84" x="686.875" y="265.8674">WorkoutViewModel</text><line style="stroke:#181818;stroke-width:0.3499999999999999;" x1="629.65" x2="805.35" y1="273.0096" y2="273.0096"/><ellipse cx="636.65" cy="283.377" fill="none" rx="2.1" ry="2.1" style="stroke:#038048;stroke-width:0.6999999999999998;"/><text fill="#000000" font-family="sans-serif" font-size="9.8" lengthAdjust="spacing" textLength="147.7" x="642.95" y="286.3848">LiveData&lt;List&lt;Workout&gt;&gt; allData</text><rect fill="none" height="4.2" style="stroke:#C82930;stroke-width:0.6999999999999998;" width="4.2" x="634.55" y="294.3117"/><text fill="#000000" font-family="sans-serif" font-size="9.8" lengthAdjust="spacing" textLength="136.5" x="642.95" y="299.4195">WorkoutsRepository repository</text><line style="stroke:#181818;stroke-width:0.3499999999999999;" x1="629.65" x2="805.35" y1="304.6791" y2="304.6791"/><ellipse cx="636.65" cy="315.0465" fill="#84BE84" rx="2.1" ry="2.1" style="stroke:#038048;stroke-width:0.6999999999999998;"/><text fill="#000000" font-family="sans-serif" font-size="9.8" lengthAdjust="spacing" textLength="158.9" x="642.95" y="318.0543">LiveData&lt;Workout&gt; getWorkout(Int)</text><ellipse cx="636.65" cy="328.0812" fill="#84BE84" rx="2.1" ry="2.1" style="stroke:#038048;stroke-width:0.6999999999999998;"/><text fill="#000000" font-family="sans-serif" font-size="9.8" lengthAdjust="spacing" textLength="119" x="642.95" y="331.0891">void addWorkout(Workout)</text><ellipse cx="636.65" cy="341.116" fill="#84BE84" rx="2.1" ry="2.1" style="stroke:#038048;stroke-width:0.6999999999999998;"/><text fill="#000000" font-family="sans-serif" font-size="9.8" lengthAdjust="spacing" textLength="129.5" x="642.95" y="344.1238">void deleteWorkout(Workout)</text><ellipse cx="636.65" cy="354.1508" fill="#84BE84" rx="2.1" ry="2.1" style="stroke:#038048;stroke-width:0.6999999999999998;"/><text fill="#000000" font-family="sans-serif" font-size="9.8" lengthAdjust="spacing" textLength="133" x="642.95" y="357.1586">void updateWorkout(Workout)</text></g><!--class WorkoutViewModelFactory--><g id="elem_WorkoutViewModelFactory"><rect codeLine="73" fill="#F1F1F1" height="46.6348" id="WorkoutViewModelFactory" rx="1.75" ry="1.75" style="stroke:#181818;stroke-width:0.3499999999999999;" width="182" x="624.4" y="133.0096"/><ellipse cx="653.8" cy="144.2096" fill="#ADD1B2" rx="7.7" ry="7.7" style="stroke:#181818;stroke-width:0.6999999999999998;"/><path d="M655.7359,141.3221 Q655.8453,141.1689 655.9766,141.0924 Q656.1078,141.0158 656.2609,141.0158 Q656.5234,141.0158 656.6875,141.2018 Q656.8516,141.3768 656.8516,141.8033 L656.8516,142.8205 Q656.8516,143.2471 656.6875,143.433 Q656.5234,143.6189 656.2609,143.6189 Q656.0203,143.6189 655.8781,143.4768 Q655.7359,143.3455 655.6594,142.9846 Q655.6266,142.733 655.4953,142.6018 Q655.2656,142.3393 654.8391,142.1861 Q654.4125,142.033 653.975,142.033 Q653.4391,142.033 652.9906,142.2627 Q652.5531,142.4924 652.2031,143.0174 Q651.8641,143.5424 651.8641,144.2643 L651.8641,145.0299 Q651.8641,145.8939 652.4875,146.4736 Q653.1109,147.0424 654.2266,147.0424 Q654.8828,147.0424 655.3422,146.8674 Q655.6156,146.758 655.9109,146.4518 Q656.0969,146.2658 656.1953,146.2111 Q656.3047,146.1564 656.4469,146.1564 Q656.6766,146.1564 656.8516,146.3424 Q657.0375,146.5174 657.0375,146.758 Q657.0375,146.9986 656.7969,147.283 Q656.4469,147.6877 655.8891,147.9174 Q655.1344,148.2346 654.2266,148.2346 Q653.1656,148.2346 652.3234,147.7971 Q651.6344,147.4471 651.1531,146.7033 Q650.6719,145.9486 650.6719,145.0518 L650.6719,144.2424 Q650.6719,143.3127 651.0984,142.5143 Q651.5359,141.7049 652.3016,141.2783 Q653.0672,140.8408 653.9312,140.8408 Q654.4453,140.8408 654.8937,140.9611 Q655.3531,141.0705 655.7359,141.3221 Z " fill="#000000"/><text fill="#000000" font-family="sans-serif" font-size="9.8" lengthAdjust="spacing" textLength="117.6" x="667.8" y="148.2674">WorkoutViewModelFactory</text><line style="stroke:#181818;stroke-width:0.3499999999999999;" x1="625.1" x2="805.7" y1="155.4096" y2="155.4096"/><line style="stroke:#181818;stroke-width:0.3499999999999999;" x1="625.1" x2="805.7" y1="161.0096" y2="161.0096"/><ellipse cx="632.1" cy="171.377" fill="#84BE84" rx="2.1" ry="2.1" style="stroke:#038048;stroke-width:0.6999999999999998;"/><text fill="#000000" font-family="sans-serif" font-size="9.8" lengthAdjust="spacing" textLength="163.8" x="638.4" y="174.3848">void T create(modelClass: Class&lt;T&gt;)</text></g><!--class WorkoutsContent--><g id="elem_WorkoutsContent"><rect codeLine="79" fill="#F1F1F1" height="72.7043" id="WorkoutsContent" rx="1.75" ry="1.75" style="stroke:#181818;stroke-width:0.3499999999999999;" width="165.9" x="882.35" y="270.2096"/><ellipse cx="923.825" cy="281.4096" fill="#ADD1B2" rx="7.7" ry="7.7" style="stroke:#181818;stroke-width:0.6999999999999998;"/><path d="M925.7609,278.5221 Q925.8703,278.3689 926.0016,278.2924 Q926.1328,278.2158 926.2859,278.2158 Q926.5484,278.2158 926.7125,278.4018 Q926.8766,278.5768 926.8766,279.0033 L926.8766,280.0205 Q926.8766,280.4471 926.7125,280.633 Q926.5484,280.8189 926.2859,280.8189 Q926.0453,280.8189 925.9031,280.6768 Q925.7609,280.5455 925.6844,280.1846 Q925.6516,279.933 925.5203,279.8018 Q925.2906,279.5393 924.8641,279.3861 Q924.4375,279.233 924,279.233 Q923.4641,279.233 923.0156,279.4627 Q922.5781,279.6924 922.2281,280.2174 Q921.8891,280.7424 921.8891,281.4643 L921.8891,282.2299 Q921.8891,283.0939 922.5125,283.6736 Q923.1359,284.2424 924.2516,284.2424 Q924.9078,284.2424 925.3672,284.0674 Q925.6406,283.958 925.9359,283.6518 Q926.1219,283.4658 926.2203,283.4111 Q926.3297,283.3564 926.4719,283.3564 Q926.7016,283.3564 926.8766,283.5424 Q927.0625,283.7174 927.0625,283.958 Q927.0625,284.1986 926.8219,284.483 Q926.4719,284.8877 925.9141,285.1174 Q925.1594,285.4346 924.2516,285.4346 Q923.1906,285.4346 922.3484,284.9971 Q921.6594,284.6471 921.1781,283.9033 Q920.6969,283.1486 920.6969,282.2518 L920.6969,281.4424 Q920.6969,280.5127 921.1234,279.7143 Q921.5609,278.9049 922.3266,278.4783 Q923.0922,278.0408 923.9562,278.0408 Q924.4703,278.0408 924.9187,278.1611 Q925.3781,278.2705 925.7609,278.5221 Z " fill="#000000"/><text fill="#000000" font-family="sans-serif" font-size="9.8" lengthAdjust="spacing" textLength="77" x="938.175" y="285.4674">WorkoutsContent</text><line style="stroke:#181818;stroke-width:0.3499999999999999;" x1="883.05" x2="1047.55" y1="292.6096" y2="292.6096"/><ellipse cx="890.05" cy="302.977" fill="none" rx="2.1" ry="2.1" style="stroke:#038048;stroke-width:0.6999999999999998;"/><text fill="#000000" font-family="sans-serif" font-size="9.8" lengthAdjust="spacing" textLength="147.7" x="896.35" y="305.9848">navController: NavHostController,</text><ellipse cx="890.05" cy="316.0117" fill="none" rx="2.1" ry="2.1" style="stroke:#038048;stroke-width:0.6999999999999998;"/><text fill="#000000" font-family="sans-serif" font-size="9.8" lengthAdjust="spacing" textLength="114.1" x="896.35" y="319.0195">Workouts: List&lt;Workout&gt;,</text><line style="stroke:#181818;stroke-width:0.3499999999999999;" x1="883.05" x2="1047.55" y1="324.2791" y2="324.2791"/><ellipse cx="890.05" cy="334.6465" fill="#84BE84" rx="2.1" ry="2.1" style="stroke:#038048;stroke-width:0.6999999999999998;"/><text fill="#000000" font-family="sans-serif" font-size="9.8" lengthAdjust="spacing" textLength="107.8" x="896.35" y="337.6543">void onDelete(Workout),</text></g><!--class WorkoutAddContent--><g id="elem_WorkoutAddContent"><rect codeLine="85" fill="#F1F1F1" height="59.6695" id="WorkoutAddContent" rx="1.75" ry="1.75" style="stroke:#181818;stroke-width:0.3499999999999999;" width="165.9" x="257.95" y="276.8596"/><ellipse cx="293.125" cy="288.0596" fill="#ADD1B2" rx="7.7" ry="7.7" style="stroke:#181818;stroke-width:0.6999999999999998;"/><path d="M295.0609,285.1721 Q295.1703,285.0189 295.3016,284.9424 Q295.4328,284.8658 295.5859,284.8658 Q295.8484,284.8658 296.0125,285.0518 Q296.1766,285.2268 296.1766,285.6533 L296.1766,286.6705 Q296.1766,287.0971 296.0125,287.283 Q295.8484,287.4689 295.5859,287.4689 Q295.3453,287.4689 295.2031,287.3268 Q295.0609,287.1955 294.9844,286.8346 Q294.9516,286.583 294.8203,286.4518 Q294.5906,286.1893 294.1641,286.0361 Q293.7375,285.883 293.3,285.883 Q292.7641,285.883 292.3156,286.1127 Q291.8781,286.3424 291.5281,286.8674 Q291.1891,287.3924 291.1891,288.1143 L291.1891,288.8799 Q291.1891,289.7439 291.8125,290.3236 Q292.4359,290.8924 293.5516,290.8924 Q294.2078,290.8924 294.6672,290.7174 Q294.9406,290.608 295.2359,290.3018 Q295.4219,290.1158 295.5203,290.0611 Q295.6297,290.0064 295.7719,290.0064 Q296.0016,290.0064 296.1766,290.1924 Q296.3625,290.3674 296.3625,290.608 Q296.3625,290.8486 296.1219,291.133 Q295.7719,291.5377 295.2141,291.7674 Q294.4594,292.0846 293.5516,292.0846 Q292.4906,292.0846 291.6484,291.6471 Q290.9594,291.2971 290.4781,290.5533 Q289.9969,289.7986 289.9969,288.9018 L289.9969,288.0924 Q289.9969,287.1627 290.4234,286.3643 Q290.8609,285.5549 291.6266,285.1283 Q292.3922,284.6908 293.2562,284.6908 Q293.7703,284.6908 294.2187,284.8111 Q294.6781,284.9205 295.0609,285.1721 Z " fill="#000000"/><text fill="#000000" font-family="sans-serif" font-size="9.8" lengthAdjust="spacing" textLength="89.6" x="307.475" y="292.1174">WorkoutAddContent</text><line style="stroke:#181818;stroke-width:0.3499999999999999;" x1="258.65" x2="423.15" y1="299.2596" y2="299.2596"/><ellipse cx="265.65" cy="309.627" fill="none" rx="2.1" ry="2.1" style="stroke:#038048;stroke-width:0.6999999999999998;"/><text fill="#000000" font-family="sans-serif" font-size="9.8" lengthAdjust="spacing" textLength="147.7" x="271.95" y="312.6348">navController: NavHostController,</text><line style="stroke:#181818;stroke-width:0.3499999999999999;" x1="258.65" x2="423.15" y1="317.8943" y2="317.8943"/><ellipse cx="265.65" cy="328.2617" fill="#84BE84" rx="2.1" ry="2.1" style="stroke:#038048;stroke-width:0.6999999999999998;"/><text fill="#000000" font-family="sans-serif" font-size="9.8" lengthAdjust="spacing" textLength="109.9" x="271.95" y="331.2695">onExerciseAdd(Exercise)</text></g><!--class WorkoutEditContent--><g id="elem_WorkoutEditContent"><rect codeLine="90" fill="#F1F1F1" height="72.7043" id="WorkoutEditContent" rx="1.75" ry="1.75" style="stroke:#181818;stroke-width:0.3499999999999999;" width="156.1" x="448.35" y="270.2096"/><ellipse cx="479.01" cy="281.4096" fill="#ADD1B2" rx="7.7" ry="7.7" style="stroke:#181818;stroke-width:0.6999999999999998;"/><path d="M480.9459,278.5221 Q481.0553,278.3689 481.1866,278.2924 Q481.3178,278.2158 481.4709,278.2158 Q481.7334,278.2158 481.8975,278.4018 Q482.0616,278.5768 482.0616,279.0033 L482.0616,280.0205 Q482.0616,280.4471 481.8975,280.633 Q481.7334,280.8189 481.4709,280.8189 Q481.2303,280.8189 481.0881,280.6768 Q480.9459,280.5455 480.8694,280.1846 Q480.8366,279.933 480.7053,279.8018 Q480.4756,279.5393 480.0491,279.3861 Q479.6225,279.233 479.185,279.233 Q478.6491,279.233 478.2006,279.4627 Q477.7631,279.6924 477.4131,280.2174 Q477.0741,280.7424 477.0741,281.4643 L477.0741,282.2299 Q477.0741,283.0939 477.6975,283.6736 Q478.3209,284.2424 479.4366,284.2424 Q480.0928,284.2424 480.5522,284.0674 Q480.8256,283.958 481.1209,283.6518 Q481.3069,283.4658 481.4053,283.4111 Q481.5147,283.3564 481.6569,283.3564 Q481.8866,283.3564 482.0616,283.5424 Q482.2475,283.7174 482.2475,283.958 Q482.2475,284.1986 482.0069,284.483 Q481.6569,284.8877 481.0991,285.1174 Q480.3444,285.4346 479.4366,285.4346 Q478.3756,285.4346 477.5334,284.9971 Q476.8444,284.6471 476.3631,283.9033 Q475.8819,283.1486 475.8819,282.2518 L475.8819,281.4424 Q475.8819,280.5127 476.3084,279.7143 Q476.7459,278.9049 477.5116,278.4783 Q478.2772,278.0408 479.1412,278.0408 Q479.6553,278.0408 480.1037,278.1611 Q480.5631,278.2705 480.9459,278.5221 Z " fill="#000000"/><text fill="#000000" font-family="sans-serif" font-size="9.8" lengthAdjust="spacing" textLength="88.9" x="493.29" y="285.4674">WorkoutEditContent</text><line style="stroke:#181818;stroke-width:0.3499999999999999;" x1="449.05" x2="603.75" y1="292.6096" y2="292.6096"/><text fill="#000000" font-family="sans-serif" font-size="9.8" lengthAdjust="spacing" textLength="147.7" x="452.55" y="305.9848">navController: NavHostController,</text><text fill="#000000" font-family="sans-serif" font-size="9.8" lengthAdjust="spacing" textLength="82.6" x="452.55" y="319.0195">Workout: Workout,</text><line style="stroke:#181818;stroke-width:0.3499999999999999;" x1="449.05" x2="603.75" y1="324.2791" y2="324.2791"/><text fill="#000000" font-family="sans-serif" font-size="9.8" lengthAdjust="spacing" textLength="144.9" x="452.55" y="337.6543">void onWorkoutUpdate(Workout)</text></g><!--class WorkoutCard--><g id="elem_WorkoutCard"><rect codeLine="98" fill="#F1F1F1" height="85.7391" id="WorkoutCard" rx="1.75" ry="1.75" style="stroke:#181818;stroke-width:0.3499999999999999;" width="180.6" x="880.6" y="405.3096"/><ellipse cx="938.525" cy="416.5096" fill="#ADD1B2" rx="7.7" ry="7.7" style="stroke:#181818;stroke-width:0.6999999999999998;"/><path d="M940.4609,413.6221 Q940.5703,413.4689 940.7016,413.3924 Q940.8328,413.3158 940.9859,413.3158 Q941.2484,413.3158 941.4125,413.5018 Q941.5766,413.6768 941.5766,414.1033 L941.5766,415.1205 Q941.5766,415.5471 941.4125,415.733 Q941.2484,415.9189 940.9859,415.9189 Q940.7453,415.9189 940.6031,415.7768 Q940.4609,415.6455 940.3844,415.2846 Q940.3516,415.033 940.2203,414.9018 Q939.9906,414.6393 939.5641,414.4861 Q939.1375,414.333 938.7,414.333 Q938.1641,414.333 937.7156,414.5627 Q937.2781,414.7924 936.9281,415.3174 Q936.5891,415.8424 936.5891,416.5643 L936.5891,417.3299 Q936.5891,418.1939 937.2125,418.7736 Q937.8359,419.3424 938.9516,419.3424 Q939.6078,419.3424 940.0672,419.1674 Q940.3406,419.058 940.6359,418.7518 Q940.8219,418.5658 940.9203,418.5111 Q941.0297,418.4564 941.1719,418.4564 Q941.4016,418.4564 941.5766,418.6424 Q941.7625,418.8174 941.7625,419.058 Q941.7625,419.2986 941.5219,419.583 Q941.1719,419.9877 940.6141,420.2174 Q939.8594,420.5346 938.9516,420.5346 Q937.8906,420.5346 937.0484,420.0971 Q936.3594,419.7471 935.8781,419.0033 Q935.3969,418.2486 935.3969,417.3518 L935.3969,416.5424 Q935.3969,415.6127 935.8234,414.8143 Q936.2609,414.0049 937.0266,413.5783 Q937.7922,413.1408 938.6562,413.1408 Q939.1703,413.1408 939.6187,413.2611 Q940.0781,413.3705 940.4609,413.6221 Z " fill="#000000"/><text fill="#000000" font-family="sans-serif" font-size="9.8" lengthAdjust="spacing" textLength="58.8" x="952.875" y="420.5674">WorkoutCard</text><line style="stroke:#181818;stroke-width:0.3499999999999999;" x1="881.3" x2="1060.5" y1="427.7096" y2="427.7096"/><ellipse cx="888.3" cy="438.077" fill="none" rx="2.1" ry="2.1" style="stroke:#038048;stroke-width:0.6999999999999998;"/><text fill="#000000" font-family="sans-serif" font-size="9.8" lengthAdjust="spacing" textLength="79.8" x="894.6" y="441.0848">workout: Workout,</text><line style="stroke:#181818;stroke-width:0.3499999999999999;" x1="881.3" x2="1060.5" y1="446.3443" y2="446.3443"/><ellipse cx="888.3" cy="456.7117" fill="#84BE84" rx="2.1" ry="2.1" style="stroke:#038048;stroke-width:0.6999999999999998;"/><text fill="#000000" font-family="sans-serif" font-size="9.8" lengthAdjust="spacing" textLength="151.2" x="894.6" y="459.7195">void editAction(workout: Workout),</text><ellipse cx="888.3" cy="469.7465" fill="#84BE84" rx="2.1" ry="2.1" style="stroke:#038048;stroke-width:0.6999999999999998;"/><text fill="#000000" font-family="sans-serif" font-size="9.8" lengthAdjust="spacing" textLength="162.4" x="894.6" y="472.7543">void deleteAction(workout: Workout),</text><ellipse cx="888.3" cy="482.7812" fill="#84BE84" rx="2.1" ry="2.1" style="stroke:#038048;stroke-width:0.6999999999999998;"/><text fill="#000000" font-family="sans-serif" font-size="9.8" lengthAdjust="spacing" textLength="123.9" x="894.6" y="485.7891">void WorkoutCardPreview(),</text></g><!--class ExerciseInWorkoutFormCard--><g id="elem_ExerciseInWorkoutFormCard"><rect codeLine="104" fill="#F1F1F1" height="85.7391" id="ExerciseInWorkoutFormCard" rx="1.75" ry="1.75" style="stroke:#181818;stroke-width:0.3499999999999999;" width="149.1" x="451.85" y="405.3096"/><ellipse cx="462.35" cy="416.5096" fill="#ADD1B2" rx="7.7" ry="7.7" style="stroke:#181818;stroke-width:0.6999999999999998;"/><path d="M464.2859,413.6221 Q464.3953,413.4689 464.5266,413.3924 Q464.6578,413.3158 464.8109,413.3158 Q465.0734,413.3158 465.2375,413.5018 Q465.4016,413.6768 465.4016,414.1033 L465.4016,415.1205 Q465.4016,415.5471 465.2375,415.733 Q465.0734,415.9189 464.8109,415.9189 Q464.5703,415.9189 464.4281,415.7768 Q464.2859,415.6455 464.2094,415.2846 Q464.1766,415.033 464.0453,414.9018 Q463.8156,414.6393 463.3891,414.4861 Q462.9625,414.333 462.525,414.333 Q461.9891,414.333 461.5406,414.5627 Q461.1031,414.7924 460.7531,415.3174 Q460.4141,415.8424 460.4141,416.5643 L460.4141,417.3299 Q460.4141,418.1939 461.0375,418.7736 Q461.6609,419.3424 462.7766,419.3424 Q463.4328,419.3424 463.8922,419.1674 Q464.1656,419.058 464.4609,418.7518 Q464.6469,418.5658 464.7453,418.5111 Q464.8547,418.4564 464.9969,418.4564 Q465.2266,418.4564 465.4016,418.6424 Q465.5875,418.8174 465.5875,419.058 Q465.5875,419.2986 465.3469,419.583 Q464.9969,419.9877 464.4391,420.2174 Q463.6844,420.5346 462.7766,420.5346 Q461.7156,420.5346 460.8734,420.0971 Q460.1844,419.7471 459.7031,419.0033 Q459.2219,418.2486 459.2219,417.3518 L459.2219,416.5424 Q459.2219,415.6127 459.6484,414.8143 Q460.0859,414.0049 460.8516,413.5783 Q461.6172,413.1408 462.4812,413.1408 Q462.9953,413.1408 463.4437,413.2611 Q463.9031,413.3705 464.2859,413.6221 Z " fill="#000000"/><text fill="#000000" font-family="sans-serif" font-size="9.8" lengthAdjust="spacing" textLength="126.7" x="472.15" y="420.5674">ExerciseInWorkoutFormCard</text><line style="stroke:#181818;stroke-width:0.3499999999999999;" x1="452.55" x2="600.25" y1="427.7096" y2="427.7096"/><ellipse cx="459.55" cy="438.077" fill="none" rx="2.1" ry="2.1" style="stroke:#038048;stroke-width:0.6999999999999998;"/><text fill="#000000" font-family="sans-serif" font-size="9.8" lengthAdjust="spacing" textLength="77" x="465.85" y="441.0848">name: String = "",</text><ellipse cx="459.55" cy="451.1117" fill="none" rx="2.1" ry="2.1" style="stroke:#038048;stroke-width:0.6999999999999998;"/><text fill="#000000" font-family="sans-serif" font-size="9.8" lengthAdjust="spacing" textLength="75.6" x="465.85" y="454.1195">modifier: Modifier</text><line style="stroke:#181818;stroke-width:0.3499999999999999;" x1="452.55" x2="600.25" y1="459.3791" y2="459.3791"/><ellipse cx="459.55" cy="469.7465" fill="#84BE84" rx="2.1" ry="2.1" style="stroke:#038048;stroke-width:0.6999999999999998;"/><text fill="#000000" font-family="sans-serif" font-size="9.8" lengthAdjust="spacing" textLength="105" x="465.85" y="472.7543">void onDeleteConfirm(),</text><ellipse cx="459.55" cy="482.7812" fill="#84BE84" rx="2.1" ry="2.1" style="stroke:#038048;stroke-width:0.6999999999999998;"/><text fill="#000000" font-family="sans-serif" font-size="9.8" lengthAdjust="spacing" textLength="101.5" x="465.85" y="485.7891">void onDeleteCancel(),</text></g><!--class DeleteWorkoutConfirmationDialog--><g id="elem_DeleteWorkoutConfirmationDialog"><rect codeLine="110" fill="#F1F1F1" height="72.7043" id="DeleteWorkoutConfirmationDialog" rx="1.75" ry="1.75" style="stroke:#181818;stroke-width:0.3499999999999999;" width="230.3" x="625.45" y="411.6096"/><ellipse cx="662.725" cy="422.8096" fill="#ADD1B2" rx="7.7" ry="7.7" style="stroke:#181818;stroke-width:0.6999999999999998;"/><path d="M664.6609,419.9221 Q664.7703,419.7689 664.9016,419.6924 Q665.0328,419.6158 665.1859,419.6158 Q665.4484,419.6158 665.6125,419.8018 Q665.7766,419.9768 665.7766,420.4033 L665.7766,421.4205 Q665.7766,421.8471 665.6125,422.033 Q665.4484,422.2189 665.1859,422.2189 Q664.9453,422.2189 664.8031,422.0768 Q664.6609,421.9455 664.5844,421.5846 Q664.5516,421.333 664.4203,421.2018 Q664.1906,420.9393 663.7641,420.7861 Q663.3375,420.633 662.9,420.633 Q662.3641,420.633 661.9156,420.8627 Q661.4781,421.0924 661.1281,421.6174 Q660.7891,422.1424 660.7891,422.8643 L660.7891,423.6299 Q660.7891,424.4939 661.4125,425.0736 Q662.0359,425.6424 663.1516,425.6424 Q663.8078,425.6424 664.2672,425.4674 Q664.5406,425.358 664.8359,425.0518 Q665.0219,424.8658 665.1203,424.8111 Q665.2297,424.7564 665.3719,424.7564 Q665.6016,424.7564 665.7766,424.9424 Q665.9625,425.1174 665.9625,425.358 Q665.9625,425.5986 665.7219,425.883 Q665.3719,426.2877 664.8141,426.5174 Q664.0594,426.8346 663.1516,426.8346 Q662.0906,426.8346 661.2484,426.3971 Q660.5594,426.0471 660.0781,425.3033 Q659.5969,424.5486 659.5969,423.6518 L659.5969,422.8424 Q659.5969,421.9127 660.0234,421.1143 Q660.4609,420.3049 661.2266,419.8783 Q661.9922,419.4408 662.8562,419.4408 Q663.3703,419.4408 663.8187,419.5611 Q664.2781,419.6705 664.6609,419.9221 Z " fill="#000000"/><text fill="#000000" font-family="sans-serif" font-size="9.8" lengthAdjust="spacing" textLength="149.8" x="677.075" y="426.8674">DeleteWorkoutConfirmationDialog</text><line style="stroke:#181818;stroke-width:0.3499999999999999;" x1="626.15" x2="855.05" y1="434.0096" y2="434.0096"/><ellipse cx="633.15" cy="444.377" fill="none" rx="2.1" ry="2.1" style="stroke:#038048;stroke-width:0.6999999999999998;"/><text fill="#000000" font-family="sans-serif" font-size="9.8" lengthAdjust="spacing" textLength="72.8" x="639.45" y="447.3848">photos: List&lt;Int&gt;</text><line style="stroke:#181818;stroke-width:0.3499999999999999;" x1="626.15" x2="855.05" y1="452.6443" y2="452.6443"/><ellipse cx="633.15" cy="463.0117" fill="#84BE84" rx="2.1" ry="2.1" style="stroke:#038048;stroke-width:0.6999999999999998;"/><text fill="#000000" font-family="sans-serif" font-size="9.8" lengthAdjust="spacing" textLength="106.4" x="639.45" y="466.0195">void onImageSelect(Int),</text><ellipse cx="633.15" cy="476.0465" fill="#84BE84" rx="2.1" ry="2.1" style="stroke:#038048;stroke-width:0.6999999999999998;"/><text fill="#000000" font-family="sans-serif" font-size="9.8" lengthAdjust="spacing" textLength="212.1" x="639.45" y="479.0543">void DeleteWorkoutConfirmationDialogPreview()</text></g><!--class Screen--><g id="elem_Screen"><rect codeLine="117" fill="#F1F1F1" height="33.6" id="Screen" rx="1.75" ry="1.75" style="stroke:#181818;stroke-width:0.3499999999999999;" width="53.9" x="1376.55" y="289.8096"/><ellipse cx="1387.05" cy="301.0096" fill="#ADD1B2" rx="7.7" ry="7.7" style="stroke:#181818;stroke-width:0.6999999999999998;"/><path d="M1388.9859,298.1221 Q1389.0953,297.9689 1389.2266,297.8924 Q1389.3578,297.8158 1389.5109,297.8158 Q1389.7734,297.8158 1389.9375,298.0018 Q1390.1016,298.1768 1390.1016,298.6033 L1390.1016,299.6205 Q1390.1016,300.0471 1389.9375,300.233 Q1389.7734,300.4189 1389.5109,300.4189 Q1389.2703,300.4189 1389.1281,300.2768 Q1388.9859,300.1455 1388.9094,299.7846 Q1388.8766,299.533 1388.7453,299.4018 Q1388.5156,299.1393 1388.0891,298.9861 Q1387.6625,298.833 1387.225,298.833 Q1386.6891,298.833 1386.2406,299.0627 Q1385.8031,299.2924 1385.4531,299.8174 Q1385.1141,300.3424 1385.1141,301.0643 L1385.1141,301.8299 Q1385.1141,302.6939 1385.7375,303.2736 Q1386.3609,303.8424 1387.4766,303.8424 Q1388.1328,303.8424 1388.5922,303.6674 Q1388.8656,303.558 1389.1609,303.2518 Q1389.3469,303.0658 1389.4453,303.0111 Q1389.5547,302.9564 1389.6969,302.9564 Q1389.9266,302.9564 1390.1016,303.1424 Q1390.2875,303.3174 1390.2875,303.558 Q1390.2875,303.7986 1390.0469,304.083 Q1389.6969,304.4877 1389.1391,304.7174 Q1388.3844,305.0346 1387.4766,305.0346 Q1386.4156,305.0346 1385.5734,304.5971 Q1384.8844,304.2471 1384.4031,303.5033 Q1383.9219,302.7486 1383.9219,301.8518 L1383.9219,301.0424 Q1383.9219,300.1127 1384.3484,299.3143 Q1384.7859,298.5049 1385.5516,298.0783 Q1386.3172,297.6408 1387.1812,297.6408 Q1387.6953,297.6408 1388.1437,297.7611 Q1388.6031,297.8705 1388.9859,298.1221 Z " fill="#000000"/><text fill="#000000" font-family="sans-serif" font-size="9.8" lengthAdjust="spacing" textLength="31.5" x="1396.85" y="305.0674">Screen</text><line style="stroke:#181818;stroke-width:0.3499999999999999;" x1="1377.25" x2="1429.75" y1="312.2096" y2="312.2096"/><line style="stroke:#181818;stroke-width:0.3499999999999999;" x1="1377.25" x2="1429.75" y1="317.8096" y2="317.8096"/></g><!--class NavigationGraph--><g id="elem_NavigationGraph"><rect fill="#F1F1F1" height="33.6" id="NavigationGraph" rx="1.75" ry="1.75" style="stroke:#181818;stroke-width:0.3499999999999999;" width="96.6" x="1255.1" y="289.8096"/><ellipse cx="1265.6" cy="301.0096" fill="#ADD1B2" rx="7.7" ry="7.7" style="stroke:#181818;stroke-width:0.6999999999999998;"/><path d="M1267.5359,298.1221 Q1267.6453,297.9689 1267.7766,297.8924 Q1267.9078,297.8158 1268.0609,297.8158 Q1268.3234,297.8158 1268.4875,298.0018 Q1268.6516,298.1768 1268.6516,298.6033 L1268.6516,299.6205 Q1268.6516,300.0471 1268.4875,300.233 Q1268.3234,300.4189 1268.0609,300.4189 Q1267.8203,300.4189 1267.6781,300.2768 Q1267.5359,300.1455 1267.4594,299.7846 Q1267.4266,299.533 1267.2953,299.4018 Q1267.0656,299.1393 1266.6391,298.9861 Q1266.2125,298.833 1265.775,298.833 Q1265.2391,298.833 1264.7906,299.0627 Q1264.3531,299.2924 1264.0031,299.8174 Q1263.6641,300.3424 1263.6641,301.0643 L1263.6641,301.8299 Q1263.6641,302.6939 1264.2875,303.2736 Q1264.9109,303.8424 1266.0266,303.8424 Q1266.6828,303.8424 1267.1422,303.6674 Q1267.4156,303.558 1267.7109,303.2518 Q1267.8969,303.0658 1267.9953,303.0111 Q1268.1047,302.9564 1268.2469,302.9564 Q1268.4766,302.9564 1268.6516,303.1424 Q1268.8375,303.3174 1268.8375,303.558 Q1268.8375,303.7986 1268.5969,304.083 Q1268.2469,304.4877 1267.6891,304.7174 Q1266.9344,305.0346 1266.0266,305.0346 Q1264.9656,305.0346 1264.1234,304.5971 Q1263.4344,304.2471 1262.9531,303.5033 Q1262.4719,302.7486 1262.4719,301.8518 L1262.4719,301.0424 Q1262.4719,300.1127 1262.8984,299.3143 Q1263.3359,298.5049 1264.1016,298.0783 Q1264.8672,297.6408 1265.7312,297.6408 Q1266.2453,297.6408 1266.6937,297.7611 Q1267.1531,297.8705 1267.5359,298.1221 Z " fill="#000000"/><text fill="#000000" font-family="sans-serif" font-size="9.8" lengthAdjust="spacing" textLength="74.2" x="1275.4" y="305.0674">NavigationGraph</text><line style="stroke:#181818;stroke-width:0.3499999999999999;" x1="1255.8" x2="1351" y1="312.2096" y2="312.2096"/><line style="stroke:#181818;stroke-width:0.3499999999999999;" x1="1255.8" x2="1351" y1="317.8096" y2="317.8096"/></g><!--link WorkoutsEditScreen to WorkoutEditContent--><g id="link_WorkoutsEditScreen_WorkoutEditContent"><path codeLine="120" d="M316.071,204.1506 C370.314,224.3246 423.92,244.6456 436.1,250.6096 C447.909,256.3846 456.5539,261.0968 468.0899,267.9918 " fill="none" id="WorkoutsEditScreen-to-WorkoutEditContent" style="stroke:#0000FF;stroke-width:0.6999999999999998;stroke-dasharray:7.0,7.0;"/><polygon fill="#0000FF" points="471.695,270.1466,467.7238,264.511,468.6907,268.3509,464.8508,269.3178,471.695,270.1466" style="stroke:#0000FF;stroke-width:0.6999999999999998;"/></g><!--link WorkoutsEditScreen to WorkoutViewModel--><g id="link_WorkoutsEditScreen_WorkoutViewModel"><path codeLine="121" d="M316.197,205.2076 C320.502,206.4116 324.772,207.5526 329,208.6096 C458.535,241.0546 500.752,205.6836 626.5,250.6096 C627.284,250.8896 624.1354,249.7019 624.9194,249.9959 " fill="none" id="WorkoutsEditScreen-to-WorkoutViewModel" style="stroke:#0000FF;stroke-width:0.6999999999999998;stroke-dasharray:7.0,7.0;"/><polygon fill="#0000FF" points="628.852,251.4706,623.9363,246.6368,625.5748,250.2416,621.97,251.8802,628.852,251.4706" style="stroke:#0000FF;stroke-width:0.6999999999999998;"/></g><!--link WorkoutsAddScreen to WorkoutViewModel--><g id="link_WorkoutsAddScreen_WorkoutViewModel"><path codeLine="122" d="M535.01,195.7086 C563.143,212.5296 596.477,232.5006 626.5,250.6096 C627.291,251.0856 624.4959,249.3938 625.2939,249.8768 " fill="none" id="WorkoutsAddScreen-to-WorkoutViewModel" style="stroke:#181818;stroke-width:0.6999999999999998;stroke-dasharray:7.0,7.0;"/><polygon fill="#181818" points="628.887,252.0516,624.9472,246.394,625.8927,250.2393,622.0475,251.1848,628.887,252.0516" style="stroke:#181818;stroke-width:0.6999999999999998;"/></g><!--link WorkoutAddContent to Screen--><g id="link_WorkoutAddContent_Screen"><path codeLine="124" d="M371.35,276.8316 C391.426,259.3666 419.293,238.9476 448.35,229.6096 C496.146,214.2516 1307.775,205.9426 1352.05,229.6096 C1375.731,242.2656 1388.8662,267.2696 1396.2092,285.8476 " fill="none" id="WorkoutAddContent-to-Screen" style="stroke:#808080;stroke-width:0.6999999999999998;stroke-dasharray:7.0,7.0;"/><polygon fill="#808080" points="1397.753,289.7536,1398.0412,282.8654,1396.4665,286.4986,1392.8333,284.9239,1397.753,289.7536" style="stroke:#808080;stroke-width:0.6999999999999998;"/></g><!--link WorkoutEditContent to Screen--><g id="link_WorkoutEditContent_Screen"><path codeLine="125" d="M561.428,270.0626 C578.97,254.3826 601.552,237.8066 625.45,229.6096 C663.635,216.5126 1316.448,210.5836 1352.05,229.6096 C1375.731,242.2656 1388.8662,267.2696 1396.2092,285.8476 " fill="none" id="WorkoutEditContent-to-Screen" style="stroke:#808080;stroke-width:0.6999999999999998;stroke-dasharray:7.0,7.0;"/><polygon fill="#808080" points="1397.753,289.7536,1398.0412,282.8654,1396.4665,286.4986,1392.8333,284.9239,1397.753,289.7536" style="stroke:#808080;stroke-width:0.6999999999999998;"/></g><!--link WorkoutsScreen to Screen--><g id="link_WorkoutsScreen_Screen"><path codeLine="126" d="M1051.89,195.6876 C1065.421,200.5176 1079.309,205.0186 1092.7,208.6096 C1210.671,240.2636 1260.413,186.3706 1364.3,250.6096 C1379.112,259.7726 1388.0002,273.0713 1394.4682,285.8323 " fill="none" id="WorkoutsScreen-to-Screen" style="stroke:#808080;stroke-width:0.6999999999999998;stroke-dasharray:7.0,7.0;"/><polygon fill="#808080" points="1396.367,289.5786,1396.0163,282.6933,1394.7847,286.4567,1391.0213,285.2251,1396.367,289.5786" style="stroke:#808080;stroke-width:0.6999999999999998;"/></g><!--link NavigationGraph to WorkoutsScreen--><g id="link_NavigationGraph_WorkoutsScreen"><path codeLine="129" d="M1292.452,289.7536 C1283.177,277.2726 1268.771,260.5076 1252.3,250.6096 C1189.433,212.8306 1162.462,231.2686 1092.7,208.6096 C1080.632,204.6896 1071.9999,201.7207 1059.6239,197.1497 " fill="none" id="NavigationGraph-to-WorkoutsScreen" style="stroke:#181818;stroke-width:0.6999999999999998;stroke-dasharray:7.0,7.0;"/><polygon fill="#181818" points="1055.684,195.6946,1060.6237,200.5039,1058.9672,196.9072,1062.5639,195.2507,1055.684,195.6946" style="stroke:#181818;stroke-width:0.6999999999999998;"/></g><!--link NavigationGraph to WorkoutViewModelFactory--><g id="link_NavigationGraph_WorkoutViewModelFactory"><path codeLine="130" d="M1293.411,289.7956 C1284.395,276.7966 1269.87,259.3106 1252.3,250.6096 C1075.018,162.8436 998.291,266.7096 809.2,208.6096 C788.074,202.1206 769.9021,192.7321 752.6681,182.2041 " fill="none" id="NavigationGraph-to-WorkoutViewModelFactory" style="stroke:#181818;stroke-width:0.6999999999999998;stroke-dasharray:7.0,7.0;"/><polygon fill="#181818" points="749.084,180.0146,753.0005,185.6883,752.0708,181.8392,755.9199,180.9094,749.084,180.0146" style="stroke:#181818;stroke-width:0.6999999999999998;"/></g><!--link WorkoutViewModelFactory to WorkoutViewModel--><g id="link_WorkoutViewModelFactory_WorkoutViewModel"><path codeLine="132" d="M715.722,180.0776 C715.988,198.8166 716.3139,221.917 716.6569,246.298 " fill="none" id="WorkoutViewModelFactory-to-WorkoutViewModel" style="stroke:#181818;stroke-width:0.6999999999999998;stroke-dasharray:7.0,7.0;"/><polygon fill="#181818" points="716.716,250.4976,719.4271,244.1588,716.6668,246.9979,713.8277,244.2376,716.716,250.4976" style="stroke:#181818;stroke-width:0.6999999999999998;"/></g><!--link WorkoutsContent to Workout--><g id="link_WorkoutsContent_Workout"><path codeLine="134" d="M1005.214,343.0726 C1018.899,353.1806 1034.943,362.8756 1051.4,368.2096 C1064.623,372.4936 1542.121,363.9256 1551.9,373.8096 C1612.933,435.5286 1605.17,500.5796 1551.9,569.1096 C1518.356,612.2646 1390.2771,640.0246 1284.2201,656.3486 " fill="none" id="WorkoutsContent-to-Workout" style="stroke:#008000;stroke-width:0.6999999999999998;stroke-dasharray:7.0,7.0;"/><polygon fill="#008000" points="1280.069,656.9876,1286.7216,658.7966,1283.5283,656.4551,1285.8697,653.2618,1280.069,656.9876" style="stroke:#008000;stroke-width:0.6999999999999998;"/></g><!--link WorkoutCard to Workout--><g id="link_WorkoutCard_Workout"><path codeLine="135" d="M1002.169,490.9056 C1029.882,528.2996 1067.9256,579.6299 1097.5356,619.5929 " fill="none" id="WorkoutCard-to-Workout" style="stroke:#181818;stroke-width:0.6999999999999998;stroke-dasharray:7.0,7.0;"/><polygon fill="#181818" points="1100.036,622.9676,1098.5352,616.2387,1097.9524,620.1554,1094.0357,619.5726,1100.036,622.9676" style="stroke:#181818;stroke-width:0.6999999999999998;"/></g><!--link WorkoutsScreen to WorkoutViewModel--><g id="link_WorkoutsScreen_WorkoutViewModel"><path codeLine="137" d="M897.533,195.6596 C869.701,212.7046 840.0539,230.8604 809.7579,249.4104 " fill="none" id="WorkoutsScreen-to-WorkoutViewModel" style="stroke:#008000;stroke-width:0.6999999999999998;stroke-dasharray:7.0,7.0;"/><polygon fill="#008000" points="806.176,251.6036,813.011,250.7018,809.1609,249.7759,810.0867,245.9259,806.176,251.6036" style="stroke:#008000;stroke-width:0.6999999999999998;"/></g><!--link WorkoutViewModel to datasource--><g id="link_WorkoutViewModel_datasource"><path codeLine="139" d="M794.535,362.6166 C799.372,364.7726 804.279,366.6696 809.2,368.2096 C837.109,376.9596 1043.28,371.0446 1072.4,373.8096 C1221.612,387.9986 1392.8917,422.9026 1466.0837,438.7156 " fill="none" id="WorkoutViewModel-to-datasource" style="stroke:#181818;stroke-width:0.6999999999999998;stroke-dasharray:7.0,7.0;"/><polygon fill="#181818" points="1470.189,439.6026,1464.6224,435.5353,1466.7679,438.8635,1463.4398,441.009,1470.189,439.6026" style="stroke:#181818;stroke-width:0.6999999999999998;"/></g><!--link WorkoutsContent to WorkoutCard--><g id="link_WorkoutsContent_WorkoutCard"><path codeLine="141" d="M966.735,343.1846 C967.491,362.0566 968.2539,381.1209 969.0449,400.8679 " fill="none" id="WorkoutsContent-to-WorkoutCard" style="stroke:#008000;stroke-width:0.6999999999999998;stroke-dasharray:7.0,7.0;"/><polygon fill="#008000" points="969.213,405.0646,971.7586,398.6575,969.0729,401.5674,966.1631,398.8817,969.213,405.0646" style="stroke:#008000;stroke-width:0.6999999999999998;"/></g><!--link WorkoutsContent to DeleteWorkoutConfirmationDialog--><g id="link_WorkoutsContent_DeleteWorkoutConfirmationDialog"><path codeLine="142" d="M907.725,343.1846 C874.048,364.1636 835.2419,388.3469 801.5859,409.3119 " fill="none" id="WorkoutsContent-to-DeleteWorkoutConfirmationDialog" style="stroke:#008000;stroke-width:0.6999999999999998;stroke-dasharray:7.0,7.0;"/><polygon fill="#008000" points="798.021,411.5326,804.8488,410.5782,800.9918,409.682,801.8879,405.825,798.021,411.5326" style="stroke:#008000;stroke-width:0.6999999999999998;"/></g><!--link WorkoutsScreen to WorkoutsContent--><g id="link_WorkoutsScreen_WorkoutsContent"><path codeLine="144" d="M961.667,195.6596 C962.423,218.6406 963.2435,243.4439 963.9855,265.9279 " fill="none" id="WorkoutsScreen-to-WorkoutsContent" style="stroke:#008000;stroke-width:0.6999999999999998;stroke-dasharray:7.0,7.0;"/><polygon fill="#008000" points="964.124,270.1256,966.7147,263.7366,964.0086,266.6275,961.1177,263.9214,964.124,270.1256" style="stroke:#008000;stroke-width:0.6999999999999998;"/></g><!--link Workouts to components--><g id="link_Workouts_components"><path codeLine="146" d="M1120.0263,167.9287 C1120.0913,168.0532 1120.1568,168.1786 1120.2228,168.3049 C1120.3547,168.5575 1120.4886,168.8138 1120.6243,169.0737 C1120.8958,169.5934 1121.1748,170.1275 1121.4609,170.6754 C1122.0333,171.7713 1122.6346,172.9225 1123.2625,174.1247 C1128.286,183.7425 1135.0154,196.6264 1142.3046,210.5818 C1156.883,238.4926 1171.7556,266.9665 1181.6431,285.891 " fill="none" id="Workouts-to-components" style="stroke:#808080;stroke-width:0.6999999999999998;stroke-dasharray:7.0,7.0;"/><polygon fill="#808080" points="1183.588,289.6136,1183.1523,282.7332,1181.9672,286.5115,1178.1889,285.3264,1183.588,289.6136" style="stroke:#808080;stroke-width:0.6999999999999998;"/></g><!--link WorkoutAddContent to ExerciseInWorkoutFormCard--><g id="link_WorkoutAddContent_ExerciseInWorkoutFormCard"><path codeLine="148" d="M379.561,336.4856 C405.944,356.4006 437.9555,380.5616 467.3695,402.7586 " fill="none" id="WorkoutAddContent-to-ExerciseInWorkoutFormCard" style="stroke:#181818;stroke-width:0.6999999999999998;stroke-dasharray:7.0,7.0;"/><polygon fill="#181818" points="470.722,405.2886,467.3799,399.2586,467.9282,403.1803,464.0066,403.7287,470.722,405.2886" style="stroke:#181818;stroke-width:0.6999999999999998;"/></g><!--link WorkoutEditContent to ExerciseInWorkoutFormCard--><g id="link_WorkoutEditContent_ExerciseInWorkoutFormCard"><path codeLine="149" d="M526.4,343.1846 C526.4,362.0566 526.4,381.1176 526.4,400.8646 " fill="none" id="WorkoutEditContent-to-ExerciseInWorkoutFormCard" style="stroke:#181818;stroke-width:0.6999999999999998;stroke-dasharray:7.0,7.0;"/><polygon fill="#181818" points="526.4,405.0646,529.2,398.7646,526.4,401.5646,523.6,398.7646,526.4,405.0646" style="stroke:#181818;stroke-width:0.6999999999999998;"/></g><!--SRC=[pLTDRzem6BxdLrZTOK7GgEiHTKWTj1jIwQR1riEqWvkumIAn8zkXhIh- -rudJkA405cBjEM2_NxvUJzj4XmITFvqxiWLPGaME4O9a6POX9IX3sSD-jMJ8eBXQCmZBb0ey7D3u1CN0H4v-px2_ihYXuAdoPGjYQ0ACn_ETU1ZE2OomR0DiCAIfmAMByx6viGy8944AeBFZx2Kw8wB5KyLq4vFdJwYmH1DcK8VqTa0jbfrYEPAK1O2xUH44uDKO4Kvcx8PPQaYigP2deZmgTJK6ohLnPNPZq0W0iBN1xUdvU1m6Z8IBFWT8QiXck1dEMLw3OBLnhlbwjA83ZH63HsSqZ-4fR6jb_kbFqkffCqu2o3EnNQH4cdlxqZ0wfJ5CXKrmhMWzdQELIfgXBGyOQC3RqK-fPxq1I5CUYRYhMcGyqp8i8ot_GRNpQWChyUSAS6ZY8WXkiNhBrogYZJ8f8pcJqeUPphvmoqAH7jThDrUppuu2tCTtsKGj43ie_y8ubL0rRyEewrKolQS1dB5GwAWZNESDIygkozvW6_ecaoWiI-ofZ9Ien72KQJ9MkYqTF0xIRYaYejd9CfbmqvX0W46itQXZNkvs9hJ0E4WA3Yb2nKNm155zWYa2KoYLe6yVziTliP-1lp5ihH0a36mvMO3RAprXYZxkLYCZ4NTRrljfFD8c2gCTKfsLITcWXMH6bY8E9jaxfTk3NRu1GtpAX2S5OCJBBZ5UbVqTCtNZkbUsYs5MZACguRy8yjd8v6R0rFEytcSS0R0MWVU68l0qFleiHM7YJW15ozzVU-uJRbUJJ2loqwY5eXlWkZ-TOt0ne9Q17zQ1EAQYxW6lEMQHDkr0f5_e29sU-rSVPL75HDAdJvGdRYPMMq1GnEx1Otvx6gUK1pnqBeGoyEcCRmkvg3dv-q-i4II9LUyg7fWZfhg1yuhOrXTWJbGg0ieHXfcibuvd87VLZ4jWzpxzUu-IiblRuJsQ5XTS5p3vN3QQxQw6xskvlRPioO7eDHlH8DoAvHEjvYynOoiuhNNXFEUO7-9SZCeXMSWiWO0F8LJwjGLRylbPu6JvQ7OoGhhwuqqBvkzUTYwcOwINLbB2eZeaERlyqB4sJzEFNk4UjlQdTDf3d-pIzMRHQEf_eNyVHowEtviqmSct363Mi1hjTbej0fXvv41YeUStNcnTHueXmEw-um_]--></g></svg>