<?xml version="1.0" encoding="us-ascii" standalone="no"?><svg xmlns="http://www.w3.org/2000/svg" xmlns:xlink="http://www.w3.org/1999/xlink" contentStyleType="text/css" height="1934px" preserveAspectRatio="none" style="width:1584px;height:1934px;background:#FFFFFF;" version="1.1" viewBox="0 0 1584 1934" width="1584px" zoomAndPan="magnify"><defs/><g><!--cluster datasource--><g id="cluster_datasource"><path d="M8.5,823 L88.5,823 A3.75,3.75 0 0 1 91,825.5 L98,847.6211 L1363.5,847.6211 A2.5,2.5 0 0 1 1366,850.1211 L1366,1396.5 A2.5,2.5 0 0 1 1363.5,1399 L8.5,1399 A2.5,2.5 0 0 1 6,1396.5 L6,825.5 A2.5,2.5 0 0 1 8.5,823 " fill="none" style="stroke:#000000;stroke-width:1.5;"/><line style="stroke:#000000;stroke-width:1.5;" x1="6" x2="98" y1="847.6211" y2="847.6211"/><text fill="#000000" font-family="sans-serif" font-size="14" font-weight="bold" lengthAdjust="spacing" textLength="79" x="10" y="840.1074">datasource</text></g><!--cluster workouts--><g id="cluster_workouts"><path d="M32.5,868 L98.5,868 A3.75,3.75 0 0 1 101,870.5 L108,892.6211 L1339.5,892.6211 A2.5,2.5 0 0 1 1342,895.1211 L1342,1372.5 A2.5,2.5 0 0 1 1339.5,1375 L32.5,1375 A2.5,2.5 0 0 1 30,1372.5 L30,870.5 A2.5,2.5 0 0 1 32.5,868 " fill="none" style="stroke:#000000;stroke-width:1.5;"/><line style="stroke:#000000;stroke-width:1.5;" x1="30" x2="108" y1="892.6211" y2="892.6211"/><text fill="#000000" font-family="sans-serif" font-size="14" font-weight="bold" lengthAdjust="spacing" textLength="65" x="34" y="885.1074">workouts</text></g><!--cluster converters--><g id="cluster_converters"><path d="M56.5,1181 L135.5,1181 A3.75,3.75 0 0 1 138,1183.5 L145,1205.6211 L862.5,1205.6211 A2.5,2.5 0 0 1 865,1208.1211 L865,1316.5 A2.5,2.5 0 0 1 862.5,1319 L56.5,1319 A2.5,2.5 0 0 1 54,1316.5 L54,1183.5 A2.5,2.5 0 0 1 56.5,1181 " fill="none" style="stroke:#000000;stroke-width:1.5;"/><line style="stroke:#000000;stroke-width:1.5;" x1="54" x2="145" y1="1205.6211" y2="1205.6211"/><text fill="#000000" font-family="sans-serif" font-size="14" font-weight="bold" lengthAdjust="spacing" textLength="78" x="58" y="1198.1074">converters</text></g><!--cluster models--><g id="cluster_models"><path d="M888.5,1423 L940.5,1423 A3.75,3.75 0 0 1 943,1425.5 L950,1447.6211 L1321.5,1447.6211 A2.5,2.5 0 0 1 1324,1450.1211 L1324,1924.5 A2.5,2.5 0 0 1 1321.5,1927 L888.5,1927 A2.5,2.5 0 0 1 886,1924.5 L886,1425.5 A2.5,2.5 0 0 1 888.5,1423 " fill="none" style="stroke:#000000;stroke-width:1.5;"/><line style="stroke:#000000;stroke-width:1.5;" x1="886" x2="950" y1="1447.6211" y2="1447.6211"/><text fill="#000000" font-family="sans-serif" font-size="14" font-weight="bold" lengthAdjust="spacing" textLength="51" x="890" y="1440.1074">models</text></g><!--cluster ui--><g id="cluster_ui"><path d="M828.5,108 L842.5,108 A3.75,3.75 0 0 1 845,110.5 L852,132.6211 L1498.5,132.6211 A2.5,2.5 0 0 1 1501,135.1211 L1501,796.5 A2.5,2.5 0 0 1 1498.5,799 L828.5,799 A2.5,2.5 0 0 1 826,796.5 L826,110.5 A2.5,2.5 0 0 1 828.5,108 " fill="none" style="stroke:#000000;stroke-width:1.5;"/><line style="stroke:#000000;stroke-width:1.5;" x1="826" x2="852" y1="132.6211" y2="132.6211"/><text fill="#000000" font-family="sans-serif" font-size="14" font-weight="bold" lengthAdjust="spacing" textLength="13" x="830" y="125.1074">ui</text></g><!--cluster screens--><g id="cluster_screens"><path d="M852.5,278 L910.5,278 A3.75,3.75 0 0 1 913,280.5 L920,302.6211 L1474.5,302.6211 A2.5,2.5 0 0 1 1477,305.1211 L1477,772.5 A2.5,2.5 0 0 1 1474.5,775 L852.5,775 A2.5,2.5 0 0 1 850,772.5 L850,280.5 A2.5,2.5 0 0 1 852.5,278 " fill="none" style="stroke:#000000;stroke-width:1.5;"/><line style="stroke:#000000;stroke-width:1.5;" x1="850" x2="920" y1="302.6211" y2="302.6211"/><text fill="#000000" font-family="sans-serif" font-size="14" font-weight="bold" lengthAdjust="spacing" textLength="57" x="854" y="295.1074">screens</text></g><!--cluster workouts--><g id="cluster_workouts"><path d="M884.5,331 L950.5,331 A3.75,3.75 0 0 1 953,333.5 L960,355.6211 L1442.5,355.6211 A2.5,2.5 0 0 1 1445,358.1211 L1445,740.5 A2.5,2.5 0 0 1 1442.5,743 L884.5,743 A2.5,2.5 0 0 1 882,740.5 L882,333.5 A2.5,2.5 0 0 1 884.5,331 " fill="none" style="stroke:#000000;stroke-width:1.5;"/><line style="stroke:#000000;stroke-width:1.5;" x1="882" x2="960" y1="355.6211" y2="355.6211"/><text fill="#000000" font-family="sans-serif" font-size="14" font-weight="bold" lengthAdjust="spacing" textLength="65" x="886" y="348.1074">workouts</text></g><!--cluster navigation--><g id="cluster_navigation"><path d="M1010.5,153 L1085.5,153 A3.75,3.75 0 0 1 1088,155.5 L1095,177.6211 L1175.5,177.6211 A2.5,2.5 0 0 1 1178,180.1211 L1178,251.5 A2.5,2.5 0 0 1 1175.5,254 L1010.5,254 A2.5,2.5 0 0 1 1008,251.5 L1008,155.5 A2.5,2.5 0 0 1 1010.5,153 " fill="none" style="stroke:#000000;stroke-width:1.5;"/><line style="stroke:#000000;stroke-width:1.5;" x1="1008" x2="1095" y1="177.6211" y2="177.6211"/><text fill="#000000" font-family="sans-serif" font-size="14" font-weight="bold" lengthAdjust="spacing" textLength="74" x="1012" y="170.1074">navigation</text></g><!--class WorkoutsDatabase--><g id="elem_WorkoutsDatabase"><rect codeLine="9" fill="#F1F1F1" height="103.8633" id="WorkoutsDatabase" rx="2.5" ry="2.5" style="stroke:#181818;stroke-width:0.5;" width="282" x="511" y="951.5"/><ellipse cx="587.25" cy="967.5" fill="#ADD1B2" rx="11" ry="11" style="stroke:#181818;stroke-width:1.0;"/><path d="M590.0156,963.375 Q590.1719,963.1563 590.3594,963.0469 Q590.5469,962.9375 590.7656,962.9375 Q591.1406,962.9375 591.375,963.2031 Q591.6094,963.4531 591.6094,964.0625 L591.6094,965.5156 Q591.6094,966.125 591.375,966.3906 Q591.1406,966.6563 590.7656,966.6563 Q590.4219,966.6563 590.2188,966.4531 Q590.0156,966.2656 589.9063,965.75 Q589.8594,965.3906 589.6719,965.2031 Q589.3438,964.8281 588.7344,964.6094 Q588.125,964.3906 587.5,964.3906 Q586.7344,964.3906 586.0938,964.7188 Q585.4688,965.0469 584.9688,965.7969 Q584.4844,966.5469 584.4844,967.5781 L584.4844,968.6719 Q584.4844,969.9063 585.375,970.7344 Q586.2656,971.5469 587.8594,971.5469 Q588.7969,971.5469 589.4531,971.2969 Q589.8438,971.1406 590.2656,970.7031 Q590.5313,970.4375 590.6719,970.3594 Q590.8281,970.2813 591.0313,970.2813 Q591.3594,970.2813 591.6094,970.5469 Q591.875,970.7969 591.875,971.1406 Q591.875,971.4844 591.5313,971.8906 Q591.0313,972.4688 590.2344,972.7969 Q589.1563,973.25 587.8594,973.25 Q586.3438,973.25 585.1406,972.625 Q584.1563,972.125 583.4688,971.0625 Q582.7813,969.9844 582.7813,968.7031 L582.7813,967.5469 Q582.7813,966.2188 583.3906,965.0781 Q584.0156,963.9219 585.1094,963.3125 Q586.2031,962.6875 587.4375,962.6875 Q588.1719,962.6875 588.8125,962.8594 Q589.4688,963.0156 590.0156,963.375 Z " fill="#000000"/><text fill="#000000" font-family="sans-serif" font-size="14" lengthAdjust="spacing" textLength="121" x="607.75" y="973.2969">WorkoutsDatabase</text><line style="stroke:#181818;stroke-width:0.5;" x1="512" x2="792" y1="983.5" y2="983.5"/><rect fill="none" height="6" style="stroke:#C82930;stroke-width:1.0;" width="6" x="519" y="995.3105"/><text fill="#000000" font-family="sans-serif" font-size="14" lengthAdjust="spacing" textLength="200" x="531" y="1002.6074">WorkoutsDatabase? INSTANCE</text><line style="stroke:#181818;stroke-width:0.5;" x1="512" x2="792" y1="1010.1211" y2="1010.1211"/><ellipse cx="522" cy="1024.9316" fill="#84BE84" rx="3" ry="3" style="stroke:#038048;stroke-width:1.0;"/><text fill="#000000" font-family="sans-serif" font-size="14" lengthAdjust="spacing" textLength="175" x="531" y="1029.2285">WorkoutDao workoutsDao()</text><ellipse cx="522" cy="1043.5527" fill="#84BE84" rx="3" ry="3" style="stroke:#038048;stroke-width:1.0;"/><text fill="#000000" font-family="sans-serif" font-size="14" lengthAdjust="spacing" textLength="256" x="531" y="1047.8496">WorkoutsDatabase getInstance(Context)</text></g><!--class WorkoutsRepository--><g id="elem_WorkoutsRepository"><rect codeLine="15" fill="#F1F1F1" height="196.9688" id="WorkoutsRepository" rx="2.5" ry="2.5" style="stroke:#181818;stroke-width:0.5;" width="364" x="923" y="905"/><ellipse cx="1036.75" cy="921" fill="#ADD1B2" rx="11" ry="11" style="stroke:#181818;stroke-width:1.0;"/><path d="M1039.5156,916.875 Q1039.6719,916.6563 1039.8594,916.5469 Q1040.0469,916.4375 1040.2656,916.4375 Q1040.6406,916.4375 1040.875,916.7031 Q1041.1094,916.9531 1041.1094,917.5625 L1041.1094,919.0156 Q1041.1094,919.625 1040.875,919.8906 Q1040.6406,920.1563 1040.2656,920.1563 Q1039.9219,920.1563 1039.7188,919.9531 Q1039.5156,919.7656 1039.4063,919.25 Q1039.3594,918.8906 1039.1719,918.7031 Q1038.8438,918.3281 1038.2344,918.1094 Q1037.625,917.8906 1037,917.8906 Q1036.2344,917.8906 1035.5938,918.2188 Q1034.9688,918.5469 1034.4688,919.2969 Q1033.9844,920.0469 1033.9844,921.0781 L1033.9844,922.1719 Q1033.9844,923.4063 1034.875,924.2344 Q1035.7656,925.0469 1037.3594,925.0469 Q1038.2969,925.0469 1038.9531,924.7969 Q1039.3438,924.6406 1039.7656,924.2031 Q1040.0313,923.9375 1040.1719,923.8594 Q1040.3281,923.7813 1040.5313,923.7813 Q1040.8594,923.7813 1041.1094,924.0469 Q1041.375,924.2969 1041.375,924.6406 Q1041.375,924.9844 1041.0313,925.3906 Q1040.5313,925.9688 1039.7344,926.2969 Q1038.6563,926.75 1037.3594,926.75 Q1035.8438,926.75 1034.6406,926.125 Q1033.6563,925.625 1032.9688,924.5625 Q1032.2813,923.4844 1032.2813,922.2031 L1032.2813,921.0469 Q1032.2813,919.7188 1032.8906,918.5781 Q1033.5156,917.4219 1034.6094,916.8125 Q1035.7031,916.1875 1036.9375,916.1875 Q1037.6719,916.1875 1038.3125,916.3594 Q1038.9688,916.5156 1039.5156,916.875 Z " fill="#000000"/><text fill="#000000" font-family="sans-serif" font-size="14" lengthAdjust="spacing" textLength="128" x="1057.25" y="926.7969">WorkoutsRepository</text><line style="stroke:#181818;stroke-width:0.5;" x1="924" x2="1286" y1="937" y2="937"/><ellipse cx="934" cy="951.8105" fill="none" rx="3" ry="3" style="stroke:#038048;stroke-width:1.0;"/><text fill="#000000" font-family="sans-serif" font-size="14" lengthAdjust="spacing" textLength="241" x="943" y="956.1074">LiveData&lt;List&lt;Workout&gt;&gt; readAllData</text><line style="stroke:#181818;stroke-width:0.5;" x1="924" x2="1286" y1="963.6211" y2="963.6211"/><ellipse cx="934" cy="978.4316" fill="#84BE84" rx="3" ry="3" style="stroke:#038048;stroke-width:1.0;"/><text fill="#000000" font-family="sans-serif" font-size="14" lengthAdjust="spacing" textLength="170" x="943" y="982.7285">void addWorkout(Workout)</text><ellipse cx="934" cy="997.0527" fill="#84BE84" rx="3" ry="3" style="stroke:#038048;stroke-width:1.0;"/><text fill="#000000" font-family="sans-serif" font-size="14" lengthAdjust="spacing" textLength="185" x="943" y="1001.3496">void deleteWorkout(Workout)</text><ellipse cx="934" cy="1015.6738" fill="#84BE84" rx="3" ry="3" style="stroke:#038048;stroke-width:1.0;"/><text fill="#000000" font-family="sans-serif" font-size="14" lengthAdjust="spacing" textLength="190" x="943" y="1019.9707">void updateWorkout(Workout)</text><ellipse cx="934" cy="1034.2949" fill="#84BE84" rx="3" ry="3" style="stroke:#038048;stroke-width:1.0;"/><text fill="#000000" font-family="sans-serif" font-size="14" lengthAdjust="spacing" textLength="227" x="943" y="1038.5918">LiveData&lt;Workout&gt; getWorkout(Int)</text><ellipse cx="934" cy="1052.916" fill="#84BE84" rx="3" ry="3" style="stroke:#038048;stroke-width:1.0;"/><text fill="#000000" font-family="sans-serif" font-size="14" lengthAdjust="spacing" textLength="338" x="943" y="1057.2129">LiveData&lt;Workout&gt; getWorkoutForDay(DaysInWeek)</text><ellipse cx="934" cy="1071.5371" fill="#84BE84" rx="3" ry="3" style="stroke:#038048;stroke-width:1.0;"/><text fill="#000000" font-family="sans-serif" font-size="14" lengthAdjust="spacing" textLength="336" x="943" y="1075.834">LiveData&lt;List&lt;Workout&gt;&gt; getWorkoutsForEachDay()</text><ellipse cx="934" cy="1090.1582" fill="#84BE84" rx="3" ry="3" style="stroke:#038048;stroke-width:1.0;"/><text fill="#000000" font-family="sans-serif" font-size="14" lengthAdjust="spacing" textLength="107" x="943" y="1094.4551">void clearTable()</text></g><!--class WorkoutDao--><g id="elem_WorkoutDao"><rect codeLine="26" fill="#F1F1F1" height="196.9688" id="WorkoutDao" rx="2.5" ry="2.5" style="stroke:#181818;stroke-width:0.5;" width="441" x="884.5" y="1162"/><ellipse cx="1061.25" cy="1178" fill="#ADD1B2" rx="11" ry="11" style="stroke:#181818;stroke-width:1.0;"/><path d="M1064.0156,1173.875 Q1064.1719,1173.6563 1064.3594,1173.5469 Q1064.5469,1173.4375 1064.7656,1173.4375 Q1065.1406,1173.4375 1065.375,1173.7031 Q1065.6094,1173.9531 1065.6094,1174.5625 L1065.6094,1176.0156 Q1065.6094,1176.625 1065.375,1176.8906 Q1065.1406,1177.1563 1064.7656,1177.1563 Q1064.4219,1177.1563 1064.2188,1176.9531 Q1064.0156,1176.7656 1063.9063,1176.25 Q1063.8594,1175.8906 1063.6719,1175.7031 Q1063.3438,1175.3281 1062.7344,1175.1094 Q1062.125,1174.8906 1061.5,1174.8906 Q1060.7344,1174.8906 1060.0938,1175.2188 Q1059.4688,1175.5469 1058.9688,1176.2969 Q1058.4844,1177.0469 1058.4844,1178.0781 L1058.4844,1179.1719 Q1058.4844,1180.4063 1059.375,1181.2344 Q1060.2656,1182.0469 1061.8594,1182.0469 Q1062.7969,1182.0469 1063.4531,1181.7969 Q1063.8438,1181.6406 1064.2656,1181.2031 Q1064.5313,1180.9375 1064.6719,1180.8594 Q1064.8281,1180.7813 1065.0313,1180.7813 Q1065.3594,1180.7813 1065.6094,1181.0469 Q1065.875,1181.2969 1065.875,1181.6406 Q1065.875,1181.9844 1065.5313,1182.3906 Q1065.0313,1182.9688 1064.2344,1183.2969 Q1063.1563,1183.75 1061.8594,1183.75 Q1060.3438,1183.75 1059.1406,1183.125 Q1058.1563,1182.625 1057.4688,1181.5625 Q1056.7813,1180.4844 1056.7813,1179.2031 L1056.7813,1178.0469 Q1056.7813,1176.7188 1057.3906,1175.5781 Q1058.0156,1174.4219 1059.1094,1173.8125 Q1060.2031,1173.1875 1061.4375,1173.1875 Q1062.1719,1173.1875 1062.8125,1173.3594 Q1063.4688,1173.5156 1064.0156,1173.875 Z " fill="#000000"/><text fill="#000000" font-family="sans-serif" font-size="14" lengthAdjust="spacing" textLength="79" x="1081.75" y="1183.7969">WorkoutDao</text><line style="stroke:#181818;stroke-width:0.5;" x1="885.5" x2="1324.5" y1="1194" y2="1194"/><line style="stroke:#181818;stroke-width:0.5;" x1="885.5" x2="1324.5" y1="1202" y2="1202"/><ellipse cx="895.5" cy="1216.8105" fill="#84BE84" rx="3" ry="3" style="stroke:#038048;stroke-width:1.0;"/><text fill="#000000" font-family="sans-serif" font-size="14" lengthAdjust="spacing" textLength="128" x="904.5" y="1221.1074">void insert(Workout)</text><ellipse cx="895.5" cy="1235.4316" fill="#84BE84" rx="3" ry="3" style="stroke:#038048;stroke-width:1.0;"/><text fill="#000000" font-family="sans-serif" font-size="14" lengthAdjust="spacing" textLength="137" x="904.5" y="1239.7285">void update(Workout)</text><ellipse cx="895.5" cy="1254.0527" fill="#84BE84" rx="3" ry="3" style="stroke:#038048;stroke-width:1.0;"/><text fill="#000000" font-family="sans-serif" font-size="14" lengthAdjust="spacing" textLength="132" x="904.5" y="1258.3496">void delete(Workout)</text><ellipse cx="895.5" cy="1272.6738" fill="#84BE84" rx="3" ry="3" style="stroke:#038048;stroke-width:1.0;"/><text fill="#000000" font-family="sans-serif" font-size="14" lengthAdjust="spacing" textLength="227" x="904.5" y="1276.9707">LiveData&lt;Workout&gt; getWorkout(Int)</text><ellipse cx="895.5" cy="1291.2949" fill="#84BE84" rx="3" ry="3" style="stroke:#038048;stroke-width:1.0;"/><text fill="#000000" font-family="sans-serif" font-size="14" lengthAdjust="spacing" textLength="212" x="904.5" y="1295.5918">LiveData&lt;List&lt;Workout&gt;&gt; getAll()</text><ellipse cx="895.5" cy="1309.916" fill="#84BE84" rx="3" ry="3" style="stroke:#038048;stroke-width:1.0;"/><text fill="#000000" font-family="sans-serif" font-size="14" lengthAdjust="spacing" textLength="338" x="904.5" y="1314.2129">LiveData&lt;Workout&gt; getWorkoutForDay(DaysInWeek)</text><ellipse cx="895.5" cy="1328.5371" fill="#84BE84" rx="3" ry="3" style="stroke:#038048;stroke-width:1.0;"/><text fill="#000000" font-family="sans-serif" font-size="14" lengthAdjust="spacing" textLength="415" x="904.5" y="1332.834">LiveData&lt;List&lt;Workout&gt;&gt; getWorkoutsForEachDay(DaysInWeek)</text><ellipse cx="895.5" cy="1347.1582" fill="#84BE84" rx="3" ry="3" style="stroke:#038048;stroke-width:1.0;"/><text fill="#000000" font-family="sans-serif" font-size="14" lengthAdjust="spacing" textLength="107" x="904.5" y="1351.4551">void clearTable()</text></g><!--class DaysInWeekConverter--><g id="elem_DaysInWeekConverter"><rect codeLine="38" fill="#F1F1F1" height="85.2422" id="DaysInWeekConverter" rx="2.5" ry="2.5" style="stroke:#181818;stroke-width:0.5;" width="349" x="70.5" y="1218"/><ellipse cx="169.75" cy="1234" fill="#ADD1B2" rx="11" ry="11" style="stroke:#181818;stroke-width:1.0;"/><path d="M172.5156,1229.875 Q172.6719,1229.6563 172.8594,1229.5469 Q173.0469,1229.4375 173.2656,1229.4375 Q173.6406,1229.4375 173.875,1229.7031 Q174.1094,1229.9531 174.1094,1230.5625 L174.1094,1232.0156 Q174.1094,1232.625 173.875,1232.8906 Q173.6406,1233.1563 173.2656,1233.1563 Q172.9219,1233.1563 172.7188,1232.9531 Q172.5156,1232.7656 172.4063,1232.25 Q172.3594,1231.8906 172.1719,1231.7031 Q171.8438,1231.3281 171.2344,1231.1094 Q170.625,1230.8906 170,1230.8906 Q169.2344,1230.8906 168.5938,1231.2188 Q167.9688,1231.5469 167.4688,1232.2969 Q166.9844,1233.0469 166.9844,1234.0781 L166.9844,1235.1719 Q166.9844,1236.4063 167.875,1237.2344 Q168.7656,1238.0469 170.3594,1238.0469 Q171.2969,1238.0469 171.9531,1237.7969 Q172.3438,1237.6406 172.7656,1237.2031 Q173.0313,1236.9375 173.1719,1236.8594 Q173.3281,1236.7813 173.5313,1236.7813 Q173.8594,1236.7813 174.1094,1237.0469 Q174.375,1237.2969 174.375,1237.6406 Q174.375,1237.9844 174.0313,1238.3906 Q173.5313,1238.9688 172.7344,1239.2969 Q171.6563,1239.75 170.3594,1239.75 Q168.8438,1239.75 167.6406,1239.125 Q166.6563,1238.625 165.9688,1237.5625 Q165.2813,1236.4844 165.2813,1235.2031 L165.2813,1234.0469 Q165.2813,1232.7188 165.8906,1231.5781 Q166.5156,1230.4219 167.6094,1229.8125 Q168.7031,1229.1875 169.9375,1229.1875 Q170.6719,1229.1875 171.3125,1229.3594 Q171.9688,1229.5156 172.5156,1229.875 Z " fill="#000000"/><text fill="#000000" font-family="sans-serif" font-size="14" lengthAdjust="spacing" textLength="142" x="190.25" y="1239.7969">DaysInWeekConverter</text><line style="stroke:#181818;stroke-width:0.5;" x1="71.5" x2="418.5" y1="1250" y2="1250"/><line style="stroke:#181818;stroke-width:0.5;" x1="71.5" x2="418.5" y1="1258" y2="1258"/><ellipse cx="81.5" cy="1272.8105" fill="#84BE84" rx="3" ry="3" style="stroke:#038048;stroke-width:1.0;"/><text fill="#000000" font-family="sans-serif" font-size="14" lengthAdjust="spacing" textLength="323" x="90.5" y="1277.1074">fromDaysInWeek(dayInWeek: DaysInWeek) : String</text><ellipse cx="81.5" cy="1291.4316" fill="#84BE84" rx="3" ry="3" style="stroke:#038048;stroke-width:1.0;"/><text fill="#000000" font-family="sans-serif" font-size="14" lengthAdjust="spacing" textLength="252" x="90.5" y="1295.7285">toExerciseList(day: String): DaysInWeek</text></g><!--class ExerciseListConverter--><g id="elem_ExerciseListConverter"><rect codeLine="43" fill="#F1F1F1" height="85.2422" id="ExerciseListConverter" rx="2.5" ry="2.5" style="stroke:#181818;stroke-width:0.5;" width="394" x="455" y="1218"/><ellipse cx="578.75" cy="1234" fill="#ADD1B2" rx="11" ry="11" style="stroke:#181818;stroke-width:1.0;"/><path d="M581.5156,1229.875 Q581.6719,1229.6563 581.8594,1229.5469 Q582.0469,1229.4375 582.2656,1229.4375 Q582.6406,1229.4375 582.875,1229.7031 Q583.1094,1229.9531 583.1094,1230.5625 L583.1094,1232.0156 Q583.1094,1232.625 582.875,1232.8906 Q582.6406,1233.1563 582.2656,1233.1563 Q581.9219,1233.1563 581.7188,1232.9531 Q581.5156,1232.7656 581.4063,1232.25 Q581.3594,1231.8906 581.1719,1231.7031 Q580.8438,1231.3281 580.2344,1231.1094 Q579.625,1230.8906 579,1230.8906 Q578.2344,1230.8906 577.5938,1231.2188 Q576.9688,1231.5469 576.4688,1232.2969 Q575.9844,1233.0469 575.9844,1234.0781 L575.9844,1235.1719 Q575.9844,1236.4063 576.875,1237.2344 Q577.7656,1238.0469 579.3594,1238.0469 Q580.2969,1238.0469 580.9531,1237.7969 Q581.3438,1237.6406 581.7656,1237.2031 Q582.0313,1236.9375 582.1719,1236.8594 Q582.3281,1236.7813 582.5313,1236.7813 Q582.8594,1236.7813 583.1094,1237.0469 Q583.375,1237.2969 583.375,1237.6406 Q583.375,1237.9844 583.0313,1238.3906 Q582.5313,1238.9688 581.7344,1239.2969 Q580.6563,1239.75 579.3594,1239.75 Q577.8438,1239.75 576.6406,1239.125 Q575.6563,1238.625 574.9688,1237.5625 Q574.2813,1236.4844 574.2813,1235.2031 L574.2813,1234.0469 Q574.2813,1232.7188 574.8906,1231.5781 Q575.5156,1230.4219 576.6094,1229.8125 Q577.7031,1229.1875 578.9375,1229.1875 Q579.6719,1229.1875 580.3125,1229.3594 Q580.9688,1229.5156 581.5156,1229.875 Z " fill="#000000"/><text fill="#000000" font-family="sans-serif" font-size="14" lengthAdjust="spacing" textLength="138" x="599.25" y="1239.7969">ExerciseListConverter</text><line style="stroke:#181818;stroke-width:0.5;" x1="456" x2="848" y1="1250" y2="1250"/><line style="stroke:#181818;stroke-width:0.5;" x1="456" x2="848" y1="1258" y2="1258"/><ellipse cx="466" cy="1272.8105" fill="#84BE84" rx="3" ry="3" style="stroke:#038048;stroke-width:1.0;"/><text fill="#000000" font-family="sans-serif" font-size="14" lengthAdjust="spacing" textLength="303" x="475" y="1277.1074">fun fromExerciseList(exercises: List&lt;Exercise&gt;?)</text><ellipse cx="466" cy="1291.4316" fill="#84BE84" rx="3" ry="3" style="stroke:#038048;stroke-width:1.0;"/><text fill="#000000" font-family="sans-serif" font-size="14" lengthAdjust="spacing" textLength="368" x="475" y="1295.7285">toExerciseList(exerciseListString: String?): List&lt;Exercise&gt;?</text></g><!--class Exercise--><g id="elem_Exercise"><rect codeLine="58" fill="#F1F1F1" height="242.2109" id="Exercise" rx="2.5" ry="2.5" style="stroke:#181818;stroke-width:0.5;" width="238" x="1049" y="1669"/><ellipse cx="1137.25" cy="1685" fill="#ADD1B2" rx="11" ry="11" style="stroke:#181818;stroke-width:1.0;"/><path d="M1140.0156,1680.875 Q1140.1719,1680.6563 1140.3594,1680.5469 Q1140.5469,1680.4375 1140.7656,1680.4375 Q1141.1406,1680.4375 1141.375,1680.7031 Q1141.6094,1680.9531 1141.6094,1681.5625 L1141.6094,1683.0156 Q1141.6094,1683.625 1141.375,1683.8906 Q1141.1406,1684.1563 1140.7656,1684.1563 Q1140.4219,1684.1563 1140.2188,1683.9531 Q1140.0156,1683.7656 1139.9063,1683.25 Q1139.8594,1682.8906 1139.6719,1682.7031 Q1139.3438,1682.3281 1138.7344,1682.1094 Q1138.125,1681.8906 1137.5,1681.8906 Q1136.7344,1681.8906 1136.0938,1682.2188 Q1135.4688,1682.5469 1134.9688,1683.2969 Q1134.4844,1684.0469 1134.4844,1685.0781 L1134.4844,1686.1719 Q1134.4844,1687.4063 1135.375,1688.2344 Q1136.2656,1689.0469 1137.8594,1689.0469 Q1138.7969,1689.0469 1139.4531,1688.7969 Q1139.8438,1688.6406 1140.2656,1688.2031 Q1140.5313,1687.9375 1140.6719,1687.8594 Q1140.8281,1687.7813 1141.0313,1687.7813 Q1141.3594,1687.7813 1141.6094,1688.0469 Q1141.875,1688.2969 1141.875,1688.6406 Q1141.875,1688.9844 1141.5313,1689.3906 Q1141.0313,1689.9688 1140.2344,1690.2969 Q1139.1563,1690.75 1137.8594,1690.75 Q1136.3438,1690.75 1135.1406,1690.125 Q1134.1563,1689.625 1133.4688,1688.5625 Q1132.7813,1687.4844 1132.7813,1686.2031 L1132.7813,1685.0469 Q1132.7813,1683.7188 1133.3906,1682.5781 Q1134.0156,1681.4219 1135.1094,1680.8125 Q1136.2031,1680.1875 1137.4375,1680.1875 Q1138.1719,1680.1875 1138.8125,1680.3594 Q1139.4688,1680.5156 1140.0156,1680.875 Z " fill="#000000"/><text fill="#000000" font-family="sans-serif" font-size="14" lengthAdjust="spacing" textLength="53" x="1157.75" y="1690.7969">Exercise</text><line style="stroke:#181818;stroke-width:0.5;" x1="1050" x2="1286" y1="1701" y2="1701"/><line style="stroke:#181818;stroke-width:1.0;" x1="1050" x2="1286" y1="1709" y2="1709"/><ellipse cx="1060" cy="1723.8105" fill="none" rx="3" ry="3" style="stroke:#038048;stroke-width:1.0;"/><text fill="#000000" font-family="sans-serif" font-size="14" lengthAdjust="spacing" textLength="62" x="1069" y="1728.1074">id: Int = 0,</text><ellipse cx="1060" cy="1742.4316" fill="none" rx="3" ry="3" style="stroke:#038048;stroke-width:1.0;"/><text fill="#000000" font-family="sans-serif" font-size="14" lengthAdjust="spacing" textLength="110" x="1069" y="1746.7285">name: String = "",</text><ellipse cx="1060" cy="1761.0527" fill="none" rx="3" ry="3" style="stroke:#038048;stroke-width:1.0;"/><text fill="#000000" font-family="sans-serif" font-size="14" lengthAdjust="spacing" textLength="142" x="1069" y="1765.3496">numberOfSets: Int = 0,</text><ellipse cx="1060" cy="1779.6738" fill="none" rx="3" ry="3" style="stroke:#038048;stroke-width:1.0;"/><text fill="#000000" font-family="sans-serif" font-size="14" lengthAdjust="spacing" textLength="185" x="1069" y="1783.9707">numberOfRepetitions: Int = 0,</text><ellipse cx="1060" cy="1798.2949" fill="none" rx="3" ry="3" style="stroke:#038048;stroke-width:1.0;"/><text fill="#000000" font-family="sans-serif" font-size="14" lengthAdjust="spacing" textLength="158" x="1069" y="1802.5918">weightInKilos: Float = 0F,</text><ellipse cx="1060" cy="1816.916" fill="none" rx="3" ry="3" style="stroke:#038048;stroke-width:1.0;"/><text fill="#000000" font-family="sans-serif" font-size="14" lengthAdjust="spacing" textLength="113" x="1069" y="1821.2129">image: String = "",</text><ellipse cx="1060" cy="1835.5371" fill="none" rx="3" ry="3" style="stroke:#038048;stroke-width:1.0;"/><text fill="#000000" font-family="sans-serif" font-size="14" lengthAdjust="spacing" textLength="212" x="1069" y="1839.834">dropSetEnabled: Boolean = false,</text><ellipse cx="1060" cy="1854.1582" fill="none" rx="3" ry="3" style="stroke:#038048;stroke-width:1.0;"/><text fill="#000000" font-family="sans-serif" font-size="14" lengthAdjust="spacing" textLength="144" x="1069" y="1858.4551">firstWeight: Float = 0F,</text><ellipse cx="1060" cy="1872.7793" fill="none" rx="3" ry="3" style="stroke:#038048;stroke-width:1.0;"/><text fill="#000000" font-family="sans-serif" font-size="14" lengthAdjust="spacing" textLength="167" x="1069" y="1877.0762">secondWeight: Float = 0F,</text><ellipse cx="1060" cy="1891.4004" fill="none" rx="3" ry="3" style="stroke:#038048;stroke-width:1.0;"/><text fill="#000000" font-family="sans-serif" font-size="14" lengthAdjust="spacing" textLength="149" x="1069" y="1895.6973">thirdWeight: Float = 0F,</text><line style="stroke:#181818;stroke-width:1.0;" x1="1050" x2="1286" y1="1903.2109" y2="1903.2109"/></g><!--class DaysInWeek--><g id="elem_DaysInWeek"><rect codeLine="83" fill="#F1F1F1" height="196.9688" id="DaysInWeek" rx="2.5" ry="2.5" style="stroke:#181818;stroke-width:0.5;" width="111" x="902.5" y="1691.5"/><ellipse cx="917.5" cy="1707.5" fill="#EB937F" rx="11" ry="11" style="stroke:#181818;stroke-width:1.0;"/><path d="M916.3594,1708.2969 L916.3594,1710.7969 L920.6875,1710.7969 L920.6875,1709.875 Q920.6875,1709.2656 920.9219,1709 Q921.1719,1708.7344 921.5469,1708.7344 Q921.9219,1708.7344 922.1563,1709 Q922.3906,1709.2656 922.3906,1709.875 L922.3906,1712.5 L914.3906,1712.5 Q913.7656,1712.5 913.5,1712.2656 Q913.25,1712.0313 913.25,1711.6406 Q913.25,1711.2656 913.5156,1711.0313 Q913.7813,1710.7969 914.3906,1710.7969 L914.6563,1710.7969 L914.6563,1704.1406 L914.3906,1704.1406 Q913.7656,1704.1406 913.5,1703.9063 Q913.25,1703.6719 913.25,1703.2813 Q913.25,1702.9063 913.5,1702.6719 Q913.7656,1702.4375 914.3906,1702.4375 L922.0156,1702.4375 L922.0156,1705.0313 Q922.0156,1705.6406 921.7813,1705.9063 Q921.5625,1706.1563 921.1719,1706.1563 Q920.7969,1706.1563 920.5625,1705.9063 Q920.3281,1705.6406 920.3281,1705.0313 L920.3281,1704.1406 L916.3594,1704.1406 L916.3594,1706.5938 L917.8438,1706.5938 Q917.8438,1705.9375 917.9688,1705.75 Q918.2344,1705.3438 918.7031,1705.3438 Q919.0781,1705.3438 919.3125,1705.6094 Q919.5469,1705.8594 919.5469,1706.4688 L919.5469,1708.4375 Q919.5469,1708.9844 919.4219,1709.1719 Q919.1563,1709.5625 918.7031,1709.5625 Q918.2344,1709.5625 917.9688,1709.1563 Q917.8438,1708.9688 917.8438,1708.2969 L916.3594,1708.2969 Z " fill="#000000"/><text fill="#000000" font-family="sans-serif" font-size="14" lengthAdjust="spacing" textLength="79" x="931.5" y="1713.2969">DaysInWeek</text><line style="stroke:#181818;stroke-width:0.5;" x1="903.5" x2="1012.5" y1="1723.5" y2="1723.5"/><text fill="#000000" font-family="sans-serif" font-size="14" lengthAdjust="spacing" textLength="79" x="908.5" y="1742.6074">NotAssigned</text><text fill="#000000" font-family="sans-serif" font-size="14" lengthAdjust="spacing" textLength="50" x="908.5" y="1761.2285">Monday</text><text fill="#000000" font-family="sans-serif" font-size="14" lengthAdjust="spacing" textLength="55" x="908.5" y="1779.8496">Tuesday</text><text fill="#000000" font-family="sans-serif" font-size="14" lengthAdjust="spacing" textLength="75" x="908.5" y="1798.4707">Wednesday</text><text fill="#000000" font-family="sans-serif" font-size="14" lengthAdjust="spacing" textLength="60" x="908.5" y="1817.0918">Thursday</text><text fill="#000000" font-family="sans-serif" font-size="14" lengthAdjust="spacing" textLength="40" x="908.5" y="1835.7129">Friday</text><text fill="#000000" font-family="sans-serif" font-size="14" lengthAdjust="spacing" textLength="57" x="908.5" y="1854.334">Saturday</text><text fill="#000000" font-family="sans-serif" font-size="14" lengthAdjust="spacing" textLength="48" x="908.5" y="1872.9551">Sunday</text><line style="stroke:#181818;stroke-width:0.5;" x1="903.5" x2="1012.5" y1="1880.4688" y2="1880.4688"/></g><!--class Workout--><g id="elem_Workout"><rect codeLine="73" fill="#F1F1F1" height="149.1055" id="Workout" rx="2.5" ry="2.5" style="stroke:#181818;stroke-width:0.5;" width="405" x="902.5" y="1460"/><ellipse cx="1074.25" cy="1476" fill="#ADD1B2" rx="11" ry="11" style="stroke:#181818;stroke-width:1.0;"/><path d="M1077.0156,1471.875 Q1077.1719,1471.6563 1077.3594,1471.5469 Q1077.5469,1471.4375 1077.7656,1471.4375 Q1078.1406,1471.4375 1078.375,1471.7031 Q1078.6094,1471.9531 1078.6094,1472.5625 L1078.6094,1474.0156 Q1078.6094,1474.625 1078.375,1474.8906 Q1078.1406,1475.1563 1077.7656,1475.1563 Q1077.4219,1475.1563 1077.2188,1474.9531 Q1077.0156,1474.7656 1076.9063,1474.25 Q1076.8594,1473.8906 1076.6719,1473.7031 Q1076.3438,1473.3281 1075.7344,1473.1094 Q1075.125,1472.8906 1074.5,1472.8906 Q1073.7344,1472.8906 1073.0938,1473.2188 Q1072.4688,1473.5469 1071.9688,1474.2969 Q1071.4844,1475.0469 1071.4844,1476.0781 L1071.4844,1477.1719 Q1071.4844,1478.4063 1072.375,1479.2344 Q1073.2656,1480.0469 1074.8594,1480.0469 Q1075.7969,1480.0469 1076.4531,1479.7969 Q1076.8438,1479.6406 1077.2656,1479.2031 Q1077.5313,1478.9375 1077.6719,1478.8594 Q1077.8281,1478.7813 1078.0313,1478.7813 Q1078.3594,1478.7813 1078.6094,1479.0469 Q1078.875,1479.2969 1078.875,1479.6406 Q1078.875,1479.9844 1078.5313,1480.3906 Q1078.0313,1480.9688 1077.2344,1481.2969 Q1076.1563,1481.75 1074.8594,1481.75 Q1073.3438,1481.75 1072.1406,1481.125 Q1071.1563,1480.625 1070.4688,1479.5625 Q1069.7813,1478.4844 1069.7813,1477.2031 L1069.7813,1476.0469 Q1069.7813,1474.7188 1070.3906,1473.5781 Q1071.0156,1472.4219 1072.1094,1471.8125 Q1073.2031,1471.1875 1074.4375,1471.1875 Q1075.1719,1471.1875 1075.8125,1471.3594 Q1076.4688,1471.5156 1077.0156,1471.875 Z " fill="#000000"/><text fill="#000000" font-family="sans-serif" font-size="14" lengthAdjust="spacing" textLength="53" x="1094.75" y="1481.7969">Workout</text><line style="stroke:#181818;stroke-width:0.5;" x1="903.5" x2="1306.5" y1="1492" y2="1492"/><line style="stroke:#181818;stroke-width:1.0;" x1="903.5" x2="1306.5" y1="1500" y2="1500"/><ellipse cx="913.5" cy="1514.8105" fill="none" rx="3" ry="3" style="stroke:#038048;stroke-width:1.0;"/><text fill="#000000" font-family="sans-serif" font-size="14" lengthAdjust="spacing" textLength="62" x="922.5" y="1519.1074">id: Int = 0,</text><ellipse cx="913.5" cy="1533.4316" fill="none" rx="3" ry="3" style="stroke:#038048;stroke-width:1.0;"/><text fill="#000000" font-family="sans-serif" font-size="14" lengthAdjust="spacing" textLength="110" x="922.5" y="1537.7285">name: String = "",</text><ellipse cx="913.5" cy="1552.0527" fill="none" rx="3" ry="3" style="stroke:#038048;stroke-width:1.0;"/><text fill="#000000" font-family="sans-serif" font-size="14" lengthAdjust="spacing" textLength="163" x="922.5" y="1556.3496">durationInMinutes: Int = 0,</text><ellipse cx="913.5" cy="1570.6738" fill="#84BE84" rx="3" ry="3" style="stroke:#038048;stroke-width:1.0;"/><text fill="#000000" font-family="sans-serif" font-size="14" lengthAdjust="spacing" textLength="220" x="922.5" y="1574.9707">exercises: List&lt;Exercise&gt; = listOf(),</text><ellipse cx="913.5" cy="1589.2949" fill="none" rx="3" ry="3" style="stroke:#038048;stroke-width:1.0;"/><text fill="#000000" font-family="sans-serif" font-size="14" lengthAdjust="spacing" textLength="379" x="922.5" y="1593.5918">assignedToWeek: DaysInWeek = DaysInWeek.NotAssigned,</text><line style="stroke:#181818;stroke-width:1.0;" x1="903.5" x2="1306.5" y1="1601.1055" y2="1601.1055"/></g><!--class WorkoutViewModel--><g id="elem_WorkoutViewModel"><rect codeLine="99" fill="#F1F1F1" height="215.5898" id="WorkoutViewModel" rx="2.5" ry="2.5" style="stroke:#181818;stroke-width:0.5;" width="364" x="906" y="503"/><ellipse cx="1023.75" cy="519" fill="#ADD1B2" rx="11" ry="11" style="stroke:#181818;stroke-width:1.0;"/><path d="M1026.5156,514.875 Q1026.6719,514.6563 1026.8594,514.5469 Q1027.0469,514.4375 1027.2656,514.4375 Q1027.6406,514.4375 1027.875,514.7031 Q1028.1094,514.9531 1028.1094,515.5625 L1028.1094,517.0156 Q1028.1094,517.625 1027.875,517.8906 Q1027.6406,518.1563 1027.2656,518.1563 Q1026.9219,518.1563 1026.7188,517.9531 Q1026.5156,517.7656 1026.4063,517.25 Q1026.3594,516.8906 1026.1719,516.7031 Q1025.8438,516.3281 1025.2344,516.1094 Q1024.625,515.8906 1024,515.8906 Q1023.2344,515.8906 1022.5938,516.2188 Q1021.9688,516.5469 1021.4688,517.2969 Q1020.9844,518.0469 1020.9844,519.0781 L1020.9844,520.1719 Q1020.9844,521.4063 1021.875,522.2344 Q1022.7656,523.0469 1024.3594,523.0469 Q1025.2969,523.0469 1025.9531,522.7969 Q1026.3438,522.6406 1026.7656,522.2031 Q1027.0313,521.9375 1027.1719,521.8594 Q1027.3281,521.7813 1027.5313,521.7813 Q1027.8594,521.7813 1028.1094,522.0469 Q1028.375,522.2969 1028.375,522.6406 Q1028.375,522.9844 1028.0313,523.3906 Q1027.5313,523.9688 1026.7344,524.2969 Q1025.6563,524.75 1024.3594,524.75 Q1022.8438,524.75 1021.6406,524.125 Q1020.6563,523.625 1019.9688,522.5625 Q1019.2813,521.4844 1019.2813,520.2031 L1019.2813,519.0469 Q1019.2813,517.7188 1019.8906,516.5781 Q1020.5156,515.4219 1021.6094,514.8125 Q1022.7031,514.1875 1023.9375,514.1875 Q1024.6719,514.1875 1025.3125,514.3594 Q1025.9688,514.5156 1026.5156,514.875 Z " fill="#000000"/><text fill="#000000" font-family="sans-serif" font-size="14" lengthAdjust="spacing" textLength="120" x="1044.25" y="524.7969">WorkoutViewModel</text><line style="stroke:#181818;stroke-width:0.5;" x1="907" x2="1269" y1="535" y2="535"/><ellipse cx="917" cy="549.8105" fill="none" rx="3" ry="3" style="stroke:#038048;stroke-width:1.0;"/><text fill="#000000" font-family="sans-serif" font-size="14" lengthAdjust="spacing" textLength="211" x="926" y="554.1074">LiveData&lt;List&lt;Workout&gt;&gt; allData</text><rect fill="none" height="6" style="stroke:#C82930;stroke-width:1.0;" width="6" x="914" y="565.4316"/><text fill="#000000" font-family="sans-serif" font-size="14" lengthAdjust="spacing" textLength="188" x="926" y="572.7285">WorkoutRepository repository</text><line style="stroke:#181818;stroke-width:0.5;" x1="907" x2="1269" y1="580.2422" y2="580.2422"/><ellipse cx="917" cy="595.0527" fill="#84BE84" rx="3" ry="3" style="stroke:#038048;stroke-width:1.0;"/><text fill="#000000" font-family="sans-serif" font-size="14" lengthAdjust="spacing" textLength="227" x="926" y="599.3496">LiveData&lt;Workout&gt; getWorkout(Int)</text><ellipse cx="917" cy="613.6738" fill="#84BE84" rx="3" ry="3" style="stroke:#038048;stroke-width:1.0;"/><text fill="#000000" font-family="sans-serif" font-size="14" lengthAdjust="spacing" textLength="338" x="926" y="617.9707">LiveData&lt;Workout&gt; getWorkoutForDay(DaysInWeek)</text><ellipse cx="917" cy="632.2949" fill="#84BE84" rx="3" ry="3" style="stroke:#038048;stroke-width:1.0;"/><text fill="#000000" font-family="sans-serif" font-size="14" lengthAdjust="spacing" textLength="336" x="926" y="636.5918">LiveData&lt;List&lt;Workout&gt;&gt; getWorkoutsForEachDay()</text><ellipse cx="917" cy="650.916" fill="#84BE84" rx="3" ry="3" style="stroke:#038048;stroke-width:1.0;"/><text fill="#000000" font-family="sans-serif" font-size="14" lengthAdjust="spacing" textLength="170" x="926" y="655.2129">void addWorkout(Workout)</text><ellipse cx="917" cy="669.5371" fill="#84BE84" rx="3" ry="3" style="stroke:#038048;stroke-width:1.0;"/><text fill="#000000" font-family="sans-serif" font-size="14" lengthAdjust="spacing" textLength="185" x="926" y="673.834">void deleteWorkout(Workout)</text><ellipse cx="917" cy="688.1582" fill="#84BE84" rx="3" ry="3" style="stroke:#038048;stroke-width:1.0;"/><text fill="#000000" font-family="sans-serif" font-size="14" lengthAdjust="spacing" textLength="190" x="926" y="692.4551">void updateWorkout(Workout)</text><ellipse cx="917" cy="706.7793" fill="#84BE84" rx="3" ry="3" style="stroke:#038048;stroke-width:1.0;"/><text fill="#000000" font-family="sans-serif" font-size="14" lengthAdjust="spacing" textLength="107" x="926" y="711.0762">void clearTable()</text></g><!--class WorkoutViewModelFactory--><g id="elem_WorkoutViewModelFactory"><rect codeLine="111" fill="#F1F1F1" height="66.6211" id="WorkoutViewModelFactory" rx="2.5" ry="2.5" style="stroke:#181818;stroke-width:0.5;" width="260" x="963" y="376"/><ellipse cx="1005" cy="392" fill="#ADD1B2" rx="11" ry="11" style="stroke:#181818;stroke-width:1.0;"/><path d="M1007.7656,387.875 Q1007.9219,387.6563 1008.1094,387.5469 Q1008.2969,387.4375 1008.5156,387.4375 Q1008.8906,387.4375 1009.125,387.7031 Q1009.3594,387.9531 1009.3594,388.5625 L1009.3594,390.0156 Q1009.3594,390.625 1009.125,390.8906 Q1008.8906,391.1563 1008.5156,391.1563 Q1008.1719,391.1563 1007.9688,390.9531 Q1007.7656,390.7656 1007.6563,390.25 Q1007.6094,389.8906 1007.4219,389.7031 Q1007.0938,389.3281 1006.4844,389.1094 Q1005.875,388.8906 1005.25,388.8906 Q1004.4844,388.8906 1003.8438,389.2188 Q1003.2188,389.5469 1002.7188,390.2969 Q1002.2344,391.0469 1002.2344,392.0781 L1002.2344,393.1719 Q1002.2344,394.4063 1003.125,395.2344 Q1004.0156,396.0469 1005.6094,396.0469 Q1006.5469,396.0469 1007.2031,395.7969 Q1007.5938,395.6406 1008.0156,395.2031 Q1008.2813,394.9375 1008.4219,394.8594 Q1008.5781,394.7813 1008.7813,394.7813 Q1009.1094,394.7813 1009.3594,395.0469 Q1009.625,395.2969 1009.625,395.6406 Q1009.625,395.9844 1009.2813,396.3906 Q1008.7813,396.9688 1007.9844,397.2969 Q1006.9063,397.75 1005.6094,397.75 Q1004.0938,397.75 1002.8906,397.125 Q1001.9063,396.625 1001.2188,395.5625 Q1000.5313,394.4844 1000.5313,393.2031 L1000.5313,392.0469 Q1000.5313,390.7188 1001.1406,389.5781 Q1001.7656,388.4219 1002.8594,387.8125 Q1003.9531,387.1875 1005.1875,387.1875 Q1005.9219,387.1875 1006.5625,387.3594 Q1007.2188,387.5156 1007.7656,387.875 Z " fill="#000000"/><text fill="#000000" font-family="sans-serif" font-size="14" lengthAdjust="spacing" textLength="168" x="1025" y="397.7969">WorkoutViewModelFactory</text><line style="stroke:#181818;stroke-width:0.5;" x1="964" x2="1222" y1="408" y2="408"/><line style="stroke:#181818;stroke-width:0.5;" x1="964" x2="1222" y1="416" y2="416"/><ellipse cx="974" cy="430.8105" fill="#84BE84" rx="3" ry="3" style="stroke:#038048;stroke-width:1.0;"/><text fill="#000000" font-family="sans-serif" font-size="14" lengthAdjust="spacing" textLength="234" x="983" y="435.1074">void T create(modelClass: Class&lt;T&gt;)</text></g><!--class WorkoutsScreens--><g id="elem_WorkoutsScreens"><rect fill="#F1F1F1" height="48" id="WorkoutsScreens" rx="2.5" ry="2.5" style="stroke:#181818;stroke-width:0.5;" width="144" x="1258" y="385.5"/><ellipse cx="1273" cy="401.5" fill="#ADD1B2" rx="11" ry="11" style="stroke:#181818;stroke-width:1.0;"/><path d="M1275.7656,397.375 Q1275.9219,397.1563 1276.1094,397.0469 Q1276.2969,396.9375 1276.5156,396.9375 Q1276.8906,396.9375 1277.125,397.2031 Q1277.3594,397.4531 1277.3594,398.0625 L1277.3594,399.5156 Q1277.3594,400.125 1277.125,400.3906 Q1276.8906,400.6563 1276.5156,400.6563 Q1276.1719,400.6563 1275.9688,400.4531 Q1275.7656,400.2656 1275.6563,399.75 Q1275.6094,399.3906 1275.4219,399.2031 Q1275.0938,398.8281 1274.4844,398.6094 Q1273.875,398.3906 1273.25,398.3906 Q1272.4844,398.3906 1271.8438,398.7188 Q1271.2188,399.0469 1270.7188,399.7969 Q1270.2344,400.5469 1270.2344,401.5781 L1270.2344,402.6719 Q1270.2344,403.9063 1271.125,404.7344 Q1272.0156,405.5469 1273.6094,405.5469 Q1274.5469,405.5469 1275.2031,405.2969 Q1275.5938,405.1406 1276.0156,404.7031 Q1276.2813,404.4375 1276.4219,404.3594 Q1276.5781,404.2813 1276.7813,404.2813 Q1277.1094,404.2813 1277.3594,404.5469 Q1277.625,404.7969 1277.625,405.1406 Q1277.625,405.4844 1277.2813,405.8906 Q1276.7813,406.4688 1275.9844,406.7969 Q1274.9063,407.25 1273.6094,407.25 Q1272.0938,407.25 1270.8906,406.625 Q1269.9063,406.125 1269.2188,405.0625 Q1268.5313,403.9844 1268.5313,402.7031 L1268.5313,401.5469 Q1268.5313,400.2188 1269.1406,399.0781 Q1269.7656,397.9219 1270.8594,397.3125 Q1271.9531,396.6875 1273.1875,396.6875 Q1273.9219,396.6875 1274.5625,396.8594 Q1275.2188,397.0156 1275.7656,397.375 Z " fill="#000000"/><text fill="#000000" font-family="sans-serif" font-size="14" lengthAdjust="spacing" textLength="112" x="1287" y="407.2969">WorkoutsScreens</text><line style="stroke:#181818;stroke-width:0.5;" x1="1259" x2="1401" y1="417.5" y2="417.5"/><line style="stroke:#181818;stroke-width:0.5;" x1="1259" x2="1401" y1="425.5" y2="425.5"/></g><path d="M1308,582.5 L1396,582.5 A3.75,3.75 0 0 1 1398.5,585 L1405.5,607.1211 L1410,607.1211 A2.5,2.5 0 0 1 1412.5,609.6211 L1412.5,637.2422 A2.5,2.5 0 0 1 1410,639.7422 L1308,639.7422 A2.5,2.5 0 0 1 1305.5,637.2422 L1305.5,585 A2.5,2.5 0 0 1 1308,582.5 " fill="#F1F1F1" style="stroke:#181818;stroke-width:0.5;"/><line style="stroke:#181818;stroke-width:0.5;" x1="1305.5" x2="1405.5" y1="607.1211" y2="607.1211"/><text fill="#000000" font-family="sans-serif" font-size="14" font-weight="bold" lengthAdjust="spacing" textLength="87" x="1309.5" y="599.6074">components</text><!--class NavigationGraph--><g id="elem_NavigationGraph"><rect codeLine="134" fill="#F1F1F1" height="48" id="NavigationGraph" rx="2.5" ry="2.5" style="stroke:#181818;stroke-width:0.5;" width="138" x="1024" y="190"/><ellipse cx="1039" cy="206" fill="#ADD1B2" rx="11" ry="11" style="stroke:#181818;stroke-width:1.0;"/><path d="M1041.7656,201.875 Q1041.9219,201.6563 1042.1094,201.5469 Q1042.2969,201.4375 1042.5156,201.4375 Q1042.8906,201.4375 1043.125,201.7031 Q1043.3594,201.9531 1043.3594,202.5625 L1043.3594,204.0156 Q1043.3594,204.625 1043.125,204.8906 Q1042.8906,205.1563 1042.5156,205.1563 Q1042.1719,205.1563 1041.9688,204.9531 Q1041.7656,204.7656 1041.6563,204.25 Q1041.6094,203.8906 1041.4219,203.7031 Q1041.0938,203.3281 1040.4844,203.1094 Q1039.875,202.8906 1039.25,202.8906 Q1038.4844,202.8906 1037.8438,203.2188 Q1037.2188,203.5469 1036.7188,204.2969 Q1036.2344,205.0469 1036.2344,206.0781 L1036.2344,207.1719 Q1036.2344,208.4063 1037.125,209.2344 Q1038.0156,210.0469 1039.6094,210.0469 Q1040.5469,210.0469 1041.2031,209.7969 Q1041.5938,209.6406 1042.0156,209.2031 Q1042.2813,208.9375 1042.4219,208.8594 Q1042.5781,208.7813 1042.7813,208.7813 Q1043.1094,208.7813 1043.3594,209.0469 Q1043.625,209.2969 1043.625,209.6406 Q1043.625,209.9844 1043.2813,210.3906 Q1042.7813,210.9688 1041.9844,211.2969 Q1040.9063,211.75 1039.6094,211.75 Q1038.0938,211.75 1036.8906,211.125 Q1035.9063,210.625 1035.2188,209.5625 Q1034.5313,208.4844 1034.5313,207.2031 L1034.5313,206.0469 Q1034.5313,204.7188 1035.1406,203.5781 Q1035.7656,202.4219 1036.8594,201.8125 Q1037.9531,201.1875 1039.1875,201.1875 Q1039.9219,201.1875 1040.5625,201.3594 Q1041.2188,201.5156 1041.7656,201.875 Z " fill="#000000"/><text fill="#000000" font-family="sans-serif" font-size="14" lengthAdjust="spacing" textLength="106" x="1053" y="211.7969">NavigationGraph</text><line style="stroke:#181818;stroke-width:0.5;" x1="1025" x2="1161" y1="222" y2="222"/><line style="stroke:#181818;stroke-width:0.5;" x1="1025" x2="1161" y1="230" y2="230"/></g><!--class MainActivity--><g id="elem_MainActivity"><rect codeLine="138" fill="#F1F1F1" height="85.2422" id="MainActivity" rx="2.5" ry="2.5" style="stroke:#181818;stroke-width:0.5;" width="309" x="938.5" y="7"/><ellipse cx="1051.75" cy="23" fill="#ADD1B2" rx="11" ry="11" style="stroke:#181818;stroke-width:1.0;"/><path d="M1054.5156,18.875 Q1054.6719,18.6563 1054.8594,18.5469 Q1055.0469,18.4375 1055.2656,18.4375 Q1055.6406,18.4375 1055.875,18.7031 Q1056.1094,18.9531 1056.1094,19.5625 L1056.1094,21.0156 Q1056.1094,21.625 1055.875,21.8906 Q1055.6406,22.1563 1055.2656,22.1563 Q1054.9219,22.1563 1054.7188,21.9531 Q1054.5156,21.7656 1054.4063,21.25 Q1054.3594,20.8906 1054.1719,20.7031 Q1053.8438,20.3281 1053.2344,20.1094 Q1052.625,19.8906 1052,19.8906 Q1051.2344,19.8906 1050.5938,20.2188 Q1049.9688,20.5469 1049.4688,21.2969 Q1048.9844,22.0469 1048.9844,23.0781 L1048.9844,24.1719 Q1048.9844,25.4063 1049.875,26.2344 Q1050.7656,27.0469 1052.3594,27.0469 Q1053.2969,27.0469 1053.9531,26.7969 Q1054.3438,26.6406 1054.7656,26.2031 Q1055.0313,25.9375 1055.1719,25.8594 Q1055.3281,25.7813 1055.5313,25.7813 Q1055.8594,25.7813 1056.1094,26.0469 Q1056.375,26.2969 1056.375,26.6406 Q1056.375,26.9844 1056.0313,27.3906 Q1055.5313,27.9688 1054.7344,28.2969 Q1053.6563,28.75 1052.3594,28.75 Q1050.8438,28.75 1049.6406,28.125 Q1048.6563,27.625 1047.9688,26.5625 Q1047.2813,25.4844 1047.2813,24.2031 L1047.2813,23.0469 Q1047.2813,21.7188 1047.8906,20.5781 Q1048.5156,19.4219 1049.6094,18.8125 Q1050.7031,18.1875 1051.9375,18.1875 Q1052.6719,18.1875 1053.3125,18.3594 Q1053.9688,18.5156 1054.5156,18.875 Z " fill="#000000"/><text fill="#000000" font-family="sans-serif" font-size="14" lengthAdjust="spacing" textLength="74" x="1072.25" y="28.7969">MainActivity</text><line style="stroke:#181818;stroke-width:0.5;" x1="939.5" x2="1246.5" y1="39" y2="39"/><line style="stroke:#181818;stroke-width:0.5;" x1="939.5" x2="1246.5" y1="47" y2="47"/><ellipse cx="949.5" cy="61.8105" fill="#84BE84" rx="3" ry="3" style="stroke:#038048;stroke-width:1.0;"/><text fill="#000000" font-family="sans-serif" font-size="14" lengthAdjust="spacing" textLength="283" x="958.5" y="66.1074">void onCreate(savedInstanceState: Bundle?)</text><ellipse cx="949.5" cy="80.4316" fill="#84BE84" rx="3" ry="3" style="stroke:#038048;stroke-width:1.0;"/><text fill="#000000" font-family="sans-serif" font-size="14" lengthAdjust="spacing" textLength="163" x="958.5" y="84.7285">void MainActivityPreview()</text></g><g id="elem_GMN38"><path d="M1517,200.5 L1517,227.791 L1577,227.791 L1577,210.5 L1567,200.5 L1517,200.5 " fill="#FEFFDD" style="stroke:#181818;stroke-width:0.5;"/><path d="M1567,200.5 L1567,210.5 L1577,210.5 L1567,200.5 " fill="#FEFFDD" style="stroke:#181818;stroke-width:1.0;"/><text fill="#000000" font-family="sans-serif" font-size="13" lengthAdjust="spacing" textLength="39" x="1523" y="219.5283">Brevity</text></g><!--link ExerciseListConverter to Exercise--><g id="link_ExerciseListConverter_Exercise"><path codeLine="50" d="M669.94,1303.17 C702.76,1374.91 778.97,1522.37 885,1609 C939.33,1653.39 971.36,1632.05 1031,1669 C1036.91,1672.66 1037.9078,1673.1347 1043.7678,1677.2447 " fill="none" id="ExerciseListConverter-to-Exercise" style="stroke:#181818;stroke-width:1.0;stroke-dasharray:7.0,7.0;"/><polygon fill="#181818" points="1048.68,1680.69,1043.6085,1672.2473,1044.5865,1677.8189,1039.0148,1678.7969,1048.68,1680.69" style="stroke:#181818;stroke-width:1.0;"/></g><!--link DaysInWeekConverter to DaysInWeek--><g id="link_DaysInWeekConverter_DaysInWeek"><path codeLine="51" d="M299.77,1303.07 C338.33,1332.27 391.21,1372.18 438,1407 C606.5,1532.4 802.272,1675.495 897.572,1744.985 " fill="none" id="DaysInWeekConverter-to-DaysInWeek" style="stroke:#181818;stroke-width:1.0;stroke-dasharray:7.0,7.0;"/><polygon fill="#181818" points="902.42,1748.52,897.5046,1739.9854,898.38,1745.5741,892.7912,1746.4495,902.42,1748.52" style="stroke:#181818;stroke-width:1.0;"/></g><!--link WorkoutsDatabase to ExerciseListConverter--><g id="link_WorkoutsDatabase_ExerciseListConverter"><path codeLine="53" d="M652,1055.8 C652,1103.5 652,1167.68 652,1211.97 " fill="none" id="WorkoutsDatabase-to-ExerciseListConverter" style="stroke:#181818;stroke-width:1.0;stroke-dasharray:7.0,7.0;"/><polygon fill="#181818" points="652,1217.97,656,1208.97,652,1212.97,648,1208.97,652,1217.97" style="stroke:#181818;stroke-width:1.0;"/></g><!--link WorkoutsDatabase to DaysInWeekConverter--><g id="link_WorkoutsDatabase_DaysInWeekConverter"><path codeLine="54" d="M570.13,1055.8 C493.99,1103.5 387.0543,1170.4941 316.3743,1214.7841 " fill="none" id="WorkoutsDatabase-to-DaysInWeekConverter" style="stroke:#181818;stroke-width:1.0;stroke-dasharray:7.0,7.0;"/><polygon fill="#181818" points="311.29,1217.97,321.0404,1216.5806,315.5269,1215.315,316.7924,1209.8016,311.29,1217.97" style="stroke:#181818;stroke-width:1.0;"/></g><!--link Workout to Exercise--><g id="link_Workout_Exercise"><path codeLine="95" d="M1123.31,1609.16 C1127.96,1627.87 1131.6335,1642.647 1136.6935,1663.017 " fill="none" id="Workout-to-Exercise" style="stroke:#181818;stroke-width:1.0;stroke-dasharray:7.0,7.0;"/><polygon fill="#181818" points="1138.14,1668.84,1139.8523,1659.1411,1136.9346,1663.9875,1132.0883,1661.0698,1138.14,1668.84" style="stroke:#181818;stroke-width:1.0;"/></g><!--link Workout to DaysInWeek--><g id="link_Workout_DaysInWeek"><path codeLine="96" d="M1062.28,1609.16 C1047.11,1635.33 1032.8102,1659.9897 1016.7102,1687.7497 " fill="none" id="Workout-to-DaysInWeek" style="stroke:#181818;stroke-width:1.0;stroke-dasharray:7.0,7.0;"/><polygon fill="#181818" points="1013.7,1692.94,1021.6755,1687.1614,1016.2085,1688.6148,1014.7551,1683.1478,1013.7,1692.94" style="stroke:#181818;stroke-width:1.0;"/></g><!--link WorkoutsRepository to Workout--><g id="link_WorkoutsRepository_Workout"><path codeLine="120" d="M1287.19,1095.74 C1309.57,1114.57 1329.34,1136.58 1343,1162 C1394.54,1257.92 1399.09,1313.67 1343,1407 C1330.59,1427.66 1318.3126,1441.4837 1298.9926,1456.2037 " fill="none" id="WorkoutsRepository-to-Workout" style="stroke:#181818;stroke-width:1.0;stroke-dasharray:7.0,7.0;"/><polygon fill="#181818" points="1294.22,1459.84,1303.8031,1457.5673,1298.1972,1456.8098,1298.9547,1451.2039,1294.22,1459.84" style="stroke:#181818;stroke-width:1.0;"/></g><!--link WorkoutsRepository to WorkoutDao--><g id="link_WorkoutsRepository_WorkoutDao"><path codeLine="121" d="M1105,1102.36 C1105,1121.88 1105,1136.39 1105,1155.9 " fill="none" id="WorkoutsRepository-to-WorkoutDao" style="stroke:#181818;stroke-width:1.0;stroke-dasharray:7.0,7.0;"/><polygon fill="#181818" points="1105,1161.9,1109,1152.9,1105,1156.9,1101,1152.9,1105,1161.9" style="stroke:#181818;stroke-width:1.0;"/></g><!--link WorkoutsDatabase to WorkoutDao--><g id="link_WorkoutsDatabase_WorkoutDao"><path codeLine="122" d="M742.85,1055.64 C796.84,1086.03 861.8612,1122.6372 926.1112,1158.7972 " fill="none" id="WorkoutsDatabase-to-WorkoutDao" style="stroke:#181818;stroke-width:1.0;stroke-dasharray:7.0,7.0;"/><polygon fill="#181818" points="931.34,1161.74,925.4587,1153.84,926.9827,1159.2877,921.535,1160.8117,931.34,1161.74" style="stroke:#181818;stroke-width:1.0;"/></g><!--link WorkoutDao to Workout--><g id="link_WorkoutDao_Workout"><path codeLine="123" d="M1105,1359.31 C1105,1392.36 1105,1422.69 1105,1453.57 " fill="none" id="WorkoutDao-to-Workout" style="stroke:#181818;stroke-width:1.0;stroke-dasharray:7.0,7.0;"/><polygon fill="#181818" points="1105,1459.57,1109,1450.57,1105,1454.57,1101,1450.57,1105,1459.57" style="stroke:#181818;stroke-width:1.0;"/></g><!--link workouts to Workout--><g id="link_workouts_Workout"><path codeLine="126" d="M1445.2338,438.0111 C1445.5501,439.1208 1445.8738,440.2618 1446.2046,441.4337 C1451.4977,460.1837 1458.606,486.8391 1466.2608,519.6787 C1481.5703,585.3581 1499.0656,675.775 1508.5963,777.1625 C1527.6575,979.9375 1514.86,1226.595 1389,1407 C1368.46,1436.44 1344.6881,1456.23 1312.9581,1473.67 " fill="none" id="workouts-to-Workout" style="stroke:#181818;stroke-width:1.0;stroke-dasharray:7.0,7.0;"/><polygon fill="#181818" points="1307.7,1476.56,1317.5138,1475.7303,1312.0817,1474.1516,1313.6605,1468.7195,1307.7,1476.56" style="stroke:#181818;stroke-width:1.0;"/></g><!--link WorkoutsScreens to WorkoutViewModel--><g id="link_WorkoutsScreens_WorkoutViewModel"><path codeLine="129" d="M1301.77,433.78 C1280.51,451.3 1254.3293,472.883 1222.6993,498.963 " fill="none" id="WorkoutsScreens-to-WorkoutViewModel" style="stroke:#181818;stroke-width:1.0;stroke-dasharray:7.0,7.0;"/><polygon fill="#181818" points="1218.07,502.78,1227.5586,500.1407,1221.9277,499.5992,1222.4693,493.9683,1218.07,502.78" style="stroke:#181818;stroke-width:1.0;"/></g><!--link NavigationGraph to WorkoutsScreens--><g id="link_NavigationGraph_WorkoutsScreens"><path codeLine="144" d="M1162.2,230.64 C1188.82,239.1 1218.26,251.7 1241,270 C1280.08,301.45 1304.998,349.3718 1318.318,379.8618 " fill="none" id="NavigationGraph-to-WorkoutsScreens" style="stroke:#0000FF;stroke-width:1.0;stroke-dasharray:7.0,7.0;"/><polygon fill="#0000FF" points="1320.72,385.36,1320.7825,375.5113,1318.7183,380.7781,1313.4515,378.714,1320.72,385.36" style="stroke:#0000FF;stroke-width:1.0;"/></g><!--link WorkoutsScreens to components--><g id="link_WorkoutsScreens_components"><path codeLine="145" d="M1333.38,433.78 C1338.76,470.78 1348.3765,536.9325 1354.1265,576.4725 " fill="none" id="WorkoutsScreens-to-components" style="stroke:#181818;stroke-width:1.0;stroke-dasharray:7.0,7.0;"/><polygon fill="#181818" points="1354.99,582.41,1357.6532,572.928,1354.2705,577.462,1349.7365,574.0793,1354.99,582.41" style="stroke:#181818;stroke-width:1.0;"/></g><!--link GMN38 to WorkoutsScreens--><g id="link_GMN38_WorkoutsScreens"><path d="M1516.87,220.44 C1485.96,227.35 1437.99,241.92 1406,270 C1369.83,301.75 1347.53,355.06 1337.09,385.45 " fill="none" id="GMN38-WorkoutsScreens" style="stroke:#181818;stroke-width:1.0;stroke-dasharray:7.0,7.0;"/></g><!--link NavigationGraph to WorkoutViewModel--><g id="link_NavigationGraph_WorkoutViewModel"><path codeLine="148" d="M1023.83,223.43 C994.79,230.78 963.7,244.47 946,270 C902.18,333.18 919.47,370.83 946,443 C953.75,464.07 961.9604,479.4435 975.4104,498.0935 " fill="none" id="NavigationGraph-to-WorkoutViewModel" style="stroke:#0000FF;stroke-width:1.0;stroke-dasharray:7.0,7.0;"/><polygon fill="#0000FF" points="978.92,502.96,976.8999,493.3205,975.9953,498.9046,970.4113,498,978.92,502.96" style="stroke:#0000FF;stroke-width:1.0;"/></g><!--link NavigationGraph to WorkoutViewModelFactory--><g id="link_NavigationGraph_WorkoutViewModelFactory"><path codeLine="149" d="M1093,238.34 C1093,272.62 1093,330.72 1093,369.71 " fill="none" id="NavigationGraph-to-WorkoutViewModelFactory" style="stroke:#0000FF;stroke-width:1.0;stroke-dasharray:7.0,7.0;"/><polygon fill="#0000FF" points="1093,375.71,1097,366.71,1093,370.71,1089,366.71,1093,375.71" style="stroke:#0000FF;stroke-width:1.0;"/></g><!--link MainActivity to NavigationGraph--><g id="link_MainActivity_NavigationGraph"><path codeLine="151" d="M1093,92.35 C1093,123.38 1093,158.53 1093,183.87 " fill="none" id="MainActivity-to-NavigationGraph" style="stroke:#181818;stroke-width:1.0;"/><polygon fill="#181818" points="1093,189.87,1097,180.87,1093,184.87,1089,180.87,1093,189.87" style="stroke:#181818;stroke-width:1.0;"/></g><!--link WorkoutViewModel to WorkoutsRepository--><g id="link_WorkoutViewModel_WorkoutsRepository"><path codeLine="153" d="M1092.67,719.22 C1095.19,777.25 1098.0289,842.4057 1100.4889,898.8757 " fill="none" id="WorkoutViewModel-to-WorkoutsRepository" style="stroke:#181818;stroke-width:1.0;stroke-dasharray:7.0,7.0;"/><polygon fill="#181818" points="1100.75,904.87,1104.3545,895.7044,1100.5324,899.8747,1096.3621,896.0526,1100.75,904.87" style="stroke:#181818;stroke-width:1.0;"/></g><!--SRC=[nLTHR-8u47xthx3s7Wgw9TszHzHIiHJkq2xjgN37m-aUJ3A0rSIER8SMhUw_toHn4WT2O7kL3gc5UBuPptpZyKnYjW7w-VKNef-vY9bY4OrnQSRKXWlw-TF1-lZLW18i7CbGAhfHR7y0-29L02eNhqBcFvEhhJ6nxbzVno4J9eb2pvVHjHyohNi1PsWZ8kJgzkI7BX-VlZx-iPZJszOF4Im27JCVQC0Cqp9HFdWlKZtBn6ZwdL3yPDlIfLsyHzoAQR32dml1FPFqfSJ8JZSJzuxqxkZqORuOFep6TVtAy0RCL6Z3X0-TaHG6Narkx1_IuCyJn59p8zNUUfHR_SPta5gy-SQrkR7WmO0gOC4m35EHWzv97b0M11RNiT_TGqW08HWuXqfY9BCDLJfN-9N6NE2ducBiHAfxjk_WdvwA9S1pzm86AdMD-cFcRrCRHq7u8J2rOAiGEgVPJvF-_L2J2mtg73jdA7utrew3n-nt_WU2NHjdAAwAqfTYXro2qWxDUGOgUwC2v61o3zTAHXMk4x1z_gllQ7TfdywDuc9pe6pa-1MKppMayQNA1R3hwfTQrldAGrUznST4P7xMDWFxeFiq8xSG3kwwxLw2yv0xMpXzrpsovRYU_ySG6gv1hyg2rnoJvmre9F7aLe1pXfhIvvXn-6sqT7HffhhqBSw_d_c6a0XnEamUMgsf51xPnLxFzWGUz2bMDBsbdpxQfTHEaKjS__2X52JH2jJZUWv67sjP8NO9CDnmAOunBy0tMsmvNtaeKJe99SlaamB08spIZNi7IiQuxrYaHOm-Vv4IQreWPir23GLipPKsosoR9liQaCNWjDnikJefjfmrtSx8AaeFs6na4YD954lfcOeP5ua1NLCvMOy8277XSTtffZZSd6y410jvUCqWi7hm7gGPMkX7Key0C6MkNdLVE4hbsWo9mtcgU5maeDtd9GIYlhBO9ggsC57SVPmpawZQGbBka5qGja0BYfjA_pJ4BUkgC1BkQLy127qmUjMo-IU7brbgffoyJZKWvimtvG3cp4cg_4b-fBE-gLM-RGuvCv6TdyREJs8dUd1-2fk9dp2_cZEj_e9Yvj9v9ilmADNhq-phPZ5mBBezFOgb054aEJjLLzNTYYtD7fVMgzd9ftF0hFH7D5kWEDvTtXxURYUT8XjY85TvLPI4aAP2QLIiivdm9iqoYdako2oruCfZGDfVlUQ_3P_6zvU_UE6MWktu9hj-Qzsn9l4Uof-_AXPlBJ8xFJbynhWO-eRlk4dFg3sWKepo0whP3eBYnMfkS0dx5Lvk8ToL4wbhudS5EmmPom9t8Es-U7_zj0eJ-BkTmOBf_vIDgdo8a2RDRqpb-f9jCTmq9BD_dsYgy_2krkmbGqWjdRtUeFqu47A9yNE5wjmDv5y0]--></g></svg>