<?xml version="1.0" encoding="us-ascii" standalone="no"?><svg xmlns="http://www.w3.org/2000/svg" xmlns:xlink="http://www.w3.org/1999/xlink" contentStyleType="text/css" height="403.9px" preserveAspectRatio="none" style="width:956px;height:403px;background:#FFFFFF;" version="1.1" viewBox="0 0 956 403" width="956.9px" zoomAndPan="magnify"><defs/><g><!--cluster home--><g id="cluster_home"><path d="M5.95,4.2096 L33.95,4.2096 A2.625,2.625 0 0 1 35.7,5.9596 L40.6,21.4443 L528.15,21.4443 A1.75,1.75 0 0 1 529.9,23.1943 L529.9,397.2596 A1.75,1.75 0 0 1 528.15,399.0096 L5.95,399.0096 A1.75,1.75 0 0 1 4.2,397.2596 L4.2,5.9596 A1.75,1.75 0 0 1 5.95,4.2096 " fill="none" style="stroke:#000000;stroke-width:1.0499999999999998;"/><line style="stroke:#000000;stroke-width:1.0499999999999998;" x1="4.2" x2="40.6" y1="21.4443" y2="21.4443"/><text fill="#000000" font-family="sans-serif" font-size="9.8" font-weight="bold" lengthAdjust="spacing" textLength="27.3" x="7" y="16.1848">home</text></g><!--cluster components--><g id="cluster_components"><path d="M22.75,259.7096 L84.35,259.7096 A2.625,2.625 0 0 1 86.1,261.4596 L91,276.9443 L511.35,276.9443 A1.75,1.75 0 0 1 513.1,278.6943 L513.1,380.4596 A1.75,1.75 0 0 1 511.35,382.2096 L22.75,382.2096 A1.75,1.75 0 0 1 21,380.4596 L21,261.4596 A1.75,1.75 0 0 1 22.75,259.7096 " fill="none" style="stroke:#000000;stroke-width:1.0499999999999998;"/><line style="stroke:#000000;stroke-width:1.0499999999999998;" x1="21" x2="91" y1="276.9443" y2="276.9443"/><text fill="#000000" font-family="sans-serif" font-size="9.8" font-weight="bold" lengthAdjust="spacing" textLength="60.9" x="23.8" y="271.6848">components</text></g><!--cluster ui--><g id="cluster_ui"><path d="M628.25,120.0596 L638.05,120.0596 A2.625,2.625 0 0 1 639.8,121.8096 L644.7,137.2943 L850.85,137.2943 A1.75,1.75 0 0 1 852.6,139.0443 L852.6,237.3096 A1.75,1.75 0 0 1 850.85,239.0596 L628.25,239.0596 A1.75,1.75 0 0 1 626.5,237.3096 L626.5,121.8096 A1.75,1.75 0 0 1 628.25,120.0596 " fill="none" style="stroke:#000000;stroke-width:1.0499999999999998;"/><line style="stroke:#000000;stroke-width:1.0499999999999998;" x1="626.5" x2="644.7" y1="137.2943" y2="137.2943"/><text fill="#000000" font-family="sans-serif" font-size="9.8" font-weight="bold" lengthAdjust="spacing" textLength="9.1" x="629.3" y="132.0348">ui</text></g><!--cluster navigation--><g id="cluster_navigation"><path d="M729.75,151.5596 L782.25,151.5596 A2.625,2.625 0 0 1 784,153.3096 L788.9,168.7943 L834.05,168.7943 A1.75,1.75 0 0 1 835.8,170.5443 L835.8,220.5096 A1.75,1.75 0 0 1 834.05,222.2596 L729.75,222.2596 A1.75,1.75 0 0 1 728,220.5096 L728,153.3096 A1.75,1.75 0 0 1 729.75,151.5596 " fill="none" style="stroke:#000000;stroke-width:1.0499999999999998;"/><line style="stroke:#000000;stroke-width:1.0499999999999998;" x1="728" x2="788.9" y1="168.7943" y2="168.7943"/><text fill="#000000" font-family="sans-serif" font-size="9.8" font-weight="bold" lengthAdjust="spacing" textLength="51.8" x="730.8" y="163.5348">navigation</text></g><!--cluster models--><g id="cluster_models"><path d="M871.15,151.5596 L907.55,151.5596 A2.625,2.625 0 0 1 909.3,153.3096 L914.2,168.7943 L950.25,168.7943 A1.75,1.75 0 0 1 952,170.5443 L952,220.5096 A1.75,1.75 0 0 1 950.25,222.2596 L871.15,222.2596 A1.75,1.75 0 0 1 869.4,220.5096 L869.4,153.3096 A1.75,1.75 0 0 1 871.15,151.5596 " fill="none" style="stroke:#000000;stroke-width:1.0499999999999998;"/><line style="stroke:#000000;stroke-width:1.0499999999999998;" x1="869.4" x2="914.2" y1="168.7943" y2="168.7943"/><text fill="#000000" font-family="sans-serif" font-size="9.8" font-weight="bold" lengthAdjust="spacing" textLength="35.7" x="872.2" y="163.5348">models</text></g><!--class HomeScreen--><g id="elem_HomeScreen"><rect codeLine="2" fill="#F1F1F1" height="72.7043" id="HomeScreen" rx="1.75" ry="1.75" style="stroke:#181818;stroke-width:0.3499999999999999;" width="257.6" x="261.1" y="30.1096"/><ellipse cx="358.575" cy="41.3096" fill="#ADD1B2" rx="7.7" ry="7.7" style="stroke:#181818;stroke-width:0.6999999999999998;"/><path d="M360.5109,38.4221 Q360.6203,38.2689 360.7516,38.1924 Q360.8828,38.1158 361.0359,38.1158 Q361.2984,38.1158 361.4625,38.3018 Q361.6266,38.4768 361.6266,38.9033 L361.6266,39.9205 Q361.6266,40.3471 361.4625,40.533 Q361.2984,40.7189 361.0359,40.7189 Q360.7953,40.7189 360.6531,40.5768 Q360.5109,40.4455 360.4344,40.0846 Q360.4016,39.833 360.2703,39.7018 Q360.0406,39.4393 359.6141,39.2861 Q359.1875,39.133 358.75,39.133 Q358.2141,39.133 357.7656,39.3627 Q357.3281,39.5924 356.9781,40.1174 Q356.6391,40.6424 356.6391,41.3643 L356.6391,42.1299 Q356.6391,42.9939 357.2625,43.5736 Q357.8859,44.1424 359.0016,44.1424 Q359.6578,44.1424 360.1172,43.9674 Q360.3906,43.858 360.6859,43.5518 Q360.8719,43.3658 360.9703,43.3111 Q361.0797,43.2564 361.2219,43.2564 Q361.4516,43.2564 361.6266,43.4424 Q361.8125,43.6174 361.8125,43.858 Q361.8125,44.0986 361.5719,44.383 Q361.2219,44.7877 360.6641,45.0174 Q359.9094,45.3346 359.0016,45.3346 Q357.9406,45.3346 357.0984,44.8971 Q356.4094,44.5471 355.9281,43.8033 Q355.4469,43.0486 355.4469,42.1518 L355.4469,41.3424 Q355.4469,40.4127 355.8734,39.6143 Q356.3109,38.8049 357.0766,38.3783 Q357.8422,37.9408 358.7062,37.9408 Q359.2203,37.9408 359.6687,38.0611 Q360.1281,38.1705 360.5109,38.4221 Z " fill="#000000"/><text fill="#000000" font-family="sans-serif" font-size="9.8" lengthAdjust="spacing" textLength="56.7" x="372.925" y="45.3674">HomeScreen</text><line style="stroke:#181818;stroke-width:0.3499999999999999;" x1="261.8" x2="518" y1="52.5096" y2="52.5096"/><ellipse cx="268.8" cy="62.877" fill="none" rx="2.1" ry="2.1" style="stroke:#038048;stroke-width:0.6999999999999998;"/><text fill="#000000" font-family="sans-serif" font-size="9.8" lengthAdjust="spacing" textLength="147.7" x="275.1" y="65.8848">navController: NavHostController,</text><line style="stroke:#181818;stroke-width:0.3499999999999999;" x1="261.8" x2="518" y1="71.1443" y2="71.1443"/><ellipse cx="268.8" cy="81.5117" fill="#84BE84" rx="2.1" ry="2.1" style="stroke:#038048;stroke-width:0.6999999999999998;"/><text fill="#000000" font-family="sans-serif" font-size="9.8" lengthAdjust="spacing" textLength="239.4" x="275.1" y="84.5195">workoutsViewModel: WorkoutViewModel = viewModel()</text><ellipse cx="268.8" cy="94.5465" fill="#84BE84" rx="2.1" ry="2.1" style="stroke:#038048;stroke-width:0.6999999999999998;"/><text fill="#000000" font-family="sans-serif" font-size="9.8" lengthAdjust="spacing" textLength="168.7" x="275.1" y="97.5543">getCurrentDayOfWeek(): DaysInWeek</text></g><!--class HomeScreenContent--><g id="elem_HomeScreenContent"><rect codeLine="7" fill="#F1F1F1" height="98.7738" id="HomeScreenContent" rx="1.75" ry="1.75" style="stroke:#181818;stroke-width:0.3499999999999999;" width="179.9" x="299.25" y="144.9096"/><ellipse cx="340.375" cy="156.1096" fill="#ADD1B2" rx="7.7" ry="7.7" style="stroke:#181818;stroke-width:0.6999999999999998;"/><path d="M342.3109,153.2221 Q342.4203,153.0689 342.5516,152.9924 Q342.6828,152.9158 342.8359,152.9158 Q343.0984,152.9158 343.2625,153.1018 Q343.4266,153.2768 343.4266,153.7033 L343.4266,154.7205 Q343.4266,155.1471 343.2625,155.333 Q343.0984,155.5189 342.8359,155.5189 Q342.5953,155.5189 342.4531,155.3768 Q342.3109,155.2455 342.2344,154.8846 Q342.2016,154.633 342.0703,154.5018 Q341.8406,154.2393 341.4141,154.0861 Q340.9875,153.933 340.55,153.933 Q340.0141,153.933 339.5656,154.1627 Q339.1281,154.3924 338.7781,154.9174 Q338.4391,155.4424 338.4391,156.1643 L338.4391,156.9299 Q338.4391,157.7939 339.0625,158.3736 Q339.6859,158.9424 340.8016,158.9424 Q341.4578,158.9424 341.9172,158.7674 Q342.1906,158.658 342.4859,158.3518 Q342.6719,158.1658 342.7703,158.1111 Q342.8797,158.0564 343.0219,158.0564 Q343.2516,158.0564 343.4266,158.2424 Q343.6125,158.4174 343.6125,158.658 Q343.6125,158.8986 343.3719,159.183 Q343.0219,159.5877 342.4641,159.8174 Q341.7094,160.1346 340.8016,160.1346 Q339.7406,160.1346 338.8984,159.6971 Q338.2094,159.3471 337.7281,158.6033 Q337.2469,157.8486 337.2469,156.9518 L337.2469,156.1424 Q337.2469,155.2127 337.6734,154.4143 Q338.1109,153.6049 338.8766,153.1783 Q339.6422,152.7408 340.5062,152.7408 Q341.0203,152.7408 341.4687,152.8611 Q341.9281,152.9705 342.3109,153.2221 Z " fill="#000000"/><text fill="#000000" font-family="sans-serif" font-size="9.8" lengthAdjust="spacing" textLength="91.7" x="354.725" y="160.1674">HomeScreenContent</text><line style="stroke:#181818;stroke-width:0.3499999999999999;" x1="299.95" x2="478.45" y1="167.3096" y2="167.3096"/><ellipse cx="306.95" cy="177.677" fill="none" rx="2.1" ry="2.1" style="stroke:#038048;stroke-width:0.6999999999999998;"/><text fill="#000000" font-family="sans-serif" font-size="9.8" lengthAdjust="spacing" textLength="135.8" x="313.25" y="180.6848">workoutForTheDay: Workout?,</text><ellipse cx="306.95" cy="190.7117" fill="none" rx="2.1" ry="2.1" style="stroke:#038048;stroke-width:0.6999999999999998;"/><text fill="#000000" font-family="sans-serif" font-size="9.8" lengthAdjust="spacing" textLength="123.9" x="313.25" y="193.7195">allWorkouts: List&lt;Workout&gt;,</text><line style="stroke:#181818;stroke-width:0.3499999999999999;" x1="299.95" x2="478.45" y1="198.9791" y2="198.9791"/><ellipse cx="306.95" cy="209.3465" fill="#84BE84" rx="2.1" ry="2.1" style="stroke:#038048;stroke-width:0.6999999999999998;"/><text fill="#000000" font-family="sans-serif" font-size="9.8" lengthAdjust="spacing" textLength="161.7" x="313.25" y="212.3543">onWorkoutAssign: (Workout) -&gt; Unit,</text><ellipse cx="306.95" cy="222.3812" fill="#84BE84" rx="2.1" ry="2.1" style="stroke:#038048;stroke-width:0.6999999999999998;"/><text fill="#000000" font-family="sans-serif" font-size="9.8" lengthAdjust="spacing" textLength="135.8" x="313.25" y="225.3891">HomeScreenContentPreview(),</text><ellipse cx="306.95" cy="235.416" fill="#84BE84" rx="2.1" ry="2.1" style="stroke:#038048;stroke-width:0.6999999999999998;"/><text fill="#000000" font-family="sans-serif" font-size="9.8" lengthAdjust="spacing" textLength="147.7" x="313.25" y="238.4238">HomeScreenNoContentPreview(),</text></g><!--class NoWorkoutHomeScreenContentVariant--><g id="elem_NoWorkoutHomeScreenContentVariant"><rect codeLine="16" fill="#F1F1F1" height="85.7391" id="NoWorkoutHomeScreenContentVariant" rx="1.75" ry="1.75" style="stroke:#181818;stroke-width:0.3499999999999999;" width="224.7" x="276.85" y="285.6096"/><ellipse cx="300.895" cy="296.8096" fill="#ADD1B2" rx="7.7" ry="7.7" style="stroke:#181818;stroke-width:0.6999999999999998;"/><path d="M302.8309,293.9221 Q302.9403,293.7689 303.0716,293.6924 Q303.2028,293.6158 303.3559,293.6158 Q303.6184,293.6158 303.7825,293.8018 Q303.9466,293.9768 303.9466,294.4033 L303.9466,295.4205 Q303.9466,295.8471 303.7825,296.033 Q303.6184,296.2189 303.3559,296.2189 Q303.1153,296.2189 302.9731,296.0768 Q302.8309,295.9455 302.7544,295.5846 Q302.7216,295.333 302.5903,295.2018 Q302.3606,294.9393 301.9341,294.7861 Q301.5075,294.633 301.07,294.633 Q300.5341,294.633 300.0856,294.8627 Q299.6481,295.0924 299.2981,295.6174 Q298.9591,296.1424 298.9591,296.8643 L298.9591,297.6299 Q298.9591,298.4939 299.5825,299.0736 Q300.2059,299.6424 301.3216,299.6424 Q301.9778,299.6424 302.4372,299.4674 Q302.7106,299.358 303.0059,299.0518 Q303.1919,298.8658 303.2903,298.8111 Q303.3997,298.7564 303.5419,298.7564 Q303.7716,298.7564 303.9466,298.9424 Q304.1325,299.1174 304.1325,299.358 Q304.1325,299.5986 303.8919,299.883 Q303.5419,300.2877 302.9841,300.5174 Q302.2294,300.8346 301.3216,300.8346 Q300.2606,300.8346 299.4184,300.3971 Q298.7294,300.0471 298.2481,299.3033 Q297.7669,298.5486 297.7669,297.6518 L297.7669,296.8424 Q297.7669,295.9127 298.1934,295.1143 Q298.6309,294.3049 299.3966,293.8783 Q300.1622,293.4408 301.0262,293.4408 Q301.5403,293.4408 301.9887,293.5611 Q302.4481,293.6705 302.8309,293.9221 Z " fill="#000000"/><text fill="#000000" font-family="sans-serif" font-size="9.8" lengthAdjust="spacing" textLength="172.2" x="313.705" y="300.8674">NoWorkoutHomeScreenContentVariant</text><line style="stroke:#181818;stroke-width:0.3499999999999999;" x1="277.55" x2="500.85" y1="308.0096" y2="308.0096"/><ellipse cx="284.55" cy="318.377" fill="none" rx="2.1" ry="2.1" style="stroke:#038048;stroke-width:0.6999999999999998;"/><text fill="#000000" font-family="sans-serif" font-size="9.8" lengthAdjust="spacing" textLength="111.3" x="290.85" y="321.3848">weekName: DaysInWeek,</text><ellipse cx="284.55" cy="331.4117" fill="none" rx="2.1" ry="2.1" style="stroke:#038048;stroke-width:0.6999999999999998;"/><text fill="#000000" font-family="sans-serif" font-size="9.8" lengthAdjust="spacing" textLength="123.9" x="290.85" y="334.4195">allWorkouts: List&lt;Workout&gt;,</text><ellipse cx="284.55" cy="344.4465" fill="none" rx="2.1" ry="2.1" style="stroke:#038048;stroke-width:0.6999999999999998;"/><text fill="#000000" font-family="sans-serif" font-size="9.8" lengthAdjust="spacing" textLength="206.5" x="290.85" y="347.4543">NoWorkoutHomeScreenContentVariantPreview</text><line style="stroke:#181818;stroke-width:0.3499999999999999;" x1="277.55" x2="500.85" y1="352.7139" y2="352.7139"/><ellipse cx="284.55" cy="363.0812" fill="#84BE84" rx="2.1" ry="2.1" style="stroke:#038048;stroke-width:0.6999999999999998;"/><text fill="#000000" font-family="sans-serif" font-size="9.8" lengthAdjust="spacing" textLength="161.7" x="290.85" y="366.0891">onWorkoutAssign: (Workout) -&gt; Unit,</text></g><!--class WorkoutHomeScreenContentVariant--><g id="elem_WorkoutHomeScreenContentVariant"><rect codeLine="22" fill="#F1F1F1" height="59.6695" id="WorkoutHomeScreenContentVariant" rx="1.75" ry="1.75" style="stroke:#181818;stroke-width:0.3499999999999999;" width="219.8" x="32.2" y="298.5596"/><ellipse cx="59.395" cy="309.7596" fill="#ADD1B2" rx="7.7" ry="7.7" style="stroke:#181818;stroke-width:0.6999999999999998;"/><path d="M61.3309,306.8721 Q61.4403,306.7189 61.5716,306.6424 Q61.7028,306.5658 61.8559,306.5658 Q62.1184,306.5658 62.2825,306.7518 Q62.4466,306.9268 62.4466,307.3533 L62.4466,308.3705 Q62.4466,308.7971 62.2825,308.983 Q62.1184,309.1689 61.8559,309.1689 Q61.6153,309.1689 61.4731,309.0268 Q61.3309,308.8955 61.2544,308.5346 Q61.2216,308.283 61.0903,308.1518 Q60.8606,307.8893 60.4341,307.7361 Q60.0075,307.583 59.57,307.583 Q59.0341,307.583 58.5856,307.8127 Q58.1481,308.0424 57.7981,308.5674 Q57.4591,309.0924 57.4591,309.8143 L57.4591,310.5799 Q57.4591,311.4439 58.0825,312.0236 Q58.7059,312.5924 59.8216,312.5924 Q60.4778,312.5924 60.9372,312.4174 Q61.2106,312.308 61.5059,312.0018 Q61.6919,311.8158 61.7903,311.7611 Q61.8997,311.7064 62.0419,311.7064 Q62.2716,311.7064 62.4466,311.8924 Q62.6325,312.0674 62.6325,312.308 Q62.6325,312.5486 62.3919,312.833 Q62.0419,313.2377 61.4841,313.4674 Q60.7294,313.7846 59.8216,313.7846 Q58.7606,313.7846 57.9184,313.3471 Q57.2294,312.9971 56.7481,312.2533 Q56.2669,311.4986 56.2669,310.6018 L56.2669,309.7924 Q56.2669,308.8627 56.6934,308.0643 Q57.1309,307.2549 57.8966,306.8283 Q58.6622,306.3908 59.5262,306.3908 Q60.0403,306.3908 60.4887,306.5111 Q60.9481,306.6205 61.3309,306.8721 Z " fill="#000000"/><text fill="#000000" font-family="sans-serif" font-size="9.8" lengthAdjust="spacing" textLength="160.3" x="72.905" y="313.8174">WorkoutHomeScreenContentVariant</text><line style="stroke:#181818;stroke-width:0.3499999999999999;" x1="32.9" x2="251.3" y1="320.9596" y2="320.9596"/><ellipse cx="39.9" cy="331.327" fill="none" rx="2.1" ry="2.1" style="stroke:#038048;stroke-width:0.6999999999999998;"/><text fill="#000000" font-family="sans-serif" font-size="9.8" lengthAdjust="spacing" textLength="77" x="46.2" y="334.3348">workout: Workout</text><line style="stroke:#181818;stroke-width:0.3499999999999999;" x1="32.9" x2="251.3" y1="339.5943" y2="339.5943"/><ellipse cx="39.9" cy="349.9617" fill="#84BE84" rx="2.1" ry="2.1" style="stroke:#038048;stroke-width:0.6999999999999998;"/><text fill="#000000" font-family="sans-serif" font-size="9.8" lengthAdjust="spacing" textLength="201.6" x="46.2" y="352.9695">WorkoutHomeScreenContentVariantPreview()</text></g><!--class components--><g id="elem_components"><rect fill="#F1F1F1" height="33.6" id="components" rx="1.75" ry="1.75" style="stroke:#181818;stroke-width:0.3499999999999999;" width="76.3" x="638.05" y="177.4596"/><ellipse cx="648.55" cy="188.6596" fill="#ADD1B2" rx="7.7" ry="7.7" style="stroke:#181818;stroke-width:0.6999999999999998;"/><path d="M650.4859,185.7721 Q650.5953,185.6189 650.7266,185.5424 Q650.8578,185.4658 651.0109,185.4658 Q651.2734,185.4658 651.4375,185.6518 Q651.6016,185.8268 651.6016,186.2533 L651.6016,187.2705 Q651.6016,187.6971 651.4375,187.883 Q651.2734,188.0689 651.0109,188.0689 Q650.7703,188.0689 650.6281,187.9268 Q650.4859,187.7955 650.4094,187.4346 Q650.3766,187.183 650.2453,187.0518 Q650.0156,186.7893 649.5891,186.6361 Q649.1625,186.483 648.725,186.483 Q648.1891,186.483 647.7406,186.7127 Q647.3031,186.9424 646.9531,187.4674 Q646.6141,187.9924 646.6141,188.7143 L646.6141,189.4799 Q646.6141,190.3439 647.2375,190.9236 Q647.8609,191.4924 648.9766,191.4924 Q649.6328,191.4924 650.0922,191.3174 Q650.3656,191.208 650.6609,190.9018 Q650.8469,190.7158 650.9453,190.6611 Q651.0547,190.6064 651.1969,190.6064 Q651.4266,190.6064 651.6016,190.7924 Q651.7875,190.9674 651.7875,191.208 Q651.7875,191.4486 651.5469,191.733 Q651.1969,192.1377 650.6391,192.3674 Q649.8844,192.6846 648.9766,192.6846 Q647.9156,192.6846 647.0734,192.2471 Q646.3844,191.8971 645.9031,191.1533 Q645.4219,190.3986 645.4219,189.5018 L645.4219,188.6924 Q645.4219,187.7627 645.8484,186.9643 Q646.2859,186.1549 647.0516,185.7283 Q647.8172,185.2908 648.6812,185.2908 Q649.1953,185.2908 649.6437,185.4111 Q650.1031,185.5205 650.4859,185.7721 Z " fill="#000000"/><text fill="#000000" font-family="sans-serif" font-size="9.8" lengthAdjust="spacing" textLength="53.9" x="658.35" y="192.7174">components</text><line style="stroke:#181818;stroke-width:0.3499999999999999;" x1="638.75" x2="713.65" y1="199.8596" y2="199.8596"/><line style="stroke:#181818;stroke-width:0.3499999999999999;" x1="638.75" x2="713.65" y1="205.4596" y2="205.4596"/></g><!--class ScreenRoutes--><g id="elem_ScreenRoutes"><rect fill="#F1F1F1" height="33.6" id="ScreenRoutes" rx="1.75" ry="1.75" style="stroke:#181818;stroke-width:0.3499999999999999;" width="85.4" x="739.2" y="177.4596"/><ellipse cx="749.7" cy="188.6596" fill="#ADD1B2" rx="7.7" ry="7.7" style="stroke:#181818;stroke-width:0.6999999999999998;"/><path d="M751.6359,185.7721 Q751.7453,185.6189 751.8766,185.5424 Q752.0078,185.4658 752.1609,185.4658 Q752.4234,185.4658 752.5875,185.6518 Q752.7516,185.8268 752.7516,186.2533 L752.7516,187.2705 Q752.7516,187.6971 752.5875,187.883 Q752.4234,188.0689 752.1609,188.0689 Q751.9203,188.0689 751.7781,187.9268 Q751.6359,187.7955 751.5594,187.4346 Q751.5266,187.183 751.3953,187.0518 Q751.1656,186.7893 750.7391,186.6361 Q750.3125,186.483 749.875,186.483 Q749.3391,186.483 748.8906,186.7127 Q748.4531,186.9424 748.1031,187.4674 Q747.7641,187.9924 747.7641,188.7143 L747.7641,189.4799 Q747.7641,190.3439 748.3875,190.9236 Q749.0109,191.4924 750.1266,191.4924 Q750.7828,191.4924 751.2422,191.3174 Q751.5156,191.208 751.8109,190.9018 Q751.9969,190.7158 752.0953,190.6611 Q752.2047,190.6064 752.3469,190.6064 Q752.5766,190.6064 752.7516,190.7924 Q752.9375,190.9674 752.9375,191.208 Q752.9375,191.4486 752.6969,191.733 Q752.3469,192.1377 751.7891,192.3674 Q751.0344,192.6846 750.1266,192.6846 Q749.0656,192.6846 748.2234,192.2471 Q747.5344,191.8971 747.0531,191.1533 Q746.5719,190.3986 746.5719,189.5018 L746.5719,188.6924 Q746.5719,187.7627 746.9984,186.9643 Q747.4359,186.1549 748.2016,185.7283 Q748.9672,185.2908 749.8312,185.2908 Q750.3453,185.2908 750.7937,185.4111 Q751.2531,185.5205 751.6359,185.7721 Z " fill="#000000"/><text fill="#000000" font-family="sans-serif" font-size="9.8" lengthAdjust="spacing" textLength="63" x="759.5" y="192.7174">ScreenRoutes</text><line style="stroke:#181818;stroke-width:0.3499999999999999;" x1="739.9" x2="823.9" y1="199.8596" y2="199.8596"/><line style="stroke:#181818;stroke-width:0.3499999999999999;" x1="739.9" x2="823.9" y1="205.4596" y2="205.4596"/></g><!--class Workout--><g id="elem_Workout"><rect fill="#F1F1F1" height="33.6" id="Workout" rx="1.75" ry="1.75" style="stroke:#181818;stroke-width:0.3499999999999999;" width="59.5" x="880.95" y="177.4596"/><ellipse cx="891.45" cy="188.6596" fill="#ADD1B2" rx="7.7" ry="7.7" style="stroke:#181818;stroke-width:0.6999999999999998;"/><path d="M893.3859,185.7721 Q893.4953,185.6189 893.6266,185.5424 Q893.7578,185.4658 893.9109,185.4658 Q894.1734,185.4658 894.3375,185.6518 Q894.5016,185.8268 894.5016,186.2533 L894.5016,187.2705 Q894.5016,187.6971 894.3375,187.883 Q894.1734,188.0689 893.9109,188.0689 Q893.6703,188.0689 893.5281,187.9268 Q893.3859,187.7955 893.3094,187.4346 Q893.2766,187.183 893.1453,187.0518 Q892.9156,186.7893 892.4891,186.6361 Q892.0625,186.483 891.625,186.483 Q891.0891,186.483 890.6406,186.7127 Q890.2031,186.9424 889.8531,187.4674 Q889.5141,187.9924 889.5141,188.7143 L889.5141,189.4799 Q889.5141,190.3439 890.1375,190.9236 Q890.7609,191.4924 891.8766,191.4924 Q892.5328,191.4924 892.9922,191.3174 Q893.2656,191.208 893.5609,190.9018 Q893.7469,190.7158 893.8453,190.6611 Q893.9547,190.6064 894.0969,190.6064 Q894.3266,190.6064 894.5016,190.7924 Q894.6875,190.9674 894.6875,191.208 Q894.6875,191.4486 894.4469,191.733 Q894.0969,192.1377 893.5391,192.3674 Q892.7844,192.6846 891.8766,192.6846 Q890.8156,192.6846 889.9734,192.2471 Q889.2844,191.8971 888.8031,191.1533 Q888.3219,190.3986 888.3219,189.5018 L888.3219,188.6924 Q888.3219,187.7627 888.7484,186.9643 Q889.1859,186.1549 889.9516,185.7283 Q890.7172,185.2908 891.5812,185.2908 Q892.0953,185.2908 892.5437,185.4111 Q893.0031,185.5205 893.3859,185.7721 Z " fill="#000000"/><text fill="#000000" font-family="sans-serif" font-size="9.8" lengthAdjust="spacing" textLength="37.1" x="901.25" y="192.7174">Workout</text><line style="stroke:#181818;stroke-width:0.3499999999999999;" x1="881.65" x2="939.75" y1="199.8596" y2="199.8596"/><line style="stroke:#181818;stroke-width:0.3499999999999999;" x1="881.65" x2="939.75" y1="205.4596" y2="205.4596"/></g><!--class datasource--><g id="elem_datasource"><rect fill="#F1F1F1" height="33.6" id="datasource" rx="1.75" ry="1.75" style="stroke:#181818;stroke-width:0.3499999999999999;" width="72.1" x="541.45" y="177.4596"/><ellipse cx="551.95" cy="188.6596" fill="#ADD1B2" rx="7.7" ry="7.7" style="stroke:#181818;stroke-width:0.6999999999999998;"/><path d="M553.8859,185.7721 Q553.9953,185.6189 554.1266,185.5424 Q554.2578,185.4658 554.4109,185.4658 Q554.6734,185.4658 554.8375,185.6518 Q555.0016,185.8268 555.0016,186.2533 L555.0016,187.2705 Q555.0016,187.6971 554.8375,187.883 Q554.6734,188.0689 554.4109,188.0689 Q554.1703,188.0689 554.0281,187.9268 Q553.8859,187.7955 553.8094,187.4346 Q553.7766,187.183 553.6453,187.0518 Q553.4156,186.7893 552.9891,186.6361 Q552.5625,186.483 552.125,186.483 Q551.5891,186.483 551.1406,186.7127 Q550.7031,186.9424 550.3531,187.4674 Q550.0141,187.9924 550.0141,188.7143 L550.0141,189.4799 Q550.0141,190.3439 550.6375,190.9236 Q551.2609,191.4924 552.3766,191.4924 Q553.0328,191.4924 553.4922,191.3174 Q553.7656,191.208 554.0609,190.9018 Q554.2469,190.7158 554.3453,190.6611 Q554.4547,190.6064 554.5969,190.6064 Q554.8266,190.6064 555.0016,190.7924 Q555.1875,190.9674 555.1875,191.208 Q555.1875,191.4486 554.9469,191.733 Q554.5969,192.1377 554.0391,192.3674 Q553.2844,192.6846 552.3766,192.6846 Q551.3156,192.6846 550.4734,192.2471 Q549.7844,191.8971 549.3031,191.1533 Q548.8219,190.3986 548.8219,189.5018 L548.8219,188.6924 Q548.8219,187.7627 549.2484,186.9643 Q549.6859,186.1549 550.4516,185.7283 Q551.2172,185.2908 552.0812,185.2908 Q552.5953,185.2908 553.0437,185.4111 Q553.5031,185.5205 553.8859,185.7721 Z " fill="#000000"/><text fill="#000000" font-family="sans-serif" font-size="9.8" lengthAdjust="spacing" textLength="49.7" x="561.75" y="192.7174">datasource</text><line style="stroke:#181818;stroke-width:0.3499999999999999;" x1="542.15" x2="612.85" y1="199.8596" y2="199.8596"/><line style="stroke:#181818;stroke-width:0.3499999999999999;" x1="542.15" x2="612.85" y1="205.4596" y2="205.4596"/></g><!--link HomeScreen to HomeScreenContent--><g id="link_HomeScreen_HomeScreenContent"><path codeLine="31" d="M389.704,103.0776 C389.627,116.0626 389.5733,126.7586 389.4963,140.6606 " fill="none" id="HomeScreen-to-HomeScreenContent" style="stroke:#181818;stroke-width:0.6999999999999998;stroke-dasharray:7.0,7.0;"/><polygon fill="#181818" points="389.473,144.8606,392.3079,138.5762,389.4924,141.3606,386.7079,138.5452,389.473,144.8606" style="stroke:#181818;stroke-width:0.6999999999999998;"/></g><!--link HomeScreenContent to NoWorkoutHomeScreenContentVariant--><g id="link_HomeScreenContent_NoWorkoutHomeScreenContentVariant"><path codeLine="32" d="M389.2,243.7916 C389.2,257.4556 389.2,267.9906 389.2,281.2346 " fill="none" id="HomeScreenContent-to-NoWorkoutHomeScreenContentVariant" style="stroke:#181818;stroke-width:0.6999999999999998;stroke-dasharray:7.0,7.0;"/><polygon fill="#181818" points="389.2,285.4346,392,279.1346,389.2,281.9346,386.4,279.1346,389.2,285.4346" style="stroke:#181818;stroke-width:0.6999999999999998;"/></g><!--link HomeScreenContent to WorkoutHomeScreenContentVariant--><g id="link_HomeScreenContent_WorkoutHomeScreenContentVariant"><path codeLine="33" d="M299.18,236.4136 C287.455,242.1816 275.681,248.1736 264.6,254.1096 C238.91,267.8716 214.5787,282.2825 191.8917,296.2335 " fill="none" id="HomeScreenContent-to-WorkoutHomeScreenContentVariant" style="stroke:#181818;stroke-width:0.6999999999999998;stroke-dasharray:7.0,7.0;"/><polygon fill="#181818" points="188.314,298.4336,195.1472,297.5186,191.2954,296.6002,192.2138,292.7484,188.314,298.4336" style="stroke:#181818;stroke-width:0.6999999999999998;"/></g><!--link HomeScreen to datasource--><g id="link_HomeScreen_datasource"><path codeLine="35" d="M513.275,102.9726 C519.12,106.4586 524.699,110.2806 529.9,114.4596 C550.634,131.1336 562.9257,155.5454 570.1077,173.3884 " fill="none" id="HomeScreen-to-datasource" style="stroke:#181818;stroke-width:0.6999999999999998;stroke-dasharray:7.0,7.0;"/><polygon fill="#181818" points="571.676,177.2846,571.9211,170.3947,570.3691,174.0377,566.7261,172.4858,571.676,177.2846" style="stroke:#181818;stroke-width:0.6999999999999998;"/></g><!--link HomeScreen to components--><g id="link_HomeScreen_components"><path codeLine="36" d="M518.833,83.9256 C563.745,91.6466 607.495,101.9226 625.8,114.4596 C648.368,129.9226 661.4412,155.2622 668.8472,173.5322 " fill="none" id="HomeScreen-to-components" style="stroke:#181818;stroke-width:0.6999999999999998;stroke-dasharray:7.0,7.0;"/><polygon fill="#181818" points="670.425,177.4246,670.6532,170.5341,669.1101,174.1809,665.4634,172.6379,670.425,177.4246" style="stroke:#181818;stroke-width:0.6999999999999998;"/></g><!--link HomeScreen to Workout--><g id="link_HomeScreen_Workout"><path codeLine="37" d="M518.91,71.0246 C630.399,76.0996 781.844,87.7896 835.8,114.4596 C864.451,128.6206 885.5637,155.0794 898.2057,173.7904 " fill="none" id="HomeScreen-to-Workout" style="stroke:#181818;stroke-width:0.6999999999999998;stroke-dasharray:7.0,7.0;"/><polygon fill="#181818" points="900.557,177.2706,899.3501,170.4828,898.5976,174.3705,894.7099,173.6179,900.557,177.2706" style="stroke:#181818;stroke-width:0.6999999999999998;"/></g><!--link HomeScreen to ScreenRoutes--><g id="link_HomeScreen_ScreenRoutes"><path codeLine="39" d="M518.707,73.0196 C602.063,78.9836 701.358,90.8836 736.4,114.4596 C758.485,129.3136 769.8556,154.7545 775.9736,173.2275 " fill="none" id="HomeScreen-to-ScreenRoutes" style="stroke:#181818;stroke-width:0.6999999999999998;stroke-dasharray:7.0,7.0;"/><polygon fill="#181818" points="777.294,177.2146,777.9713,170.3537,776.1936,173.892,772.6553,172.1143,777.294,177.2146" style="stroke:#181818;stroke-width:0.6999999999999998;"/></g><!--SRC=[bLFRJeD047tVhvX7I2iVGBJ6r9YQA1elxVE6ZdHJs6bsbpR6zDyToaAnQB241sRc7CwSsLaj2xGRcIAig43u4cakhOKP1w-fGTIS6e6MsobfPoZFqSIGoEsCh3kcnWBu6S6Ep9fAP-SATu-qn3o6HPrgCt05s-Ox2CM1bg6RbiQWThVoy-bZWRWEmXWuiFUwYiI-rrSbpWHkxuVq7Pct5JApLRvkcfDvxbCsXWTbtQKF9ms2jC_SMAio7KFWun0k9l2kbMkGlJwU3LQsWh2FIAYFsGkXsycdL6n8Cy1wDxNNXBnwJsmkZPAjT- -VnvJmBxjZ6tVgG-xFcq2D7kpGEpvGzXrhPnchiUrvTah_Kw-tZFLvwFoApcv7qQH_bAA_P1LkqEmVl27MQJzBwQIbqgHuMYbLT5oLqs9HNIWRDKFwXSkNM6NIAT9HNNXX85hn3G00]--></g></svg>