<?xml version="1.0" encoding="us-ascii" standalone="no"?><svg xmlns="http://www.w3.org/2000/svg" xmlns:xlink="http://www.w3.org/1999/xlink" contentStyleType="text/css" height="723px" preserveAspectRatio="none" style="width:1241px;height:723px;background:#FFFFFF;" version="1.1" viewBox="0 0 1241 723" width="1241px" zoomAndPan="magnify"><defs/><g><!--cluster weekly--><g id="cluster_weekly"><path d="M8.5,6.0137 L57.5,6.0137 A3.75,3.75 0 0 1 60,8.5137 L67,30.6348 L809.5,30.6348 A2.5,2.5 0 0 1 812,33.1348 L812,713.5137 A2.5,2.5 0 0 1 809.5,716.0137 L8.5,716.0137 A2.5,2.5 0 0 1 6,713.5137 L6,8.5137 A2.5,2.5 0 0 1 8.5,6.0137 " fill="none" style="stroke:#000000;stroke-width:1.5;"/><line style="stroke:#000000;stroke-width:1.5;" x1="6" x2="67" y1="30.6348" y2="30.6348"/><text fill="#000000" font-family="sans-serif" font-size="14" font-weight="bold" lengthAdjust="spacing" textLength="48" x="10" y="23.1211">weekly</text></g><!--cluster components--><g id="cluster_components"><path d="M32.5,133.0137 L120.5,133.0137 A3.75,3.75 0 0 1 123,135.5137 L130,157.6348 L785.5,157.6348 A2.5,2.5 0 0 1 788,160.1348 L788,689.5137 A2.5,2.5 0 0 1 785.5,692.0137 L32.5,692.0137 A2.5,2.5 0 0 1 30,689.5137 L30,135.5137 A2.5,2.5 0 0 1 32.5,133.0137 " fill="none" style="stroke:#000000;stroke-width:1.5;"/><line style="stroke:#000000;stroke-width:1.5;" x1="30" x2="130" y1="157.6348" y2="157.6348"/><text fill="#000000" font-family="sans-serif" font-size="14" font-weight="bold" lengthAdjust="spacing" textLength="87" x="34" y="150.1211">components</text></g><!--cluster ui--><g id="cluster_ui"><path d="M952.5,179.5137 L966.5,179.5137 A3.75,3.75 0 0 1 969,182.0137 L976,204.1348 L1089.5,204.1348 A2.5,2.5 0 0 1 1092,206.6348 L1092,278.0137 A2.5,2.5 0 0 1 1089.5,280.5137 L952.5,280.5137 A2.5,2.5 0 0 1 950,278.0137 L950,182.0137 A2.5,2.5 0 0 1 952.5,179.5137 " fill="none" style="stroke:#000000;stroke-width:1.5;"/><line style="stroke:#000000;stroke-width:1.5;" x1="950" x2="976" y1="204.1348" y2="204.1348"/><text fill="#000000" font-family="sans-serif" font-size="14" font-weight="bold" lengthAdjust="spacing" textLength="13" x="954" y="196.6211">ui</text></g><!--cluster models--><g id="cluster_models"><path d="M1118.5,179.5137 L1170.5,179.5137 A3.75,3.75 0 0 1 1173,182.0137 L1180,204.1348 L1231.5,204.1348 A2.5,2.5 0 0 1 1234,206.6348 L1234,278.0137 A2.5,2.5 0 0 1 1231.5,280.5137 L1118.5,280.5137 A2.5,2.5 0 0 1 1116,278.0137 L1116,182.0137 A2.5,2.5 0 0 1 1118.5,179.5137 " fill="none" style="stroke:#000000;stroke-width:1.5;"/><line style="stroke:#000000;stroke-width:1.5;" x1="1116" x2="1180" y1="204.1348" y2="204.1348"/><text fill="#000000" font-family="sans-serif" font-size="14" font-weight="bold" lengthAdjust="spacing" textLength="51" x="1120" y="196.6211">models</text></g><!--class WeeklyScreen--><g id="elem_WeeklyScreen"><rect codeLine="2" fill="#F1F1F1" height="66.6211" id="WeeklyScreen" rx="2.5" ry="2.5" style="stroke:#181818;stroke-width:0.5;" width="365" x="430.5" y="43.0137"/><ellipse cx="563.25" cy="59.0137" fill="#ADD1B2" rx="11" ry="11" style="stroke:#181818;stroke-width:1.0;"/><path d="M566.0156,54.8887 Q566.1719,54.6699 566.3594,54.5605 Q566.5469,54.4512 566.7656,54.4512 Q567.1406,54.4512 567.375,54.7168 Q567.6094,54.9668 567.6094,55.5762 L567.6094,57.0293 Q567.6094,57.6387 567.375,57.9043 Q567.1406,58.1699 566.7656,58.1699 Q566.4219,58.1699 566.2188,57.9668 Q566.0156,57.7793 565.9063,57.2637 Q565.8594,56.9043 565.6719,56.7168 Q565.3438,56.3418 564.7344,56.123 Q564.125,55.9043 563.5,55.9043 Q562.7344,55.9043 562.0938,56.2324 Q561.4688,56.5605 560.9688,57.3105 Q560.4844,58.0605 560.4844,59.0918 L560.4844,60.1855 Q560.4844,61.4199 561.375,62.248 Q562.2656,63.0605 563.8594,63.0605 Q564.7969,63.0605 565.4531,62.8105 Q565.8438,62.6543 566.2656,62.2168 Q566.5313,61.9512 566.6719,61.873 Q566.8281,61.7949 567.0313,61.7949 Q567.3594,61.7949 567.6094,62.0605 Q567.875,62.3105 567.875,62.6543 Q567.875,62.998 567.5313,63.4043 Q567.0313,63.9824 566.2344,64.3105 Q565.1563,64.7637 563.8594,64.7637 Q562.3438,64.7637 561.1406,64.1387 Q560.1563,63.6387 559.4688,62.5762 Q558.7813,61.498 558.7813,60.2168 L558.7813,59.0605 Q558.7813,57.7324 559.3906,56.5918 Q560.0156,55.4355 561.1094,54.8262 Q562.2031,54.2012 563.4375,54.2012 Q564.1719,54.2012 564.8125,54.373 Q565.4688,54.5293 566.0156,54.8887 Z " fill="#000000"/><text fill="#000000" font-family="sans-serif" font-size="14" lengthAdjust="spacing" textLength="91" x="583.75" y="64.8105">WeeklyScreen</text><line style="stroke:#181818;stroke-width:0.5;" x1="431.5" x2="794.5" y1="75.0137" y2="75.0137"/><line style="stroke:#181818;stroke-width:0.5;" x1="431.5" x2="794.5" y1="83.0137" y2="83.0137"/><ellipse cx="441.5" cy="97.8242" fill="#84BE84" rx="3" ry="3" style="stroke:#038048;stroke-width:1.0;"/><text fill="#000000" font-family="sans-serif" font-size="14" lengthAdjust="spacing" textLength="339" x="450.5" y="102.1211">workoutViewModel: WorkoutViewModel = viewModel(),</text></g><!--class WeekEntry--><g id="elem_WeekEntry"><rect codeLine="6" fill="#F1F1F1" height="141.1055" id="WeekEntry" rx="2.5" ry="2.5" style="stroke:#181818;stroke-width:0.5;" width="289" x="468.5" y="170.0137"/><ellipse cx="574.25" cy="186.0137" fill="#ADD1B2" rx="11" ry="11" style="stroke:#181818;stroke-width:1.0;"/><path d="M577.0156,181.8887 Q577.1719,181.6699 577.3594,181.5605 Q577.5469,181.4512 577.7656,181.4512 Q578.1406,181.4512 578.375,181.7168 Q578.6094,181.9668 578.6094,182.5762 L578.6094,184.0293 Q578.6094,184.6387 578.375,184.9043 Q578.1406,185.1699 577.7656,185.1699 Q577.4219,185.1699 577.2188,184.9668 Q577.0156,184.7793 576.9063,184.2637 Q576.8594,183.9043 576.6719,183.7168 Q576.3438,183.3418 575.7344,183.123 Q575.125,182.9043 574.5,182.9043 Q573.7344,182.9043 573.0938,183.2324 Q572.4688,183.5605 571.9688,184.3105 Q571.4844,185.0605 571.4844,186.0918 L571.4844,187.1855 Q571.4844,188.4199 572.375,189.248 Q573.2656,190.0605 574.8594,190.0605 Q575.7969,190.0605 576.4531,189.8105 Q576.8438,189.6543 577.2656,189.2168 Q577.5313,188.9512 577.6719,188.873 Q577.8281,188.7949 578.0313,188.7949 Q578.3594,188.7949 578.6094,189.0605 Q578.875,189.3105 578.875,189.6543 Q578.875,189.998 578.5313,190.4043 Q578.0313,190.9824 577.2344,191.3105 Q576.1563,191.7637 574.8594,191.7637 Q573.3438,191.7637 572.1406,191.1387 Q571.1563,190.6387 570.4688,189.5762 Q569.7813,188.498 569.7813,187.2168 L569.7813,186.0605 Q569.7813,184.7324 570.3906,183.5918 Q571.0156,182.4355 572.1094,181.8262 Q573.2031,181.2012 574.4375,181.2012 Q575.1719,181.2012 575.8125,181.373 Q576.4688,181.5293 577.0156,181.8887 Z " fill="#000000"/><text fill="#000000" font-family="sans-serif" font-size="14" lengthAdjust="spacing" textLength="69" x="594.75" y="191.8105">WeekEntry</text><line style="stroke:#181818;stroke-width:0.5;" x1="469.5" x2="756.5" y1="202.0137" y2="202.0137"/><ellipse cx="479.5" cy="216.8242" fill="none" rx="3" ry="3" style="stroke:#038048;stroke-width:1.0;"/><text fill="#000000" font-family="sans-serif" font-size="14" lengthAdjust="spacing" textLength="148" x="488.5" y="221.1211">weekDay: DaysInWeek,</text><ellipse cx="479.5" cy="235.4453" fill="none" rx="3" ry="3" style="stroke:#038048;stroke-width:1.0;"/><text fill="#000000" font-family="sans-serif" font-size="14" lengthAdjust="spacing" textLength="159" x="488.5" y="239.7422">workouts: List&lt;Workout&gt;,</text><ellipse cx="479.5" cy="254.0664" fill="none" rx="3" ry="3" style="stroke:#038048;stroke-width:1.0;"/><text fill="#000000" font-family="sans-serif" font-size="14" lengthAdjust="spacing" textLength="177" x="488.5" y="258.3633">allWorkouts: List&lt;Workout&gt;,</text><line style="stroke:#181818;stroke-width:0.5;" x1="469.5" x2="756.5" y1="265.877" y2="265.877"/><ellipse cx="479.5" cy="280.6875" fill="#84BE84" rx="3" ry="3" style="stroke:#038048;stroke-width:1.0;"/><text fill="#000000" font-family="sans-serif" font-size="14" lengthAdjust="spacing" textLength="231" x="488.5" y="284.9844">onWorkoutAssign: (Workout) -&gt; Unit,</text><ellipse cx="479.5" cy="299.3086" fill="#84BE84" rx="3" ry="3" style="stroke:#038048;stroke-width:1.0;"/><text fill="#000000" font-family="sans-serif" font-size="14" lengthAdjust="spacing" textLength="263" x="488.5" y="303.6055">onWorkoutEntryDelete: (Workout) -&gt; Unit,</text></g><!--class WorkoutEntry--><g id="elem_WorkoutEntry"><rect codeLine="15" fill="#F1F1F1" height="103.8633" id="WorkoutEntry" rx="2.5" ry="2.5" style="stroke:#181818;stroke-width:0.5;" width="289" x="194.5" y="371.0137"/><ellipse cx="291.75" cy="387.0137" fill="#ADD1B2" rx="11" ry="11" style="stroke:#181818;stroke-width:1.0;"/><path d="M294.5156,382.8887 Q294.6719,382.6699 294.8594,382.5605 Q295.0469,382.4512 295.2656,382.4512 Q295.6406,382.4512 295.875,382.7168 Q296.1094,382.9668 296.1094,383.5762 L296.1094,385.0293 Q296.1094,385.6387 295.875,385.9043 Q295.6406,386.1699 295.2656,386.1699 Q294.9219,386.1699 294.7188,385.9668 Q294.5156,385.7793 294.4063,385.2637 Q294.3594,384.9043 294.1719,384.7168 Q293.8438,384.3418 293.2344,384.123 Q292.625,383.9043 292,383.9043 Q291.2344,383.9043 290.5938,384.2324 Q289.9688,384.5605 289.4688,385.3105 Q288.9844,386.0605 288.9844,387.0918 L288.9844,388.1855 Q288.9844,389.4199 289.875,390.248 Q290.7656,391.0605 292.3594,391.0605 Q293.2969,391.0605 293.9531,390.8105 Q294.3438,390.6543 294.7656,390.2168 Q295.0313,389.9512 295.1719,389.873 Q295.3281,389.7949 295.5313,389.7949 Q295.8594,389.7949 296.1094,390.0605 Q296.375,390.3105 296.375,390.6543 Q296.375,390.998 296.0313,391.4043 Q295.5313,391.9824 294.7344,392.3105 Q293.6563,392.7637 292.3594,392.7637 Q290.8438,392.7637 289.6406,392.1387 Q288.6563,391.6387 287.9688,390.5762 Q287.2813,389.498 287.2813,388.2168 L287.2813,387.0605 Q287.2813,385.7324 287.8906,384.5918 Q288.5156,383.4355 289.6094,382.8262 Q290.7031,382.2012 291.9375,382.2012 Q292.6719,382.2012 293.3125,382.373 Q293.9688,382.5293 294.5156,382.8887 Z " fill="#000000"/><text fill="#000000" font-family="sans-serif" font-size="14" lengthAdjust="spacing" textLength="86" x="312.25" y="392.8105">WorkoutEntry</text><line style="stroke:#181818;stroke-width:0.5;" x1="195.5" x2="482.5" y1="403.0137" y2="403.0137"/><ellipse cx="205.5" cy="417.8242" fill="none" rx="3" ry="3" style="stroke:#038048;stroke-width:1.0;"/><text fill="#000000" font-family="sans-serif" font-size="14" lengthAdjust="spacing" textLength="148" x="214.5" y="422.1211">weekDay: DaysInWeek,</text><ellipse cx="205.5" cy="436.4453" fill="none" rx="3" ry="3" style="stroke:#038048;stroke-width:1.0;"/><text fill="#000000" font-family="sans-serif" font-size="14" lengthAdjust="spacing" textLength="114" x="214.5" y="440.7422">workout: Workout,</text><line style="stroke:#181818;stroke-width:0.5;" x1="195.5" x2="482.5" y1="448.2559" y2="448.2559"/><ellipse cx="205.5" cy="463.0664" fill="#84BE84" rx="3" ry="3" style="stroke:#038048;stroke-width:1.0;"/><text fill="#000000" font-family="sans-serif" font-size="14" lengthAdjust="spacing" textLength="263" x="214.5" y="467.3633">onWorkoutEntryDelete: (Workout) -&gt; Unit,</text></g><!--class AssignWorkoutDialog--><g id="elem_AssignWorkoutDialog"><rect codeLine="21" fill="#F1F1F1" height="141.1055" id="AssignWorkoutDialog" rx="2.5" ry="2.5" style="stroke:#181818;stroke-width:0.5;" width="252" x="520" y="535.0137"/><ellipse cx="574.25" cy="551.0137" fill="#ADD1B2" rx="11" ry="11" style="stroke:#181818;stroke-width:1.0;"/><path d="M577.0156,546.8887 Q577.1719,546.6699 577.3594,546.5605 Q577.5469,546.4512 577.7656,546.4512 Q578.1406,546.4512 578.375,546.7168 Q578.6094,546.9668 578.6094,547.5762 L578.6094,549.0293 Q578.6094,549.6387 578.375,549.9043 Q578.1406,550.1699 577.7656,550.1699 Q577.4219,550.1699 577.2188,549.9668 Q577.0156,549.7793 576.9063,549.2637 Q576.8594,548.9043 576.6719,548.7168 Q576.3438,548.3418 575.7344,548.123 Q575.125,547.9043 574.5,547.9043 Q573.7344,547.9043 573.0938,548.2324 Q572.4688,548.5605 571.9688,549.3105 Q571.4844,550.0605 571.4844,551.0918 L571.4844,552.1855 Q571.4844,553.4199 572.375,554.248 Q573.2656,555.0605 574.8594,555.0605 Q575.7969,555.0605 576.4531,554.8105 Q576.8438,554.6543 577.2656,554.2168 Q577.5313,553.9512 577.6719,553.873 Q577.8281,553.7949 578.0313,553.7949 Q578.3594,553.7949 578.6094,554.0605 Q578.875,554.3105 578.875,554.6543 Q578.875,554.998 578.5313,555.4043 Q578.0313,555.9824 577.2344,556.3105 Q576.1563,556.7637 574.8594,556.7637 Q573.3438,556.7637 572.1406,556.1387 Q571.1563,555.6387 570.4688,554.5762 Q569.7813,553.498 569.7813,552.2168 L569.7813,551.0605 Q569.7813,549.7324 570.3906,548.5918 Q571.0156,547.4355 572.1094,546.8262 Q573.2031,546.2012 574.4375,546.2012 Q575.1719,546.2012 575.8125,546.373 Q576.4688,546.5293 577.0156,546.8887 Z " fill="#000000"/><text fill="#000000" font-family="sans-serif" font-size="14" lengthAdjust="spacing" textLength="135" x="594.75" y="556.8105">AssignWorkoutDialog</text><line style="stroke:#181818;stroke-width:0.5;" x1="521" x2="771" y1="567.0137" y2="567.0137"/><ellipse cx="531" cy="581.8242" fill="none" rx="3" ry="3" style="stroke:#038048;stroke-width:1.0;"/><text fill="#000000" font-family="sans-serif" font-size="14" lengthAdjust="spacing" textLength="159" x="540" y="586.1211">weekName: DaysInWeek,</text><ellipse cx="531" cy="600.4453" fill="none" rx="3" ry="3" style="stroke:#038048;stroke-width:1.0;"/><text fill="#000000" font-family="sans-serif" font-size="14" lengthAdjust="spacing" textLength="159" x="540" y="604.7422">workouts: List&lt;Workout&gt;,</text><ellipse cx="531" cy="619.0664" fill="none" rx="3" ry="3" style="stroke:#038048;stroke-width:1.0;"/><text fill="#000000" font-family="sans-serif" font-size="14" lengthAdjust="spacing" textLength="178" x="540" y="623.3633">modifier: Modifier = Modifier,</text><line style="stroke:#181818;stroke-width:0.5;" x1="521" x2="771" y1="630.877" y2="630.877"/><ellipse cx="531" cy="645.6875" fill="#84BE84" rx="3" ry="3" style="stroke:#038048;stroke-width:1.0;"/><text fill="#000000" font-family="sans-serif" font-size="14" lengthAdjust="spacing" textLength="119" x="540" y="649.9844">onClose: () -&gt; Unit,</text><ellipse cx="531" cy="664.3086" fill="#84BE84" rx="3" ry="3" style="stroke:#038048;stroke-width:1.0;"/><text fill="#000000" font-family="sans-serif" font-size="14" lengthAdjust="spacing" textLength="226" x="540" y="668.6055">onAddAction: (Workout) -&gt; Unit = {},</text></g><!--class DeleteConfirmationDialog--><g id="elem_DeleteConfirmationDialog"><rect codeLine="30" fill="#F1F1F1" height="103.8633" id="DeleteConfirmationDialog" rx="2.5" ry="2.5" style="stroke:#181818;stroke-width:0.5;" width="200" x="46" y="553.5137"/><ellipse cx="64.15" cy="569.5137" fill="#ADD1B2" rx="11" ry="11" style="stroke:#181818;stroke-width:1.0;"/><path d="M66.9156,565.3887 Q67.0719,565.1699 67.2594,565.0605 Q67.4469,564.9512 67.6656,564.9512 Q68.0406,564.9512 68.275,565.2168 Q68.5094,565.4668 68.5094,566.0762 L68.5094,567.5293 Q68.5094,568.1387 68.275,568.4043 Q68.0406,568.6699 67.6656,568.6699 Q67.3219,568.6699 67.1188,568.4668 Q66.9156,568.2793 66.8063,567.7637 Q66.7594,567.4043 66.5719,567.2168 Q66.2438,566.8418 65.6344,566.623 Q65.025,566.4043 64.4,566.4043 Q63.6344,566.4043 62.9938,566.7324 Q62.3688,567.0605 61.8688,567.8105 Q61.3844,568.5605 61.3844,569.5918 L61.3844,570.6855 Q61.3844,571.9199 62.275,572.748 Q63.1656,573.5605 64.7594,573.5605 Q65.6969,573.5605 66.3531,573.3105 Q66.7438,573.1543 67.1656,572.7168 Q67.4313,572.4512 67.5719,572.373 Q67.7281,572.2949 67.9313,572.2949 Q68.2594,572.2949 68.5094,572.5605 Q68.775,572.8105 68.775,573.1543 Q68.775,573.498 68.4313,573.9043 Q67.9313,574.4824 67.1344,574.8105 Q66.0563,575.2637 64.7594,575.2637 Q63.2438,575.2637 62.0406,574.6387 Q61.0563,574.1387 60.3688,573.0762 Q59.6813,571.998 59.6813,570.7168 L59.6813,569.5605 Q59.6813,568.2324 60.2906,567.0918 Q60.9156,565.9355 62.0094,565.3262 Q63.1031,564.7012 64.3375,564.7012 Q65.0719,564.7012 65.7125,564.873 Q66.3688,565.0293 66.9156,565.3887 Z " fill="#000000"/><text fill="#000000" font-family="sans-serif" font-size="14" lengthAdjust="spacing" textLength="161" x="78.85" y="575.3105">DeleteConfirmationDialog</text><line style="stroke:#181818;stroke-width:0.5;" x1="47" x2="245" y1="585.5137" y2="585.5137"/><ellipse cx="57" cy="600.3242" fill="none" rx="3" ry="3" style="stroke:#038048;stroke-width:1.0;"/><text fill="#000000" font-family="sans-serif" font-size="14" lengthAdjust="spacing" textLength="174" x="66" y="604.6211">modifier: Modifier = Modifier</text><line style="stroke:#181818;stroke-width:0.5;" x1="47" x2="245" y1="612.1348" y2="612.1348"/><ellipse cx="57" cy="626.9453" fill="#84BE84" rx="3" ry="3" style="stroke:#038048;stroke-width:1.0;"/><text fill="#000000" font-family="sans-serif" font-size="14" lengthAdjust="spacing" textLength="173" x="66" y="631.2422">onDeleteConfirm: () -&gt; Unit,</text><ellipse cx="57" cy="645.5664" fill="#84BE84" rx="3" ry="3" style="stroke:#038048;stroke-width:1.0;"/><text fill="#000000" font-family="sans-serif" font-size="14" lengthAdjust="spacing" textLength="168" x="66" y="649.8633">onDeleteCancel: () -&gt; Unit,</text></g><!--class NoWorkoutEntryVariant--><g id="elem_NoWorkoutEntryVariant"><rect codeLine="36" fill="#F1F1F1" height="103.8633" id="NoWorkoutEntryVariant" rx="2.5" ry="2.5" style="stroke:#181818;stroke-width:0.5;" width="253" x="518.5" y="371.0137"/><ellipse cx="566.75" cy="387.0137" fill="#ADD1B2" rx="11" ry="11" style="stroke:#181818;stroke-width:1.0;"/><path d="M569.5156,382.8887 Q569.6719,382.6699 569.8594,382.5605 Q570.0469,382.4512 570.2656,382.4512 Q570.6406,382.4512 570.875,382.7168 Q571.1094,382.9668 571.1094,383.5762 L571.1094,385.0293 Q571.1094,385.6387 570.875,385.9043 Q570.6406,386.1699 570.2656,386.1699 Q569.9219,386.1699 569.7188,385.9668 Q569.5156,385.7793 569.4063,385.2637 Q569.3594,384.9043 569.1719,384.7168 Q568.8438,384.3418 568.2344,384.123 Q567.625,383.9043 567,383.9043 Q566.2344,383.9043 565.5938,384.2324 Q564.9688,384.5605 564.4688,385.3105 Q563.9844,386.0605 563.9844,387.0918 L563.9844,388.1855 Q563.9844,389.4199 564.875,390.248 Q565.7656,391.0605 567.3594,391.0605 Q568.2969,391.0605 568.9531,390.8105 Q569.3438,390.6543 569.7656,390.2168 Q570.0313,389.9512 570.1719,389.873 Q570.3281,389.7949 570.5313,389.7949 Q570.8594,389.7949 571.1094,390.0605 Q571.375,390.3105 571.375,390.6543 Q571.375,390.998 571.0313,391.4043 Q570.5313,391.9824 569.7344,392.3105 Q568.6563,392.7637 567.3594,392.7637 Q565.8438,392.7637 564.6406,392.1387 Q563.6563,391.6387 562.9688,390.5762 Q562.2813,389.498 562.2813,388.2168 L562.2813,387.0605 Q562.2813,385.7324 562.8906,384.5918 Q563.5156,383.4355 564.6094,382.8262 Q565.7031,382.2012 566.9375,382.2012 Q567.6719,382.2012 568.3125,382.373 Q568.9688,382.5293 569.5156,382.8887 Z " fill="#000000"/><text fill="#000000" font-family="sans-serif" font-size="14" lengthAdjust="spacing" textLength="148" x="587.25" y="392.8105">NoWorkoutEntryVariant</text><line style="stroke:#181818;stroke-width:0.5;" x1="519.5" x2="770.5" y1="403.0137" y2="403.0137"/><ellipse cx="529.5" cy="417.8242" fill="none" rx="3" ry="3" style="stroke:#038048;stroke-width:1.0;"/><text fill="#000000" font-family="sans-serif" font-size="14" lengthAdjust="spacing" textLength="177" x="538.5" y="422.1211">allWorkouts: List&lt;Workout&gt;,</text><ellipse cx="529.5" cy="436.4453" fill="none" rx="3" ry="3" style="stroke:#038048;stroke-width:1.0;"/><text fill="#000000" font-family="sans-serif" font-size="14" lengthAdjust="spacing" textLength="148" x="538.5" y="440.7422">weekDay: DaysInWeek,</text><line style="stroke:#181818;stroke-width:0.5;" x1="519.5" x2="770.5" y1="448.2559" y2="448.2559"/><ellipse cx="529.5" cy="463.0664" fill="#84BE84" rx="3" ry="3" style="stroke:#038048;stroke-width:1.0;"/><text fill="#000000" font-family="sans-serif" font-size="14" lengthAdjust="spacing" textLength="227" x="538.5" y="467.3633">onWorkoutAssign: (Workout) -&gt; Unit</text></g><!--class WorkoutDetailDialog--><g id="elem_WorkoutDetailDialog"><rect codeLine="43" fill="#F1F1F1" height="122.4844" id="WorkoutDetailDialog" rx="2.5" ry="2.5" style="stroke:#181818;stroke-width:0.5;" width="204" x="281" y="544.5137"/><ellipse cx="315.35" cy="560.5137" fill="#ADD1B2" rx="11" ry="11" style="stroke:#181818;stroke-width:1.0;"/><path d="M318.1156,556.3887 Q318.2719,556.1699 318.4594,556.0605 Q318.6469,555.9512 318.8656,555.9512 Q319.2406,555.9512 319.475,556.2168 Q319.7094,556.4668 319.7094,557.0762 L319.7094,558.5293 Q319.7094,559.1387 319.475,559.4043 Q319.2406,559.6699 318.8656,559.6699 Q318.5219,559.6699 318.3188,559.4668 Q318.1156,559.2793 318.0063,558.7637 Q317.9594,558.4043 317.7719,558.2168 Q317.4438,557.8418 316.8344,557.623 Q316.225,557.4043 315.6,557.4043 Q314.8344,557.4043 314.1938,557.7324 Q313.5688,558.0605 313.0688,558.8105 Q312.5844,559.5605 312.5844,560.5918 L312.5844,561.6855 Q312.5844,562.9199 313.475,563.748 Q314.3656,564.5605 315.9594,564.5605 Q316.8969,564.5605 317.5531,564.3105 Q317.9438,564.1543 318.3656,563.7168 Q318.6313,563.4512 318.7719,563.373 Q318.9281,563.2949 319.1313,563.2949 Q319.4594,563.2949 319.7094,563.5605 Q319.975,563.8105 319.975,564.1543 Q319.975,564.498 319.6313,564.9043 Q319.1313,565.4824 318.3344,565.8105 Q317.2563,566.2637 315.9594,566.2637 Q314.4438,566.2637 313.2406,565.6387 Q312.2563,565.1387 311.5688,564.0762 Q310.8813,562.998 310.8813,561.7168 L310.8813,560.5605 Q310.8813,559.2324 311.4906,558.0918 Q312.1156,556.9355 313.2094,556.3262 Q314.3031,555.7012 315.5375,555.7012 Q316.2719,555.7012 316.9125,555.873 Q317.5688,556.0293 318.1156,556.3887 Z " fill="#000000"/><text fill="#000000" font-family="sans-serif" font-size="14" lengthAdjust="spacing" textLength="129" x="333.65" y="566.3105">WorkoutDetailDialog</text><line style="stroke:#181818;stroke-width:0.5;" x1="282" x2="484" y1="576.5137" y2="576.5137"/><ellipse cx="292" cy="591.3242" fill="none" rx="3" ry="3" style="stroke:#038048;stroke-width:1.0;"/><text fill="#000000" font-family="sans-serif" font-size="14" lengthAdjust="spacing" textLength="148" x="301" y="595.6211">weekDay: DaysInWeek,</text><ellipse cx="292" cy="609.9453" fill="none" rx="3" ry="3" style="stroke:#038048;stroke-width:1.0;"/><text fill="#000000" font-family="sans-serif" font-size="14" lengthAdjust="spacing" textLength="114" x="301" y="614.2422">workout: Workout,</text><ellipse cx="292" cy="628.5664" fill="none" rx="3" ry="3" style="stroke:#038048;stroke-width:1.0;"/><text fill="#000000" font-family="sans-serif" font-size="14" lengthAdjust="spacing" textLength="178" x="301" y="632.8633">modifier: Modifier = Modifier,</text><line style="stroke:#181818;stroke-width:0.5;" x1="282" x2="484" y1="640.377" y2="640.377"/><ellipse cx="292" cy="655.1875" fill="#84BE84" rx="3" ry="3" style="stroke:#038048;stroke-width:1.0;"/><text fill="#000000" font-family="sans-serif" font-size="14" lengthAdjust="spacing" textLength="119" x="301" y="659.4844">onClose: () -&gt; Unit,</text></g><!--class components--><g id="elem_components"><rect fill="#F1F1F1" height="48" id="components" rx="2.5" ry="2.5" style="stroke:#181818;stroke-width:0.5;" width="109" x="966.5" y="216.5137"/><ellipse cx="981.5" cy="232.5137" fill="#ADD1B2" rx="11" ry="11" style="stroke:#181818;stroke-width:1.0;"/><path d="M984.2656,228.3887 Q984.4219,228.1699 984.6094,228.0605 Q984.7969,227.9512 985.0156,227.9512 Q985.3906,227.9512 985.625,228.2168 Q985.8594,228.4668 985.8594,229.0762 L985.8594,230.5293 Q985.8594,231.1387 985.625,231.4043 Q985.3906,231.6699 985.0156,231.6699 Q984.6719,231.6699 984.4688,231.4668 Q984.2656,231.2793 984.1563,230.7637 Q984.1094,230.4043 983.9219,230.2168 Q983.5938,229.8418 982.9844,229.623 Q982.375,229.4043 981.75,229.4043 Q980.9844,229.4043 980.3438,229.7324 Q979.7188,230.0605 979.2188,230.8105 Q978.7344,231.5605 978.7344,232.5918 L978.7344,233.6855 Q978.7344,234.9199 979.625,235.748 Q980.5156,236.5605 982.1094,236.5605 Q983.0469,236.5605 983.7031,236.3105 Q984.0938,236.1543 984.5156,235.7168 Q984.7813,235.4512 984.9219,235.373 Q985.0781,235.2949 985.2813,235.2949 Q985.6094,235.2949 985.8594,235.5605 Q986.125,235.8105 986.125,236.1543 Q986.125,236.498 985.7813,236.9043 Q985.2813,237.4824 984.4844,237.8105 Q983.4063,238.2637 982.1094,238.2637 Q980.5938,238.2637 979.3906,237.6387 Q978.4063,237.1387 977.7188,236.0762 Q977.0313,234.998 977.0313,233.7168 L977.0313,232.5605 Q977.0313,231.2324 977.6406,230.0918 Q978.2656,228.9355 979.3594,228.3262 Q980.4531,227.7012 981.6875,227.7012 Q982.4219,227.7012 983.0625,227.873 Q983.7188,228.0293 984.2656,228.3887 Z " fill="#000000"/><text fill="#000000" font-family="sans-serif" font-size="14" lengthAdjust="spacing" textLength="77" x="995.5" y="238.3105">components</text><line style="stroke:#181818;stroke-width:0.5;" x1="967.5" x2="1074.5" y1="248.5137" y2="248.5137"/><line style="stroke:#181818;stroke-width:0.5;" x1="967.5" x2="1074.5" y1="256.5137" y2="256.5137"/></g><!--class Workout--><g id="elem_Workout"><rect fill="#F1F1F1" height="48" id="Workout" rx="2.5" ry="2.5" style="stroke:#181818;stroke-width:0.5;" width="85" x="1132.5" y="216.5137"/><ellipse cx="1147.5" cy="232.5137" fill="#ADD1B2" rx="11" ry="11" style="stroke:#181818;stroke-width:1.0;"/><path d="M1150.2656,228.3887 Q1150.4219,228.1699 1150.6094,228.0605 Q1150.7969,227.9512 1151.0156,227.9512 Q1151.3906,227.9512 1151.625,228.2168 Q1151.8594,228.4668 1151.8594,229.0762 L1151.8594,230.5293 Q1151.8594,231.1387 1151.625,231.4043 Q1151.3906,231.6699 1151.0156,231.6699 Q1150.6719,231.6699 1150.4688,231.4668 Q1150.2656,231.2793 1150.1563,230.7637 Q1150.1094,230.4043 1149.9219,230.2168 Q1149.5938,229.8418 1148.9844,229.623 Q1148.375,229.4043 1147.75,229.4043 Q1146.9844,229.4043 1146.3438,229.7324 Q1145.7188,230.0605 1145.2188,230.8105 Q1144.7344,231.5605 1144.7344,232.5918 L1144.7344,233.6855 Q1144.7344,234.9199 1145.625,235.748 Q1146.5156,236.5605 1148.1094,236.5605 Q1149.0469,236.5605 1149.7031,236.3105 Q1150.0938,236.1543 1150.5156,235.7168 Q1150.7813,235.4512 1150.9219,235.373 Q1151.0781,235.2949 1151.2813,235.2949 Q1151.6094,235.2949 1151.8594,235.5605 Q1152.125,235.8105 1152.125,236.1543 Q1152.125,236.498 1151.7813,236.9043 Q1151.2813,237.4824 1150.4844,237.8105 Q1149.4063,238.2637 1148.1094,238.2637 Q1146.5938,238.2637 1145.3906,237.6387 Q1144.4063,237.1387 1143.7188,236.0762 Q1143.0313,234.998 1143.0313,233.7168 L1143.0313,232.5605 Q1143.0313,231.2324 1143.6406,230.0918 Q1144.2656,228.9355 1145.3594,228.3262 Q1146.4531,227.7012 1147.6875,227.7012 Q1148.4219,227.7012 1149.0625,227.873 Q1149.7188,228.0293 1150.2656,228.3887 Z " fill="#000000"/><text fill="#000000" font-family="sans-serif" font-size="14" lengthAdjust="spacing" textLength="53" x="1161.5" y="238.3105">Workout</text><line style="stroke:#181818;stroke-width:0.5;" x1="1133.5" x2="1216.5" y1="248.5137" y2="248.5137"/><line style="stroke:#181818;stroke-width:0.5;" x1="1133.5" x2="1216.5" y1="256.5137" y2="256.5137"/></g><!--class datasource--><g id="elem_datasource"><rect fill="#F1F1F1" height="48" id="datasource" rx="2.5" ry="2.5" style="stroke:#181818;stroke-width:0.5;" width="103" x="828.5" y="216.5137"/><ellipse cx="843.5" cy="232.5137" fill="#ADD1B2" rx="11" ry="11" style="stroke:#181818;stroke-width:1.0;"/><path d="M846.2656,228.3887 Q846.4219,228.1699 846.6094,228.0605 Q846.7969,227.9512 847.0156,227.9512 Q847.3906,227.9512 847.625,228.2168 Q847.8594,228.4668 847.8594,229.0762 L847.8594,230.5293 Q847.8594,231.1387 847.625,231.4043 Q847.3906,231.6699 847.0156,231.6699 Q846.6719,231.6699 846.4688,231.4668 Q846.2656,231.2793 846.1563,230.7637 Q846.1094,230.4043 845.9219,230.2168 Q845.5938,229.8418 844.9844,229.623 Q844.375,229.4043 843.75,229.4043 Q842.9844,229.4043 842.3438,229.7324 Q841.7188,230.0605 841.2188,230.8105 Q840.7344,231.5605 840.7344,232.5918 L840.7344,233.6855 Q840.7344,234.9199 841.625,235.748 Q842.5156,236.5605 844.1094,236.5605 Q845.0469,236.5605 845.7031,236.3105 Q846.0938,236.1543 846.5156,235.7168 Q846.7813,235.4512 846.9219,235.373 Q847.0781,235.2949 847.2813,235.2949 Q847.6094,235.2949 847.8594,235.5605 Q848.125,235.8105 848.125,236.1543 Q848.125,236.498 847.7813,236.9043 Q847.2813,237.4824 846.4844,237.8105 Q845.4063,238.2637 844.1094,238.2637 Q842.5938,238.2637 841.3906,237.6387 Q840.4063,237.1387 839.7188,236.0762 Q839.0313,234.998 839.0313,233.7168 L839.0313,232.5605 Q839.0313,231.2324 839.6406,230.0918 Q840.2656,228.9355 841.3594,228.3262 Q842.4531,227.7012 843.6875,227.7012 Q844.4219,227.7012 845.0625,227.873 Q845.7188,228.0293 846.2656,228.3887 Z " fill="#000000"/><text fill="#000000" font-family="sans-serif" font-size="14" lengthAdjust="spacing" textLength="71" x="857.5" y="238.3105">datasource</text><line style="stroke:#181818;stroke-width:0.5;" x1="829.5" x2="930.5" y1="248.5137" y2="248.5137"/><line style="stroke:#181818;stroke-width:0.5;" x1="829.5" x2="930.5" y1="256.5137" y2="256.5137"/></g><!--link WeeklyScreen to WeekEntry--><g id="link_WeeklyScreen_WeekEntry"><path codeLine="56" d="M613,110.2937 C613,127.4937 613,143.2537 613,163.9837 " fill="none" id="WeeklyScreen-to-WeekEntry" style="stroke:#181818;stroke-width:1.0;stroke-dasharray:7.0,7.0;"/><polygon fill="#181818" points="613,169.9837,617,160.9837,613,164.9837,609,160.9837,613,169.9837" style="stroke:#181818;stroke-width:1.0;"/></g><!--link WeeklyScreen to datasource--><g id="link_WeeklyScreen_datasource"><path codeLine="57" d="M760.68,110.1037 C770.23,114.4637 779.44,119.4137 788,125.0137 C823.63,148.3337 848.8886,184.7817 864.2486,210.9017 " fill="none" id="WeeklyScreen-to-datasource" style="stroke:#181818;stroke-width:1.0;stroke-dasharray:7.0,7.0;"/><polygon fill="#181818" points="867.29,216.0737,866.1759,206.288,864.7555,211.7637,859.2798,210.3433,867.29,216.0737" style="stroke:#181818;stroke-width:1.0;"/></g><!--link WeeklyScreen to components--><g id="link_WeeklyScreen_components"><path codeLine="58" d="M795.54,89.6837 C859.81,96.8137 922.61,107.9137 949,125.0137 C982.3,146.5937 1000.8647,183.9803 1011.0947,210.7003 " fill="none" id="WeeklyScreen-to-components" style="stroke:#181818;stroke-width:1.0;stroke-dasharray:7.0,7.0;"/><polygon fill="#181818" points="1013.24,216.3037,1013.7576,206.4684,1011.4523,211.6342,1006.2865,209.3288,1013.24,216.3037" style="stroke:#181818;stroke-width:1.0;"/></g><!--link WeeklyScreen to Workout--><g id="link_WeeklyScreen_Workout"><path codeLine="59" d="M795.72,80.3137 C909.15,84.9537 1042.45,96.5637 1092,125.0137 C1128.2,145.7937 1150.3935,184.0315 1162.9235,211.0215 " fill="none" id="WeeklyScreen-to-Workout" style="stroke:#181818;stroke-width:1.0;stroke-dasharray:7.0,7.0;"/><polygon fill="#181818" points="1165.45,216.4637,1165.2884,206.6161,1163.3446,211.9286,1158.0322,209.9848,1165.45,216.4637" style="stroke:#181818;stroke-width:1.0;"/></g><!--link WeekEntry to WorkoutEntry--><g id="link_WeekEntry_WorkoutEntry"><path codeLine="61" d="M507.46,311.0437 C477.31,330.9037 450.0211,348.8838 421.8511,367.4338 " fill="none" id="WeekEntry-to-WorkoutEntry" style="stroke:#181818;stroke-width:1.0;stroke-dasharray:7.0,7.0;"/><polygon fill="#181818" points="416.84,370.7337,426.5565,369.1247,421.0159,367.9838,422.1568,362.4432,416.84,370.7337" style="stroke:#181818;stroke-width:1.0;"/></g><!--link WeekEntry to NoWorkoutEntryVariant--><g id="link_WeekEntry_NoWorkoutEntryVariant"><path codeLine="62" d="M625.33,311.0437 C628.85,330.9037 631.5722,346.2759 634.8622,364.8259 " fill="none" id="WeekEntry-to-NoWorkoutEntryVariant" style="stroke:#181818;stroke-width:1.0;stroke-dasharray:7.0,7.0;"/><polygon fill="#181818" points="635.91,370.7337,638.2768,361.1734,635.0368,365.8105,630.3998,362.5705,635.91,370.7337" style="stroke:#181818;stroke-width:1.0;"/></g><!--link WorkoutEntry to DeleteConfirmationDialog--><g id="link_WorkoutEntry_DeleteConfirmationDialog"><path codeLine="64" d="M284.47,475.0137 C258.27,499.5137 231.3323,524.7055 205.1123,549.2255 " fill="none" id="WorkoutEntry-to-DeleteConfirmationDialog" style="stroke:#181818;stroke-width:1.0;stroke-dasharray:7.0,7.0;"/><polygon fill="#181818" points="200.73,553.3237,210.0356,550.0979,204.3819,549.9085,204.5714,544.2548,200.73,553.3237" style="stroke:#181818;stroke-width:1.0;"/></g><!--link WorkoutEntry to WorkoutDetailDialog--><g id="link_WorkoutEntry_WorkoutDetailDialog"><path codeLine="65" d="M351.49,475.2537 C356.72,496.7237 361.4286,516.0145 366.8786,538.3645 " fill="none" id="WorkoutEntry-to-WorkoutDetailDialog" style="stroke:#181818;stroke-width:1.0;stroke-dasharray:7.0,7.0;"/><polygon fill="#181818" points="368.3,544.1937,370.054,534.5023,367.1155,539.336,362.2817,536.3975,368.3,544.1937" style="stroke:#181818;stroke-width:1.0;"/></g><!--link NoWorkoutEntryVariant to AssignWorkoutDialog--><g id="link_NoWorkoutEntryVariant_AssignWorkoutDialog"><path codeLine="67" d="M645.28,475.2537 C645.39,493.8037 645.4668,509.0838 645.5768,528.9438 " fill="none" id="NoWorkoutEntryVariant-to-AssignWorkoutDialog" style="stroke:#181818;stroke-width:1.0;stroke-dasharray:7.0,7.0;"/><polygon fill="#181818" points="645.61,534.9437,649.5601,525.9217,645.5823,529.9437,641.5602,525.966,645.61,534.9437" style="stroke:#181818;stroke-width:1.0;"/></g><!--SRC=[ZLJ1Zi8W4Btp5NFKrEq7DBicnkvXazNBPlLCMZH42gRW6cFwxmijhRHGBKqQODumCxp7S5mGUSOPWIiX9tQ3EyeObX9WNwz_if8GhdS188AhA4_YedQKN3SY9oo1_M07Fk2ldS_c2rGXtaN8H74Md70bc_EWYMG2VN9LtknkEw8wfHJV4j0_-SKDS364DF5b0jzKgdURpd88mupjfo45jvQLbFJ84vZPzHpUbl3BgHhrg8j82IEA1DrglmgvfJkEJlKlAk-gxgxVjKrEnykcgTW2KugPEFOeYQ3EQwi97QLaCYE2hvcG9hFHYor4JW-Kb0bix4ohgvtwvwtoV9KfAaASQSTx5MAWkP-ru0TQ5jXuzmetv_OWVhuE1FFCl0aVyRGIFwcjS2dSuP9YhXvKJ9DpP7xFNv21lDRxk6vJeZ1btOMXDkfeM6iDghUsZQl2c2S8GgTPwK-FNl-Au-MZp_Yc72iinQNCY6-xqFZHk7npOJgTZ6qfJTZcFTSn7Hu7fY39sjzj2GOtfb0V6M05eR2M33pmtD4_]--></g></svg>